<?xml version="1.0" encoding="UTF-8" standalone="no"?><!DOCTYPE svg PUBLIC "-//W3C//DTD SVG 1.1//EN" "http://www.w3.org/Graphics/SVG/1.1/DTD/svg11.dtd"><svg width="100%" height="100%" viewBox="0 0 15 12" version="1.1" xmlns="http://www.w3.org/2000/svg" xmlns:xlink="http://www.w3.org/1999/xlink" xml:space="preserve" style="fill-rule:evenodd;clip-rule:evenodd;stroke-linejoin:round;stroke-miterlimit:1.41421;"><path d="M15,1.421c-0.552,0.24 -1.145,0.403 -1.768,0.476c0.636,-0.374 1.124,-0.968 1.354,-1.676c-0.595,0.348 -1.253,0.6 -1.955,0.735c-0.56,-0.588 -1.36,-0.956 -2.245,-0.956c-1.7,0 -3.078,1.356 -3.078,3.03c0,0.237 0.028,0.467 0.08,0.689c-2.559,-0.126 -4.826,-1.331 -6.344,-3.165c-0.265,0.448 -0.416,0.969 -0.416,1.523c0,1.051 0.543,1.979 1.369,2.522c-0.505,-0.016 -0.979,-0.152 -1.394,-0.379c-0.001,0.013 -0.001,0.025 -0.001,0.037c0,1.469 1.061,2.693 2.469,2.972c-0.258,0.069 -0.53,0.105 -0.811,0.105c-0.198,0 -0.391,-0.018 -0.579,-0.053c0.392,1.203 1.528,2.079 2.875,2.104c-1.054,0.812 -2.381,1.297 -3.822,1.297c-0.248,0 -0.493,-0.014 -0.734,-0.043c1.362,0.86 2.98,1.361 4.717,1.361c5.661,0 8.756,-4.616 8.756,-8.62c0,-0.13 -0.003,-0.262 -0.009,-0.391c0.602,-0.428 1.123,-0.961 1.536,-1.568l0,0Z" style="fill:#fff;"/></svg>