<svg width="34" height="42" viewBox="0 0 34 42" version="1.1" xmlns="http://www.w3.org/2000/svg" xmlns:xlink="http://www.w3.org/1999/xlink">
<title>icon</title>
<desc>Created using Figma</desc>
<g id="Canvas" transform="translate(-10917 -12565)">
<g id="icon">
<g id="Vector">
<use xlink:href="#path0_fill" transform="translate(10925.4 12565)" fill="#EEB969"/>
</g>
<g id="Vector">
<use xlink:href="#path1_fill" transform="translate(10917 12573.4)" fill="#EEB969"/>
</g>
</g>
</g>
<defs>
<path id="path0_fill" d="M 0.843308 10.5496L 15.9402 10.5496C 16.4032 10.5496 16.7835 10.1776 16.7835 9.7063L 16.7835 5.04331C 16.7835 4.58032 16.4114 4.2 15.9402 4.2L 12.6083 4.2C 12.6 1.87677 10.7232 0 8.4 0C 6.07677 0 4.2 1.87677 4.2 4.2L 0.843308 4.2C 0.380316 4.2 -5.04621e-07 4.57205 -5.04621e-07 5.04331L -5.04621e-07 9.71457C -5.04621e-07 10.1776 0.372048 10.5496 0.843308 10.5496Z"/>
<path id="path1_fill" d="M 31.5 0L 29.3752 0L 29.3752 5.5063C 29.3752 5.96929 29.0032 6.34961 28.5319 6.34961L 5.04331 6.34961C 4.58032 6.34961 4.2 5.97756 4.2 5.5063L 4.2 0L 2.1 0C 0.94252 0 0 0.94252 0 2.1L 0 31.5C 0 32.6575 0.94252 33.6 2.1 33.6L 31.5 33.6C 32.6575 33.6 33.6 32.6575 33.6 31.5L 33.6 2.1C 33.6 0.94252 32.6575 0 31.5 0ZM 24.5882 16.1882L 14.0882 26.6882C 13.6748 27.1016 13.1374 27.3 12.6 27.3C 12.0626 27.3 11.5252 27.0933 11.1118 26.6882L 6.91181 22.4882C 6.09331 21.6697 6.09331 20.3386 6.91181 19.5201C 7.73031 18.7016 9.06142 18.7016 9.87992 19.5201L 12.5917 22.2319L 21.6035 13.2201C 22.4221 12.4016 23.7532 12.4016 24.5717 13.2201C 25.4067 14.0386 25.4067 15.3614 24.5882 16.1882Z"/>
</defs>
</svg>
