<svg width="42" height="42" viewBox="0 0 42 42" version="1.1" xmlns="http://www.w3.org/2000/svg" xmlns:xlink="http://www.w3.org/1999/xlink">
<title>Vector</title>
<desc>Created using Figma</desc>
<g id="Canvas" transform="translate(-10537 -12568)">
<g id="Vector">
<use xlink:href="#path0_fill" transform="translate(10537 12568)" fill="#5E98DC"/>
</g>
</g>
<defs>
<path id="path0_fill" d="M 40.3846 0L 1.61538 0C 0.723692 0 0 0.723692 0 1.61538L 0 40.3846C 0 41.2763 0.723692 42 1.61538 42L 40.3846 42C 41.2763 42 42 41.2763 42 40.3846L 42 1.61538C 42 0.723692 41.2763 0 40.3846 0ZM 5.31946 18.9113C 4.68865 18.2805 4.68865 17.258 5.31946 16.6272C 5.94946 15.9963 6.97361 15.9963 7.60361 16.6272L 10.8344 19.8579C 11.4652 20.4887 11.4652 21.5113 10.8344 22.1421L 7.60361 25.3728C 7.28861 25.6887 6.87508 25.8462 6.46154 25.8462C 6.048 25.8462 5.63446 25.6887 5.31946 25.3728C 4.68865 24.742 4.68865 23.7195 5.31946 23.0887L 7.40735 21L 5.31946 18.9113ZM 35.5385 35.5385L 6.46154 35.5385C 5.56985 35.5385 4.84615 34.8148 4.84615 33.9231C 4.84615 33.0314 5.56985 32.3077 6.46154 32.3077L 35.5385 32.3077C 36.4302 32.3077 37.1538 33.0314 37.1538 33.9231C 37.1538 34.8148 36.4302 35.5385 35.5385 35.5385ZM 35.5385 22.6154L 16.1538 22.6154C 15.2622 22.6154 14.5385 21.8917 14.5385 21C 14.5385 20.1083 15.2622 19.3846 16.1538 19.3846L 35.5385 19.3846C 36.4302 19.3846 37.1538 20.1083 37.1538 21C 37.1538 21.8917 36.4302 22.6154 35.5385 22.6154ZM 35.5385 9.69231L 6.46154 9.69231C 5.56985 9.69231 4.84615 8.96862 4.84615 8.07692C 4.84615 7.18523 5.56985 6.46154 6.46154 6.46154L 35.5385 6.46154C 36.4302 6.46154 37.1538 7.18523 37.1538 8.07692C 37.1538 8.96862 36.4302 9.69231 35.5385 9.69231Z"/>
</defs>
</svg>
