<?xml version="1.0" encoding="UTF-8" standalone="no"?><!DOCTYPE svg PUBLIC "-//W3C//DTD SVG 1.1//EN" "http://www.w3.org/Graphics/SVG/1.1/DTD/svg11.dtd"><svg width="100%" height="100%" viewBox="0 0 32 32" version="1.1" xmlns="http://www.w3.org/2000/svg" xmlns:xlink="http://www.w3.org/1999/xlink" xml:space="preserve" style="fill-rule:evenodd;clip-rule:evenodd;"><g id="Award-1st-Copy-2"><path id="Fill-62" d="M1.37,19.905l3.454,0.224l-0.848,3.27l2.677,-0.659l-2.002,6.762l4.579,-0.442l3.13,2.94l3.64,-5.688l3.64,5.688l3.121,-2.771l4.588,0.273l-2.002,-6.762l2.677,0.659l-0.848,-3.27l3.454,-0.224l-1.844,-2.855l3.214,-1.254l-2.66,-2.159l2.66,-2.16l-3.214,-1.254l1.844,-2.855l-3.454,-0.224l0.848,-3.27l-3.356,0.827l-0.23,-3.366l-2.93,1.797l-1.286,-3.132l-4.222,2.591l-4.222,-2.591l-1.286,3.132l-2.93,-1.797l-0.23,3.366l-3.356,-0.827l0.848,3.27l-3.454,0.224l1.844,2.855l-3.214,1.254l2.659,2.16l-2.659,2.159l3.214,1.254l-1.844,2.855Zm26.64,-6.268c0,2.603 -1.041,5.052 -2.931,6.893c-1.889,1.841 -6.407,2.855 -9.079,2.855c-5.517,0 -12.01,-4.373 -12.01,-9.748c0,-5.376 6.493,-9.749 12.01,-9.749c5.517,0 12.01,4.373 12.01,9.749Z" style="fill:#0082d5;fill-opacity:0.4;"/><path id="Fill-621" d="M25.322,13.637c0,2.947 -1.178,5.719 -3.318,7.803c-2.139,2.085 -4.984,3.233 -8.009,3.233c-6.245,0 -11.327,-4.951 -11.327,-11.036c0,-6.086 5.082,-11.037 11.327,-11.037c6.246,0 11.327,4.951 11.327,11.037Zm-1.322,0c0,2.603 -1.041,5.052 -2.93,6.893c-1.89,1.841 -4.403,2.855 -7.075,2.855c-5.517,0 -10.005,-4.373 -10.005,-9.748c0,-5.376 4.488,-9.749 10.005,-9.749c5.517,0 10.005,4.373 10.005,9.749Z" style="fill:#0082d5;"/><path id="Fill-63" d="M14.035,23.026c5.292,0 9.597,-4.195 9.597,-9.351c0,-5.156 -4.305,-9.351 -9.597,-9.351c-5.292,0 -9.597,4.195 -9.597,9.351c0,5.156 4.305,9.351 9.597,9.351Zm0,-17.635c4.695,0 8.502,3.709 8.502,8.284c0,4.575 -3.807,8.284 -8.502,8.284c-4.695,0 -8.502,-3.709 -8.502,-8.284c0,-4.575 3.807,-8.284 8.502,-8.284Z" style="fill:#0082d5;"/><path id="Fill-65" d="M14.083,23.471c2.673,0 5.185,-1.014 7.075,-2.855c1.89,-1.842 2.931,-4.29 2.931,-6.893c0,-5.376 -4.489,-9.749 -10.006,-9.749c-5.516,0 -10.005,4.373 -10.005,9.749c0,5.375 4.489,9.748 10.005,9.748Zm0,-19.1c5.292,0 9.597,4.195 9.597,9.352c0,5.155 -4.305,9.35 -9.597,9.35c-5.291,0 -9.596,-4.195 -9.596,-9.35c0,-5.157 4.305,-9.352 9.596,-9.352Z" style="fill:#fff;"/><g id="Rectangle-2"><path id="path-1" d="M29.07,13.562c0,-5.795 -4.704,-10.5 -10.5,-10.5l-5.063,0c-5.795,0 -10.5,4.705 -10.5,10.5l0,0.433c0,5.795 4.705,10.5 10.5,10.5l5.063,0c5.796,0 10.5,-4.705 10.5,-10.5l0,-0.433Z" style="fill:#fff;"/><path d="M28.569,13.572c0,-5.519 -4.481,-10 -10,-10l-5.06,0c-5.52,0 -10,4.481 -10,10l0,0.413c0,5.519 4.48,10 10,10l5.06,0c5.519,0 10,-4.481 10,-10l0,-0.413Z" style="fill:none;stroke:#0082d5;stroke-width:1.01px;"/></g><g id="Rectangle-2-Copy"><path id="path-2" d="M27.066,13.603c0,-4.691 -3.809,-8.5 -8.5,-8.5l-5.054,0c-4.691,0 -8.5,3.809 -8.5,8.5l0,0.351c0,4.691 3.809,8.5 8.5,8.5l5.054,0c4.691,0 8.5,-3.809 8.5,-8.5l0,-0.351Z" style="fill:#fff;"/><path d="M26.564,13.613c0,-4.415 -3.584,-8 -8,-8l-5.051,0c-4.415,0 -8,3.585 -8,8l0,0.33c0,4.416 3.585,8 8,8l5.051,0c4.416,0 8,-3.584 8,-8l0,-0.33Z" style="fill:none;stroke:#0082d5;stroke-width:1.01px;"/></g><g id="_10"><text x="8.701px" y="17.979px" style="font-family:'Roboto-Medium', 'Roboto';font-weight:500;font-size:12.247px;fill:#0082d5;">1<tspan x="15.538px " y="17.979px ">0</tspan></text></g></g></svg>