<?xml version="1.0" encoding="UTF-8" standalone="no"?><!DOCTYPE svg PUBLIC "-//W3C//DTD SVG 1.1//EN" "http://www.w3.org/Graphics/SVG/1.1/DTD/svg11.dtd"><svg width="100%" height="100%" viewBox="0 0 28 32" version="1.1" xmlns="http://www.w3.org/2000/svg" xmlns:xlink="http://www.w3.org/1999/xlink" xml:space="preserve" style="fill-rule:evenodd;clip-rule:evenodd;stroke-linejoin:round;stroke-miterlimit:1.41421;"><g id="Award-1st-Copy-2"><path id="Fill-62" d="M1.37,19.905l3.456,0.224l-0.849,3.27l2.678,-0.659l-3.005,6.762l4.581,-0.442l3.131,2.94l2.638,-5.688l2.638,5.688l3.122,-2.771l4.59,0.273l-3.005,-6.762l2.678,0.659l-0.849,-3.27l3.456,-0.224l-1.845,-2.855l3.215,-1.254l-2.66,-2.159l2.66,-2.16l-3.215,-1.254l1.845,-2.855l-3.456,-0.224l0.849,-3.27l-3.358,0.827l-0.23,-3.366l-2.931,1.797l-1.287,-3.132l-2.217,2.591l-2.218,-2.591l-1.286,3.132l-2.931,-1.797l-0.23,3.366l-3.358,-0.827l0.849,3.27l-3.456,0.224l1.845,2.855l-3.215,1.254l2.66,2.16l-2.66,2.159l3.215,1.254l-1.845,2.855Zm12.63,-16.017c5.519,0 10.009,4.373 10.009,9.749c0,2.603 -1.042,5.052 -2.932,6.893c-1.89,1.841 -4.404,2.855 -7.077,2.855c-5.519,0 -10.009,-4.373 -10.009,-9.748c0,-5.376 4.49,-9.749 10.009,-9.749Z" style="fill:#0082d5;fill-opacity:0.4;"/><path id="Fill-621" d="M25.331,13.637c0,2.947 -1.179,5.719 -3.319,7.803c-2.14,2.085 -4.986,3.233 -8.012,3.233c-6.248,0 -11.331,-4.951 -11.331,-11.036c0,-6.086 5.083,-11.037 11.331,-11.037c6.248,0 11.331,4.951 11.331,11.037Zm-1.322,0c0,2.603 -1.042,5.052 -2.932,6.893c-1.89,1.841 -4.404,2.855 -7.077,2.855c-5.519,0 -10.009,-4.373 -10.009,-9.748c0,-5.376 4.49,-9.749 10.009,-9.749c5.519,0 10.009,4.373 10.009,9.749Z" style="fill:#0082d5;"/><path id="Fill-63" d="M14.04,23.026c5.293,0 9.6,-4.195 9.6,-9.351c0,-5.156 -4.307,-9.351 -9.6,-9.351c-5.294,0 -9.6,4.195 -9.6,9.351c0,5.156 4.306,9.351 9.6,9.351Zm0,-17.635c4.697,0 8.505,3.709 8.505,8.284c0,4.575 -3.808,8.284 -8.505,8.284c-4.697,0 -8.505,-3.709 -8.505,-8.284c0,-4.575 3.808,-8.284 8.505,-8.284Z" style="fill:#0082d5;"/><path id="Fill-65" d="M14.088,23.471c2.674,0 5.187,-1.014 7.077,-2.855c1.891,-1.842 2.932,-4.29 2.932,-6.893c0,-5.376 -4.49,-9.749 -10.009,-9.749c-5.518,0 -10.008,4.373 -10.008,9.749c0,5.375 4.49,9.748 10.008,9.748Zm0,-19.1c5.294,0 9.601,4.195 9.601,9.352c0,5.155 -4.307,9.35 -9.601,9.35c-5.293,0 -9.6,-4.195 -9.6,-9.35c0,-5.157 4.307,-9.352 9.6,-9.352Z" style="fill:#fff;"/><g id="_1"><text x="10.529px" y="17.769px" style="font-family:'Roboto-Medium', 'Roboto';font-weight:500;font-size:12.247px;fill:#0082d5;">1</text></g></g></svg>