<svg width="40" height="48" viewBox="0 0 40 48" version="1.1" xmlns="http://www.w3.org/2000/svg" xmlns:xlink="http://www.w3.org/1999/xlink">
<g fill="none">
<path d="M 8.39648 0L 1 0C 0.447266 0 1.25e-08 0.447266 1.25e-08 1C 1.25e-08 1.55273 0.447266 2 1 2L 8.39648 2C 8.94922 2 9.39648 1.55273 9.39648 1C 9.39648 0.447266 8.94922 0 8.39648 0Z" transform="translate(15.3018 42.7656)" fill="url(#paint0_linear)"/>
<path d="M 3.57422 0L 1 0C 0.447266 0 2.5e-08 0.447266 2.5e-08 1C 2.5e-08 1.55273 0.447266 2 1 2L 3.57422 2C 4.12695 2 4.57422 1.55273 4.57422 1C 4.57422 0.447266 4.12695 0 3.57422 0Z" transform="translate(17.7129 46)" fill="url(#paint1_linear)"/>
<path d="M 3.01367 -2.5e-08L 1 -2.5e-08C 0.447266 -2.5e-08 2.5e-08 0.447266 2.5e-08 1C 2.5e-08 1.55273 0.447266 2 1 2L 3.01367 2C 3.56641 2 4.01367 1.55273 4.01367 1C 4.01367 0.447266 3.56641 -2.5e-08 3.01367 -2.5e-08Z" transform="translate(35.8457 19.584)" fill="url(#paint2_linear)"/>
<path d="M 1.7168 0.292969L 0.292969 1.71777C -0.0976563 2.1084 -0.0976563 2.74219 0.292969 3.13184C 0.488281 3.32715 0.744141 3.4248 1 3.4248C 1.25586 3.4248 1.51172 3.32715 1.70703 3.13184L 3.13086 1.70703C 3.52148 1.31641 3.52148 0.682617 3.13086 0.292969C 2.74023 -0.0976563 2.10742 -0.0976563 1.7168 0.292969Z" transform="translate(31.4238 6.03613)" fill="url(#paint3_linear)"/>
<path d="M 1 4.01465C 1.55273 4.01465 2 3.56738 2 3.01465L 2 1C 2 0.447266 1.55273 0 1 0C 0.447266 0 -2.5e-08 0.447266 -2.5e-08 1L -2.5e-08 3.01465C -2.5e-08 3.56738 0.447266 4.01465 1 4.01465Z" transform="translate(19.7246 0)" fill="url(#paint4_linear)"/>
<path d="M 1.71777 3.13086C 1.91309 3.32617 2.16895 3.42383 2.4248 3.42383C 2.68066 3.42383 2.93652 3.32617 3.13184 3.13086C 3.52246 2.74023 3.52246 2.10645 3.13184 1.7168L 1.70703 0.292969C 1.31641 -0.0976562 0.683594 -0.0976562 0.292969 0.292969C -0.0976564 0.683594 -0.0976564 1.31738 0.292969 1.70703L 1.71777 3.13086Z" transform="translate(6.17676 5.01172)" fill="url(#paint5_linear)"/>
<path d="M 3.01465 2.5e-08L 1 2.5e-08C 0.447266 2.5e-08 0 0.447266 0 1C 0 1.55273 0.447266 2 1 2L 3.01465 2C 3.56738 2 4.01465 1.55273 4.01465 1C 4.01465 0.447266 3.56738 2.5e-08 3.01465 2.5e-08Z" transform="translate(0.140625 18.1348)" fill="url(#paint6_linear)"/>
<path d="M 13.7807 0.0163465C 6.45071 0.356373 0.400663 6.36638 0.0206585 13.7063C -0.219332 18.2663 1.64065 22.5763 5.1307 25.5264C 8.09067 28.0264 9.78067 31.5364 9.78067 35.1464C 9.78067 35.7063 10.2307 36.1464 10.7807 36.1464L 13.4812 36.1464L 13.4812 18.8122L 10.5115 15.9188C 10.116 15.534 10.1082 14.9002 10.4939 14.5047C 10.8797 14.1082 11.5144 14.1023 11.908 14.4871L 14.4813 16.9944L 17.0564 14.4861C 17.4519 14.1023 18.0847 14.1082 18.4705 14.5057C 18.8553 14.9012 18.8474 15.534 18.451 15.9197L 15.4812 18.8124L 15.4812 36.1464L 18.1807 36.1464C 18.7307 36.1464 19.1807 35.7063 19.1807 35.1464C 19.1807 31.4264 20.7907 27.9963 23.5907 25.7264C 27.0007 22.9664 28.9607 18.8664 28.9607 14.4764C 28.9607 6.26635 22.1007 -0.373668 13.7807 0.0163465Z" transform="translate(5.51855 5.38086)" fill="url(#paint7_linear)"/>
</g>
<defs>
<linearGradient id="paint0_linear" x2="1" gradientUnits="userSpaceOnUse" gradientTransform="matrix(0 2 -9.39648 0 9.39648 0)">
<stop stop-color="#B649AA"/>
<stop offset="1" stop-color="#D56B91"/>
</linearGradient>
<linearGradient id="paint1_linear" x2="1" gradientUnits="userSpaceOnUse" gradientTransform="matrix(0 2 -4.57422 0 4.57422 0)">
<stop stop-color="#B649AA"/>
<stop offset="1" stop-color="#D56B91"/>
</linearGradient>
<linearGradient id="paint2_linear" x2="1" gradientUnits="userSpaceOnUse" gradientTransform="matrix(0 2 -4.01367 0 4.01367 0)">
<stop stop-color="#B649AA"/>
<stop offset="1" stop-color="#D56B91"/>
</linearGradient>
<linearGradient id="paint3_linear" x2="1" gradientUnits="userSpaceOnUse" gradientTransform="matrix(0 3.4248 -3.42383 0 3.42383 0)">
<stop stop-color="#B649AA"/>
<stop offset="1" stop-color="#D56B91"/>
</linearGradient>
<linearGradient id="paint4_linear" x2="1" gradientUnits="userSpaceOnUse" gradientTransform="matrix(0 4.01465 -2 0 2 0)">
<stop stop-color="#B649AA"/>
<stop offset="1" stop-color="#D56B91"/>
</linearGradient>
<linearGradient id="paint5_linear" x2="1" gradientUnits="userSpaceOnUse" gradientTransform="matrix(0 3.42383 -3.4248 0 3.4248 0)">
<stop stop-color="#B649AA"/>
<stop offset="1" stop-color="#D56B91"/>
</linearGradient>
<linearGradient id="paint6_linear" x2="1" gradientUnits="userSpaceOnUse" gradientTransform="matrix(0 2 -4.01465 0 4.01465 0)">
<stop stop-color="#B649AA"/>
<stop offset="1" stop-color="#D56B91"/>
</linearGradient>
<linearGradient id="paint7_linear" x2="1" gradientUnits="userSpaceOnUse" gradientTransform="matrix(0 36.1464 -28.9607 0 28.9607 0)">
<stop stop-color="#B649AA"/>
<stop offset="1" stop-color="#D56B91"/>
</linearGradient>
</defs>
</svg>
