<svg width="64" height="64" viewBox="0 0 64 64" version="1.1" xmlns="http://www.w3.org/2000/svg" xmlns:xlink="http://www.w3.org/1999/xlink">
<g fill="none">
<path fill-rule="evenodd" clip-rule="evenodd" d="M 0 0L 64 0L 64 64L 0 64L 0 0Z" fill="white" fill-opacity="0.01"/>
<path d="M 44.5905 4.86495e-08L 3.40953 4.86495e-08C 1.53764 4.86495e-08 -2.03691e-08 1.54008 -2.03691e-08 3.41495L -2.03691e-08 31.2294C -2.03691e-08 33.1177 1.53764 34.6444 3.40953 34.6444L 4.9337 34.6444L 4.9337 41.5544C 4.9337 42.1035 5.28135 42.6124 5.80282 42.7999C 5.96326 42.8668 6.1237 42.8936 6.27075 42.8936C 6.65855 42.8936 7.01949 42.7329 7.28692 42.4383L 14.0658 34.6444L 44.5905 34.6444C 46.4757 34.6444 48 33.1177 48 31.2294L 48 3.41495C 48 1.54008 46.4757 4.86495e-08 44.5905 4.86495e-08ZM 11.9399 21.4401C 9.6669 21.4401 7.80839 19.5787 7.80839 17.3021C 7.80839 15.0255 9.6669 13.1775 11.9399 13.1775C 14.2128 13.1775 16.0579 15.0255 16.0579 17.3021C 16.0579 19.5787 14.2128 21.4401 11.9399 21.4401ZM 24 21.4401C 21.727 21.4401 19.882 19.5787 19.882 17.3021C 19.882 15.0255 21.727 13.1775 24 13.1775C 26.273 13.1775 28.1181 15.0255 28.1181 17.3021C 28.1181 19.5787 26.273 21.4401 24 21.4401ZM 36.0602 21.4401C 33.7872 21.4401 31.9421 19.5787 31.9421 17.3021C 31.9421 15.0255 33.7872 13.1775 36.0602 13.1775C 38.3332 13.1775 40.1916 15.0255 40.1916 17.3021C 40.1916 19.5787 38.3332 21.4401 36.0602 21.4401Z" transform="translate(8 11)" fill="url(#paint0_linear)"/>
<path d="M 44.5905 4.86495e-08L 3.40953 4.86495e-08C 1.53764 4.86495e-08 -2.03691e-08 1.54008 -2.03691e-08 3.41495L -2.03691e-08 31.2294C -2.03691e-08 33.1177 1.53764 34.6444 3.40953 34.6444L 4.9337 34.6444L 4.9337 41.5544C 4.9337 42.1035 5.28135 42.6124 5.80282 42.7999C 5.96326 42.8668 6.1237 42.8936 6.27075 42.8936C 6.65855 42.8936 7.01949 42.7329 7.28692 42.4383L 14.0658 34.6444L 44.5905 34.6444C 46.4757 34.6444 48 33.1177 48 31.2294L 48 3.41495C 48 1.54008 46.4757 4.86495e-08 44.5905 4.86495e-08ZM 11.9399 21.4401C 9.6669 21.4401 7.80839 19.5787 7.80839 17.3021C 7.80839 15.0255 9.6669 13.1775 11.9399 13.1775C 14.2128 13.1775 16.0579 15.0255 16.0579 17.3021C 16.0579 19.5787 14.2128 21.4401 11.9399 21.4401ZM 24 21.4401C 21.727 21.4401 19.882 19.5787 19.882 17.3021C 19.882 15.0255 21.727 13.1775 24 13.1775C 26.273 13.1775 28.1181 15.0255 28.1181 17.3021C 28.1181 19.5787 26.273 21.4401 24 21.4401ZM 36.0602 21.4401C 33.7872 21.4401 31.9421 19.5787 31.9421 17.3021C 31.9421 15.0255 33.7872 13.1775 36.0602 13.1775C 38.3332 13.1775 40.1916 15.0255 40.1916 17.3021C 40.1916 19.5787 38.3332 21.4401 36.0602 21.4401Z" transform="translate(8 11)" fill="url(#paint1_linear)"/>
</g>
<defs>
<linearGradient id="paint0_linear" x2="1" gradientUnits="userSpaceOnUse" gradientTransform="matrix(0 42.8936 -48 0 48 0)">
<stop stop-color="#5E9FAA"/>
<stop offset="1" stop-color="#86E4D9"/>
</linearGradient>
<linearGradient id="paint1_linear" x2="1" gradientUnits="userSpaceOnUse" gradientTransform="matrix(0 42.8936 -48 0 48 0)">
<stop stop-color="#49A4B1"/>
<stop offset="1" stop-color="#72E1BA"/>
</linearGradient>
</defs>
</svg>
