<svg width="64" height="64" viewBox="0 0 64 64" version="1.1" xmlns="http://www.w3.org/2000/svg" xmlns:xlink="http://www.w3.org/1999/xlink">
<g fill="none">
<path fill-rule="evenodd" clip-rule="evenodd" d="M 0 0L 64 0L 64 64L 0 64L 0 0Z" fill="white" fill-opacity="0.01"/>
<path d="M 31.4406 27.6048C 31.4406 28.5888 30.6432 29.3862 29.6592 29.3862C 28.6752 29.3862 27.8778 28.5888 27.8778 27.6048C 27.8778 26.6208 28.6752 25.8234 29.6592 25.8234C 30.6426 25.8234 31.4406 26.6208 31.4406 27.6048ZM 45.0621 23.9979C 45.0621 27.1712 48.9328 31.0942 47.7884 33.8533C 46.6019 36.7138 41.0486 36.7372 38.8925 38.8925C 36.7364 41.0479 36.7138 46.6012 33.8533 47.7876C 31.0934 48.9328 27.1705 45.0621 23.9979 45.0621C 20.8238 45.0621 16.9024 48.9328 14.1433 47.7884C 11.2828 46.6027 11.2602 41.0486 9.10565 38.8925C 6.9511 36.7364 1.39701 36.713 0.211312 33.8517C -0.932268 31.0926 2.93843 27.1712 2.93843 23.9979C 2.93843 20.8246 -0.932269 16.9032 0.212091 14.1441C 1.39779 11.2844 6.95032 11.2618 9.10642 9.10643C 11.2618 6.9511 11.2844 1.39779 14.1441 0.211312C 16.9032 -0.932268 20.8246 2.93843 23.9979 2.93843C 27.1712 2.93843 31.0926 -0.932267 33.8525 0.212093C 36.7122 1.3978 36.7349 6.95188 38.891 9.10643C 41.0463 11.2625 46.6012 11.2836 47.7876 14.1433C 48.932 16.9024 45.0621 20.8254 45.0621 23.9979ZM 20.1228 20.3736C 20.1228 19.3896 19.3254 18.5922 18.3414 18.5922C 17.3574 18.5922 16.56 19.3896 16.56 20.3736C 16.56 21.3576 17.3574 22.155 18.3414 22.155C 19.3248 22.1556 20.1228 21.3576 20.1228 20.3736ZM 33.9558 27.6048C 33.9558 25.2318 32.0322 23.3082 29.6592 23.3082C 27.2862 23.3082 25.3626 25.2318 25.3626 27.6048C 25.3626 29.9778 27.2862 31.9014 29.6592 31.9014C 32.0316 31.9014 33.9558 29.9778 33.9558 27.6048ZM 18.3408 24.6702C 20.7138 24.6702 22.6374 22.7466 22.6374 20.3736C 22.6374 18.0006 20.7138 16.077 18.3408 16.077C 15.9678 16.077 14.0442 18.0006 14.0442 20.3736C 14.0442 22.7466 15.9684 24.6702 18.3408 24.6702ZM 30.4332 17.883C 30.8028 17.4378 30.7416 16.7772 30.2964 16.4076C 29.8512 16.038 29.1906 16.0992 28.821 16.5444L 17.5536 30.117C 17.184 30.5622 17.2452 31.2228 17.6904 31.5924C 18.1356 31.962 18.7962 31.9008 19.1658 31.4556L 30.4332 17.883Z" transform="translate(8 8)" fill="url(#paint0_linear)"/>
</g>
<defs>
<linearGradient id="paint0_linear" x2="1" gradientUnits="userSpaceOnUse" gradientTransform="matrix(0 48 -48 0 48 0)">
<stop stop-color="#6773EF"/>
<stop offset="1" stop-color="#5DA5EE"/>
</linearGradient>
</defs>
</svg>
