<svg width="64" height="64" viewBox="0 0 64 64" version="1.1" xmlns="http://www.w3.org/2000/svg" xmlns:xlink="http://www.w3.org/1999/xlink">
<title>icon</title>
<desc>Created using Figma</desc>
<g id="Canvas" transform="translate(-3904 -5884)">
<g id="icon">
<g id="shape">
<use xlink:href="#path0_fill" transform="translate(3904 5884)" fill="#FFFFFF" fill-opacity="0.01"/>
</g>
<g id="Page 1">
<g id="noun 1542469 cc">
<g id="Group">
<g id="Shape">
<use xlink:href="#path1_fill" transform="translate(3912.38 5900.28)" fill="#7249C4"/>
</g>
<g id="Shape">
<use xlink:href="#path2_fill" transform="translate(3922.31 5908.03)" fill="#7249C4"/>
</g>
<g id="Shape">
<use xlink:href="#path3_fill" transform="translate(3914.94 5912.76)" fill="#7249C4"/>
</g>
<g id="Shape">
<use xlink:href="#path4_fill" transform="translate(3919.17 5916.34)" fill="#7249C4"/>
</g>
<g id="Shape">
<use xlink:href="#path5_fill" transform="translate(3913.32 5916.34)" fill="#7249C4"/>
</g>
<g id="Shape">
<use xlink:href="#path6_fill" transform="translate(3925.02 5916.34)" fill="#7249C4"/>
</g>
<g id="Shape">
<use xlink:href="#path7_fill" transform="translate(3919.04 5919.55)" fill="#7249C4"/>
</g>
<g id="Shape">
<use xlink:href="#path8_fill" transform="translate(3909 5895)" fill="#B8A4E1"/>
</g>
<g id="Shape">
<use xlink:href="#path9_fill" transform="translate(3941.38 5900.28)" fill="#7249C4"/>
</g>
<g id="Shape">
<use xlink:href="#path10_fill" transform="translate(3951.31 5908.03)" fill="#7249C4"/>
</g>
<g id="Shape">
<use xlink:href="#path11_fill" transform="translate(3943.94 5912.76)" fill="#7249C4"/>
</g>
<g id="Shape">
<use xlink:href="#path12_fill" transform="translate(3943.94 5916.34)" fill="#7249C4"/>
</g>
<g id="Shape">
<use xlink:href="#path13_fill" transform="translate(3943.94 5919.91)" fill="#7249C4"/>
</g>
</g>
</g>
</g>
</g>
</g>
<defs>
<path id="path0_fill" fill-rule="evenodd" d="M 0 0L 64 0L 64 64L 0 64L 0 0Z"/>
<path id="path1_fill" d="M 4.99582 9.99164C 7.75045 9.99164 9.99164 7.75045 9.99164 4.99582C 9.99164 2.2412 7.75045 -1.30654e-08 4.99582 -1.30654e-08C 2.2412 -1.30654e-08 -1.74206e-08 2.2412 -1.74206e-08 4.99582C -1.74206e-08 7.75045 2.2412 9.99164 4.99582 9.99164ZM 4.99582 1.74206C 6.78994 1.74206 8.24959 3.20171 8.24959 4.99582C 8.24959 6.78994 6.78994 8.24959 4.99582 8.24959C 3.20171 8.24959 1.74206 6.78994 1.74206 4.99582C 1.74206 3.20171 3.20171 1.74206 4.99582 1.74206Z"/>
<path id="path2_fill" d="M 0.871028 1.74206L 6.15096 1.74206C 6.63206 1.74206 7.02198 1.35213 7.02198 0.871028C 7.02198 0.389921 6.63206 2.17757e-08 6.15096 2.17757e-08L 0.871028 2.17757e-08C 0.389921 2.17757e-08 2.61308e-08 0.389921 2.61308e-08 0.871028C 2.61308e-08 1.35213 0.389921 1.74206 0.871028 1.74206Z"/>
<path id="path3_fill" d="M 14.3917 0.871028C 14.3917 0.389921 14.0018 -8.71028e-09 13.5207 -8.71028e-09L 0.871028 -8.71028e-09C 0.389921 -8.71028e-09 -2.61308e-08 0.389921 -2.61308e-08 0.871028C -2.61308e-08 1.35213 0.389921 1.74206 0.871028 1.74206L 13.5207 1.74206C 14.0018 1.74206 14.3917 1.35213 14.3917 0.871028Z"/>
<path id="path4_fill" d="M 0.871028 -1.30654e-08C 0.389921 -1.30654e-08 2.17757e-08 0.389921 2.17757e-08 0.871028C 2.17757e-08 1.35213 0.389921 1.74206 0.871028 1.74206L 3.79544 1.74206C 4.27654 1.74206 4.66647 1.35213 4.66647 0.871028C 4.66647 0.389921 4.27654 -1.30654e-08 3.79544 -1.30654e-08L 0.871028 -1.30654e-08Z"/>
<path id="path5_fill" d="M 3.79544 -1.30654e-08L 0.871028 -1.30654e-08C 0.389921 -1.30654e-08 -3.91963e-08 0.389921 -3.91963e-08 0.871028C -3.91963e-08 1.35213 0.389921 1.74206 0.871028 1.74206L 3.79544 1.74206C 4.27654 1.74206 4.66647 1.35213 4.66647 0.871028C 4.66647 0.389921 4.27654 -1.30654e-08 3.79544 -1.30654e-08Z"/>
<path id="path6_fill" d="M 0.871028 1.74206L 3.79544 1.74206C 4.27654 1.74206 4.66647 1.35213 4.66647 0.871028C 4.66647 0.389921 4.27654 -1.30654e-08 3.79544 -1.30654e-08L 0.871028 -1.30654e-08C 0.389921 -1.30654e-08 1.30654e-08 0.389921 1.30654e-08 0.871028C 1.30654e-08 1.35213 0.389921 1.74206 0.871028 1.74206Z"/>
<path id="path7_fill" d="M 4.66612 0.255184C 4.32588 -0.0850613 3.77468 -0.0850613 3.43444 0.255184L 2.46065 1.22897L 1.48687 0.255184C 1.14663 -0.0850613 0.595429 -0.0850613 0.255184 0.255184C -0.0850613 0.595429 -0.0850614 1.14663 0.255184 1.48687L 1.22897 2.46065L 0.255184 3.43444C -0.0850614 3.77468 -0.0850614 4.32588 0.255184 4.66612C 0.425307 4.83625 0.648167 4.92131 0.871028 4.92131C 1.09389 4.92131 1.31675 4.83625 1.48687 4.66612L 2.46065 3.69234L 3.43444 4.66612C 3.60456 4.83625 3.82742 4.92131 4.05028 4.92131C 4.27314 4.92131 4.496 4.83625 4.66612 4.66612C 5.00637 4.32588 5.00637 3.77468 4.66612 3.43444L 3.69234 2.46065L 4.66612 1.48687C 5.00637 1.14663 5.00637 0.595429 4.66612 0.255184Z"/>
<path id="path8_fill" d="M 53.9946 7.90802C 53.9923 7.80132 53.9713 7.6978 53.9309 7.599C 53.9306 7.59832 53.9304 7.59768 53.9302 7.597C 53.8872 7.49263 53.8313 7.39315 53.7482 7.31017L 47.6164 1.18401L 46.6898 0.256545C 46.6865 0.253185 46.6817 0.252079 46.6783 0.248804C 46.606 0.178289 46.5227 0.126359 46.4343 0.0855717C 46.4076 0.0732803 46.3805 0.0660501 46.3527 0.0565657C 46.278 0.0307922 46.202 0.0156938 46.1231 0.0108878C 46.1061 0.00986708 46.0908 0.00102064 46.0736 0.00102064L 29.8712 0.00102064C 29.3901 0.00102064 29.0001 0.390942 29.0001 0.872049L 29.0001 32.1096C 29.0001 32.5907 29.3901 32.9807 29.8712 32.9807L 35.1066 32.9807C 34.6659 37.5701 30.7903 41.1717 26.0873 41.1717C 21.3838 41.1717 17.508 37.5694 17.0679 32.9793L 24.1292 32.9793C 24.6103 32.9793 25.0002 32.5894 25.0002 32.1083L 25.0002 8.01869C 25.0023 7.99908 24.9994 7.97999 25.0002 7.96042L 25.0002 7.93282C 25.0002 7.92972 24.9984 7.92691 24.9983 7.9238C 24.9975 7.69814 24.9172 7.47604 24.7511 7.31017L 17.6894 0.254844C 17.6148 0.180245 17.527 0.126911 17.4346 0.084636C 17.4078 0.0723021 17.3805 0.0650719 17.3526 0.0555025C 17.2798 0.0307071 17.206 0.0159914 17.1293 0.0110579C 17.1103 0.00978199 17.0931 4.01077e-09 17.0739 4.01077e-09L 0.871028 4.01077e-09C 0.389921 4.01077e-09 0 0.389921 0 0.871028L 0 32.1083C 0 32.5894 0.389921 32.9793 0.871028 32.9793L 15.3259 32.9793C 15.772 38.5305 20.4233 42.9138 26.0873 42.9138C 31.7508 42.9138 36.4018 38.5312 36.8486 32.9807L 53.129 32.9807C 53.6101 32.9807 54 32.5907 54 32.1096L 54 7.93418C 54 7.92521 53.9949 7.917 53.9946 7.90802ZM 17.9449 2.97519L 22.0214 7.05533L 17.9449 7.05533L 17.9449 2.97519ZM 1.74206 23.0795L 2.26467 23.0795C 2.74578 23.0795 3.1357 22.6896 3.1357 22.2085C 3.1357 21.7274 2.74578 21.3375 2.26467 21.3375L 1.74206 21.3375L 1.74206 1.74206L 16.2028 1.74206L 16.2028 7.92636C 16.2028 8.40746 16.5927 8.79738 17.0739 8.79738L 23.2582 8.79738L 23.2582 21.3375L 22.7355 21.3375C 22.2544 21.3375 21.8645 21.7274 21.8645 22.2085C 21.8645 22.6896 22.2544 23.0795 22.7355 23.0795L 23.2582 23.0795L 23.2582 31.2372L 1.74206 31.2372L 1.74206 23.0795ZM 46.942 2.97349L 51.0202 7.05533L 46.942 7.05533L 46.942 2.97349ZM 36.0285 31.2386C 36.0262 31.2386 36.0242 31.2372 36.0218 31.2372C 36.0194 31.2372 36.0174 31.2386 36.015 31.2386L 30.7422 31.2386L 30.7422 1.74308L 45.1999 1.74308L 45.1999 7.92636C 45.1999 8.40746 45.5898 8.79738 46.0709 8.79738L 52.2579 8.79738L 52.2579 31.2386L 36.0285 31.2386Z"/>
<path id="path9_fill" d="M 9.99199 4.99582C 9.99199 2.2412 7.75079 -1.30654e-08 4.99616 -1.30654e-08C 2.2412 -1.30654e-08 3.0486e-08 2.2412 3.0486e-08 4.99582C 3.0486e-08 7.75045 2.2412 9.99164 4.99616 9.99164C 7.75079 9.99164 9.99199 7.75045 9.99199 4.99582ZM 1.74206 4.99582C 1.74206 3.20171 3.20171 1.74206 4.99616 1.74206C 6.79028 1.74206 8.24993 3.20171 8.24993 4.99582C 8.24993 6.78994 6.79028 8.24959 4.99616 8.24959C 3.20171 8.24959 1.74206 6.78994 1.74206 4.99582Z"/>
<path id="path10_fill" d="M 6.15096 2.17757e-08L 0.871028 2.17757e-08C 0.389921 2.17757e-08 -8.71028e-09 0.389921 -8.71028e-09 0.871028C -8.71028e-09 1.35213 0.389921 1.74206 0.871028 1.74206L 6.15096 1.74206C 6.63206 1.74206 7.02198 1.35213 7.02198 0.871028C 7.02198 0.389921 6.63206 2.17757e-08 6.15096 2.17757e-08Z"/>
<path id="path11_fill" d="M 13.5207 -8.71028e-09L 0.871028 -8.71028e-09C 0.389921 -8.71028e-09 8.71028e-09 0.389921 8.71028e-09 0.871028C 8.71028e-09 1.35213 0.389921 1.74206 0.871028 1.74206L 13.5207 1.74206C 14.0018 1.74206 14.3917 1.35213 14.3917 0.871028C 14.3917 0.389921 14.0018 -8.71028e-09 13.5207 -8.71028e-09Z"/>
<path id="path12_fill" d="M 13.5207 -1.30654e-08L 0.871028 -1.30654e-08C 0.389921 -1.30654e-08 8.71028e-09 0.389921 8.71028e-09 0.871028C 8.71028e-09 1.35213 0.389921 1.74206 0.871028 1.74206L 13.5207 1.74206C 14.0018 1.74206 14.3917 1.35213 14.3917 0.871028C 14.3917 0.389921 14.0018 -1.30654e-08 13.5207 -1.30654e-08Z"/>
<path id="path13_fill" d="M 13.5207 -1.74206e-08L 0.871028 -1.74206e-08C 0.389921 -1.74206e-08 8.71028e-09 0.389921 8.71028e-09 0.871028C 8.71028e-09 1.35213 0.389921 1.74206 0.871028 1.74206L 13.5207 1.74206C 14.0018 1.74206 14.3917 1.35213 14.3917 0.871028C 14.3917 0.389921 14.0018 -1.74206e-08 13.5207 -1.74206e-08Z"/>
</defs>
</svg>
