<svg width="64" height="64" viewBox="0 0 64 64" version="1.1" xmlns="http://www.w3.org/2000/svg" xmlns:xlink="http://www.w3.org/1999/xlink">
<title>icon</title>
<desc>Created using Figma</desc>
<g id="Canvas" transform="translate(-4281 -5884)">
<g id="icon">
<g id="shape">
<use xlink:href="#path0_fill" transform="translate(4281 5884)" fill="#FFFFFF" fill-opacity="0.01"/>
</g>
<g id="Rectangle-path" opacity="0.5">
<use xlink:href="#path1_fill" transform="translate(4299.4 5898.1)" fill="#81BB5B"/>
</g>
<g id="Rectangle-path" opacity="0.5">
<use xlink:href="#path1_fill" transform="translate(4299.4 5904.54)" fill="#81BB5B"/>
</g>
<g id="Rectangle-path" opacity="0.5">
<use xlink:href="#path2_fill" transform="translate(4299.4 5911.47)" fill="#81BB5B"/>
</g>
<g id="Rectangle-path" opacity="0.5">
<use xlink:href="#path3_fill" transform="translate(4299.4 5918.34)" fill="#81BB5B"/>
</g>
<g id="Rectangle-path" opacity="0.5">
<use xlink:href="#path4_fill" transform="translate(4299.4 5925.2)" fill="#81BB5B"/>
</g>
<g id="Rectangle-path" opacity="0.5">
<use xlink:href="#path5_fill" transform="translate(4299.4 5932.14)" fill="#81BB5B"/>
</g>
<g id="Shape">
<use xlink:href="#path6_fill" transform="translate(4295 5893)" fill="#81BB5B"/>
</g>
<g id="Shape">
<use xlink:href="#path7_fill" transform="translate(4289 5911.18)" fill="#81BB5B"/>
</g>
<g id="Shape" opacity="0.5">
<use xlink:href="#path8_fill" transform="translate(4319.46 5917.46)" fill="#81BB5B"/>
</g>
</g>
</g>
<defs>
<path id="path0_fill" fill-rule="evenodd" d="M 0 0L 64 0L 64 64L 0 64L 0 0Z"/>
<path id="path1_fill" fill-rule="evenodd" d="M 0 0L 26.7636 0L 26.7636 1.09524L 0 1.09524L 0 0Z"/>
<path id="path2_fill" fill-rule="evenodd" d="M 0 0L 15.4909 0L 15.4909 1.09524L 0 1.09524L 0 0Z"/>
<path id="path3_fill" fill-rule="evenodd" d="M 0 0L 12.4364 0L 12.4364 1.09524L 0 1.09524L 0 0Z"/>
<path id="path4_fill" fill-rule="evenodd" d="M 0 0L 13.8909 0L 13.8909 1.09524L 0 1.09524L 0 0Z"/>
<path id="path5_fill" fill-rule="evenodd" d="M 0 0L 20.0727 0L 20.0727 1.09524L 0 1.09524L 0 0Z"/>
<path id="path6_fill" fill-rule="evenodd" d="M 35.6364 0.000188624L 5.23636 0.0002977C 5.23636 0.0002977 2.5 -0.000292085 0.000334024 0.000188624C 0 2.00054 0 2.33681 0 5.18443L 0 46.0003L 35.6364 46.0003L 35.6364 36.0701C 38.0364 34.2447 39.6364 31.3241 39.6364 28.0384C 39.6364 24.7527 38.0364 21.832 35.6364 20.0066L 35.6364 6.86379L 35.6364 5.18443L 35.6364 4.00049C 35.6364 4.00049 35.6364 3.37549 35.6364 2.50022C 35.6364 -0.201366 35.6364 1.50049 35.6364 0.000188624ZM 38.5453 28.0388C 38.5453 32.9309 34.5453 36.9467 29.6725 36.9467C 24.7998 36.9467 20.7998 32.9309 20.7998 28.0388C 20.7998 23.1467 24.7998 19.1309 29.6725 19.1309C 34.5453 19.1309 38.5453 23.1467 38.5453 28.0388ZM 34.5454 19.3499C 33.0908 18.5468 31.4181 18.0356 29.6726 18.0356C 24.1454 18.0356 19.709 22.4896 19.709 28.0388C 19.709 33.588 24.1454 38.042 29.6726 38.042C 31.4181 38.042 33.0908 37.6039 34.5454 36.7277L 34.5454 44.8325L 1.09082 44.8325L 1.09082 5.11184C 1.09082 2.84835 1.09082 2.00049 1.09085 1.00049C 3.34539 1.0735 5 1.00102 7.5 1.00087C 10 1.00057 15.5 1.00049 15.5 1.00049L 19.709 1.00049L 34.5454 1.00049L 34.5454 6.93724L 34.5454 19.3499Z"/>
<path id="path7_fill" fill-rule="evenodd" d="M 0 4.01587L 0 25.8476C 0 26.9429 0.872727 27.819 2.03636 27.819C 3.12727 27.819 4.07273 26.9429 4.07273 25.7746L 4.07273 4.01587L 2.03636 0L 0 4.01587ZM 1.09082 6.20654L 2.909 6.20654L 2.909 22.197L 1.09082 22.197L 1.09082 6.20654ZM 2.03627 26.7237C 1.52718 26.7237 1.09082 26.2856 1.09082 25.7745L 1.09082 23.292L 2.909 23.292L 2.909 25.7745C 2.909 26.2856 2.47264 26.7237 2.03627 26.7237ZM 2.909 5.11126L 1.09082 5.11126L 1.09082 4.23506L 2.03627 2.40967L 2.909 4.23506L 2.909 5.11126Z"/>
<path id="path8_fill" fill-rule="evenodd" d="M 3.35921 7.27101L 0.803289 4.62012L 0 5.37751L 3.35921 8.86154L 11.1 0.757396L 10.3697 0L 3.35921 7.27101Z"/>
</defs>
</svg>
