<svg width="64" height="64" viewBox="0 0 64 64" version="1.1" xmlns="http://www.w3.org/2000/svg" xmlns:xlink="http://www.w3.org/1999/xlink">
<title>Icon</title>
<desc>Created using Figma</desc>
<g id="Canvas" transform="translate(-3528 -5884)">
<g id="Icon">
<g id="shape">
<use xlink:href="#path0_fill" transform="translate(3528 5884)" fill="#FFFFFF" fill-opacity="0.01"/>
</g>
<g id="Shape">
<use xlink:href="#path1_fill" transform="translate(3535 5893)" fill="#E89B00"/>
</g>
<g id="Shape" opacity="0.5">
<use xlink:href="#path2_fill" transform="translate(3542 5918)" fill="#E89B00"/>
</g>
<g id="Path" opacity="0.5">
<use xlink:href="#path3_fill" transform="translate(3550.52 5913.77)" fill="#E89B00"/>
</g>
</g>
</g>
<defs>
<path id="path0_fill" fill-rule="evenodd" d="M 0 0L 64 0L 64 64L 0 64L 0 0Z"/>
<path id="path1_fill" fill-rule="evenodd" d="M 25 0C 23.1046 0 21.5517 1.5589 21.5517 3.46154L 21.5517 8.65385L 2.79162 8.65385C 1.20544 8.65385 0 10.0681 0 11.6827L 0 41.9712C 0 43.586 1.20544 45 2.79162 45L 47.2084 45C 48.7946 45 50 43.586 50 41.9712L 50 11.6827C 50 10.0681 48.7946 8.65385 47.2084 8.65385L 28.4483 8.65385L 28.4483 3.46154C 28.4483 1.5589 26.8954 0 25 0ZM 24.9499 1.13086C 26.2295 1.13086 27.2241 1.97538 27.2241 3.06163L 27.2241 8.85394L 27.2241 10.7847L 27.2241 12.7155L 22.6758 12.7155L 22.6758 10.7847L 22.6758 8.85394L 22.6758 3.06163C 22.6758 1.97538 23.6704 1.13086 24.9499 1.13086ZM 25 2.59619C 24.5239 2.59619 24.1379 2.98364 24.1379 3.46158C 24.1379 3.93951 24.5239 4.32696 25 4.32696C 25.4761 4.32696 25.8621 3.93951 25.8621 3.46158C 25.8621 2.98364 25.4761 2.59619 25 2.59619ZM 2.06748 10L 21.4276 10L 21.4276 12.9308L 19.7034 12.9308L 19.7034 14.0615L 30.0483 14.0615L 30.0483 12.9308L 28.3241 12.9308L 28.3241 10L 47.6842 10C 48.2377 10 48.7517 10.5158 48.7517 11.2981L 48.7517 15.7923L 1 15.7923L 1 11.2981C 1 10.5158 1.51404 10 2.06748 10ZM 1.22412 16.7075L 48.8758 16.7075L 48.8758 42.471C 48.8758 43.2535 48.3618 43.7691 47.8084 43.7691L 2.2916 43.7691C 1.73816 43.7691 1.22412 43.2535 1.22412 42.471L 1.22412 16.7075ZM 24.1379 25.9614L 24.1379 27.0922L 44.8276 27.0922L 44.8276 25.9614L 24.1379 25.9614ZM 24.1379 29.4229L 24.1379 30.5536L 37.931 30.5536L 37.931 29.4229L 24.1379 29.4229ZM 24.1379 32.8848L 24.1379 34.0155L 43.1035 34.0155L 43.1035 32.8848L 24.1379 32.8848ZM 24.1379 36.3462L 24.1379 37.477L 36.2069 37.477L 36.2069 36.3462L 24.1379 36.3462Z"/>
<path id="path2_fill" fill-rule="evenodd" d="M 5.99996 0C 4.10283 0 2.54541 1.62056 2.54541 3.59459C 2.54541 5.56862 4.10283 7.18917 5.99996 7.18917C 7.89708 7.18917 9.4545 5.56862 9.4545 3.59459C 9.4545 1.62056 7.89708 0 5.99996 0ZM 6.00005 1.19189C 7.28714 1.19189 8.30308 2.25181 8.30308 3.5946C 8.30308 4.93738 7.28714 5.9973 6.00005 5.9973C 4.71297 5.9973 3.69702 4.93738 3.69702 3.5946C 3.69702 2.25181 4.71297 1.19189 6.00005 1.19189ZM 6 7.56738C 2.70665 7.56738 0 10.2765 0 13.6451L 0 13.9998L 1.15152 13.9998L 1.15152 13.6451C 1.15152 11.324 3.46768 8.60333 6 8.60959C 8.53232 8.61585 10.8485 11.324 10.8485 13.6451L 10.8485 13.9998L 12 13.9998L 12 13.6451C 12 10.2765 9.29335 7.56738 6 7.56738Z"/>
<path id="path3_fill" fill-rule="evenodd" d="M 0 0L 0 1.13077L 20.6897 1.13077L 20.6897 0L 0 0Z"/>
</defs>
</svg>
