<svg width="36" height="48" viewBox="0 0 36 48" fill="none" xmlns="http://www.w3.org/2000/svg">
<path d="M32.1429 48H3.42857C1.53502 48 0 46.465 0 44.5714V3.42857C0 1.53502 1.53502 -1.10354e-08 3.42857 -1.10354e-08H32.1429C34.0364 -1.10354e-08 35.5714 1.53502 35.5714 3.42857V44.5714C35.5714 46.465 34.0364 48 32.1429 48ZM28.9148 6H6.39881C5.0413 6 3.94252 7.15029 3.94252 8.57143C3.94252 9.99257 5.0413 11.1429 6.39881 11.1429H28.9148C30.2707 11.1429 31.3711 9.99257 31.3711 8.57143C31.3711 7.15029 30.2707 6 28.9148 6ZM28.9148 16.2857H6.39881C5.0413 16.2857 3.94252 17.4377 3.94252 18.8571C3.94252 20.2766 5.0413 21.4286 6.39881 21.4286H28.9148C30.2707 21.4286 31.3711 20.2766 31.3711 18.8571C31.3711 17.4377 30.2707 16.2857 28.9148 16.2857ZM28.9148 26.5714H6.39881C5.0413 26.5714 3.94252 27.7234 3.94252 29.1429C3.94252 30.5623 5.0413 31.7143 6.39881 31.7143H28.9148C30.2707 31.7143 31.3711 30.5623 31.3711 29.1429C31.3711 27.7234 30.2707 26.5714 28.9148 26.5714ZM28.9148 36.8571H6.39881C5.0413 36.8571 3.94252 38.0091 3.94252 39.4286C3.94252 40.848 5.0413 42 6.39881 42H28.9148C30.2707 42 31.3711 40.848 31.3711 39.4286C31.3711 38.0091 30.2707 36.8571 28.9148 36.8571Z" fill="url(#paint0_linear)"/>
<defs>
<linearGradient id="paint0_linear" x2="1" gradientUnits="userSpaceOnUse" gradientTransform="translate(35.5714) scale(35.5714 48) rotate(90)">
<stop stop-color="#B649AA"/>
<stop offset="1" stop-color="#D56B91"/>
</linearGradient>
</defs>
</svg>
