<svg width="64" height="64" viewBox="0 0 64 64" fill="none" xmlns="http://www.w3.org/2000/svg">
<path fill-rule="evenodd" clip-rule="evenodd" d="M0 0H64V64H0V0Z" fill="white" fill-opacity="0.01"/>
<path d="M41.28 33.6603C41.28 37.8601 37.862 41.2761 33.6642 41.2761H7.61585C3.41608 41.2761 1.25856e-08 37.8601 1.25856e-08 33.6603V7.61391C1.25856e-08 3.41414 3.41608 1.25856e-08 7.61585 1.25856e-08H33.6642C37.862 1.25856e-08 41.28 3.41414 41.28 7.61391V33.6603ZM35.5807 18.3549L34.0191 20.3801C33.9047 13.1192 27.9881 7.26474 20.7001 7.26474C17.2278 7.26474 14.0658 8.59548 11.6954 10.7701L14.3549 12.7642C16.0891 11.3578 18.2947 10.514 20.7001 10.514C26.2423 10.514 30.7369 14.9931 30.7718 20.5256H30.7699L29.0939 18.3549L27.0784 20.3684L31.3945 25.67H33.2859L37.5982 20.3684L35.5807 18.3549ZM20.7001 30.6671C15.2123 30.6671 10.7584 26.2792 10.6362 20.8204L12.2385 22.8961L14.254 20.8806L9.93785 15.5789H8.0465L3.73421 20.8806L5.74971 22.8961L7.37725 20.7836C7.482 28.0541 13.4024 33.9163 20.6982 33.9163C24.1705 33.9163 27.3305 32.5856 29.703 30.411L27.0396 28.4169C25.3092 29.8213 23.1036 30.6671 20.7001 30.6671Z" transform="translate(11 11)" fill="url(#paint0_linear)"/>
<defs>
<linearGradient id="paint0_linear" x2="1" gradientUnits="userSpaceOnUse" gradientTransform="translate(41.28) scale(41.28 41.2761) rotate(90)">
<stop stop-color="#489486"/>
<stop offset="1" stop-color="#6FBC84"/>
</linearGradient>
</defs>
</svg>
