<svg width="64" height="64" viewBox="0 0 64 64" fill="none" xmlns="http://www.w3.org/2000/svg">
<path fill-rule="evenodd" clip-rule="evenodd" d="M0 0H64V64H0V0Z" fill="white" fill-opacity="0.01"/>
<path d="M30.9123 18.9767H29.7102V12.5367C29.7102 5.66726 24.1288 0 17.1735 0C10.2182 0 4.63685 5.66726 4.63685 12.5367V18.9767H3.4347C1.54562 18.9767 0 20.5224 0 22.4973V44.4794C0 46.4544 1.54562 48 3.4347 48H30.9123C32.8014 48 34.347 46.4544 34.347 44.4794V22.5832C34.4329 20.6082 32.8873 18.9767 30.9123 18.9767ZM8.93023 12.5367C8.93023 7.98569 12.6225 4.29338 17.1735 4.29338C21.7245 4.29338 25.4168 7.98569 25.4168 12.5367V18.9767H8.93023V12.5367ZM19.7496 35.8068V39.0698C19.7496 40.4436 18.6333 41.6458 17.1735 41.6458C15.7996 41.6458 14.5975 40.5295 14.5975 39.0698V35.8068C13.0519 34.9481 12.0215 33.3166 12.0215 31.4275C12.0215 28.5939 14.3399 26.3614 17.0877 26.3614C19.9213 26.3614 22.1538 28.6798 22.1538 31.4275C22.2397 33.3166 21.2093 34.9481 19.7496 35.8068Z" transform="translate(15 8)" fill="url(#paint0_linear)"/>
<defs>
<linearGradient id="paint0_linear" x2="1" gradientUnits="userSpaceOnUse" gradientTransform="translate(34.3505) scale(34.3505 48) rotate(90)">
<stop stop-color="#F2A767"/>
<stop offset="1" stop-color="#F7D762"/>
</linearGradient>
</defs>
</svg>
