<svg width="64" height="64" viewBox="0 0 64 64" version="1.1" xmlns="http://www.w3.org/2000/svg" xmlns:xlink="http://www.w3.org/1999/xlink">
<title>Icon</title>
<desc>Created using Figma</desc>
<g id="Canvas" transform="translate(-15343 -5809)">
<g id="Icon">
<g id="shape">
<use xlink:href="#path0_fill" transform="translate(15343 5809)" fill="#FFFFFF" fill-opacity="0.01"/>
</g>
<g id="Combined Shape">
<use xlink:href="#path1_fill" transform="translate(15355.5 5859.76)" fill="#E89B00"/>
</g>
<g id="Shape">
<use xlink:href="#path2_fill" transform="translate(15349 5811)" fill="#E89B00"/>
</g>
<g id="Shape">
<use xlink:href="#path3_fill" transform="translate(15387.6 5844.49)" fill="#E89B00"/>
</g>
</g>
</g>
<defs>
<path id="path0_fill" fill-rule="evenodd" d="M 0 0L 64 0L 64 64L 0 64L 0 0Z"/>
<path id="path1_fill" fill-rule="evenodd" d="M 1.22314 0L 0 0L 0 1.23145L 1.22314 1.23145L 1.22314 0ZM 11.0078 0L 9.78467 0L 9.78467 1.23145L 11.0078 1.23145L 11.0078 0ZM 6.52319 0L 7.74634 0L 7.74634 1.23145L 6.52319 1.23145L 6.52319 0ZM 4.48462 0L 3.26147 0L 3.26147 1.23145L 4.48462 1.23145L 4.48462 0Z"/>
<path id="path2_fill" fill-rule="evenodd" d="M 52.6738 28.4851C 52.5923 27.0896 51.4508 25.9403 50.0646 25.9403L 50.0646 22.8209C 50.0646 20.1119 47.9446 17.8955 45.2538 17.7313L 40.8508 5.74627L 38.4046 6.64925L 35.7138 1.88806L 32.7785 3.52985L 29.7615 0L 7.99077 17.7313L 5.05538 17.7313C 2.28308 17.7313 0 20.0299 0 22.8209L 0 48.9254C 0 51.7164 2.28308 54.0149 5.05538 54.0149L 44.9277 54.0149C 47.7 54.0149 49.9831 51.7164 49.9831 48.9254L 49.9831 41.4552C 51.4508 41.291 52.6738 39.9776 52.6738 38.4179L 52.6738 28.4851ZM 51.4508 28.7315C 51.4508 29.5524 50.7985 30.2091 49.9832 30.2912L 49.9832 27.2539C 50.7985 27.2539 51.4508 27.9106 51.4508 28.7315ZM 22.0154 17.7309L 35.0615 12.9697C 35.7138 14.119 37.0185 14.9399 38.3231 14.9399C 38.5677 14.9399 38.8123 14.9399 39.0569 14.8578L 40.1169 17.813L 22.0154 17.813L 22.0154 17.7309ZM 43.8676 17.731L 41.4215 17.731L 39.7907 13.2982L 39.2199 13.4624C 38.9753 13.5445 38.6492 13.6266 38.323 13.6266C 37.263 13.6266 36.2845 12.9698 35.9584 11.9027L 35.7138 11.3281L 18.4276 17.6489L 11.823 17.6489L 40.1168 7.30566L 43.8676 17.731ZM 37.2632 7.06012L 14.8401 15.2691L 35.2247 3.53027L 37.2632 7.06012ZM 31.7185 4.18632L 14.2693 14.2012L 29.5985 1.72363L 31.7185 4.18632ZM 48.7601 48.9256C 48.7601 51.0599 47.0478 52.7838 44.9278 52.7838L 5.05545 52.7838C 2.93545 52.7838 1.22314 51.0599 1.22314 48.9256L 1.22314 22.8211C 1.22314 20.6868 2.93545 18.9629 5.05545 18.9629L 7.9093 18.9629L 7.99084 19.1271L 14.677 19.1271L 41.9108 19.1271L 45.6616 19.1271L 45.6616 19.045C 47.4555 19.3733 48.8416 20.933 48.8416 22.8211L 48.8416 30.2912L 40.7693 30.2912C 37.997 30.2912 35.6324 32.5898 35.6324 35.4629L 35.6324 36.448C 35.6324 39.239 37.9155 41.6196 40.7693 41.6196L 48.7601 41.6196L 48.7601 48.9256ZM 49.657 40.2234L 40.6878 40.2234C 38.5678 40.2234 36.7739 38.4996 36.7739 36.2831L 36.7739 35.2981C 36.7739 33.1637 38.4862 31.3578 40.6878 31.3578L 49.9832 31.3578C 50.4724 31.3578 51.0432 31.1936 51.4508 30.8652L 51.4508 38.2533C 51.4508 39.4025 50.6355 40.2234 49.657 40.2234Z"/>
<path id="path3_fill" fill-rule="evenodd" d="M 2.85385 0C 1.30462 0 0 1.31343 0 2.87313C 0 4.43284 1.30462 5.74627 2.85385 5.74627C 4.40308 5.74627 5.70769 4.43284 5.70769 2.87313C 5.70769 1.31343 4.40308 0 2.85385 0ZM 2.85391 4.51503C 1.95699 4.51503 1.22314 3.77622 1.22314 2.87324C 1.22314 1.97025 1.95699 1.23145 2.85391 1.23145C 3.75084 1.23145 4.48468 1.97025 4.48468 2.87324C 4.48468 3.77622 3.75084 4.51503 2.85391 4.51503Z"/>
</defs>
</svg>
