<svg width="64" height="64" viewBox="0 0 64 64" version="1.1" xmlns="http://www.w3.org/2000/svg" xmlns:xlink="http://www.w3.org/1999/xlink">
<title>Icon</title>
<desc>Created using Figma</desc>
<g id="Canvas" transform="translate(-16189 -5809)">
<g id="Icon">
<g id="shape">
<use xlink:href="#path0_fill" transform="translate(16189 5809)" fill="#FFFFFF" fill-opacity="0.01"/>
</g>
<g id="Shape">
<use xlink:href="#path1_fill" transform="translate(16197 5821)" fill="#81BB5B"/>
</g>
</g>
</g>
<defs>
<path id="path0_fill" fill-rule="evenodd" d="M 0 0L 64 0L 64 64L 0 64L 0 0Z"/>
<path id="path1_fill" fill-rule="evenodd" d="M 44 0C 46.2061 0 48 1.78327 48 3.97634L 48 26.6983C 48 28.8913 46.2061 30.6746 44 30.6746L 38.0179 30.6746L 39.125 41.3965C 39.1848 41.868 38.4714 42.2033 38.1429 41.8581L 26.8571 30.6746L 22.2857 30.6746L 22.2857 32.9823C 22.2857 34.5276 21.0066 35.787 19.4464 35.787L 10.6071 35.787L 4.39286 41.8581C 4.05177 42.1908 3.35155 41.8297 3.42857 41.361L 4.41071 35.787L 2.83929 35.787C 1.27907 35.787 0 34.5276 0 32.9823L 0 22.1184C 0 20.5731 1.27907 19.3136 2.83929 19.3136L 6.85714 19.3136L 6.85714 3.97634C 6.85714 1.78327 8.65102 0 10.8571 0L 44 0ZM 44 1.13574L 10.8571 1.13574C 9.26439 1.13574 8 2.39266 8 3.97598L 8 26.6979C 8 28.2812 9.26439 29.5382 10.8571 29.5382L 27.0893 29.5382C 27.2402 29.5325 27.3916 29.5933 27.5 29.6979L 37.8214 39.9405L 36.8036 30.1594C 36.7738 29.8448 37.0571 29.5368 37.375 29.5382L 44 29.5382C 45.5927 29.5382 46.8571 28.2812 46.8571 26.6979L 46.8571 3.97598C 46.8571 2.39266 45.5927 1.13574 44 1.13574ZM 39.9999 7.38477C 40.3155 7.38477 40.5714 7.63909 40.5714 7.95281C 40.5714 8.26654 40.3155 8.52086 39.9999 8.52086L 14.8571 8.52086C 14.5415 8.52086 14.2856 8.26654 14.2856 7.95281C 14.2856 7.63909 14.5415 7.38477 14.8571 7.38477L 39.9999 7.38477ZM 39.9999 14.7695C 40.3155 14.7695 40.5714 15.0239 40.5714 15.3376C 40.5714 15.6513 40.3155 15.9056 39.9999 15.9056L 14.8571 15.9056C 14.5415 15.9056 14.2856 15.6513 14.2856 15.3376C 14.2856 15.0239 14.5415 14.7695 14.8571 14.7695L 39.9999 14.7695ZM 6.85711 20.4502L 2.83925 20.4502C 1.88951 20.4502 1.14282 21.19 1.14282 22.1188L 1.14282 32.9828C 1.14282 33.9116 1.88951 34.6514 2.83925 34.6514L 5.10711 34.6514C 5.43851 34.6457 5.73031 34.9828 5.67854 35.3082L 4.87497 39.8171L 9.99996 34.8111C 10.1042 34.711 10.2479 34.6525 10.3928 34.6514L 19.4464 34.6514C 20.3961 34.6514 21.1428 33.9116 21.1428 32.9828L 21.1428 30.6751L 10.8571 30.6751C 8.65099 30.6751 6.85711 28.8918 6.85711 26.6987L 6.85711 20.4502ZM 39.9999 22.1543C 40.3155 22.1543 40.5714 22.4086 40.5714 22.7223C 40.5714 23.0361 40.3155 23.2904 39.9999 23.2904L 14.8571 23.2904C 14.5415 23.2904 14.2856 23.0361 14.2856 22.7223C 14.2856 22.4086 14.5415 22.1543 14.8571 22.1543L 39.9999 22.1543Z"/>
</defs>
</svg>
