<svg width="50" height="51" viewBox="0 0 50 51" version="1.1" xmlns="http://www.w3.org/2000/svg" xmlns:xlink="http://www.w3.org/1999/xlink">
<title>Shape</title>
<desc>Created using Figma</desc>
<g id="Canvas" transform="translate(290 -6135)">
<g id="Shape">
<use xlink:href="#path0_fill" transform="translate(-290 6135)" fill="#0282D5"/>
</g>
</g>
<defs>
<path id="path0_fill" fill-rule="evenodd" d="M 2.1058 0L 9.77347 0C 10.9346 0 11.8793 0.949219 11.8793 2.11572L 11.8793 9.8208C 11.8793 10.9873 10.9346 11.9365 9.77347 11.9365L 2.1058 11.9365C 0.944702 11.9365 0 10.9873 0 9.8208L 0 2.11572C 0 0.949219 0.944702 0 2.1058 0ZM 9.77347 19.5317L 2.1058 19.5317C 0.944702 19.5317 0 20.481 0 21.6475L 0 29.3525C 0 30.519 0.944702 31.4683 2.1058 31.4683L 9.77347 31.4683C 10.9346 31.4683 11.8793 30.519 11.8793 29.3525L 11.8793 21.6475C 11.8793 20.481 10.9346 19.5317 9.77347 19.5317ZM 10.2594 29.3521C 10.2594 29.6216 10.0411 29.8403 9.77347 29.8403L 2.1058 29.8403C 1.8382 29.8403 1.61984 29.6216 1.61984 29.3521L 1.61984 21.6475C 1.61984 21.3779 1.8382 21.1592 2.1058 21.1592L 9.77347 21.1592C 10.0411 21.1592 10.2594 21.3779 10.2594 21.6475L 10.2594 29.3521ZM 16.9008 24.686L 49.1901 24.686C 49.6372 24.686 50 25.0508 50 25.5C 50 25.9492 49.6372 26.3135 49.1901 26.3135L 16.9008 26.3135C 16.4537 26.3135 16.0909 25.9492 16.0909 25.5C 16.0909 25.0508 16.4537 24.686 16.9008 24.686ZM 9.77347 39.0635L 2.1058 39.0635C 0.944702 39.0635 0 40.0127 0 41.1792L 0 48.8843C 0 50.0508 0.944702 51 2.1058 51L 9.77347 51C 10.9346 51 11.8793 50.0508 11.8793 48.8843L 11.8793 41.1792C 11.8793 40.0127 10.9346 39.0635 9.77347 39.0635ZM 9.77347 49.3721C 10.0411 49.3721 10.2594 49.1533 10.2594 48.8838L 10.2594 41.1792C 10.2594 40.9097 10.0411 40.6909 9.77347 40.6909L 2.1058 40.6909C 1.8382 40.6909 1.61984 40.9097 1.61984 41.1792L 1.61984 48.8838C 1.61984 49.1533 1.8382 49.3721 2.1058 49.3721L 9.77347 49.3721ZM 49.1901 44.2178L 16.9008 44.2178C 16.4537 44.2178 16.0909 44.5825 16.0909 45.0317C 16.0909 45.481 16.4537 45.8452 16.9008 45.8452L 49.1901 45.8452C 49.6372 45.8452 50 45.481 50 45.0317C 50 44.5825 49.6372 44.2178 49.1901 44.2178ZM 10.2594 9.82031C 10.2594 10.0898 10.0411 10.3086 9.77347 10.3086L 2.1058 10.3086C 1.8382 10.3086 1.61984 10.0898 1.61984 9.82031L 1.61984 2.11572C 1.61984 1.84619 1.8382 1.62744 2.1058 1.62744L 9.77347 1.62744C 10.0411 1.62744 10.2594 1.84619 10.2594 2.11572L 10.2594 9.82031ZM 49.1901 6.78174L 16.9008 6.78174C 16.4537 6.78174 16.0909 6.41748 16.0909 5.96826C 16.0909 5.51904 16.4537 5.1543 16.9008 5.1543L 49.1901 5.1543C 49.6372 5.1543 50 5.51904 50 5.96826C 50 6.41748 49.6372 6.78174 49.1901 6.78174Z"/>
</defs>
</svg>
