<svg width="44" height="50" viewBox="0 0 44 50" fill="none" xmlns="http://www.w3.org/2000/svg">
<path d="M39.1875 27.9984V22.5133C40.0961 22.1906 40.75 21.332 40.75 20.3133V18.7508C40.75 8.39453 32.3555 0 22 0C11.6445 0 3.25 8.39453 3.25 18.75V20.3125C3.25 21.332 3.90391 22.1898 4.8125 22.5125V27.9977C2.05469 29.2047 0.125 31.9531 0.125 35.1562C0.125 38.0461 1.69844 40.5633 4.03125 41.9148V45.3125C4.03125 47.0383 5.43047 48.4375 7.15625 48.4375H12.625H18.2375C18.5602 49.3453 19.4188 50 20.4375 50H23.5625C24.857 50 25.9062 48.9508 25.9062 47.6562C25.9062 46.3617 24.857 45.3125 23.5625 45.3125H20.4375C19.418 45.3125 18.5602 45.9672 18.2375 46.875H12.625H7.15625C6.29297 46.875 5.59375 46.175 5.59375 45.3125V42.6102C6.33359 42.8422 7.12109 42.9688 7.9375 42.9688H9.5C9.5 44.2633 10.5492 45.3125 11.8438 45.3125C13.1383 45.3125 14.1875 44.2633 14.1875 42.9688V27.3438C14.1875 26.0492 13.1383 25 11.8438 25C10.5492 25 9.5 26.0492 9.5 27.3438H7.9375C7.40234 27.3438 6.87969 27.3977 6.375 27.5008V22.5125C7.28359 22.1898 7.9375 21.3312 7.9375 20.3125V18.75C7.9375 10.9836 14.2336 4.6875 22 4.6875C29.7664 4.6875 36.0625 10.9836 36.0625 18.75V20.3125C36.0625 21.332 36.7164 22.1898 37.625 22.5125V27.5008C37.1195 27.3977 36.5977 27.3438 36.0625 27.3438H34.5C34.5 26.0492 33.45 25 32.1562 25C30.8617 25 29.8125 26.0492 29.8125 27.3438V42.9688C29.8125 44.2633 30.8617 45.3125 32.1562 45.3125C33.45 45.3125 34.5 44.2633 34.5 42.9688H36.0625C40.3766 42.9688 43.875 39.4703 43.875 35.1562C43.875 31.9531 41.9453 29.2047 39.1875 27.9984ZM20.4375 46.875H23.5625C23.9937 46.875 24.3438 47.2242 24.3438 47.6562C24.3438 48.0883 23.9937 48.4375 23.5625 48.4375H20.4375C20.0055 48.4375 19.6562 48.0883 19.6562 47.6562C19.6562 47.2242 20.0055 46.875 20.4375 46.875ZM11.0625 27.3438C11.0625 26.9117 11.4117 26.5625 11.8438 26.5625C12.275 26.5625 12.625 26.9117 12.625 27.3438V42.9688C12.625 43.4008 12.275 43.75 11.8438 43.75C11.4117 43.75 11.0625 43.4008 11.0625 42.9688V27.3438ZM9.5 28.9062C9.5 33.0359 9.5 32.4859 9.5 35.9375C9.5 36.0836 9.5 36.2023 9.5 36.3109C9.5 36.3047 9.5 36.4578 9.5 36.9141C9.5 37.5828 9.5 38.9109 9.5 41.4062H7.9375C4.48594 41.4062 1.6875 38.6078 1.6875 35.1562C1.6875 31.7047 4.48594 28.9062 7.9375 28.9062H9.5ZM22 3.125C13.3703 3.125 6.375 10.1203 6.375 18.75V20.3125C6.375 20.7445 6.025 21.0938 5.59375 21.0938C5.16172 21.0938 4.8125 20.7445 4.8125 20.3125V18.75C4.8125 9.25781 12.5078 1.5625 22 1.5625C31.4922 1.5625 39.1875 9.25781 39.1875 18.75V20.3125C39.1875 20.7445 38.8375 21.0938 38.4062 21.0938C37.9742 21.0938 37.625 20.7445 37.625 20.3125V18.75C37.625 10.1203 30.6297 3.125 22 3.125ZM32.9375 42.9688C32.9375 43.4008 32.5875 43.75 32.1562 43.75C31.7242 43.75 31.375 43.4008 31.375 42.9688V27.3438C31.375 26.9117 31.7242 26.5625 32.1562 26.5625C32.5875 26.5625 32.9375 26.9117 32.9375 27.3438V42.9688ZM36.0625 41.4062H34.5C34.5 38.9109 34.5 37.5828 34.5 36.9141C34.5 36.457 34.5 36.3047 34.5 36.3109C34.5 36.2023 34.5 36.0836 34.5 35.9375C34.5 32.4859 34.5 33.0359 34.5 28.9062H36.0625C39.5141 28.9062 42.3125 31.7047 42.3125 35.1562C42.3125 38.6078 39.5141 41.4062 36.0625 41.4062Z" fill="#0282D5"/>
</svg>
