<svg width="39" height="48" viewBox="0 0 39 48" version="1.1" xmlns="http://www.w3.org/2000/svg" xmlns:xlink="http://www.w3.org/1999/xlink">
<title>Subtract</title>
<desc>Created using Figma</desc>
<g id="Canvas" transform="translate(136 -5624)">
<g id="Subtract">
<use xlink:href="#path0_fill" transform="translate(-136 5624)" fill="url(#paint0_linear)"/>
</g>
</g>
<defs>
<linearGradient id="paint0_linear" x1="0" y1="0" x2="1" y2="0" gradientUnits="userSpaceOnUse" gradientTransform="matrix(2.37441e-15 48 -38.777 2.93915e-15 38.777 6.99086e-23)">
<stop offset="0" stop-color="#B649AA"/>
<stop offset="1" stop-color="#D56B91"/>
</linearGradient>
<path id="path0_fill" fill-rule="evenodd" d="M 18.8445 0.13623C 18.9449 0.0493164 19.0772 0 19.21 0C 19.2706 0 19.3311 0.0102539 19.3885 0.0297852C 19.48 -0.000976562 19.5796 -0.0078125 19.6744 0.0107422C 19.7691 0.0292969 19.8589 0.0727539 19.9319 0.13623C 21.8509 1.7959 25.0206 3.98486 28.3702 5.73926C 31.7198 7.49365 35.2732 8.80176 37.8572 8.80176C 37.992 8.80176 38.1263 8.85303 38.2271 8.94238C 38.3282 9.03174 38.3948 9.15869 38.4112 9.29248C 40.5201 26.6484 33.3941 38.0127 19.7149 47.8945C 19.6207 47.9624 19.5047 48 19.3882 48C 19.2718 48 19.1558 47.9624 19.0616 47.8945C 5.38238 38.0127 -1.7436 26.6484 0.365286 9.29248C 0.381643 9.15869 0.448294 9.03174 0.549368 8.94238C 0.650198 8.85254 0.784475 8.80176 0.919485 8.80176C 3.50323 8.80176 7.05669 7.49365 10.4063 5.73926C 13.7559 3.98486 16.9256 1.7959 18.8445 0.13623ZM 10.5001 23.8823L 17.7876 31.1699L 29.9334 19.0239L 26.8846 16L 17.7627 25.0972L 13.5242 20.8584L 10.5001 23.8823Z"/>
</defs>
</svg>
