<svg width="42" height="57" viewBox="0 0 42 57" version="1.1" xmlns="http://www.w3.org/2000/svg" xmlns:xlink="http://www.w3.org/1999/xlink">
<title>Shape</title>
<desc>Created using Figma</desc>
<g id="Canvas" transform="translate(288 -5979)">
<g id="Shape">
<use xlink:href="#path0_fill" transform="translate(-288 5979)" fill="#0282D5"/>
</g>
</g>
<defs>
<path id="path0_fill" fill-rule="evenodd" d="M 1.95002e-07 0.678865C -0.000243946 0.393709 0.22876 0.0016194 0.67749 0.000154561L 29.1287 0.000154561C 29.3076 -0.00375169 29.4871 0.0665608 29.6157 0.191073L 41.8091 12.4054C 41.9331 12.5343 42.0063 12.714 41.9995 12.8932L 41.9995 56.3214C 41.9995 56.6769 41.6768 57.0002 41.3223 57.0002L 0.67749 57.0002C 0.322754 57.0002 1.95002e-07 56.6769 1.95002e-07 56.3214L 1.95002e-07 0.678865ZM 28.4512 1.35758L 1.35474 1.35758L 1.35474 55.6432L 40.6445 55.6432L 40.6445 13.5719L 29.1287 13.5719C 28.7739 13.5719 28.4512 13.2487 28.4512 12.8932L 28.4512 1.35758ZM 29.8062 2.31168L 39.6921 12.2145L 29.8062 12.2145L 29.8062 2.31168ZM 6.77417 23.7506C 6.77417 23.3756 7.07739 23.0719 7.45166 23.0719L 29.1287 23.0719C 29.5029 23.0719 29.8062 23.3756 29.8062 23.7506C 29.8062 24.1252 29.5029 24.4289 29.1287 24.4289L 7.45166 24.4289C 7.07739 24.4289 6.77417 24.1252 6.77417 23.7506ZM 7.45166 33.9289C 7.07739 33.9289 6.77417 34.2326 6.77417 34.6076C 6.77417 34.9821 7.07739 35.2858 7.45166 35.2858L 34.5481 35.2858C 34.9221 35.2858 35.2256 34.9821 35.2256 34.6076C 35.2256 34.2326 34.9221 33.9289 34.5481 33.9289L 7.45166 33.9289ZM 6.77417 45.4645C 6.77417 45.0895 7.07739 44.7858 7.45166 44.7858L 34.5481 44.7858C 34.9221 44.7858 35.2256 45.0895 35.2256 45.4645C 35.2256 45.839 34.9221 46.1427 34.5481 46.1427L 7.45166 46.1427C 7.07739 46.1427 6.77417 45.839 6.77417 45.4645Z"/>
</defs>
</svg>
