<svg width="48" height="48" viewBox="0 0 48 48" version="1.1" xmlns="http://www.w3.org/2000/svg" xmlns:xlink="http://www.w3.org/1999/xlink">
<title>Vector</title>
<desc>Created using Figma</desc>
<g id="Canvas" transform="translate(-613 -5624)">
<g id="Vector">
<use xlink:href="#path0_fill" transform="translate(613 5624)" fill="url(#paint0_linear)"/>
</g>
</g>
<defs>
<linearGradient id="paint0_linear" x1="0" y1="0" x2="1" y2="0" gradientUnits="userSpaceOnUse" gradientTransform="matrix(2.93915e-15 48 -48 2.93915e-15 48 -2.93915e-15)">
<stop offset="0" stop-color="#6771EE"/>
<stop offset="1" stop-color="#5CA8ED"/>
</linearGradient>
<path id="path0_fill" d="M 45.0621 23.9979C 45.0621 20.8254 48.932 16.9024 47.7876 14.1433C 46.6012 11.2836 41.0463 11.2625 38.891 9.10643C 36.7349 6.95188 36.7122 1.3978 33.8525 0.212092C 31.0926 -0.932267 27.1712 2.93843 23.9979 2.93843C 20.8246 2.93843 16.9032 -0.932268 14.1441 0.211311C 11.2844 1.39779 11.2618 6.9511 9.10642 9.10643C 6.95032 11.2618 1.39779 11.2844 0.212091 14.1441C -0.932268 16.9032 2.93843 20.8246 2.93843 23.9979C 2.93843 27.1712 -0.932267 31.0926 0.211312 33.8517C 1.39701 36.713 6.9511 36.7364 9.10565 38.8925C 11.2602 41.0486 11.2828 46.6027 14.1433 47.7884C 16.9024 48.9328 20.8238 45.0621 23.9979 45.0621C 27.1705 45.0621 31.0934 48.9328 33.8533 47.7876C 36.7138 46.6012 36.7364 41.0479 38.8925 38.8925C 41.0486 36.7372 46.6019 36.7138 47.7884 33.8533C 48.9328 31.0942 45.0621 27.1712 45.0621 23.9979ZM 31.9577 28.1182C 31.9577 31.7221 29.5902 33.9687 26.0362 34.5359L 26.0362 37.3581L 21.3145 37.3581L 21.3168 34.3736C 18.5016 33.9118 16.2253 32.1387 16.2253 32.1387L 18.8581 28.6604C 18.8581 28.6604 21.2802 30.5684 24.2717 30.5684C 26.1774 30.5684 27.3272 29.8094 27.3272 28.5691L 27.3272 28.5075C 27.3272 27.328 26.6002 26.725 23.0626 25.8155C 18.7956 24.7273 16.042 23.5486 16.042 19.3433L 16.042 19.284C 16.042 16.1099 18.149 13.829 21.3168 13.1269L 21.3168 10.6447L 26.0362 10.64L 26.0362 13.1651C 28.5208 13.4116 30.1729 14.7736 30.1729 14.7736L 27.8421 18.4345C 27.8421 18.4345 25.991 17.0109 23.3949 17.0109C 21.6101 17.0109 20.6709 17.8268 20.6709 18.8573L 20.6709 18.9189C 20.6709 20.3105 21.5805 20.763 25.239 21.6998C 29.5356 22.8216 31.9577 24.3599 31.9577 28.0535L 31.9577 28.1182Z"/>
</defs>
</svg>
