<svg width="52" height="51" viewBox="0 0 52 51" version="1.1" xmlns="http://www.w3.org/2000/svg" xmlns:xlink="http://www.w3.org/1999/xlink">
<title>Group 7</title>
<desc>Created using Figma</desc>
<g id="Canvas" transform="translate(-230 -6605)">
<g id="Group 7">
<g id="Shape">
<use xlink:href="#path0_fill" transform="translate(230 6605)" fill="#0282D5"/>
</g>
<g id="Shape">
<use xlink:href="#path1_fill" transform="translate(239.135 6605.5)" fill="#0282D5"/>
</g>
</g>
</g>
<defs>
<path id="path0_fill" d="M 51.2 23.1094C 50.7582 23.1094 50.4 23.4661 50.4 23.9062L 50.4 43.8281C 50.4 46.9088 47.8928 49.4062 44.8 49.4062L 16.8 49.4062C 13.7072 49.4062 11.2 46.9088 11.2 43.8281L 11.2 42.2344L 35.2 42.2344C 39.1765 42.2344 42.4 39.0234 42.4 35.0625L 42.4 15.1406C 42.4 14.7005 42.0418 14.3438 41.6 14.3438C 41.1582 14.3438 40.8 14.7005 40.8 15.1406L 40.8 35.0625C 40.8 38.1432 38.2928 40.6406 35.2 40.6406L 7.2 40.6406C 4.10721 40.6406 1.6 38.1432 1.6 35.0625L 1.6 7.17188C 1.6 4.09116 4.10721 1.59375 7.2 1.59375L 27.2 1.59375C 27.6418 1.59375 28 1.23698 28 0.796875C 28 0.356773 27.6418 0 27.2 0L 7.2 0C 3.22355 0 0 3.21096 0 7.17188L 0 35.0625C 0 39.0234 3.22355 42.2344 7.2 42.2344L 9.6 42.2344L 9.6 43.8281C 9.6 47.789 12.8235 51 16.8 51L 44.8 51C 48.7765 51 52 47.789 52 43.8281L 52 23.9062C 52 23.4661 51.6418 23.1094 51.2 23.1094Z"/>
<path id="path1_fill" d="M 1.34507 14.06C 1.135 13.8664 0.837196 13.7991 0.563846 13.8835C 0.290495 13.968 0.0831236 14.1912 0.0198455 14.4692C -0.0434326 14.7473 0.0469963 15.0378 0.257068 15.2314L 9.80107 23.997C 9.94983 24.1317 10.144 24.2057 10.3451 24.2042C 10.5596 24.1949 10.7614 24.1002 10.9051 23.9412L 31.5291 1.36575C 31.7412 1.15849 31.8205 0.851214 31.735 0.567753C 31.6496 0.284292 31.4135 0.0713466 31.1219 0.014736C 30.8302 -0.0418746 30.5311 0.0671757 30.3451 0.297939L 10.2971 22.2758L 1.34507 14.06Z"/>
</defs>
</svg>
