<svg width="51" height="42" viewBox="0 0 51 42" version="1.1" xmlns="http://www.w3.org/2000/svg" xmlns:xlink="http://www.w3.org/1999/xlink">
<title>Group 8</title>
<desc>Created using Figma</desc>
<g id="Canvas" transform="translate(-233 -6767)">
<g id="Group 8">
<g id="Path 3">
<use xlink:href="#path0_stroke" transform="matrix(-0.258819 -0.965926 0.965926 -0.258819 241.26 6815.35)" fill="#0282D5"/>
</g>
<g id="A+">
<use xlink:href="#path1_fill" transform="translate(246.695 6773.54)" fill="#0282D5"/>
</g>
</g>
</g>
<defs>
<path id="path0_stroke" d="M 35.3209 37.9421L 35.9298 38.38L 35.3209 37.9421ZM 11.009 6.3092L 10.5295 5.7325L 11.009 6.3092ZM 4.07399 32.1911C 3.32432 32.2134 3.32433 32.2138 3.32434 32.2141C 3.32435 32.2143 3.32436 32.2147 3.32437 32.215C 3.32439 32.2157 3.32442 32.2165 3.32445 32.2175C 3.32451 32.2194 3.32459 32.2219 3.32471 32.2249C 3.32493 32.2311 3.32525 32.2394 3.32569 32.25C 3.32659 32.2711 3.328 32.301 3.33013 32.3392C 3.3344 32.4157 3.34158 32.5255 3.35341 32.6652C 3.37706 32.9444 3.41934 33.3433 3.49422 33.8329C 3.6438 34.8108 3.92455 36.1577 4.4507 37.6384C 5.50098 40.5939 7.55232 44.142 11.5476 46.2948L 12.2591 44.9743C 8.70435 43.0588 6.84101 39.8852 5.86411 37.1361C 5.37668 35.7644 5.11572 34.5132 4.97698 33.6061C 4.90771 33.1533 4.86918 32.788 4.84806 32.5386C 4.8375 32.414 4.83131 32.3184 4.8278 32.2556C 4.82605 32.2242 4.82496 32.2009 4.82434 32.1863C 4.82403 32.179 4.82384 32.1738 4.82373 32.1709C 4.82368 32.1694 4.82365 32.1685 4.82364 32.1681C 4.82363 32.168 4.82363 32.1679 4.82363 32.168C 4.82363 32.1681 4.82364 32.1683 4.82364 32.1683C 4.82365 32.1685 4.82365 32.1688 4.07399 32.1911ZM 11.5476 46.2948C 15.4857 48.4169 19.7995 48.9529 24.041 47.6737C 28.273 46.3973 32.3663 43.3352 35.9298 38.38L 34.712 37.5042C 31.2918 42.2601 27.4513 45.0784 23.6079 46.2376C 19.7741 47.3938 15.8709 46.9205 12.2591 44.9743L 11.5476 46.2948ZM 35.9298 38.38C 40.3481 32.2362 43.339 26.2876 44.0784 20.6924C 44.8241 15.0484 43.2702 9.81365 38.7205 5.19506L 37.6519 6.24772C 41.8747 10.5344 43.2769 15.3073 42.5913 20.4959C 41.8992 25.7334 39.0713 31.4425 34.712 37.5042L 35.9298 38.38ZM 38.7205 5.19506C 34.1945 0.600546 29.2884 -1.09878 24.3969 -0.691722C 19.5418 -0.287679 14.7989 2.18269 10.5295 5.7325L 11.4885 6.8859C 15.6224 3.44875 20.0819 1.17256 24.5213 0.803111C 28.9245 0.436682 33.4054 1.93694 37.6519 6.24772L 38.7205 5.19506ZM 10.5295 5.7325C 7.52802 8.22812 5.68781 10.3925 4.38962 13.2036C 3.10705 15.9809 2.37481 19.3483 1.50018 24.1823L 2.97621 24.4493C 3.85411 19.5974 4.56023 16.4119 5.75141 13.8325C 6.92698 11.2869 8.59591 9.29098 11.4885 6.8859L 10.5295 5.7325ZM 1.50018 24.1823C 0.619531 29.0494 0.057609 33.6017 -0.284193 36.9362C -0.455148 38.6039 -0.571166 39.9683 -0.6445 40.9166C -0.681169 41.3908 -0.707171 41.7611 -0.724038 42.0133C -0.732471 42.1394 -0.738621 42.236 -0.742678 42.3014C -0.744706 42.3341 -0.746211 42.359 -0.747218 42.3758C -0.747721 42.3842 -0.748099 42.3906 -0.748355 42.395C -0.748484 42.3972 -0.748581 42.3989 -0.748649 42.4C -0.748683 42.4006 -0.748709 42.4011 -0.748728 42.4014C -0.748738 42.4016 -0.748746 42.4017 -0.748751 42.4018C -0.748758 42.4019 -0.748762 42.402 0 42.4451C 0.748762 42.4881 0.748761 42.4882 0.748762 42.4881C 0.748765 42.4881 0.748767 42.488 0.748773 42.488C 0.748784 42.4878 0.748802 42.4874 0.748828 42.487C 0.748879 42.4861 0.748961 42.4847 0.749073 42.4828C 0.749297 42.479 0.749642 42.4731 0.750111 42.4653C 0.75105 42.4496 0.752485 42.4259 0.754442 42.3943C 0.758355 42.3313 0.764351 42.2371 0.77262 42.1134C 0.789159 41.866 0.81479 41.501 0.851036 41.0323C 0.92353 40.0948 1.03846 38.7429 1.20799 37.0891C 1.54715 33.7804 2.10432 29.2681 2.97621 24.4493L 1.50018 24.1823Z"/>
<path id="path1_fill" d="M 12.0884 19.2707C 12.0737 19.5506 12 19.779 11.8674 19.9558C 11.7348 20.1326 11.5727 20.2357 11.3812 20.2652C 11.1897 20.3094 10.9982 20.2799 10.8066 20.1768C 10.6151 20.0737 10.453 19.8969 10.3204 19.6464C 10.232 18.954 10.1068 18.2762 9.94475 17.6133C 9.78269 16.9355 9.59116 16.2652 9.37017 15.6022L 3.51381 15.6464C 3.48435 15.6464 3.44751 15.6464 3.40331 15.6464C 3.37385 15.6317 3.34438 15.6243 3.31492 15.6243C 2.94659 16.8766 2.6151 18.1731 2.32044 19.5138C 2.20258 19.8232 2.03315 20.0295 1.81215 20.1326C 1.59116 20.2357 1.37753 20.2578 1.17127 20.1989C 0.979742 20.14 0.81768 20.0074 0.685083 19.8011C 0.567219 19.5948 0.537753 19.3297 0.596685 19.0055C 1.08287 16.8692 1.66483 14.7845 2.34254 12.7514C 3.03499 10.7035 3.89687 8.70718 4.92818 6.76243C 5.01657 6.4825 5.22284 6.30571 5.54696 6.23204C 5.70902 6.17311 5.86372 6.16575 6.01105 6.20994C 6.15838 6.23941 6.28361 6.30571 6.38674 6.40884C 6.40147 6.40884 6.40884 6.41621 6.40884 6.43094C 6.40884 6.43094 6.41621 6.43094 6.43094 6.43094C 7.19705 7.16759 7.83794 8 8.35359 8.92818C 8.86925 9.85635 9.3407 10.7993 9.76796 11.7569C 9.93002 12.0958 10.0773 12.4346 10.2099 12.7735C 10.3573 13.1123 10.4972 13.4512 10.6298 13.7901L 11.8011 13.768C 12.081 13.8564 12.2873 13.989 12.4199 14.1657C 12.5525 14.3425 12.6114 14.5267 12.5967 14.7182C 12.5967 14.895 12.523 15.0718 12.3757 15.2486C 12.2284 15.4107 12.0147 15.5212 11.7348 15.5801L 11.2707 15.5801C 11.4622 16.1842 11.6243 16.7956 11.7569 17.4144C 11.9042 18.0184 12.0147 18.6372 12.0884 19.2707ZM 5.98895 8.64088C 5.57643 9.48066 5.19337 10.3352 4.83978 11.2044C 4.50092 12.0737 4.18416 12.9503 3.8895 13.8343L 8.70718 13.7901C 8.51565 13.3481 8.31676 12.9134 8.1105 12.4862C 7.91897 12.0589 7.72007 11.6317 7.51381 11.2044C 7.27808 10.7772 7.04236 10.3425 6.80663 9.90055C 6.5709 9.45856 6.29834 9.03867 5.98895 8.64088ZM 14.7444 16.3315C 14.4203 16.2873 14.1772 16.1768 14.0151 16C 13.8678 15.8232 13.7941 15.6317 13.7941 15.4254C 13.7941 15.2044 13.8752 15.0055 14.0372 14.8287C 14.214 14.6372 14.4719 14.5341 14.8107 14.5193L 17.2637 14.5193L 17.2637 11.2707C 17.3374 10.9761 17.4553 10.7551 17.6173 10.6077C 17.7794 10.4604 17.9636 10.3867 18.1698 10.3867C 18.3614 10.3867 18.5381 10.453 18.7002 10.5856C 18.877 10.7182 19.0022 10.9245 19.0759 11.2044L 19.0759 14.5193L 22.0151 14.5193C 22.2951 14.593 22.5013 14.7182 22.6339 14.895C 22.7665 15.0571 22.8328 15.2339 22.8328 15.4254C 22.8328 15.6317 22.7591 15.8158 22.6118 15.9779C 22.4645 16.14 22.2435 16.2578 21.9488 16.3315L 19.0759 16.3315L 19.0759 19.6464C 19.0612 19.9853 18.958 20.2357 18.7665 20.3978C 18.5897 20.5746 18.3908 20.663 18.1698 20.663C 17.9636 20.663 17.772 20.582 17.5952 20.4199C 17.4184 20.2726 17.3079 20.0368 17.2637 19.7127L 17.2637 16.3315L 14.7444 16.3315Z"/>
</defs>
</svg>
