<svg width="60" height="51" viewBox="0 0 60 51" version="1.1" xmlns="http://www.w3.org/2000/svg" xmlns:xlink="http://www.w3.org/1999/xlink">
<title>Shape</title>
<desc>Created using Figma</desc>
<g id="Canvas" transform="translate(-230 -6472)">
<g id="Shape">
<use xlink:href="#path0_fill" transform="translate(230 6472)" fill="#0F89D7"/>
</g>
</g>
<defs>
<path id="path0_fill" fill-rule="evenodd" d="M 24.8569 0C 22.4976 0 20.5713 1.90967 20.5713 4.24854L 20.5713 16.9932L 4.28564 16.9932C 1.92627 16.9932 0 18.9028 0 21.2417L 0 38.2349C 0 40.5737 1.92627 42.4834 4.28564 42.4834L 7.71436 42.4834L 7.71436 50.1304C 7.70605 50.48 7.91479 50.7993 8.24048 50.9341C 8.56616 51.0693 8.94214 50.9927 9.1875 50.7407L 17.5178 42.4834L 35.1431 42.4834C 37.5024 42.4834 39.4287 40.5737 39.4287 38.2349L 39.4287 25.4897L 42.4819 25.4897L 50.8125 33.7476C 51.0581 33.999 51.4336 34.0757 51.7593 33.9409C 52.085 33.8057 52.2939 33.4868 52.2856 33.1367L 52.2856 25.4897L 55.7144 25.4897C 58.0737 25.4897 60 23.5806 60 21.2417L 60 4.24854C 60 1.90967 58.0737 0 55.7144 0L 24.8569 0ZM 24.8569 1.69922L 55.7144 1.69922C 57.1538 1.69922 58.2856 2.82129 58.2856 4.24805L 58.2856 21.2417C 58.2856 22.6685 57.1538 23.7905 55.7144 23.7905L 51.4287 23.7905C 50.9551 23.7905 50.5713 24.1709 50.5713 24.6401L 50.5713 31.0659L 43.4731 24.0293C 43.3081 23.8711 43.0864 23.7852 42.8569 23.7905L 24.8569 23.7905C 23.4175 23.7905 22.2856 22.6685 22.2856 21.2417L 22.2856 4.24805C 22.2856 2.82129 23.4175 1.69922 24.8569 1.69922ZM 20.5713 18.6929L 4.28589 18.6929C 2.84644 18.6929 1.71436 19.8149 1.71436 21.2417L 1.71436 38.2354C 1.71436 39.6621 2.84644 40.7842 4.28589 40.7842L 8.57153 40.7842C 9.04492 40.7842 9.42871 41.1646 9.42871 41.6338L 9.42871 48.0596L 16.5269 41.0229C 16.6917 40.8647 16.9136 40.7788 17.1428 40.7842L 35.1431 40.7842C 36.5825 40.7842 37.7144 39.6621 37.7144 38.2354L 37.7144 25.4902L 24.8574 25.4902C 22.4976 25.4902 20.5713 23.5806 20.5713 21.2417L 20.5713 18.6929Z"/>
</defs>
</svg>
