<svg width="35" height="48" viewBox="0 0 35 48" version="1.1" xmlns="http://www.w3.org/2000/svg" xmlns:xlink="http://www.w3.org/1999/xlink">
<title>Vector</title>
<desc>Created using Figma</desc>
<g id="Canvas" transform="translate(-243 -5624)">
<g id="Vector">
<use xlink:href="#path0_fill" transform="translate(243 5624)" fill="url(#paint0_linear)"/>
</g>
</g>
<defs>
<linearGradient id="paint0_linear" x1="0" y1="0" x2="1" y2="0" gradientUnits="userSpaceOnUse" gradientTransform="matrix(2.10336e-15 48 -34.3505 2.93915e-15 34.3505 -2.93915e-15)">
<stop offset="0" stop-color="#F2A767"/>
<stop offset="1" stop-color="#F7D762"/>
</linearGradient>
<path id="path0_fill" d="M 30.9123 18.9767L 29.7102 18.9767L 29.7102 12.5367C 29.7102 5.66726 24.1288 0 17.1735 0C 10.2182 0 4.63685 5.66726 4.63685 12.5367L 4.63685 18.9767L 3.4347 18.9767C 1.54562 18.9767 0 20.5224 0 22.4973L 0 44.4794C 0 46.4544 1.54562 48 3.4347 48L 30.9123 48C 32.8014 48 34.347 46.4544 34.347 44.4794L 34.347 22.5832C 34.4329 20.6082 32.8873 18.9767 30.9123 18.9767ZM 8.93023 12.5367C 8.93023 7.98569 12.6225 4.29338 17.1735 4.29338C 21.7245 4.29338 25.4168 7.98569 25.4168 12.5367L 25.4168 18.9767L 8.93023 18.9767L 8.93023 12.5367ZM 19.7496 35.8068L 19.7496 39.0698C 19.7496 40.4436 18.6333 41.6458 17.1735 41.6458C 15.7996 41.6458 14.5975 40.5295 14.5975 39.0698L 14.5975 35.8068C 13.0519 34.9481 12.0215 33.3166 12.0215 31.4275C 12.0215 28.5939 14.3399 26.3614 17.0877 26.3614C 19.9213 26.3614 22.1538 28.6798 22.1538 31.4275C 22.2397 33.3166 21.2093 34.9481 19.7496 35.8068Z"/>
</defs>
</svg>
