<?xml version="1.0" encoding="UTF-8" standalone="no"?><!DOCTYPE svg PUBLIC "-//W3C//DTD SVG 1.1//EN" "http://www.w3.org/Graphics/SVG/1.1/DTD/svg11.dtd"><svg width="100%" height="100%" viewBox="0 0 56 52" version="1.1" xmlns="http://www.w3.org/2000/svg" xmlns:xlink="http://www.w3.org/1999/xlink" xml:space="preserve" style="fill-rule:evenodd;clip-rule:evenodd;stroke-linejoin:round;stroke-miterlimit:1.41421;"><clipPath id="_clip1"><rect x="11.709" y="5.37" width="17.733" height="1.279"/></clipPath><g clip-path="url(#_clip1)"><rect x="6.709" y="0.37" width="27.733" height="11.279" style="fill:#81bb5b;fill-rule:nonzero;"/></g><clipPath id="_clip2"><rect x="11.709" y="9.121" width="14.085" height="1.279"/></clipPath><g clip-path="url(#_clip2)"><rect x="6.709" y="4.121" width="24.085" height="11.279" style="fill:#81bb5b;fill-rule:nonzero;"/></g><clipPath id="_clip3"><rect x="25.115" y="38.702" width="8.655" height="1.279"/></clipPath><g clip-path="url(#_clip3)"><rect x="20.115" y="33.702" width="18.655" height="11.279" style="fill:#81bb5b;fill-rule:nonzero;"/></g><clipPath id="_clip4"><rect x="25.115" y="41.6" width="17.479" height="1.279"/></clipPath><g clip-path="url(#_clip4)"><rect x="20.115" y="36.6" width="27.479" height="11.279" style="fill:#81bb5b;fill-rule:nonzero;"/></g><clipPath id="_clip5"><path d="M50.485,42.282c0.509,0.597 1.273,0.938 2.036,0.938c0.679,0 1.358,-0.256 1.867,-0.768c0.509,-0.511 0.848,-1.193 0.764,-1.96c0,-0.767 -0.34,-1.449 -0.849,-1.876l-6.533,-5.967c1.272,-1.79 1.866,-4.006 1.782,-6.223c-0.085,-1.705 -0.594,-3.324 -1.358,-4.688l0,-3.495c0,-2.217 -1.782,-4.092 -3.988,-4.092l-9.927,0l0,-9.889c0,-2.216 -1.782,-4.092 -3.988,-4.092l-25.794,0l0,0.086l-0.339,0c-2.291,-0.086 -4.158,1.79 -4.158,4.006l0,1.535l6.958,0l0,27.875c0,2.302 1.866,4.092 4.072,4.092l9.843,0l0,9.974c0,2.301 1.866,4.177 4.157,4.092l25.625,0c2.036,0 3.563,-1.62 3.563,-3.837l0,-1.278l0,-0.597l-6.024,0l0,-6.734l2.291,2.898Zm-4.073,-9.889l-0.339,0.427l7.382,6.734c0.254,0.256 0.424,0.597 0.424,1.023c0,0.426 -0.17,0.767 -0.424,1.023c-0.255,0.256 -0.594,0.426 -0.934,0.426c-0.424,0 -0.763,-0.17 -1.018,-0.511l-6.364,-7.758l-0.509,0.341c-1.527,1.109 -3.309,1.705 -5.175,1.705c-4.413,0 -8.316,-3.41 -8.825,-7.757c-0.339,-2.557 0.509,-5.03 2.206,-6.99c1.867,-2.046 4.497,-3.154 7.382,-2.984c4.412,0.341 7.891,4.007 8.061,8.439c0.085,2.132 -0.594,4.263 -1.867,5.882Zm-39.454,-27.875l-5.685,0l0,-0.256c0,-1.534 1.272,-2.898 2.885,-2.898c1.527,0 2.884,1.279 2.884,2.898l0,0.256l-0.084,0Zm1.272,29.154l0,-2.131l0,-27.279c0,-1.108 -0.424,-2.131 -1.188,-2.898l23.079,0c1.527,0 2.885,1.279 2.885,2.898l0,9.889l-14.594,0l0,0.085l-0.339,0c-2.291,0 -4.073,1.875 -4.073,4.092l0,15.344c0,1.535 -1.273,2.898 -2.885,2.898c-1.612,0 -2.885,-1.278 -2.885,-2.898Zm5.77,2.898c0.679,-0.767 1.188,-1.79 1.188,-2.898l0,-15.344c0,-1.535 1.273,-2.898 2.885,-2.898c1.612,0 2.885,1.278 2.885,2.898l0,18.242l-6.958,0Zm38.945,11.423c0,1.45 -1.018,2.558 -2.29,2.558l-22.74,0c0.679,-0.767 1.188,-1.79 1.188,-2.899l0,-0.255l23.842,0l0,0.596Zm-6.109,-1.79l-18.412,0l-0.848,0.086l0.169,0.681c0.085,0.171 0.085,0.512 0.085,0.768c0,1.534 -1.272,2.898 -2.885,2.898c-1.527,0 -2.884,-1.279 -2.884,-2.898l0,-29.41c0,-1.108 -0.425,-2.131 -1.188,-2.898l23.079,0c1.527,0 2.884,1.278 2.884,2.898l0,1.79c-1.697,-1.79 -3.988,-3.069 -6.618,-3.239c-3.224,-0.256 -6.279,1.023 -8.4,3.41c-1.951,2.216 -2.8,5.029 -2.46,7.927c0.594,5.115 4.921,8.951 10.097,8.951c1.951,0 3.818,-0.597 5.43,-1.619l1.951,2.386l0,8.269Z"/></clipPath><g clip-path="url(#_clip5)"><rect x="-5" y="-4.83" width="65.165" height="61.662" style="fill:#81bb5b;fill-rule:nonzero;"/></g><clipPath id="_clip6"><path d="M38.953,29.215l0.002,0.002l-0.78,0.78l-0.002,-0.002l-0.012,0.012l-0.78,-0.78l0.012,-0.012l-2.232,-2.232l0.78,-0.78l2.232,2.232l4.211,-4.211l0.78,0.78l-4.211,4.211Zm0,0l-0.78,-0.78l-0.78,0.78l0.78,0.78l0.78,-0.78Z"/></clipPath><g clip-path="url(#_clip6)"><path d="M28.078,26.995l12.074,-12.075l10.085,10.085l-12.074,12.075l-10.085,-10.085Z" style="fill:#81bb5b;fill-rule:nonzero;"/></g></svg>