<?xml version="1.0" encoding="UTF-8" standalone="no"?><!DOCTYPE svg PUBLIC "-//W3C//DTD SVG 1.1//EN" "http://www.w3.org/Graphics/SVG/1.1/DTD/svg11.dtd"><svg width="100%" height="100%" viewBox="0 0 50 45" version="1.1" xmlns="http://www.w3.org/2000/svg" xmlns:xlink="http://www.w3.org/1999/xlink" xml:space="preserve" style="fill-rule:evenodd;clip-rule:evenodd;stroke-linejoin:round;stroke-miterlimit:1.41421;"><clipPath id="_clip1"><path d="M25,0c-1.895,0 -3.448,1.559 -3.448,3.462l0,5.192l-18.76,0c-1.587,0 -2.792,1.414 -2.792,3.029l0,30.288c0,1.615 1.205,3.029 2.792,3.029l44.416,0c1.587,0 2.792,-1.414 2.792,-3.029l0,-30.288c0,-1.615 -1.205,-3.029 -2.792,-3.029l-18.76,0l0,-5.192c0,-1.903 -1.553,-3.462 -3.448,-3.462Zm-0.05,1.131c1.28,0 2.274,0.844 2.274,1.931l0,9.653l-4.548,0l0,-1.93l0,-1.931l0,-5.792c0,-1.087 0.994,-1.931 2.274,-1.931Zm0.05,1.465c-0.476,0 -0.862,0.388 -0.862,0.866c0,0.477 0.386,0.865 0.862,0.865c0.476,0 0.862,-0.388 0.862,-0.865c0,-0.478 -0.386,-0.866 -0.862,-0.866Zm-22.808,7.189l19.36,0l0,2.93l-1.724,0l0,1.131l10.344,0l0,-1.131l-1.724,0l0,-2.93l19.36,0c0.554,0 1.068,0.515 1.068,1.298l0,4.494l-47.752,0l0,-4.494c0,-0.783 0.514,-1.298 1.068,-1.298Zm-0.968,6.923l47.652,0l0,25.763c0,0.783 -0.514,1.298 -1.068,1.298l-45.516,0c-0.554,0 -1.068,-0.515 -1.068,-1.298l0,-25.763Zm14.293,4.061l0,1.131l20.69,0l0,-1.131l-20.69,0Zm-3.805,3.479l0.01,0.017c-0.282,0.017 -0.544,0.105 -0.764,0.243c-0.55,0.281 -0.971,0.683 -1.236,1.105c-0.275,0.438 -0.43,0.865 -0.616,1.282l-0.024,0.05l-0.017,0.051c-0.374,1.257 -0.811,2.415 -1.283,3.58l-0.296,0.733l0.7,0.362c0.801,0.414 1.419,0.705 2.081,1.007l0.364,0.386c-0.077,0.221 -0.268,0.49 -0.114,0.335l-0.021,0.023l-0.02,0.02c-0.093,0.108 -0.475,0.321 -1.04,0.524l-0.014,0l-0.013,0c-1.148,0.453 -3.012,1.255 -4.163,3.533l-0.289,0.571l0.461,0.446c1.391,1.339 3.136,2.306 5.085,2.749l0.003,0c0.113,0.024 0.259,0.06 0.428,0.088c0.488,0.09 0.961,0.119 1.404,0.142l0.044,0c0.131,0 0.35,0.033 0.66,0.033l0.014,0c2.874,-0.043 5.482,-1.21 7.395,-3.089l0.417,-0.413l-0.225,-0.541c-0.955,-2.285 -2.797,-3.113 -3.977,-3.603l-0.004,0l-0.007,0c-0.613,-0.245 -1.005,-0.431 -1.242,-0.636c0.041,0.037 -0.038,-0.102 -0.108,-0.23l0.333,-0.351c0.746,-0.309 1.408,-0.667 2.034,-0.997l0.657,-0.349l-0.246,-0.703c-0.459,-1.32 -0.994,-2.901 -1.162,-3.552l-0.006,-0.028l-0.01,-0.023c-0.231,-0.709 -0.56,-1.261 -0.991,-1.673c-0.43,-0.413 -0.904,-0.674 -1.441,-0.981l-0.198,-0.111l-0.226,0l-1.387,0l-0.903,0l-0.01,0c-0.013,0 -0.024,-0.001 -0.037,0l0,0Zm12.426,1.714l0,1.13l20.69,0l0,-1.13l-20.69,0Zm-10.271,-0.846c0.452,0.263 0.835,0.487 1.042,0.685c0.247,0.236 0.418,0.489 0.608,1.075c0.199,0.757 0.948,2.044 1.365,3.251c-0.531,0.283 -0.257,0.584 -0.79,0.788l-0.203,0.079l-1.75,1.533l0.177,0.545c0,0 0.083,0.258 0.208,0.56c0.124,0.302 1.012,0.626 1.4,1.015l0.042,0.041c0.593,0.528 0.57,0.79 1.293,1.079c1.091,0.459 1.237,1.075 2.041,2.381c-1.728,1.445 -3.864,2.415 -6.29,2.452c-0.135,-0.001 -0.372,-0.03 -0.679,-0.034l-0.049,0c-0.461,-0.025 -0.893,-0.055 -1.273,-0.125c-0.117,-0.019 -0.246,-0.045 -0.407,-0.079c-1.533,-0.348 -2.818,-1.21 -4.002,-2.165c0.929,-1.27 1.414,-1.902 2.458,-2.313c0.656,-0.226 0.857,-0.478 1.414,-1.101c0.429,-0.447 1.082,-0.799 1.189,-1.132c0.11,-0.342 0.177,-0.636 0.177,-0.636l0.117,-0.503l-1.489,-1.369l-0.174,-0.079c-0.547,-0.249 -0.706,-0.333 -1.268,-0.61c0.404,-1.031 1.004,-2.365 1.347,-3.502c0.238,-0.533 0.403,-0.938 0.567,-1.2c0.166,-0.265 0.299,-0.409 0.634,-0.571l0.064,-0.031c0.717,-0.07 1.461,-0.034 2.231,-0.034Zm10.271,4.307l0,1.131l13.793,0l0,-1.131l-13.793,0Zm0,3.462l0,1.13l18.965,0l0,-1.13l-18.965,0Zm0,3.461l0,1.131l12.069,0l0,-1.131l-12.069,0Z"/></clipPath><g clip-path="url(#_clip1)"><rect x="-5" y="-5" width="60" height="55" style="fill:#0282d5;fill-rule:nonzero;"/></g></svg>