<?xml version="1.0" encoding="UTF-8" standalone="no"?><!DOCTYPE svg PUBLIC "-//W3C//DTD SVG 1.1//EN" "http://www.w3.org/Graphics/SVG/1.1/DTD/svg11.dtd"><svg width="100%" height="100%" viewBox="0 0 48 42" version="1.1" xmlns="http://www.w3.org/2000/svg" xmlns:xlink="http://www.w3.org/1999/xlink" xml:space="preserve" style="fill-rule:evenodd;clip-rule:evenodd;stroke-linejoin:round;stroke-miterlimit:1.41421;"><clipPath id="_clip1"><path d="M44,0c2.206,0 4,1.783 4,3.976l0,22.722c0,2.193 -1.794,3.977 -4,3.977l-5.982,0l1.107,10.722c0.06,0.471 -0.654,0.806 -0.982,0.461l-11.286,-11.183l-4.571,0l0,2.307c0,1.546 -1.279,2.805 -2.84,2.805l-8.839,0l-6.214,6.071c-0.341,0.333 -1.041,-0.028 -0.964,-0.497l0.982,-5.574l-1.572,0c-1.56,0 -2.839,-1.259 -2.839,-2.805l0,-10.864c0,-1.545 1.279,-2.804 2.839,-2.804l4.018,0l0,-15.338c0,-2.193 1.794,-3.976 4,-3.976l33.143,0Zm0,1.136l-33.143,0c-1.593,0 -2.857,1.257 -2.857,2.84l0,22.722c0,1.584 1.264,2.841 2.857,2.841l16.232,0c0.151,-0.006 0.303,0.055 0.411,0.159l10.321,10.243l-1.017,-9.781c-0.03,-0.315 0.253,-0.623 0.571,-0.621l6.625,0c1.593,0 2.857,-1.257 2.857,-2.841l0,-22.722c0,-1.583 -1.264,-2.84 -2.857,-2.84Zm-4,6.249c0.316,0 0.571,0.254 0.571,0.568c0,0.313 -0.255,0.568 -0.571,0.568l-25.143,0c-0.315,0 -0.571,-0.255 -0.571,-0.568c0,-0.314 0.256,-0.568 0.571,-0.568l25.143,0Zm0,7.384c0.316,0 0.571,0.255 0.571,0.568c0,0.314 -0.255,0.568 -0.571,0.568l-25.143,0c-0.315,0 -0.571,-0.254 -0.571,-0.568c0,-0.313 0.256,-0.568 0.571,-0.568l25.143,0Zm-33.143,5.681l-4.018,0c-0.949,0 -1.696,0.74 -1.696,1.668l0,10.864c0,0.929 0.747,1.669 1.696,1.669l2.268,0c0.332,-0.006 0.623,0.331 0.572,0.657l-0.804,4.509l5.125,-5.006c0.104,-0.1 0.248,-0.159 0.393,-0.16l9.053,0c0.95,0 1.697,-0.74 1.697,-1.669l0,-2.307l-10.286,0c-2.206,0 -4,-1.784 -4,-3.977l0,-6.248Zm33.143,1.704c0.316,0 0.571,0.254 0.571,0.568c0,0.314 -0.255,0.568 -0.571,0.568l-25.143,0c-0.315,0 -0.571,-0.254 -0.571,-0.568c0,-0.314 0.256,-0.568 0.571,-0.568l25.143,0Z"/></clipPath><g clip-path="url(#_clip1)"><rect x="-5" y="-5" width="58" height="52" style="fill:#3caac1;fill-rule:nonzero;"/></g></svg>