<?xml version="1.0" encoding="UTF-8" standalone="no"?><!DOCTYPE svg PUBLIC "-//W3C//DTD SVG 1.1//EN" "http://www.w3.org/Graphics/SVG/1.1/DTD/svg11.dtd"><svg width="100%" height="100%" viewBox="0 0 48 46" version="1.1" xmlns="http://www.w3.org/2000/svg" xmlns:xlink="http://www.w3.org/1999/xlink" xml:space="preserve" style="fill-rule:evenodd;clip-rule:evenodd;stroke-linejoin:round;stroke-miterlimit:1.41421;"><clipPath id="_clip1"><rect x="10.4" y="11.537" width="26.764" height="1.095"/></clipPath><g clip-path="url(#_clip1)"><rect x="5.4" y="6.537" width="36.764" height="11.095" style="fill:#7249c4;fill-rule:nonzero;"/></g><clipPath id="_clip2"><rect x="10.4" y="18.473" width="15.491" height="1.095"/></clipPath><g clip-path="url(#_clip2)"><rect x="5.4" y="13.473" width="25.491" height="11.095" style="fill:#7249c4;fill-rule:nonzero;"/></g><clipPath id="_clip3"><rect x="10.4" y="25.337" width="12.436" height="1.095"/></clipPath><g clip-path="url(#_clip3)"><rect x="5.4" y="20.337" width="22.436" height="11.095" style="fill:#7249c4;fill-rule:nonzero;"/></g><clipPath id="_clip4"><rect x="10.4" y="32.2" width="13.891" height="1.095"/></clipPath><g clip-path="url(#_clip4)"><rect x="5.4" y="27.2" width="23.891" height="11.095" style="fill:#7249c4;fill-rule:nonzero;"/></g><clipPath id="_clip5"><rect x="10.4" y="39.137" width="20.073" height="1.095"/></clipPath><g clip-path="url(#_clip5)"><rect x="5.4" y="34.137" width="30.073" height="11.095" style="fill:#7249c4;fill-rule:nonzero;"/></g><clipPath id="_clip6"><path d="M43.164,0l-31.928,0l-0.072,0c-2.837,0 -5.164,2.337 -5.164,5.184l0,40.816l35.636,0l0,-9.93c2.4,-1.826 4,-4.746 4,-8.032c0,-3.286 -1.6,-6.206 -4,-8.032l0,-13.143l5.891,0l0,-0.511c0,0 0.073,-1.168 0.073,-1.606c0,-2.702 -1.891,-4.746 -4.436,-4.746Zm1.381,28.038c0,4.892 -4,8.908 -8.872,8.908c-4.873,0 -8.873,-4.016 -8.873,-8.908c0,-4.892 4,-8.908 8.873,-8.908c4.872,0 8.872,4.016 8.872,8.908Zm-4,-8.689c-1.454,-0.803 -3.127,-1.314 -4.872,-1.314c-5.528,0 -9.964,4.454 -9.964,10.003c0,5.549 4.436,10.003 9.964,10.003c1.745,0 3.418,-0.438 4.872,-1.314l0,8.105l-33.454,0l0,-39.721c0,-2.263 1.818,-4.089 4.073,-4.089c2.254,0.073 4.072,1.899 4.072,4.162c0,0.292 -0.072,0.73 -0.145,1.095l-0.146,0.584l0.582,0.074l25.018,0l0,12.412Zm5.964,-13.508l-30.254,0c0,-0.219 0.072,-0.438 0.072,-0.657c0,-1.679 -0.8,-3.14 -2.036,-4.089l28.8,0c1.964,0 3.345,1.534 3.345,3.651c0.073,0.292 0.073,0.73 0.073,1.095Z"/></clipPath><g clip-path="url(#_clip6)"><rect x="1" y="-5" width="51.6" height="56" style="fill:#7249c4;fill-rule:nonzero;"/></g><clipPath id="_clip7"><path d="M36.218,21.686l-1.091,0l0,4.746c-0.654,0.219 -1.163,0.876 -1.163,1.606c0,0.949 0.727,1.679 1.672,1.679c0.291,0 0.509,-0.073 0.728,-0.219l2.254,2.264l0.8,-0.803l-2.254,-2.264c0.145,-0.219 0.145,-0.511 0.145,-0.73c0,-0.73 -0.509,-1.387 -1.164,-1.606l0.073,-4.673Zm-0.073,6.79c-0.145,0.146 -0.29,0.219 -0.436,0.219c-0.364,0 -0.582,-0.292 -0.582,-0.584c0,-0.365 0.291,-0.584 0.582,-0.584c0.364,0 0.582,0.292 0.582,0.584c0,0.146 0,0.292 -0.146,0.365Z"/></clipPath><g clip-path="url(#_clip7)"><rect x="28.964" y="16.686" width="15.455" height="20.076" style="fill:#7249c4;fill-rule:nonzero;"/></g><clipPath id="_clip8"><rect x="35.127" y="19.787" width="1.091" height="0.876"/></clipPath><g clip-path="url(#_clip8)"><rect x="30.127" y="14.787" width="11.091" height="10.876" style="fill:#7249c4;fill-rule:nonzero;"/></g><clipPath id="_clip9"><path d="M30.142,23.251l-0.617,-0.617l0.774,-0.775l0.617,0.617l-0.774,0.775Z"/></clipPath><g clip-path="url(#_clip9)"><path d="M30.144,30.322l-7.69,-7.686l7.843,-7.848l7.69,7.686l-7.843,7.848Z" style="fill:#7249c4;fill-rule:nonzero;"/></g><clipPath id="_clip10"><rect x="27.491" y="27.527" width="0.873" height="1.095"/></clipPath><g clip-path="url(#_clip10)"><rect x="22.491" y="22.527" width="10.873" height="11.095" style="fill:#7249c4;fill-rule:nonzero;"/></g><clipPath id="_clip11"><path d="M30.283,34.262l-0.771,-0.771l0.619,-0.62l0.772,0.772l-0.62,0.619Z"/></clipPath><g clip-path="url(#_clip11)"><path d="M30.283,41.333l-7.842,-7.842l7.69,-7.691l7.843,7.843l-7.691,7.69Z" style="fill:#7249c4;fill-rule:nonzero;"/></g><clipPath id="_clip12"><rect x="35.127" y="35.413" width="1.091" height="0.876"/></clipPath><g clip-path="url(#_clip12)"><rect x="30.127" y="30.413" width="11.091" height="10.876" style="fill:#7249c4;fill-rule:nonzero;"/></g><clipPath id="_clip13"><path d="M41.277,32.829l0.617,0.617l-0.775,0.775l-0.617,-0.618l0.775,-0.774Z"/></clipPath><g clip-path="url(#_clip13)"><path d="M41.279,25.758l7.686,7.69l-7.848,7.844l-7.686,-7.691l7.848,-7.843Z" style="fill:#7249c4;fill-rule:nonzero;"/></g><clipPath id="_clip14"><rect x="43.055" y="27.527" width="0.873" height="1.095"/></clipPath><g clip-path="url(#_clip14)"><rect x="38.055" y="22.527" width="10.873" height="11.095" style="fill:#7249c4;fill-rule:nonzero;"/></g><clipPath id="_clip15"><path d="M41.157,21.798l0.771,0.771l-0.619,0.62l-0.772,-0.772l0.62,-0.619Z"/></clipPath><g clip-path="url(#_clip15)"><path d="M41.157,14.727l7.843,7.842l-7.691,7.691l-7.843,-7.843l7.691,-7.69Z" style="fill:#7249c4;fill-rule:nonzero;"/></g><clipPath id="_clip16"><path d="M0,22.197l0,21.832c0,1.095 0.873,1.971 2.036,1.971c1.091,0 2.037,-0.876 2.037,-2.044l0,-21.759l-2.037,-4.016l-2.036,4.016Zm1.091,2.19l1.818,0l0,15.991l-1.818,0l0,-15.991Zm0.945,20.518c-0.509,0 -0.945,-0.438 -0.945,-0.949l0,-2.483l1.818,0l0,2.483c0,0.511 -0.436,0.949 -0.873,0.949Zm0.873,-21.613l-1.818,0l0,-0.876l0.945,-1.826l0.873,1.826l0,0.876Z"/></clipPath><g clip-path="url(#_clip16)"><rect x="-5" y="13.181" width="14.073" height="37.819" style="fill:#7249c4;fill-rule:nonzero;"/></g></svg>