<?xml version="1.0" encoding="UTF-8" standalone="no"?><!DOCTYPE svg PUBLIC "-//W3C//DTD SVG 1.1//EN" "http://www.w3.org/Graphics/SVG/1.1/DTD/svg11.dtd"><svg width="100%" height="100%" viewBox="0 0 37 48" version="1.1" xmlns="http://www.w3.org/2000/svg" xmlns:xlink="http://www.w3.org/1999/xlink" xml:space="preserve" style="fill-rule:evenodd;clip-rule:evenodd;stroke-linejoin:round;stroke-miterlimit:1.41421;"><clipPath id="_clip1"><path d="M31.988,13.366l0,-10.634c0,-1.55 -1.253,-2.732 -2.727,-2.732l-26.534,0c-1.548,0 -2.727,1.255 -2.727,2.732l0,42.536c0,1.55 1.253,2.732 2.727,2.732l26.534,0c1.548,0 2.727,-1.255 2.727,-2.732l0,-13.957c3.022,-1.846 5.012,-5.169 5.012,-8.936c0,-3.84 -1.99,-7.163 -5.012,-9.009Zm-1.106,31.902c0,0.886 -0.737,1.624 -1.621,1.624l-26.534,0c-0.884,0 -1.621,-0.738 -1.621,-1.624l0,-42.536c0,-0.886 0.737,-1.624 1.621,-1.624l26.534,0c0.884,0 1.621,0.738 1.621,1.624l0,10.043c-0.81,-0.369 -1.621,-0.59 -2.506,-0.812l0,-5.538l-24.838,0l0,34.56l24.912,0l0,-8.345c0.885,-0.148 1.695,-0.443 2.506,-0.812l0,13.44l-0.074,0Zm-10.023,-14.179c2.063,1.625 4.864,1.699 5.749,1.699c0.294,0 0.516,0 0.737,-0.074l0,7.163l-22.702,0l0,-32.345l22.702,0l0,4.357c-0.221,0 -0.516,-0.074 -0.737,-0.074c-5.749,0 -10.467,4.727 -10.467,10.487c0,2.215 0.664,4.283 1.917,6.055l-1.474,3.766l4.275,-1.034Zm5.675,0.591c-1.622,0 -3.833,-0.443 -5.233,-1.625l-0.221,-0.147l-2.727,0.664l0.884,-2.363l-0.147,-0.221c-1.253,-1.625 -1.917,-3.619 -1.917,-5.686c0,-5.17 4.201,-9.379 9.361,-9.379c5.159,0 9.36,4.209 9.36,9.379c0,5.169 -4.201,9.378 -9.36,9.378Z"/></clipPath><g clip-path="url(#_clip1)"><rect x="-5" y="-5" width="47" height="58" style="fill:#e57361;fill-rule:nonzero;"/></g><clipPath id="_clip2"><path d="M18.735,43.569l-4.91,0c-0.288,0 -0.505,0.158 -0.505,0.369c0,0.211 0.217,0.37 0.505,0.37l4.91,0c0.288,0 0.505,-0.159 0.505,-0.37c0,-0.158 -0.217,-0.369 -0.505,-0.369Z"/></clipPath><g clip-path="url(#_clip2)"><rect x="8.32" y="38.569" width="15.92" height="10.738" style="fill:#e57361;fill-rule:nonzero;"/></g><clipPath id="_clip3"><rect x="11.1" y="2.954" width="7.4" height="1.477"/></clipPath><g clip-path="url(#_clip3)"><rect x="6.1" y="-2.046" width="17.4" height="11.477" style="fill:#e57361;fill-rule:nonzero;"/></g><clipPath id="_clip4"><rect x="19.98" y="2.954" width="1.48" height="1.477"/></clipPath><g clip-path="url(#_clip4)"><rect x="14.98" y="-2.046" width="11.48" height="11.477" style="fill:#e57361;fill-rule:nonzero;"/></g><clipPath id="_clip5"><path d="M24.819,25.733l-2.556,-2.651l-0.803,0.757l3.359,3.484l7.741,-8.104l-0.73,-0.757l-7.011,7.271Z"/></clipPath><g clip-path="url(#_clip5)"><rect x="16.46" y="13.462" width="21.1" height="18.862" style="fill:#e57361;fill-rule:nonzero;"/></g></svg>