<?xml version="1.0" encoding="UTF-8" standalone="no"?><!DOCTYPE svg PUBLIC "-//W3C//DTD SVG 1.1//EN" "http://www.w3.org/Graphics/SVG/1.1/DTD/svg11.dtd"><svg width="100%" height="100%" viewBox="0 0 53 55" version="1.1" xmlns="http://www.w3.org/2000/svg" xmlns:xlink="http://www.w3.org/1999/xlink" xml:space="preserve" style="fill-rule:evenodd;clip-rule:evenodd;stroke-linejoin:round;stroke-miterlimit:1.41421;"><clipPath id="_clip1"><path d="M6.523,48.761l1.223,0l0,1.232l-1.223,0l0,-1.232Zm9.785,0l1.223,0l0,1.232l-1.223,0l0,-1.232Zm-3.262,0l1.223,0l0,1.232l-1.223,0l0,-1.232Zm-3.261,0l1.223,0l0,1.232l-1.223,0l0,-1.232Z"/></clipPath><g clip-path="url(#_clip1)"><rect x="1.523" y="43.761" width="21.008" height="11.231" style="fill:#e89b00;fill-rule:nonzero;"/></g><clipPath id="_clip2"><path d="M53,29.005c-0.082,-1.421 -1.231,-2.592 -2.625,-2.592l0,-3.176c0,-2.758 -2.134,-5.015 -4.841,-5.182l-4.43,-12.204l-2.462,0.92l-2.707,-4.849l-2.954,1.672l-3.035,-3.594l-21.906,18.055l-2.953,0c-2.79,0 -5.087,2.34 -5.087,5.182l0,26.581c0,2.842 2.297,5.182 5.087,5.182l40.119,0c2.789,0 5.087,-2.34 5.087,-5.182l0,-7.607c1.476,-0.167 2.707,-1.504 2.707,-3.092l0,-10.114Zm-1.231,0.25c0,0.836 -0.656,1.505 -1.476,1.588l0,-3.092c0.82,0 1.476,0.668 1.476,1.504Zm-29.617,-11.2l13.127,-4.848c0.656,1.17 1.969,2.006 3.281,2.006c0.247,0 0.493,0 0.739,-0.084l1.066,3.009l-18.213,0l0,-0.083Zm21.987,0l-2.461,0l-1.641,-4.514l-0.574,0.167c-0.246,0.084 -0.574,0.167 -0.903,0.167c-1.066,0 -2.051,-0.668 -2.379,-1.755l-0.246,-0.585l-17.393,6.436l-6.646,0l28.469,-10.532l3.774,10.616Zm-6.645,-10.867l-22.562,8.359l20.511,-11.953l2.051,3.594Zm-5.579,-2.925l-17.557,10.197l15.424,-12.705l2.133,2.508Zm17.147,45.555c0,2.173 -1.723,3.928 -3.856,3.928l-40.119,0c-2.133,0 -3.856,-1.755 -3.856,-3.928l0,-26.581c0,-2.173 1.723,-3.928 3.856,-3.928l2.871,0l0.082,0.167l37.904,0l0,-0.084c1.805,0.334 3.2,1.923 3.2,3.845l0,7.606l-8.122,0c-2.79,0 -5.169,2.341 -5.169,5.266l0,1.003c0,2.842 2.297,5.266 5.169,5.266l8.04,0l0,7.44Zm0.902,-8.861l-9.024,0c-2.133,0 -3.938,-1.755 -3.938,-4.012l0,-1.003c0,-2.173 1.722,-4.012 3.938,-4.012l9.353,0c0.492,0 1.066,-0.167 1.476,-0.501l0,7.522c0,1.171 -0.82,2.006 -1.805,2.006Z"/></clipPath><g clip-path="url(#_clip2)"><rect x="-5.031" y="-5.091" width="63.062" height="65.182" style="fill:#e89b00;fill-rule:nonzero;"/></g><clipPath id="_clip3"><path d="M41.422,33.493c-1.55,0 -2.854,1.313 -2.854,2.873c0,1.559 1.304,2.873 2.854,2.873c1.549,0 2.853,-1.314 2.853,-2.873c0,-1.56 -1.304,-2.873 -2.853,-2.873Zm0,4.514c-0.897,0 -1.631,-0.738 -1.631,-1.641c0,-0.903 0.734,-1.642 1.631,-1.642c0.896,0 1.63,0.739 1.63,1.642c0,0.903 -0.734,1.641 -1.63,1.641Z"/></clipPath><g clip-path="url(#_clip3)"><rect x="33.568" y="28.493" width="15.708" height="15.746" style="fill:#e89b00;fill-rule:nonzero;"/></g></svg>