<svg width="64" height="64" viewBox="0 0 64 64" fill="none" xmlns="http://www.w3.org/2000/svg">
<path fill-rule="evenodd" clip-rule="evenodd" d="M0 0H64V64H0V0Z" fill="white" fill-opacity="0.01"/>
<path d="M39.8438 28.9062H41.4062C42.2687 28.9062 42.9688 28.207 42.9688 27.3438V25.7812C42.9688 24.9188 42.2687 24.2188 41.4062 24.2188H39.8438C38.9813 24.2188 38.2812 24.9188 38.2812 25.7812V27.3438C38.2812 28.207 38.9813 28.9062 39.8438 28.9062ZM39.8438 25.7812H41.4062V27.3438H39.8438V25.7812ZM39.8438 36.7188H41.4062C42.2687 36.7188 42.9688 36.0195 42.9688 35.1562V33.5938C42.9688 32.7313 42.2687 32.0312 41.4062 32.0312H39.8438C38.9813 32.0312 38.2812 32.7313 38.2812 33.5938V35.1562C38.2812 36.0195 38.9813 36.7188 39.8438 36.7188ZM39.8438 33.5938H41.4062V35.1562H39.8438V33.5938ZM32.0312 28.9062H33.5938C34.4562 28.9062 35.1562 28.207 35.1562 27.3438V25.7812C35.1562 24.9188 34.4562 24.2188 33.5938 24.2188H32.0312C31.1688 24.2188 30.4688 24.9188 30.4688 25.7812V27.3438C30.4688 28.207 31.1688 28.9062 32.0312 28.9062ZM32.0312 25.7812H33.5938V27.3438H32.0312V25.7812ZM32.0312 36.7188H33.5938C34.4562 36.7188 35.1562 36.0195 35.1562 35.1562V33.5938C35.1562 32.7313 34.4562 32.0312 33.5938 32.0312H32.0312C31.1688 32.0312 30.4688 32.7313 30.4688 33.5938V35.1562C30.4688 36.0195 31.1688 36.7188 32.0312 36.7188ZM32.0312 33.5938H33.5938V35.1562H32.0312V33.5938ZM8.59375 36.7188H10.1562C11.0188 36.7188 11.7188 36.0195 11.7188 35.1562V33.5938C11.7188 32.7313 11.0188 32.0312 10.1562 32.0312H8.59375C7.73125 32.0312 7.03125 32.7313 7.03125 33.5938V35.1562C7.03125 36.0195 7.73125 36.7188 8.59375 36.7188ZM8.59375 33.5938H10.1562V35.1562H8.59375V33.5938ZM32.0312 44.5312H33.5938C34.4562 44.5312 35.1562 43.832 35.1562 42.9688V41.4062C35.1562 40.5438 34.4562 39.8438 33.5938 39.8438H32.0312C31.1688 39.8438 30.4688 40.5438 30.4688 41.4062V42.9688C30.4688 43.832 31.1688 44.5312 32.0312 44.5312ZM32.0312 41.4062H33.5938V42.9688H32.0312V41.4062ZM8.59375 44.5312H10.1562C11.0188 44.5312 11.7188 43.832 11.7188 42.9688V41.4062C11.7188 40.5438 11.0188 39.8438 10.1562 39.8438H8.59375C7.73125 39.8438 7.03125 40.5438 7.03125 41.4062V42.9688C7.03125 43.832 7.73125 44.5312 8.59375 44.5312ZM8.59375 41.4062H10.1562V42.9688H8.59375V41.4062ZM48.4375 4.6875H45.3125V2.34375C45.3125 1.04922 44.2633 0 42.9688 0C41.6742 0 40.625 1.04922 40.625 2.34375V4.6875H39.0625V2.34375C39.0625 1.04922 38.0133 0 36.7188 0C35.4242 0 34.375 1.04922 34.375 2.34375V4.6875H15.625V2.34375C15.625 1.04922 14.5758 0 13.2812 0C11.9867 0 10.9375 1.04922 10.9375 2.34375V4.6875H9.375V2.34375C9.375 1.04922 8.32578 0 7.03125 0C5.73672 0 4.6875 1.04922 4.6875 2.34375V4.6875H1.5625C0.7 4.6875 0 5.3875 0 6.25V48.4375C0 49.3008 0.7 50 1.5625 50H48.4375C49.3 50 50 49.3008 50 48.4375V6.25C50 5.3875 49.3 4.6875 48.4375 4.6875ZM42.1875 2.34375C42.1875 1.91172 42.5367 1.5625 42.9688 1.5625C43.4 1.5625 43.75 1.91172 43.75 2.34375V8.59375C43.75 9.025 43.4 9.375 42.9688 9.375C42.5367 9.375 42.1875 9.025 42.1875 8.59375V2.34375ZM35.9375 2.34375C35.9375 1.91172 36.2867 1.5625 36.7188 1.5625C37.15 1.5625 37.5 1.91172 37.5 2.34375V8.59375C37.5 9.025 37.15 9.375 36.7188 9.375C36.2867 9.375 35.9375 9.025 35.9375 8.59375V2.34375ZM12.5 2.34375C12.5 1.91172 12.8492 1.5625 13.2812 1.5625C13.7125 1.5625 14.0625 1.91172 14.0625 2.34375V8.59375C14.0625 9.025 13.7125 9.375 13.2812 9.375C12.8492 9.375 12.5 9.025 12.5 8.59375V2.34375ZM6.25 2.34375C6.25 1.91172 6.59922 1.5625 7.03125 1.5625C7.4625 1.5625 7.8125 1.91172 7.8125 2.34375V8.59375C7.8125 9.025 7.4625 9.375 7.03125 9.375C6.59922 9.375 6.25 9.025 6.25 8.59375V2.34375ZM48.4375 48.4375H1.5625V20.3125H48.4375V48.4375ZM48.4375 18.75H1.5625V17.1875H48.4375V18.75ZM48.4375 12.5H38.2812C37.8492 12.5 37.5 12.8492 37.5 13.2812C37.5 13.7133 37.8492 14.0625 38.2812 14.0625H48.4375V15.625H1.5625V14.0625H11.7188C12.15 14.0625 12.5 13.7133 12.5 13.2812C12.5 12.8492 12.15 12.5 11.7188 12.5H1.5625V6.25H4.6875V8.59375C4.6875 9.88828 5.73672 10.9375 7.03125 10.9375C8.32578 10.9375 9.375 9.88828 9.375 8.59375V6.25H10.9375V8.59375C10.9375 9.88828 11.9867 10.9375 13.2812 10.9375C14.5758 10.9375 15.625 9.88828 15.625 8.59375V6.25H34.375V8.59375C34.375 9.88828 35.4242 10.9375 36.7188 10.9375C38.0133 10.9375 39.0625 9.88828 39.0625 8.59375V6.25H40.625V8.59375C40.625 9.88828 41.6742 10.9375 42.9688 10.9375C44.2633 10.9375 45.3125 9.88828 45.3125 8.59375V6.25H48.4375V12.5ZM16.4062 44.5312H17.9688C18.8312 44.5312 19.5312 43.832 19.5312 42.9688V41.4062C19.5312 40.5438 18.8312 39.8438 17.9688 39.8438H16.4062C15.5437 39.8438 14.8438 40.5438 14.8438 41.4062V42.9688C14.8438 43.832 15.5437 44.5312 16.4062 44.5312ZM16.4062 41.4062H17.9688V42.9688H16.4062V41.4062ZM24.2188 36.7188H25.7812C26.6437 36.7188 27.3438 36.0195 27.3438 35.1562V33.5938C27.3438 32.7313 26.6437 32.0312 25.7812 32.0312H24.2188C23.3563 32.0312 22.6562 32.7313 22.6562 33.5938V35.1562C22.6562 36.0195 23.3563 36.7188 24.2188 36.7188ZM24.2188 33.5938H25.7812V35.1562H24.2188V33.5938ZM16.4062 36.7188H17.9688C18.8312 36.7188 19.5312 36.0195 19.5312 35.1562V33.5938C19.5312 32.7313 18.8312 32.0312 17.9688 32.0312H16.4062C15.5437 32.0312 14.8438 32.7313 14.8438 33.5938V35.1562C14.8438 36.0195 15.5437 36.7188 16.4062 36.7188ZM16.4062 33.5938H17.9688V35.1562H16.4062V33.5938ZM24.2188 28.9062H25.7812C26.6437 28.9062 27.3438 28.207 27.3438 27.3438V25.7812C27.3438 24.9188 26.6437 24.2188 25.7812 24.2188H24.2188C23.3563 24.2188 22.6562 24.9188 22.6562 25.7812V27.3438C22.6562 28.207 23.3563 28.9062 24.2188 28.9062ZM24.2188 25.7812H25.7812V27.3438H24.2188V25.7812ZM24.2188 44.5312H25.7812C26.6437 44.5312 27.3438 43.832 27.3438 42.9688V41.4062C27.3438 40.5438 26.6437 39.8438 25.7812 39.8438H24.2188C23.3563 39.8438 22.6562 40.5438 22.6562 41.4062V42.9688C22.6562 43.832 23.3563 44.5312 24.2188 44.5312ZM24.2188 41.4062H25.7812V42.9688H24.2188V41.4062ZM30.4688 12.5H19.5312C19.0992 12.5 18.75 12.8492 18.75 13.2812C18.75 13.7133 19.0992 14.0625 19.5312 14.0625H30.4688C30.9 14.0625 31.25 13.7133 31.25 13.2812C31.25 12.8492 30.9 12.5 30.4688 12.5Z" transform="translate(7 7)" fill="#DC6969"/>
</svg>
