<svg width="64" height="64" viewBox="0 0 64 64" fill="none" xmlns="http://www.w3.org/2000/svg">
<path fill-rule="evenodd" clip-rule="evenodd" d="M0 0H64V64H0V0Z" fill="white" fill-opacity="0.01"/>
<path d="M24.2188 48.4375C37.5944 48.4375 48.4375 37.5944 48.4375 24.2188C48.4375 10.8431 37.5944 0 24.2188 0C10.8431 0 0 10.8431 0 24.2188C0 37.5944 10.8431 48.4375 24.2188 48.4375Z" transform="translate(7.78125 7.78125)" fill="white"/>
<path d="M21.0938 42.1875C32.7435 42.1875 42.1875 32.7435 42.1875 21.0938C42.1875 9.44399 32.7435 0 21.0938 0C9.44399 0 0 9.44399 0 21.0938C0 32.7435 9.44399 42.1875 21.0938 42.1875Z" transform="translate(10.9062 10.9062)" fill="white"/>
<path d="M3.125 0H0V15.625H3.125V0Z" transform="translate(30.4375 14.0312)" fill="white"/>
<path d="M9.375 0H0V3.125H9.375V0Z" transform="translate(34.3438 30.4375)" fill="white"/>
<path d="M8.59375 24.2188H7.03125C6.59922 24.2188 6.25 24.568 6.25 25C6.25 25.432 6.59922 25.7812 7.03125 25.7812H8.59375C9.02578 25.7812 9.375 25.432 9.375 25C9.375 24.568 9.02578 24.2188 8.59375 24.2188ZM25 40.625C24.568 40.625 24.2188 40.9742 24.2188 41.4062V42.9688C24.2188 43.4008 24.568 43.75 25 43.75C25.432 43.75 25.7812 43.4008 25.7812 42.9688V41.4062C25.7812 40.9742 25.432 40.625 25 40.625ZM12.8836 13.857C13.1531 14.1258 13.5883 14.1258 13.857 13.857C14.1258 13.5883 14.1258 13.1531 13.857 12.8836L12.8836 11.9109C12.6148 11.6422 12.1797 11.6422 11.9109 11.9109C11.6422 12.1797 11.6422 12.6148 11.9109 12.8836L12.8836 13.857ZM35.9914 22.6562H27.3438V7.75859C27.3438 6.925 26.6437 6.25 25.7812 6.25H24.2188C23.3555 6.25 22.6562 6.925 22.6562 7.75859V22.9531C22.1758 23.5023 21.875 24.2133 21.875 25C21.875 25.5852 22.0461 26.1266 22.3258 26.5953L11.9414 36.9797C11.6438 37.2773 11.6438 37.7602 11.9414 38.0586C12.2398 38.3563 12.7227 38.3563 13.0203 38.0586L23.4047 27.6742C23.8734 27.9539 24.4148 28.125 25 28.125C25.7875 28.125 26.4977 27.8242 27.0469 27.3438H35.9914C36.825 27.3438 37.5 26.6445 37.5 25.7812V24.2188C37.5 23.3563 36.825 22.6562 35.9914 22.6562ZM24.2188 7.8125H25.7812V21.9898C25.5312 21.9227 25.2727 21.875 25 21.875C24.7281 21.875 24.4695 21.9203 24.2188 21.9859V7.8125ZM25 26.5625C24.1367 26.5625 23.4375 25.8633 23.4375 25C23.4375 24.1375 24.1367 23.4375 25 23.4375C25.8625 23.4375 26.5625 24.1375 26.5625 25C26.5625 25.8633 25.8625 26.5625 25 26.5625ZM35.9375 25.7812H28.0141C28.0789 25.5305 28.125 25.2719 28.125 25C28.125 24.7281 28.0789 24.4695 28.0141 24.2188H35.9375V25.7812ZM25 0C11.193 0 0 11.193 0 25C0 38.807 11.193 50 25 50C38.807 50 50 38.807 50 25C50 11.193 38.807 0 25 0ZM25 48.4375C12.0562 48.4375 1.5625 37.9438 1.5625 25C1.5625 12.0562 12.0562 1.5625 25 1.5625C37.9438 1.5625 48.4375 12.0562 48.4375 25C48.4375 37.9438 37.9438 48.4375 25 48.4375ZM42.9688 24.2188H41.4062C40.9742 24.2188 40.625 24.568 40.625 25C40.625 25.432 40.9742 25.7812 41.4062 25.7812H42.9688C43.4008 25.7812 43.75 25.432 43.75 25C43.75 24.568 43.4008 24.2188 42.9688 24.2188ZM37.0938 11.9109L36.1211 12.8836C35.8523 13.1531 35.8523 13.5883 36.1211 13.857C36.3898 14.1258 36.825 14.1258 37.0938 13.857L38.0672 12.8836C38.3359 12.6148 38.3359 12.1797 38.0672 11.9109C37.7992 11.6422 37.3625 11.6422 37.0938 11.9109ZM25 3.125C12.9187 3.125 3.125 12.9187 3.125 25C3.125 37.0812 12.9187 46.875 25 46.875C37.0812 46.875 46.875 37.0812 46.875 25C46.875 12.9187 37.0812 3.125 25 3.125ZM25 45.3125C13.782 45.3125 4.6875 36.218 4.6875 25C4.6875 13.782 13.782 4.6875 25 4.6875C36.218 4.6875 45.3125 13.782 45.3125 25C45.3125 36.218 36.218 45.3125 25 45.3125Z" transform="translate(7 7)" fill="#4CC4A1"/>
<path d="M43.75 6.25V0H32.8125V6.25H29.6875V9.375H32.8125V15.625H29.6875V18.75H40.625V17.1875V15.625H43.75V9.375H41.4062V6.25H43.75ZM14.8438 18.75H25.7812V9.375H14.8438V18.75ZM5.46875 7.8125C2.44844 7.8125 0 10.2609 0 13.2812C0 16.3016 2.44844 18.75 5.46875 18.75C8.48906 18.75 10.9375 16.3016 10.9375 13.2812C10.9375 10.2609 8.48906 7.8125 5.46875 7.8125Z" transform="translate(12.4688 37.4688)" fill="white"/>
<path d="M2.34375 4.6875C3.63817 4.6875 4.6875 3.63817 4.6875 2.34375C4.6875 1.04933 3.63817 0 2.34375 0C1.04933 0 0 1.04933 0 2.34375C0 3.63817 1.04933 4.6875 2.34375 4.6875Z" transform="translate(15.5938 48.4062)" fill="white"/>
<path d="M25.7812 9.375H16.4062C15.543 9.375 14.8438 10.075 14.8438 10.9375V18.75C14.8438 19.6133 15.543 20.3125 16.4062 20.3125H25.7812C26.6437 20.3125 27.3438 19.6133 27.3438 18.75V10.9375C27.3438 10.075 26.6437 9.375 25.7812 9.375ZM25.7812 18.75H16.4062V17.1875H25.7812V18.75ZM25.7812 15.625H16.4062V14.0625H25.7812V15.625ZM25.7812 12.5H16.4062V10.9375H25.7812V12.5ZM43.75 7.8125C44.6125 7.8125 45.3125 7.11328 45.3125 6.25V1.5625C45.3125 0.7 44.6125 0 43.75 0H34.375C33.5117 0 32.8125 0.7 32.8125 1.5625V6.25H31.25C30.3867 6.25 29.6875 6.95 29.6875 7.8125V9.375C29.6875 10.2383 30.3867 10.9375 31.25 10.9375H32.8125V15.625H31.25C30.3867 15.625 29.6875 16.325 29.6875 17.1875V18.75C29.6875 19.6133 30.3867 20.3125 31.25 20.3125H40.625C41.4875 20.3125 42.1875 19.6133 42.1875 18.75V17.1875H43.75C44.6125 17.1875 45.3125 16.4883 45.3125 15.625V10.9375C45.3125 10.075 44.6125 9.375 43.75 9.375H42.1875V7.8125H43.75ZM34.375 1.5625H43.75V3.125H34.375V1.5625ZM31.25 9.375V7.8125H40.625V9.375H31.25ZM40.625 18.75H31.25V17.1875H40.625V18.75ZM43.75 15.625H34.375V14.0625H43.75V15.625ZM43.75 10.9375V12.5H34.375V10.9375H43.75ZM34.375 6.25V4.6875H43.75V6.25H34.375ZM6.25 7.8125C2.79844 7.8125 0 10.6109 0 14.0625C0 17.5141 2.79844 20.3125 6.25 20.3125C9.70156 20.3125 12.5 17.5141 12.5 14.0625C12.5 10.6109 9.70156 7.8125 6.25 7.8125ZM6.25 18.75C3.66094 18.75 1.5625 16.6516 1.5625 14.0625C1.5625 11.4742 3.66094 9.375 6.25 9.375C8.83828 9.375 10.9375 11.4742 10.9375 14.0625C10.9375 16.6516 8.83828 18.75 6.25 18.75ZM6.25 10.9375C4.52422 10.9375 3.125 12.3367 3.125 14.0625C3.125 15.7883 4.52422 17.1875 6.25 17.1875C7.97578 17.1875 9.375 15.7883 9.375 14.0625C9.375 12.3367 7.97578 10.9375 6.25 10.9375ZM6.25 15.625C5.38672 15.625 4.6875 14.9258 4.6875 14.0625C4.6875 13.2 5.38672 12.5 6.25 12.5C7.1125 12.5 7.8125 13.2 7.8125 14.0625C7.8125 14.9258 7.1125 15.625 6.25 15.625Z" transform="translate(11.6875 36.6875)" fill="#4CC4A1"/>
</svg>
