<svg width="32" height="32" viewBox="0 0 32 32" version="1.1" xmlns="http://www.w3.org/2000/svg" xmlns:xlink="http://www.w3.org/1999/xlink">
<title>Group 2</title>
<desc>Created using Figma</desc>
<g id="Canvas" transform="translate(-23412 -6312)">
<g id="Group 2">
<g id="Group">
<g id="Vector">
<use xlink:href="#path0_fill" transform="translate(23416 6320)" fill="#85B6F9"/>
</g>
</g>
<g id="shape">
<use xlink:href="#path1_fill" transform="translate(23412 6312)" fill="#FFFFFF" fill-opacity="0.01"/>
</g>
</g>
</g>
<defs>
<path id="path0_fill" d="M 1.90909 0C 0.86089 0 0 0.860891 0 1.90909L 0 13.3636C 0 14.4118 0.86089 15.2727 1.90909 15.2727L 22.0909 15.2727C 23.1391 15.2727 24 14.4118 24 13.3636L 24 1.90909C 24 0.860891 23.1391 0 22.0909 0L 1.90909 0ZM 1.90909 1.09091L 22.0909 1.09091C 22.5536 1.09091 22.9091 1.44638 22.9091 1.90909L 22.9091 3.81818L 1.09091 3.81818L 1.09091 1.90909C 1.09091 1.44638 1.44638 1.09091 1.90909 1.09091ZM 1.09091 4.90909L 22.9091 4.90909L 22.9091 13.3636C 22.9091 13.8263 22.5536 14.1818 22.0909 14.1818L 1.90909 14.1818C 1.44638 14.1818 1.09091 13.8263 1.09091 13.3636L 1.09091 4.90909ZM 3.81818 6C 2.92107 6 2.18182 6.73925 2.18182 7.63636L 2.18182 11.4545C 2.18182 12.3517 2.92107 13.0909 3.81818 13.0909L 7.63636 13.0909C 8.53347 13.0909 9.27273 12.3517 9.27273 11.4545L 9.27273 7.63636C 9.27273 6.73925 8.53347 6 7.63636 6L 3.81818 6ZM 11.6761 6.54545C 11.6045 6.5488 11.5342 6.56622 11.4693 6.59673C 11.4044 6.62724 11.3461 6.67023 11.2979 6.72326C 11.2496 6.77628 11.2122 6.8383 11.1879 6.90577C 11.1636 6.97324 11.1528 7.04484 11.1561 7.11648C 11.1595 7.18812 11.1769 7.2584 11.2075 7.3233C 11.238 7.3882 11.281 7.44645 11.334 7.49473C 11.3871 7.543 11.4491 7.58036 11.5166 7.60466C 11.584 7.62896 11.6556 7.63974 11.7273 7.63636L 20.4545 7.63636C 20.5268 7.63739 20.5986 7.62403 20.6657 7.59708C 20.7327 7.57013 20.7938 7.53011 20.8453 7.47936C 20.8967 7.42861 20.9376 7.36813 20.9655 7.30145C 20.9934 7.23476 21.0078 7.1632 21.0078 7.09091C 21.0078 7.01862 20.9934 6.94706 20.9655 6.88037C 20.9376 6.81369 20.8967 6.75321 20.8453 6.70246C 20.7938 6.65171 20.7327 6.61169 20.6657 6.58474C 20.5986 6.55779 20.5268 6.54443 20.4545 6.54545L 11.7273 6.54545C 11.7102 6.54465 11.6932 6.54465 11.6761 6.54545ZM 3.81818 7.09091L 7.63636 7.09091C 7.94798 7.09091 8.18182 7.32475 8.18182 7.63636L 8.18182 11.4545C 8.18182 11.7662 7.94798 12 7.63636 12L 3.81818 12C 3.50656 12 3.27273 11.7662 3.27273 11.4545L 3.27273 7.63636C 3.27273 7.32475 3.50656 7.09091 3.81818 7.09091ZM 11.6761 9C 11.6045 9.00334 11.5342 9.02077 11.4693 9.05127C 11.4044 9.08178 11.3461 9.12478 11.2979 9.1778C 11.2496 9.23083 11.2122 9.29285 11.1879 9.36032C 11.1636 9.42779 11.1528 9.49939 11.1561 9.57103C 11.1595 9.64267 11.1769 9.71294 11.2075 9.77784C 11.238 9.84274 11.281 9.90099 11.334 9.94927C 11.3871 9.99755 11.4491 10.0349 11.5166 10.0592C 11.584 10.0835 11.6556 10.0943 11.7273 10.0909L 20.4545 10.0909C 20.5268 10.0919 20.5986 10.0786 20.6657 10.0516C 20.7327 10.0247 20.7938 9.98466 20.8453 9.9339C 20.8967 9.88315 20.9376 9.82268 20.9655 9.75599C 20.9934 9.68931 21.0078 9.61774 21.0078 9.54545C 21.0078 9.47317 20.9934 9.4016 20.9655 9.33492C 20.9376 9.26823 20.8967 9.20776 20.8453 9.157C 20.7938 9.10625 20.7327 9.06624 20.6657 9.03928C 20.5986 9.01233 20.5268 8.99898 20.4545 9L 11.7273 9C 11.7102 8.9992 11.6932 8.9992 11.6761 9ZM 11.6761 11.4545C 11.6045 11.4579 11.5342 11.4753 11.4693 11.5058C 11.4044 11.5363 11.3461 11.5793 11.2979 11.6323C 11.2496 11.6854 11.2122 11.7474 11.1879 11.8149C 11.1636 11.8823 11.1528 11.9539 11.1561 12.0256C 11.1595 12.0972 11.1769 12.1675 11.2075 12.2324C 11.238 12.2973 11.281 12.3555 11.334 12.4038C 11.3871 12.4521 11.4491 12.4894 11.5166 12.5138C 11.584 12.5381 11.6556 12.5488 11.7273 12.5455L 20.4545 12.5455C 20.5268 12.5465 20.5986 12.5331 20.6657 12.5062C 20.7327 12.4792 20.7938 12.4392 20.8453 12.3884C 20.8967 12.3377 20.9376 12.2772 20.9655 12.2105C 20.9934 12.1439 21.0078 12.0723 21.0078 12C 21.0078 11.9277 20.9934 11.8561 20.9655 11.7895C 20.9376 11.7228 20.8967 11.6623 20.8453 11.6116C 20.7938 11.5608 20.7327 11.5208 20.6657 11.4938C 20.5986 11.4669 20.5268 11.4535 20.4545 11.4545L 11.7273 11.4545C 11.7102 11.4537 11.6932 11.4537 11.6761 11.4545Z"/>
<path id="path1_fill" fill-rule="evenodd" d="M 0 0L 32 0L 32 32L 0 32L 0 0Z"/>
</defs>
</svg>
