<svg width="64" height="64" viewBox="0 0 64 64" fill="none" xmlns="http://www.w3.org/2000/svg">
<path fill-rule="evenodd" clip-rule="evenodd" d="M0 0H64V64H0V0Z" fill="white" fill-opacity="0.01"/>
<path d="M49.9135 1.07637C50.0353 0.819348 50.0135 0.506855 49.8244 0.270923C49.5979 -0.01032 49.2174 -0.0712561 48.908 0.0818653C48.7588 0.0342102 48.6018 0.00139848 48.4362 0.00139848H1.56227C1.39665 0.00139848 1.2404 0.0342102 1.0904 0.0818653C0.781818 -0.0712561 0.401358 -0.01032 0.174801 0.270923C-0.0142575 0.506855 -0.036132 0.820129 0.0857402 1.07637C0.0349601 1.23106 0.000585924 1.39277 0.000585924 1.56386V6.26531C-0.000195308 6.28875 -0.000195308 6.30984 0.000585924 6.3325V12.5081C-0.000195308 12.5316 -0.000195308 12.5527 0.000585924 12.5761V18.7525C-0.000195308 18.7752 -0.000195308 18.7963 0.000585924 18.8197V24.9953C-0.000195308 25.018 -0.000195308 25.0399 0.000585924 25.0625V34.3756C0.000585924 35.2388 0.700569 35.9381 1.56305 35.9381H48.4369C49.2994 35.9381 49.9994 35.2388 49.9994 34.3756V25.0578C50.0002 25.036 50.0002 25.0149 49.9994 24.993V18.808C50.0002 18.7861 50.0002 18.765 49.9994 18.7431V12.5581C50.0002 12.5363 50.0002 12.5152 49.9994 12.4933V6.30828C50.0002 6.28641 50.0002 6.26531 49.9994 6.24344V1.56386C49.9994 1.39277 49.965 1.23106 49.9135 1.07637ZM47.0893 1.56386L25 20.1205L2.91067 1.56386H47.0893ZM45.312 5.03878V9.31993C45.3112 9.3418 45.3112 9.3629 45.312 9.38477V15.5698C45.3112 15.5917 45.3112 15.6128 45.312 15.6346V21.8196C45.3112 21.8415 45.3112 21.8626 45.312 21.8845V28.0695C45.3112 28.0914 45.3112 28.1125 45.312 28.1343V30.9015C40.1801 26.5906 32.1248 19.8236 29.9186 17.9697L45.312 5.03878ZM20.0814 17.9697C17.8752 19.8228 9.81989 26.5906 4.68798 30.9015V5.03878L20.0814 17.9697ZM1.56305 2.41384L3.15676 3.75287C3.14582 3.80443 3.12551 3.85287 3.12551 3.90834V7.48638L1.56305 5.91767V2.41384ZM1.56305 8.21058L3.12551 9.77929V13.7292L1.56305 12.1605V8.21058ZM1.56305 14.4534L3.12551 16.0221V19.9728L1.56305 18.4041V14.4534ZM1.56305 20.697L3.12551 22.2657V26.2156L1.56305 24.6469V20.697ZM1.56305 26.9398L3.12551 28.5085V32.0319C3.12551 32.0874 3.14582 32.1358 3.15676 32.1874C2.54193 32.7038 2.00288 33.1569 1.56305 33.5264V26.9398ZM2.91067 34.3756C7.22151 30.7554 18.5634 21.2259 21.2602 18.9603L24.3805 21.5814C24.386 21.5892 24.3875 21.5993 24.3938 21.6064C24.5 21.7384 24.6445 21.8126 24.7969 21.8509C24.8055 21.8532 24.8133 21.8564 24.8227 21.8587C24.882 21.872 24.9398 21.8759 25.0008 21.8743C25.0617 21.8759 25.1195 21.872 25.1789 21.8587C25.1875 21.8564 25.1961 21.854 25.2047 21.8509C25.3562 21.8118 25.5008 21.7376 25.6078 21.6064C25.614 21.5985 25.6148 21.5892 25.6211 21.5814L28.7413 18.9603C31.4373 21.2251 42.7847 30.7577 47.0917 34.3756H2.91067ZM48.4369 33.5264C47.9971 33.1569 47.4573 32.703 46.8432 32.1874C46.8542 32.1358 46.8745 32.0874 46.8745 32.0319V28.4929L48.4369 26.9305V33.5264ZM48.4369 24.6344L46.8745 26.1969V22.2431L48.4369 20.6806V24.6344ZM48.4369 18.3846L46.8745 19.947V15.9932L48.4369 14.4307V18.3846ZM48.4369 12.1347L46.8745 13.6972V9.74336L48.4369 8.18089V12.1347ZM48.4369 5.88485L46.8745 7.44732V3.90834C46.8745 3.85365 46.8542 3.80522 46.8432 3.75287L48.4369 2.41384V5.88485ZM39.0622 3.90756C39.0622 3.47554 38.7122 3.12632 38.2809 3.12632H11.7191C11.287 3.12632 10.9378 3.47554 10.9378 3.90756C10.9378 4.33958 11.287 4.68879 11.7191 4.68879H38.2809C38.7122 4.68879 39.0622 4.33958 39.0622 3.90756Z" transform="translate(7 14)" fill="#8B2FB7"/>
</svg>
