<svg width="32" height="32" viewBox="0 0 32 32" version="1.1" xmlns="http://www.w3.org/2000/svg" xmlns:xlink="http://www.w3.org/1999/xlink">
<title>Group 3</title>
<desc>Created using Figma</desc>
<g id="Canvas" transform="translate(-23412 -6462)">
<g id="Group 3">
<g id="shape">
<use xlink:href="#path0_fill" transform="translate(23412 6462)" fill="#FFFFFF" fill-opacity="0.01"/>
</g>
<g id="Group">
<g id="Vector">
<use xlink:href="#path1_fill" transform="translate(23414 6468)" fill="#EAA844"/>
<mask id="mask0_outline_ins">
<use xlink:href="#path1_fill" fill="white" transform="translate(23414 6468)"/>
</mask>
<g mask="url(#mask0_outline_ins)">
<use xlink:href="#path2_stroke_2x" transform="translate(23414 6468)" fill="#FFFFFF"/>
</g>
</g>
</g>
</g>
</g>
<defs>
<path id="path0_fill" fill-rule="evenodd" d="M 0 0L 32 0L 32 32L 0 32L 0 0Z"/>
<path id="path1_fill" d="M 8.30279 0.0012734C 8.07247 0.0254117 7.85936 0.134289 7.70484 0.306764C 7.55032 0.479238 7.46544 0.702992 7.46668 0.934549L 7.46668 3.11217L 4.66668 3.11217C 4.63429 3.11049 4.60184 3.11049 4.56946 3.11217C 4.33914 3.13631 4.12603 3.24521 3.97151 3.41768C 3.81699 3.59016 3.73211 3.81391 3.73334 4.04547L 3.73334 6.22309L 0.933346 6.22309C 0.900961 6.2214 0.868509 6.2214 0.836124 6.22309C 0.605812 6.24723 0.392695 6.35613 0.238178 6.5286C 0.0836604 6.70108 -0.00122473 6.92481 1.3355e-05 7.15637L 1.3355e-05 19.6001C 3.93348e-05 19.8476 0.0983808 20.0849 0.273409 20.26C 0.448438 20.435 0.685819 20.5333 0.933346 20.5333L 19.6 20.5333C 19.8475 20.5333 20.0849 20.435 20.2599 20.26C 20.435 20.0849 20.5333 19.8476 20.5333 19.6001L 20.5333 17.4224L 23.3333 17.4224C 23.5809 17.4224 23.8182 17.3241 23.9933 17.149C 24.1683 16.974 24.2666 16.7366 24.2667 16.4891L 24.2667 14.3115L 27.0667 14.3115C 27.3142 14.3115 27.5516 14.2131 27.7266 14.0381C 27.9016 13.8631 28 13.6257 28 13.3782L 28 0.934549C 28 0.687037 27.9016 0.449672 27.7266 0.274654C 27.5516 0.0996358 27.3142 0.00129815 27.0667 0.0012734L 8.40001 0.0012734C 8.36762 -0.000415354 8.33517 -0.000415354 8.30279 0.0012734ZM 9.33334 1.86783L 26.1333 1.86783L 26.1333 12.4449L 24.2667 12.4449L 24.2667 4.04547C 24.2666 3.79796 24.1683 3.56057 23.9933 3.38555C 23.8182 3.21054 23.5809 3.1122 23.3333 3.11217L 9.33334 3.11217L 9.33334 1.86783ZM 5.60001 4.97873L 8.24445 4.97873C 8.29594 4.98629 8.34798 4.98955 8.40001 4.98845L 22.4 4.97873L 22.4 13.3782C 22.3983 13.4106 22.3983 13.443 22.4 13.4754L 22.4 15.5559L 20.5333 15.5559L 20.5333 7.15637C 20.5333 6.90886 20.435 6.67149 20.2599 6.49647C 20.0849 6.32146 19.8475 6.22312 19.6 6.22309L 5.60001 6.22309L 5.60001 4.97873ZM 1.86668 8.08965L 4.51112 8.08965C 4.56261 8.09721 4.61465 8.10047 4.66668 8.09937L 18.6667 8.08965L 18.6667 16.4891C 18.665 16.5215 18.665 16.554 18.6667 16.5863L 18.6667 18.6668L 1.86668 18.6668L 1.86668 8.08965ZM 13.3389 9.6354C 13.2023 9.64193 13.0688 9.6784 12.9478 9.74223C 12.8268 9.80607 12.7214 9.89571 12.6389 10.0048L 9.04168 14.6323L 7.90418 13.1254C 7.83076 13.0271 7.7387 12.9442 7.63326 12.8815C 7.52781 12.8188 7.41104 12.7774 7.28961 12.7598C 7.16819 12.7422 7.04448 12.7487 6.92556 12.7789C 6.80664 12.8091 6.69484 12.8625 6.59653 12.9359C 6.49822 13.0093 6.41533 13.1013 6.3526 13.2068C 6.28987 13.3122 6.24852 13.429 6.23092 13.5504C 6.21331 13.6718 6.2198 13.7955 6.25 13.9144C 6.28021 14.0333 6.33354 14.1451 6.40695 14.2434L 8.27362 16.7322C 8.35918 16.8481 8.47041 16.9426 8.59861 17.0084C 8.72682 17.0742 8.8685 17.1094 9.01258 17.1113C 9.15666 17.1131 9.29921 17.0816 9.42907 17.0192C 9.55894 16.9568 9.67259 16.8651 9.76112 16.7515L 14.1167 11.1518C 14.2296 11.0113 14.2993 10.8411 14.3176 10.6618C 14.3359 10.4825 14.3018 10.3017 14.2196 10.1414C 14.1373 9.98098 14.0104 9.84784 13.8541 9.75803C 13.6978 9.66822 13.5189 9.62556 13.3389 9.63523L 13.3389 9.6354Z"/>
<path id="path2_stroke_2x" d="M 7.46668 0.934549L 7.81668 0.934549L 7.81667 0.932677L 7.46668 0.934549ZM 7.46668 3.11217L 7.46668 3.46217L 7.81668 3.46217L 7.81668 3.11217L 7.46668 3.11217ZM 4.66668 3.11217L 4.64845 3.4617L 4.65756 3.46217L 4.66668 3.46217L 4.66668 3.11217ZM 4.56946 3.11217L 4.55123 2.76265L 4.54208 2.76313L 4.53297 2.76408L 4.56946 3.11217ZM 3.73334 4.04547L 4.08335 4.04547L 4.08334 4.0436L 3.73334 4.04547ZM 3.73334 6.22309L 3.73334 6.57309L 4.08334 6.57309L 4.08334 6.22309L 3.73334 6.22309ZM 0.933346 6.22309L 0.91512 6.57262L 0.924227 6.57309L 0.933346 6.57309L 0.933346 6.22309ZM 0.836124 6.22309L 0.817898 5.87357L 0.808751 5.87405L 0.799642 5.875L 0.836124 6.22309ZM 1.3355e-05 7.15637L 0.350018 7.15637L 0.350008 7.1545L 1.3355e-05 7.15637ZM 1.3355e-05 19.6001L -0.349987 19.6001L -0.349987 19.6001L 1.3355e-05 19.6001ZM 0.933346 20.5333L 0.933311 20.8833L 0.933346 20.8833L 0.933346 20.5333ZM 19.6 20.5333L 19.6 20.8833L 19.6 20.8833L 19.6 20.5333ZM 20.5333 19.6001L 20.8833 19.6001L 20.8833 19.6001L 20.5333 19.6001ZM 20.5333 17.4224L 20.5333 17.0724L 20.1833 17.0724L 20.1833 17.4224L 20.5333 17.4224ZM 23.3333 17.4224L 23.3333 17.7724L 23.3334 17.7724L 23.3333 17.4224ZM 24.2667 16.4891L 24.6167 16.4892L 24.6167 16.4891L 24.2667 16.4891ZM 24.2667 14.3115L 24.2667 13.9615L 23.9167 13.9615L 23.9167 14.3115L 24.2667 14.3115ZM 27.0667 14.3115L 27.0667 14.6615L 27.0667 14.6615L 27.0667 14.3115ZM 28 13.3782L 28.35 13.3782L 28.35 13.3782L 28 13.3782ZM 28 0.934549L 28.35 0.934549L 28.35 0.934515L 28 0.934549ZM 27.0667 0.0012734L 27.0667 -0.348727L 27.0667 -0.348727L 27.0667 0.0012734ZM 8.40001 0.0012734L 8.38178 0.350799L 8.39089 0.351273L 8.40001 0.351273L 8.40001 0.0012734ZM 26.1333 1.86783L 26.4833 1.86783L 26.4833 1.51783L 26.1333 1.51783L 26.1333 1.86783ZM 26.1333 12.4449L 26.1333 12.7949L 26.4833 12.7949L 26.4833 12.4449L 26.1333 12.4449ZM 24.2667 12.4449L 23.9167 12.4449L 23.9167 12.7949L 24.2667 12.7949L 24.2667 12.4449ZM 24.2667 4.04547L 24.6167 4.04547L 24.6167 4.04543L 24.2667 4.04547ZM 23.3333 3.11217L 23.3334 2.76217L 23.3333 2.76217L 23.3333 3.11217ZM 9.33334 3.11217L 8.98334 3.11217L 8.98334 3.46217L 9.33334 3.46217L 9.33334 3.11217ZM 8.24445 4.97873L 8.29534 4.63244L 8.27003 4.62873L 8.24445 4.62873L 8.24445 4.97873ZM 8.40001 4.98845L 8.39977 4.63837L 8.39257 4.63853L 8.40001 4.98845ZM 22.4 4.97873L 22.75 4.97873L 22.75 4.62848L 22.3998 4.62873L 22.4 4.97873ZM 22.4 13.3782L 22.7495 13.3964L 22.75 13.3873L 22.75 13.3782L 22.4 13.3782ZM 22.4 13.4754L 22.75 13.4754L 22.75 13.4663L 22.7495 13.4572L 22.4 13.4754ZM 22.4 15.5559L 22.4 15.9059L 22.75 15.9059L 22.75 15.5559L 22.4 15.5559ZM 20.5333 15.5559L 20.1833 15.5559L 20.1833 15.9059L 20.5333 15.9059L 20.5333 15.5559ZM 20.5333 7.15637L 20.8833 7.15637L 20.8833 7.15633L 20.5333 7.15637ZM 19.6 6.22309L 19.6 5.87309L 19.6 5.87309L 19.6 6.22309ZM 5.60001 6.22309L 5.25001 6.22309L 5.25001 6.57309L 5.60001 6.57309L 5.60001 6.22309ZM 1.86668 8.08965L 1.86668 7.73965L 1.51668 7.73965L 1.51668 8.08965L 1.86668 8.08965ZM 4.51112 8.08965L 4.56201 7.74336L 4.5367 7.73965L 4.51112 7.73965L 4.51112 8.08965ZM 4.66668 8.09937L 4.66643 7.74929L 4.65924 7.74945L 4.66668 8.09937ZM 18.6667 8.08965L 19.0167 8.08965L 19.0167 7.7394L 18.6664 7.73965L 18.6667 8.08965ZM 18.6667 16.4891L 19.0162 16.5074L 19.0167 16.4982L 19.0167 16.4891L 18.6667 16.4891ZM 18.6667 16.5863L 19.0167 16.5863L 19.0167 16.5772L 19.0162 16.5681L 18.6667 16.5863ZM 18.6667 18.6668L 18.6667 19.0168L 19.0167 19.0168L 19.0167 18.6668L 18.6667 18.6668ZM 1.86668 18.6668L 1.51668 18.6668L 1.51668 19.0168L 1.86668 19.0168L 1.86668 18.6668ZM 13.3389 9.6354L 13.3556 9.985L 13.6889 9.96907L 13.6889 9.6354L 13.3389 9.6354ZM 12.6389 10.0048L 12.9152 10.2196L 12.9181 10.2159L 12.6389 10.0048ZM 9.04168 14.6323L 8.76233 14.8432L 9.0376 15.2078L 9.31801 14.8471L 9.04168 14.6323ZM 7.90418 13.1254L 7.62374 13.3349L 7.62483 13.3363L 7.90418 13.1254ZM 6.40695 14.2434L 6.12653 14.4529L 6.12696 14.4535L 6.40695 14.2434ZM 8.27362 16.7322L 8.55524 16.5243L 8.55361 16.5222L 8.27362 16.7322ZM 9.76112 16.7515L 10.0372 16.9665L 10.0374 16.9663L 9.76112 16.7515ZM 14.1167 11.1518L 13.8438 10.9326L 13.8404 10.9369L 14.1167 11.1518ZM 13.3389 9.63523L 13.3201 9.28574L 12.9889 9.30353L 12.9889 9.63523L 13.3389 9.63523ZM 8.2663 -0.34682C 7.94964 -0.313632 7.65662 -0.163933 7.44415 0.073219L 7.96553 0.540308C 8.0621 0.432512 8.1953 0.364455 8.33927 0.349367L 8.2663 -0.34682ZM 7.44415 0.073219C 7.23169 0.310369 7.11498 0.61803 7.11668 0.936422L 7.81667 0.932677C 7.8159 0.787955 7.86895 0.648107 7.96553 0.540308L 7.44415 0.073219ZM 7.11668 0.934549L 7.11668 3.11217L 7.81668 3.11217L 7.81668 0.934549L 7.11668 0.934549ZM 7.46668 2.76217L 4.66668 2.76217L 4.66668 3.46217L 7.46668 3.46217L 7.46668 2.76217ZM 4.6849 2.76265C 4.64038 2.76033 4.59576 2.76033 4.55123 2.76265L 4.58768 3.4617C 4.60792 3.46064 4.62821 3.46064 4.64845 3.4617L 4.6849 2.76265ZM 4.53297 2.76408C 4.21629 2.79727 3.92327 2.947 3.71082 3.18414L 4.23219 3.65123C 4.32878 3.54342 4.46199 3.47535 4.60594 3.46027L 4.53297 2.76408ZM 3.71082 3.18414C 3.49836 3.42129 3.38165 3.72895 3.38335 4.04734L 4.08334 4.0436C 4.08257 3.89887 4.13562 3.75903 4.23219 3.65123L 3.71082 3.18414ZM 3.38334 4.04547L 3.38334 6.22309L 4.08334 6.22309L 4.08334 4.04547L 3.38334 4.04547ZM 3.73334 5.87309L 0.933346 5.87309L 0.933346 6.57309L 3.73334 6.57309L 3.73334 5.87309ZM 0.951572 5.87357C 0.907044 5.87125 0.862426 5.87125 0.817898 5.87357L 0.85435 6.57262C 0.874593 6.57156 0.894877 6.57156 0.91512 6.57262L 0.951572 5.87357ZM 0.799642 5.875C 0.482962 5.90819 0.189941 6.05792 -0.0225072 6.29506L 0.498863 6.76215C 0.59545 6.65434 0.728661 6.58627 0.872607 6.57119L 0.799642 5.875ZM -0.0225072 6.29506C -0.234962 6.5322 -0.351684 6.83984 -0.349982 7.15824L 0.350008 7.1545C 0.349235 7.00978 0.402283 6.86995 0.498863 6.76215L -0.0225072 6.29506ZM -0.349987 7.15637L -0.349987 19.6001L 0.350013 19.6001L 0.350013 7.15637L -0.349987 7.15637ZM -0.349987 19.6001C -0.349951 19.9404 -0.21473 20.2668 0.0259301 20.5075L 0.520888 20.0125C 0.411491 19.9031 0.35003 19.7547 0.350013 19.6L -0.349987 19.6001ZM 0.0259301 20.5075C 0.266599 20.7481 0.592992 20.8833 0.933311 20.8833L 0.933381 20.1833C 0.778647 20.1833 0.630276 20.1218 0.520888 20.0125L 0.0259301 20.5075ZM 0.933346 20.8833L 19.6 20.8833L 19.6 20.1833L 0.933346 20.1833L 0.933346 20.8833ZM 19.6 20.8833C 19.9404 20.8833 20.2668 20.7481 20.5074 20.5075L 20.0125 20.0125C 19.9031 20.1218 19.7547 20.1833 19.6 20.1833L 19.6 20.8833ZM 20.5074 20.5075C 20.7481 20.2668 20.8833 19.9404 20.8833 19.6001L 20.1833 19.6C 20.1833 19.7547 20.1219 19.9031 20.0125 20.0125L 20.5074 20.5075ZM 20.8833 19.6001L 20.8833 17.4224L 20.1833 17.4224L 20.1833 19.6001L 20.8833 19.6001ZM 20.5333 17.7724L 23.3333 17.7724L 23.3333 17.0724L 20.5333 17.0724L 20.5333 17.7724ZM 23.3334 17.7724C 23.6737 17.7724 24.0001 17.6372 24.2408 17.3965L 23.7458 16.9015C 23.6364 17.0109 23.488 17.0724 23.3333 17.0724L 23.3334 17.7724ZM 24.2408 17.3965C 24.4814 17.1559 24.6166 16.8295 24.6167 16.4892L 23.9167 16.4891C 23.9167 16.6438 23.8552 16.7922 23.7458 16.9015L 24.2408 17.3965ZM 24.6167 16.4891L 24.6167 14.3115L 23.9167 14.3115L 23.9167 16.4891L 24.6167 16.4891ZM 24.2667 14.6615L 27.0667 14.6615L 27.0667 13.9615L 24.2667 13.9615L 24.2667 14.6615ZM 27.0667 14.6615C 27.407 14.6615 27.7334 14.5262 27.9741 14.2856L 27.4791 13.7906C 27.3697 13.9 27.2213 13.9615 27.0666 13.9615L 27.0667 14.6615ZM 27.9741 14.2856C 28.2147 14.045 28.35 13.7186 28.35 13.3782L 27.65 13.3782C 27.65 13.5329 27.5885 13.6812 27.4791 13.7906L 27.9741 14.2856ZM 28.35 13.3782L 28.35 0.934549L 27.65 0.934549L 27.65 13.3782L 28.35 13.3782ZM 28.35 0.934515C 28.35 0.594179 28.2147 0.267803 27.9741 0.027159L 27.4791 0.522149C 27.5885 0.631541 27.65 0.779894 27.65 0.934584L 28.35 0.934515ZM 27.9741 0.027159C 27.7334 -0.213484 27.407 -0.348693 27.0667 -0.348727L 27.0666 0.351273C 27.2213 0.351289 27.3697 0.412755 27.4791 0.522149L 27.9741 0.027159ZM 27.0667 -0.348727L 8.40001 -0.348727L 8.40001 0.351273L 27.0667 0.351273L 27.0667 -0.348727ZM 8.41824 -0.348252C 8.37371 -0.350574 8.32909 -0.350574 8.28456 -0.348252L 8.32101 0.350799C 8.34126 0.349743 8.36154 0.349743 8.38178 0.350799L 8.41824 -0.348252ZM 9.33334 2.21783L 26.1333 2.21783L 26.1333 1.51783L 9.33334 1.51783L 9.33334 2.21783ZM 25.7833 1.86783L 25.7833 12.4449L 26.4833 12.4449L 26.4833 1.86783L 25.7833 1.86783ZM 26.1333 12.0949L 24.2667 12.0949L 24.2667 12.7949L 26.1333 12.7949L 26.1333 12.0949ZM 24.6167 12.4449L 24.6167 4.04547L 23.9167 4.04547L 23.9167 12.4449L 24.6167 12.4449ZM 24.6167 4.04543C 24.6166 3.70511 24.4814 3.37871 24.2408 3.13806L 23.7458 3.63305C 23.8552 3.74244 23.9167 3.89081 23.9167 4.0455L 24.6167 4.04543ZM 24.2408 3.13806C 24.0001 2.89742 23.6737 2.76221 23.3334 2.76217L 23.3333 3.46217C 23.488 3.46219 23.6364 3.52366 23.7458 3.63305L 24.2408 3.13806ZM 23.3333 2.76217L 9.33334 2.76217L 9.33334 3.46217L 23.3333 3.46217L 23.3333 2.76217ZM 9.68334 3.11217L 9.68334 1.86783L 8.98334 1.86783L 8.98334 3.11217L 9.68334 3.11217ZM 5.60001 5.32873L 8.24445 5.32873L 8.24445 4.62873L 5.60001 4.62873L 5.60001 5.32873ZM 8.19357 5.32501C 8.2643 5.3354 8.33584 5.33989 8.40745 5.33837L 8.39257 4.63853C 8.36012 4.63922 8.32759 4.63718 8.29534 4.63244L 8.19357 5.32501ZM 8.40025 5.33845L 22.4002 5.32873L 22.3998 4.62873L 8.39977 4.63845L 8.40025 5.33845ZM 22.05 4.97873L 22.05 13.3782L 22.75 13.3782L 22.75 4.97873L 22.05 4.97873ZM 22.0505 13.36C 22.0482 13.4045 22.0482 13.4491 22.0505 13.4937L 22.7495 13.4572C 22.7485 13.437 22.7485 13.4167 22.7495 13.3964L 22.0505 13.36ZM 22.05 13.4754L 22.05 15.5559L 22.75 15.5559L 22.75 13.4754L 22.05 13.4754ZM 22.4 15.2059L 20.5333 15.2059L 20.5333 15.9059L 22.4 15.9059L 22.4 15.2059ZM 20.8833 15.5559L 20.8833 7.15637L 20.1833 7.15637L 20.1833 15.5559L 20.8833 15.5559ZM 20.8833 7.15633C 20.8833 6.816 20.7481 6.48962 20.5074 6.24898L 20.0125 6.74397C 20.1219 6.85336 20.1833 7.00171 20.1833 7.1564L 20.8833 7.15633ZM 20.5074 6.24898C 20.2668 6.00834 19.9404 5.87313 19.6 5.87309L 19.6 6.57309C 19.7547 6.57311 19.9031 6.63458 20.0125 6.74397L 20.5074 6.24898ZM 19.6 5.87309L 5.60001 5.87309L 5.60001 6.57309L 19.6 6.57309L 19.6 5.87309ZM 5.95001 6.22309L 5.95001 4.97873L 5.25001 4.97873L 5.25001 6.22309L 5.95001 6.22309ZM 1.86668 8.43964L 4.51112 8.43964L 4.51112 7.73965L 1.86668 7.73965L 1.86668 8.43964ZM 4.46024 8.43593C 4.53097 8.44632 4.60251 8.45081 4.67412 8.44929L 4.65924 7.74945C 4.62678 7.75014 4.59426 7.7481 4.56201 7.74336L 4.46024 8.43593ZM 4.66692 8.44937L 18.6669 8.43964L 18.6664 7.73965L 4.66643 7.74937L 4.66692 8.44937ZM 18.3167 8.08965L 18.3167 16.4891L 19.0167 16.4891L 19.0167 8.08965L 18.3167 8.08965ZM 18.3171 16.4709C 18.3148 16.5154 18.3148 16.56 18.3171 16.6046L 19.0162 16.5681C 19.0151 16.5479 19.0151 16.5276 19.0162 16.5074L 18.3171 16.4709ZM 18.3167 16.5863L 18.3167 18.6668L 19.0167 18.6668L 19.0167 16.5863L 18.3167 16.5863ZM 18.6667 18.3168L 1.86668 18.3168L 1.86668 19.0168L 18.6667 19.0168L 18.6667 18.3168ZM 2.21668 18.6668L 2.21668 8.08965L 1.51668 8.08965L 1.51668 18.6668L 2.21668 18.6668ZM 13.3222 9.2858C 13.1344 9.29478 12.9508 9.34491 12.7844 9.43269L 13.1112 10.0518C 13.1867 10.0119 13.2702 9.98909 13.3556 9.985L 13.3222 9.2858ZM 12.7844 9.43269C 12.6181 9.52047 12.4731 9.64372 12.3597 9.79372L 12.9181 10.2159C 12.9696 10.1477 13.0356 10.0917 13.1112 10.0518L 12.7844 9.43269ZM 12.3626 9.79L 8.76535 14.4175L 9.31801 14.8471L 12.9152 10.2196L 12.3626 9.79ZM 9.32102 14.4214L 8.18352 12.9146L 7.62483 13.3363L 8.76233 14.8432L 9.32102 14.4214ZM 8.1846 12.916C 8.08369 12.7809 7.95714 12.6669 7.81219 12.5807L 7.45432 13.1823C 7.52027 13.2216 7.57784 13.2734 7.62375 13.3349L 8.1846 12.916ZM 7.81219 12.5807C 7.66725 12.4945 7.50674 12.4377 7.33983 12.4135L 7.2394 13.1062C 7.31533 13.1172 7.38836 13.1431 7.45432 13.1823L 7.81219 12.5807ZM 7.33983 12.4135C 7.17292 12.3893 7.00288 12.3982 6.83941 12.4397L 7.01172 13.1182C 7.08609 13.0993 7.16346 13.0952 7.2394 13.1062L 7.33983 12.4135ZM 6.83941 12.4397C 6.67594 12.4812 6.52225 12.5545 6.38712 12.6554L 6.80594 13.2163C 6.86742 13.1704 6.93735 13.137 7.01172 13.1182L 6.83941 12.4397ZM 6.38712 12.6554C 6.25197 12.7563 6.13804 12.8829 6.05181 13.0278L 6.65339 13.3857C 6.69263 13.3198 6.74447 13.2622 6.80594 13.2163L 6.38712 12.6554ZM 6.05181 13.0278C 5.96558 13.1728 5.90874 13.3333 5.88454 13.5002L 6.5773 13.6006C 6.5883 13.5247 6.61416 13.4517 6.65339 13.3857L 6.05181 13.0278ZM 5.88454 13.5002C 5.86034 13.6671 5.86926 13.8371 5.91078 14.0006L 6.58923 13.8283C 6.57034 13.7539 6.56629 13.6765 6.5773 13.6006L 5.88454 13.5002ZM 5.91078 14.0006C 5.9523 14.1641 6.02561 14.3177 6.12653 14.4529L 6.68738 14.034C 6.64147 13.9725 6.60812 13.9026 6.58923 13.8283L 5.91078 14.0006ZM 6.12696 14.4535L 7.99363 16.9422L 8.55361 16.5222L 6.68695 14.0334L 6.12696 14.4535ZM 7.99201 16.94C 8.10966 17.0994 8.26261 17.2294 8.43886 17.3198L 8.75837 16.697C 8.67821 16.6559 8.6087 16.5968 8.55523 16.5244L 7.99201 16.94ZM 8.43886 17.3198C 8.61511 17.4102 8.80992 17.4587 9.00804 17.4612L 9.01712 16.7613C 8.92708 16.7601 8.83852 16.7381 8.75837 16.697L 8.43886 17.3198ZM 9.00804 17.4612C 9.20613 17.4638 9.40213 17.4205 9.58069 17.3347L 9.27745 16.7037C 9.19628 16.7428 9.10718 16.7625 9.01712 16.7613L 9.00804 17.4612ZM 9.58069 17.3347C 9.75927 17.2488 9.91553 17.1228 10.0372 16.9665L 9.48499 16.5364C 9.42964 16.6075 9.3586 16.6647 9.27745 16.7037L 9.58069 17.3347ZM 10.0374 16.9663L 14.3929 11.3667L 13.8404 10.9369L 9.48485 16.5366L 10.0374 16.9663ZM 14.3895 11.371C 14.5447 11.1778 14.6407 10.9438 14.6658 10.6973L 13.9694 10.6263C 13.958 10.7384 13.9144 10.8448 13.8438 10.9326L 14.3895 11.371ZM 14.6658 10.6973C 14.6909 10.4507 14.6441 10.2022 14.531 9.98164L 13.9081 10.3011C 13.9595 10.4013 13.9808 10.5143 13.9694 10.6263L 14.6658 10.6973ZM 14.531 9.98164C 14.4179 9.76112 14.2434 9.57806 14.0285 9.45457L 13.6797 10.0615C 13.7774 10.1176 13.8567 10.2008 13.9081 10.3011L 14.531 9.98164ZM 14.0285 9.45457C 13.8136 9.33109 13.5676 9.27244 13.3201 9.28574L 13.3577 9.98473C 13.4702 9.97868 13.582 10.0053 13.6797 10.0615L 14.0285 9.45457ZM 12.9889 9.63523L 12.9889 9.6354L 13.6889 9.6354L 13.6889 9.63523L 12.9889 9.63523Z"/>
</defs>
</svg>
