<svg width="32" height="32" viewBox="0 0 32 32" version="1.1" xmlns="http://www.w3.org/2000/svg" xmlns:xlink="http://www.w3.org/1999/xlink">
<title>Group 3</title>
<desc>Created using Figma</desc>
<g id="Canvas" transform="translate(-23412 -6736)">
<g id="Group 3">
<g id="shape">
<use xlink:href="#path0_fill" transform="translate(23412 6736)" fill="#FFFFFF" fill-opacity="0.01"/>
</g>
<g id="noun_1132225_cc">
<g id="Group">
<g id="Vector">
<use xlink:href="#path1_fill" transform="translate(23416 6741)" fill="#A4BD40"/>
<mask id="mask0_outline_ins">
<use xlink:href="#path1_fill" fill="white" transform="translate(23416 6741)"/>
</mask>
<g mask="url(#mask0_outline_ins)">
<use xlink:href="#path2_stroke_2x" transform="translate(23416 6741)" fill="#FFFFFF"/>
</g>
</g>
</g>
</g>
</g>
</g>
<defs>
<path id="path0_fill" fill-rule="evenodd" d="M 0 0L 32 0L 32 32L 0 32L 0 0Z"/>
<path id="path1_fill" d="M 6.93334 0C 5.85118 0 4.8 0.739029 4.8 1.86667L 4.8 5.33333L 3.2 5.33333C 3.17225 5.33188 3.14443 5.33188 3.11667 5.33333C 2.91926 5.35402 2.73659 5.44736 2.60415 5.5952C 2.4717 5.74304 2.39894 5.93484 2.40001 6.13333L 2.40001 15.4167L 0.20834 17.7917C 0.0735505 17.9398 -0.000788865 18.1331 6.31396e-06 18.3333L 6.31396e-06 20C 2.75274e-05 20.2122 0.0843198 20.4156 0.234344 20.5657C 0.384369 20.7157 0.587839 20.8 0.800006 20.8L 23.2 20.8C 23.4122 20.8 23.6156 20.7157 23.7657 20.5657C 23.9157 20.4156 24 20.2122 24 20L 24 18.3333C 24.0008 18.1331 23.9264 17.9398 23.7917 17.7917L 21.6 15.4167L 21.6 6.13333C 21.6 5.92116 21.5157 5.71769 21.3657 5.56767C 21.2156 5.41764 21.0122 5.33335 20.8 5.33333L 19.2 5.33333L 19.2 1.86667C 19.2 0.739029 18.1488 0 17.0667 0L 6.93334 0ZM 6.93334 1.6L 17.0667 1.6C 17.4618 1.6 17.6 1.81244 17.6 1.86667L 17.6 7.73333C 17.6 7.78757 17.4618 8 17.0667 8L 13.3333 8C 13.2282 7.99974 13.124 8.02022 13.0268 8.06026C 12.9295 8.10029 12.8412 8.15911 12.7667 8.23333L 11.2 9.8L 11.2 8.8C 11.2 8.58783 11.1157 8.38436 10.9657 8.23433C 10.8156 8.08431 10.6122 8.00002 10.4 8L 6.93334 8C 6.53816 8 6.4 7.78757 6.4 7.73333L 6.4 1.86667C 6.4 1.81244 6.53816 1.6 6.93334 1.6ZM 8.18334 2.66667C 8.07827 2.67212 7.9753 2.69822 7.88032 2.74347C 7.78533 2.78872 7.70019 2.85224 7.62976 2.9304C 7.55933 3.00856 7.50498 3.09982 7.46983 3.19899C 7.43467 3.29815 7.41939 3.40327 7.42486 3.50834C 7.43034 3.61341 7.45645 3.71637 7.50172 3.81135C 7.54699 3.90632 7.61052 3.99145 7.68869 4.06187C 7.76686 4.13229 7.85814 4.18662 7.95731 4.22176C 8.05648 4.2569 8.1616 4.27216 8.26667 4.26666L 15.7333 4.26666C 15.8393 4.26816 15.9446 4.24858 16.043 4.20905C 16.1413 4.16952 16.2309 4.11083 16.3064 4.03639C 16.3819 3.96196 16.4418 3.87326 16.4827 3.77545C 16.5237 3.67765 16.5447 3.57269 16.5447 3.46667C 16.5447 3.36064 16.5237 3.25568 16.4827 3.15788C 16.4418 3.06007 16.3819 2.97137 16.3064 2.89694C 16.2309 2.8225 16.1413 2.76381 16.043 2.72428C 15.9446 2.68475 15.8393 2.66517 15.7333 2.66667L 8.26667 2.66667C 8.23891 2.66522 8.21109 2.66522 8.18334 2.66667ZM 8.18334 5.33333C 8.07827 5.33878 7.9753 5.36488 7.88032 5.41013C 7.78533 5.45539 7.70019 5.51891 7.62976 5.59706C 7.55933 5.67522 7.50498 5.76649 7.46983 5.86565C 7.43467 5.96482 7.41939 6.06993 7.42486 6.175C 7.43034 6.28007 7.45645 6.38304 7.50172 6.47801C 7.54699 6.57299 7.61052 6.65811 7.68869 6.72853C 7.76686 6.79895 7.85814 6.85328 7.95731 6.88842C 8.05648 6.92356 8.1616 6.93882 8.26667 6.93333L 15.7333 6.93333C 15.8393 6.93483 15.9446 6.91524 16.043 6.87571C 16.1413 6.83618 16.2309 6.77749 16.3064 6.70306C 16.3819 6.62862 16.4418 6.53993 16.4827 6.44212C 16.5237 6.34431 16.5447 6.23935 16.5447 6.13333C 16.5447 6.02731 16.5237 5.92235 16.4827 5.82454C 16.4418 5.72674 16.3819 5.63804 16.3064 5.5636C 16.2309 5.48917 16.1413 5.43048 16.043 5.39095C 15.9446 5.35142 15.8393 5.33183 15.7333 5.33333L 8.26667 5.33333C 8.23891 5.33188 8.21109 5.33188 8.18334 5.33333ZM 4 6.93333L 4.8 6.93333L 4.8 7.73333C 4.8 8.86097 5.85118 9.6 6.93334 9.6L 9.6 9.6L 9.6 11.7333C 9.60129 11.8911 9.64921 12.045 9.73772 12.1756C 9.82624 12.3062 9.9514 12.4078 10.0975 12.4674C 10.2435 12.5271 10.404 12.5423 10.5587 12.511C 10.7133 12.4797 10.8553 12.4034 10.9667 12.2917L 13.6583 9.6L 17.0667 9.6C 18.1488 9.6 19.2 8.86097 19.2 7.73333L 19.2 6.93333L 20 6.93333L 20 14.9333L 4 14.9333L 4 6.93333ZM 3.55 16.5333L 20.45 16.5333L 22.4 18.65L 22.4 19.2L 1.60001 19.2L 1.60001 18.65L 3.55 16.5333Z"/>
<path id="path2_stroke_2x" d="M 4.8 5.33333L 4.8 5.58333L 5.05 5.58333L 5.05 5.33333L 4.8 5.33333ZM 3.2 5.33333L 3.18697 5.58333L 3.2 5.58333L 3.2 5.33333ZM 3.11667 5.33333L 3.10363 5.08333L 3.09061 5.08469L 3.11667 5.33333ZM 2.40001 6.13333L 2.65001 6.13333L 2.65 6.13199L 2.40001 6.13333ZM 2.40001 15.4167L 2.58373 15.5862L 2.65001 15.5144L 2.65001 15.4167L 2.40001 15.4167ZM 0.20834 17.7917L 0.0246095 17.6221L 0.0234392 17.6234L 0.20834 17.7917ZM 6.31396e-06 18.3333L 0.250008 18.3333L 0.250004 18.3323L 6.31396e-06 18.3333ZM 6.31396e-06 20L -0.249994 20L -0.249994 20L 6.31396e-06 20ZM 0.234344 20.5657L 0.0575675 20.7424L 0.234344 20.5657ZM 0.800006 20.8L 0.799981 21.05L 0.800006 21.05L 0.800006 20.8ZM 23.2 20.8L 23.2 21.05L 23.2 21.05L 23.2 20.8ZM 24 20L 24.25 20L 24.25 20L 24 20ZM 24 18.3333L 23.75 18.3323L 23.75 18.3333L 24 18.3333ZM 23.7917 17.7917L 23.9766 17.6234L 23.9754 17.6221L 23.7917 17.7917ZM 21.6 15.4167L 21.35 15.4167L 21.35 15.5144L 21.4163 15.5862L 21.6 15.4167ZM 21.6 6.13333L 21.85 6.13333L 21.85 6.13331L 21.6 6.13333ZM 20.8 5.33333L 20.8 5.08333L 20.8 5.08333L 20.8 5.33333ZM 19.2 5.33333L 18.95 5.33333L 18.95 5.58333L 19.2 5.58333L 19.2 5.33333ZM 13.3333 8L 13.3327 8.25L 13.3333 8.25L 13.3333 8ZM 12.7667 8.23333L 12.5902 8.05624L 12.5899 8.05655L 12.7667 8.23333ZM 11.2 9.8L 10.95 9.8L 10.95 10.4035L 11.3768 9.97677L 11.2 9.8ZM 11.2 8.8L 11.45 8.8L 11.45 8.79997L 11.2 8.8ZM 10.4 8L 10.4 7.75L 10.4 7.75L 10.4 8ZM 7.68869 4.06187L 7.85602 3.87612L 7.68869 4.06187ZM 7.95731 4.22176L 7.87381 4.4574L 7.95731 4.22176ZM 8.26667 4.26666L 8.26667 4.01632L 8.25362 4.01701L 8.26667 4.26666ZM 15.7333 4.26666L 15.7369 4.01666L 15.7333 4.01666L 15.7333 4.26666ZM 15.7333 2.66667L 15.7333 2.91669L 15.7369 2.91664L 15.7333 2.66667ZM 8.26667 2.66667L 8.25363 2.91667L 8.26667 2.91667L 8.26667 2.66667ZM 7.95731 6.88842L 7.87381 7.12407L 7.95731 6.88842ZM 8.26667 6.93333L 8.26667 6.68299L 8.25362 6.68367L 8.26667 6.93333ZM 15.7333 6.93333L 15.7369 6.68333L 15.7333 6.68333L 15.7333 6.93333ZM 15.7333 5.33333L 15.7333 5.58336L 15.7369 5.58331L 15.7333 5.33333ZM 8.26667 5.33333L 8.25363 5.58333L 8.26667 5.58333L 8.26667 5.33333ZM 4 6.93333L 4 6.68333L 3.75 6.68333L 3.75 6.93333L 4 6.93333ZM 4.8 6.93333L 5.05 6.93333L 5.05 6.68333L 4.8 6.68333L 4.8 6.93333ZM 9.6 9.6L 9.85 9.6L 9.85 9.35L 9.6 9.35L 9.6 9.6ZM 9.6 11.7333L 9.34999 11.7333L 9.35001 11.7354L 9.6 11.7333ZM 10.9667 12.2917L 10.7899 12.1149L 10.7896 12.1152L 10.9667 12.2917ZM 13.6583 9.6L 13.6583 9.35L 13.5548 9.35L 13.4816 9.42322L 13.6583 9.6ZM 19.2 6.93333L 19.2 6.68333L 18.95 6.68333L 18.95 6.93333L 19.2 6.93333ZM 20 6.93333L 20.25 6.93333L 20.25 6.68333L 20 6.68333L 20 6.93333ZM 20 14.9333L 20 15.1833L 20.25 15.1833L 20.25 14.9333L 20 14.9333ZM 4 14.9333L 3.75 14.9333L 3.75 15.1833L 4 15.1833L 4 14.9333ZM 3.55 16.5333L 3.55 16.2833L 3.4404 16.2833L 3.36614 16.3639L 3.55 16.5333ZM 20.45 16.5333L 20.6339 16.3639L 20.5596 16.2833L 20.45 16.2833L 20.45 16.5333ZM 22.4 18.65L 22.65 18.65L 22.65 18.5524L 22.5839 18.4806L 22.4 18.65ZM 22.4 19.2L 22.4 19.45L 22.65 19.45L 22.65 19.2L 22.4 19.2ZM 1.60001 19.2L 1.35001 19.2L 1.35001 19.45L 1.60001 19.45L 1.60001 19.2ZM 1.60001 18.65L 1.41614 18.4806L 1.35001 18.5524L 1.35001 18.65L 1.60001 18.65ZM 6.93334 -0.25C 5.76234 -0.25 4.55 0.556406 4.55 1.86667L 5.05 1.86667C 5.05 0.921652 5.94002 0.25 6.93334 0.25L 6.93334 -0.25ZM 4.55 1.86667L 4.55 5.33333L 5.05 5.33333L 5.05 1.86667L 4.55 1.86667ZM 4.8 5.08333L 3.2 5.08333L 3.2 5.58333L 4.8 5.58333L 4.8 5.08333ZM 3.21302 5.08367C 3.17659 5.08177 3.14008 5.08177 3.10365 5.08367L 3.12969 5.58299C 3.14878 5.582 3.1679 5.582 3.18699 5.58299L 3.21302 5.08367ZM 3.09061 5.08469C 2.83152 5.11185 2.59176 5.23435 2.41794 5.42839L 2.79035 5.76201C 2.88141 5.66036 3.00701 5.59619 3.14273 5.58197L 3.09061 5.08469ZM 2.41794 5.42839C 2.24411 5.62243 2.14862 5.87416 2.15001 6.13467L 2.65 6.13199C 2.64927 5.99553 2.6993 5.86366 2.79035 5.76201L 2.41794 5.42839ZM 2.15001 6.13333L 2.15001 15.4167L 2.65001 15.4167L 2.65001 6.13333L 2.15001 6.13333ZM 2.21628 15.2471L 0.024614 17.6221L 0.392065 17.9612L 2.58373 15.5862L 2.21628 15.2471ZM 0.0234392 17.6234C -0.153467 17.8178 -0.251035 18.0715 -0.249992 18.3343L 0.250004 18.3323C 0.249458 18.1946 0.300568 18.0618 0.39324 17.9599L 0.0234392 17.6234ZM -0.249994 18.3333L -0.249994 20L 0.250006 20L 0.250006 18.3333L -0.249994 18.3333ZM -0.249994 20C -0.249966 20.2785 -0.139335 20.5455 0.0575675 20.7424L 0.411121 20.3889C 0.307974 20.2857 0.250021 20.1458 0.250006 20L -0.249994 20ZM 0.0575675 20.7424C 0.25447 20.9393 0.521519 21.05 0.799981 21.05L 0.800031 20.55C 0.65416 20.55 0.514268 20.492 0.411121 20.3889L 0.0575675 20.7424ZM 0.800006 21.05L 23.2 21.05L 23.2 20.55L 0.800006 20.55L 0.800006 21.05ZM 23.2 21.05C 23.4785 21.05 23.7455 20.9393 23.9424 20.7424L 23.5889 20.3889C 23.4857 20.492 23.3458 20.55 23.2 20.55L 23.2 21.05ZM 23.9424 20.7424C 24.1393 20.5455 24.25 20.2785 24.25 20L 23.75 20C 23.75 20.1458 23.692 20.2857 23.5889 20.3889L 23.9424 20.7424ZM 24.25 20L 24.25 18.3333L 23.75 18.3333L 23.75 20L 24.25 20ZM 24.25 18.3343C 24.251 18.0715 24.1535 17.8178 23.9766 17.6234L 23.6068 17.9599C 23.6994 18.0618 23.7505 18.1946 23.75 18.3323L 24.25 18.3343ZM 23.9754 17.6221L 21.7837 15.2471L 21.4163 15.5862L 23.6079 17.9612L 23.9754 17.6221ZM 21.85 15.4167L 21.85 6.13333L 21.35 6.13333L 21.35 15.4167L 21.85 15.4167ZM 21.85 6.13331C 21.85 5.85484 21.7393 5.58779 21.5424 5.39089L 21.1889 5.74445C 21.292 5.84759 21.35 5.98748 21.35 6.13336L 21.85 6.13331ZM 21.5424 5.39089C 21.3455 5.19399 21.0785 5.08336 20.8 5.08333L 20.8 5.58333C 20.9458 5.58335 21.0857 5.6413 21.1889 5.74445L 21.5424 5.39089ZM 20.8 5.08333L 19.2 5.08333L 19.2 5.58333L 20.8 5.58333L 20.8 5.08333ZM 19.45 5.33333L 19.45 1.86667L 18.95 1.86667L 18.95 5.33333L 19.45 5.33333ZM 19.45 1.86667C 19.45 0.556406 18.2377 -0.25 17.0667 -0.25L 17.0667 0.25C 18.06 0.25 18.95 0.921652 18.95 1.86667L 19.45 1.86667ZM 17.0667 -0.25L 6.93334 -0.25L 6.93334 0.25L 17.0667 0.25L 17.0667 -0.25ZM 6.93334 1.85L 17.0667 1.85L 17.0667 1.35L 6.93334 1.35L 6.93334 1.85ZM 17.0667 1.85C 17.2178 1.85 17.2991 1.88996 17.3363 1.91651C 17.3562 1.93067 17.365 1.94204 17.3669 1.94472C 17.3679 1.94623 17.3656 1.9433 17.3623 1.9352C 17.3606 1.93109 17.35 1.90587 17.35 1.86667L 17.85 1.86667C 17.85 1.81391 17.8351 1.77019 17.8243 1.74408C 17.8119 1.71398 17.7957 1.68556 17.7776 1.65952C 17.7412 1.60711 17.6908 1.55521 17.6267 1.50949C 17.4961 1.41626 17.3107 1.35 17.0667 1.35L 17.0667 1.85ZM 17.35 1.86667L 17.35 7.73333L 17.85 7.73333L 17.85 1.86667L 17.35 1.86667ZM 17.35 7.73333C 17.35 7.69414 17.3606 7.66892 17.3623 7.66481C 17.3656 7.65671 17.3679 7.65378 17.3669 7.65528C 17.365 7.65796 17.3562 7.66933 17.3363 7.68349C 17.2991 7.71004 17.2178 7.75 17.0667 7.75L 17.0667 8.25C 17.3107 8.25 17.4961 8.18374 17.6267 8.09052C 17.6908 8.04479 17.7412 7.99289 17.7776 7.94048C 17.7957 7.91444 17.8119 7.88601 17.8243 7.85591C 17.8351 7.8298 17.85 7.78608 17.85 7.73333L 17.35 7.73333ZM 17.0667 7.75L 13.3333 7.75L 13.3333 8.25L 17.0667 8.25L 17.0667 7.75ZM 13.3339 7.75C 13.1959 7.74966 13.0592 7.77654 12.9316 7.82909L 13.122 8.29143C 13.1888 8.2639 13.2604 8.24982 13.3327 8.25L 13.3339 7.75ZM 12.9316 7.82909C 12.804 7.88164 12.688 7.95882 12.5902 8.05624L 12.9431 8.41042C 12.9943 8.35939 13.0551 8.31895 13.122 8.29143L 12.9316 7.82909ZM 12.5899 8.05655L 11.0232 9.62322L 11.3768 9.97677L 12.9434 8.41011L 12.5899 8.05655ZM 11.45 9.8L 11.45 8.8L 10.95 8.8L 10.95 9.8L 11.45 9.8ZM 11.45 8.79997C 11.45 8.52151 11.3393 8.25446 11.1424 8.05756L 10.7889 8.41111C 10.892 8.51426 10.95 8.65415 10.95 8.80002L 11.45 8.79997ZM 11.1424 8.05756C 10.9455 7.86066 10.6785 7.75002 10.4 7.75L 10.4 8.25C 10.5458 8.25001 10.6857 8.30796 10.7889 8.41111L 11.1424 8.05756ZM 10.4 7.75L 6.93334 7.75L 6.93334 8.25L 10.4 8.25L 10.4 7.75ZM 6.93334 7.75C 6.78219 7.75 6.70088 7.71004 6.66368 7.68349C 6.64383 7.66933 6.63496 7.65796 6.63311 7.65528C 6.63206 7.65378 6.63438 7.65671 6.63773 7.66481C 6.63943 7.66892 6.65 7.69414 6.65 7.73333L 6.15 7.73333C 6.15 7.78608 6.16489 7.8298 6.17569 7.85591C 6.18814 7.88601 6.20434 7.91444 6.22242 7.94048C 6.25882 7.99289 6.30919 8.04479 6.37328 8.09052C 6.50395 8.18374 6.6893 8.25 6.93334 8.25L 6.93334 7.75ZM 6.65 7.73333L 6.65 1.86667L 6.15 1.86667L 6.15 7.73333L 6.65 7.73333ZM 6.65 1.86667C 6.65 1.90587 6.63943 1.93109 6.63773 1.9352C 6.63438 1.9433 6.63206 1.94623 6.63311 1.94472C 6.63496 1.94204 6.64383 1.93067 6.66368 1.91651C 6.70089 1.88996 6.7822 1.85 6.93334 1.85L 6.93334 1.35C 6.6893 1.35 6.50394 1.41626 6.37328 1.50949C 6.30919 1.55521 6.25882 1.60711 6.22242 1.65952C 6.20434 1.68556 6.18814 1.71398 6.17569 1.74408C 6.1649 1.77019 6.15 1.81391 6.15 1.86667L 6.65 1.86667ZM 8.17038 2.417C 8.03252 2.42416 7.89741 2.4584 7.77279 2.51777L 7.98784 2.96916C 8.05318 2.93803 8.12401 2.92008 8.19629 2.91633L 8.17038 2.417ZM 7.77279 2.51777C 7.64816 2.57715 7.53646 2.66049 7.44404 2.76304L 7.81548 3.09776C 7.86393 3.04399 7.9225 3.00029 7.98784 2.96916L 7.77279 2.51777ZM 7.44404 2.76304C 7.35163 2.86559 7.28032 2.98534 7.2342 3.11545L 7.70546 3.28253C 7.72964 3.21431 7.76703 3.15152 7.81548 3.09776L 7.44404 2.76304ZM 7.2342 3.11545C 7.18807 3.24556 7.16802 3.38348 7.1752 3.52134L 7.67452 3.49534C 7.67076 3.42306 7.68127 3.35074 7.70546 3.28253L 7.2342 3.11545ZM 7.1752 3.52134C 7.18238 3.6592 7.21665 3.7943 7.27604 3.91891L 7.7274 3.70378C 7.69625 3.63844 7.67829 3.56762 7.67452 3.49534L 7.1752 3.52134ZM 7.27604 3.91891C 7.33544 4.04352 7.4188 4.15522 7.52137 4.24761L 7.85602 3.87612C 7.80224 3.82768 7.75854 3.76912 7.7274 3.70378L 7.27604 3.91891ZM 7.52137 4.24761C 7.62393 4.34001 7.74369 4.41129 7.87381 4.4574L 8.04081 3.98611C 7.97259 3.96194 7.90979 3.92456 7.85602 3.87612L 7.52137 4.24761ZM 7.87381 4.4574C 8.00393 4.50351 8.14186 4.52353 8.27972 4.51632L 8.25362 4.01701C 8.18134 4.02078 8.10903 4.01028 8.04081 3.98611L 7.87381 4.4574ZM 8.26667 4.51666L 15.7333 4.51666L 15.7333 4.01666L 8.26667 4.01666L 8.26667 4.51666ZM 15.7298 4.51664C 15.8689 4.51861 16.0071 4.4929 16.1362 4.44102L 15.9498 3.97708C 15.8821 4.00425 15.8098 4.01772 15.7369 4.01669L 15.7298 4.51664ZM 16.1362 4.44102C 16.2653 4.38914 16.3828 4.31211 16.4819 4.21442L 16.1308 3.85837C 16.0789 3.90955 16.0174 3.9499 15.9498 3.97708L 16.1362 4.44102ZM 16.4819 4.21442C 16.581 4.11672 16.6597 4.00031 16.7134 3.87194L 16.2521 3.67897C 16.224 3.74621 16.1828 3.80719 16.1308 3.85837L 16.4819 4.21442ZM 16.7134 3.87194C 16.7671 3.74357 16.7947 3.60581 16.7947 3.46667L 16.2947 3.46667C 16.2947 3.53956 16.2802 3.61172 16.2521 3.67897L 16.7134 3.87194ZM 16.7947 3.46667C 16.7947 3.32752 16.7671 3.18976 16.7134 3.06139L 16.2521 3.25436C 16.2802 3.32161 16.2947 3.39377 16.2947 3.46667L 16.7947 3.46667ZM 16.7134 3.06139C 16.6597 2.93302 16.581 2.81661 16.4819 2.71891L 16.1308 3.07496C 16.1828 3.12614 16.224 3.18712 16.2521 3.25436L 16.7134 3.06139ZM 16.4819 2.71891C 16.3828 2.62122 16.2653 2.54419 16.1362 2.49231L 15.9498 2.95625C 16.0174 2.98343 16.0789 3.02378 16.1308 3.07496L 16.4819 2.71891ZM 16.1362 2.49231C 16.0071 2.44043 15.8689 2.41472 15.7298 2.41669L 15.7369 2.91664C 15.8098 2.91561 15.8821 2.92908 15.9498 2.95625L 16.1362 2.49231ZM 15.7333 2.41667L 8.26667 2.41667L 8.26667 2.91667L 15.7333 2.91667L 15.7333 2.41667ZM 8.27969 2.417C 8.24326 2.4151 8.20675 2.4151 8.17032 2.417L 8.19635 2.91633C 8.21544 2.91533 8.23456 2.91533 8.25365 2.91633L 8.27969 2.417ZM 8.17038 5.08367C 8.03252 5.09082 7.89741 5.12507 7.77279 5.18444L 7.98784 5.63583C 8.05318 5.6047 8.12401 5.58675 8.19629 5.58299L 8.17038 5.08367ZM 7.77279 5.18444C 7.64816 5.24381 7.53646 5.32716 7.44404 5.4297L 7.81548 5.76442C 7.86393 5.71066 7.9225 5.66696 7.98784 5.63583L 7.77279 5.18444ZM 7.44404 5.4297C 7.35163 5.53225 7.28033 5.652 7.2342 5.78211L 7.70546 5.94919C 7.72964 5.88097 7.76703 5.81819 7.81548 5.76442L 7.44404 5.4297ZM 7.2342 5.78211C 7.18807 5.91222 7.16802 6.05015 7.1752 6.18801L 7.67452 6.162C 7.67076 6.08972 7.68127 6.01741 7.70546 5.94919L 7.2342 5.78211ZM 7.1752 6.18801C 7.18238 6.32587 7.21665 6.46096 7.27604 6.58558L 7.7274 6.37045C 7.69626 6.30511 7.67829 6.23428 7.67452 6.162L 7.1752 6.18801ZM 7.27604 6.58558C 7.33544 6.71019 7.4188 6.82188 7.52137 6.91428L 7.85602 6.54279C 7.80224 6.49434 7.75854 6.43578 7.7274 6.37045L 7.27604 6.58558ZM 7.52137 6.91428C 7.62393 7.00667 7.74369 7.07796 7.87381 7.12407L 8.04081 6.65278C 7.97259 6.6286 7.9098 6.59123 7.85602 6.54279L 7.52137 6.91428ZM 7.87381 7.12407C 8.00393 7.17017 8.14186 7.19019 8.27972 7.18299L 8.25362 6.68367C 8.18134 6.68745 8.10903 6.67695 8.04081 6.65278L 7.87381 7.12407ZM 8.26667 7.18333L 15.7333 7.18333L 15.7333 6.68333L 8.26667 6.68333L 8.26667 7.18333ZM 15.7298 7.1833C 15.8689 7.18527 16.0071 7.15957 16.1362 7.10768L 15.9498 6.64374C 15.8821 6.67092 15.8098 6.68439 15.7369 6.68335L 15.7298 7.1833ZM 16.1362 7.10768C 16.2653 7.0558 16.3828 6.97877 16.4819 6.88108L 16.1308 6.52504C 16.0789 6.57621 16.0174 6.61656 15.9498 6.64374L 16.1362 7.10768ZM 16.4819 6.88108C 16.581 6.78339 16.6597 6.66697 16.7134 6.53861L 16.2521 6.34563C 16.224 6.41288 16.1828 6.47386 16.1308 6.52504L 16.4819 6.88108ZM 16.7134 6.53861C 16.7671 6.41024 16.7947 6.27248 16.7947 6.13333L 16.2947 6.13333C 16.2947 6.20622 16.2802 6.27839 16.2521 6.34563L 16.7134 6.53861ZM 16.7947 6.13333C 16.7947 5.99418 16.7671 5.85642 16.7134 5.72805L 16.2521 5.92103C 16.2802 5.98827 16.2947 6.06044 16.2947 6.13333L 16.7947 6.13333ZM 16.7134 5.72805C 16.6597 5.59969 16.581 5.48327 16.4819 5.38558L 16.1308 5.74162C 16.1828 5.7928 16.224 5.85378 16.2521 5.92103L 16.7134 5.72805ZM 16.4819 5.38558C 16.3828 5.28789 16.2653 5.21086 16.1362 5.15898L 15.9498 5.62292C 16.0174 5.6501 16.0789 5.69045 16.1308 5.74162L 16.4819 5.38558ZM 16.1362 5.15898C 16.0071 5.10709 15.8689 5.08139 15.7298 5.08336L 15.7369 5.58331C 15.8098 5.58227 15.8821 5.59574 15.9498 5.62292L 16.1362 5.15898ZM 15.7333 5.08333L 8.26667 5.08333L 8.26667 5.58333L 15.7333 5.58333L 15.7333 5.08333ZM 8.27969 5.08367C 8.24326 5.08177 8.20675 5.08177 8.17032 5.08367L 8.19635 5.58299C 8.21544 5.582 8.23456 5.582 8.25365 5.58299L 8.27969 5.08367ZM 4 7.18333L 4.8 7.18333L 4.8 6.68333L 4 6.68333L 4 7.18333ZM 4.55 6.93333L 4.55 7.73333L 5.05 7.73333L 5.05 6.93333L 4.55 6.93333ZM 4.55 7.73333C 4.55 9.04359 5.76234 9.85 6.93334 9.85L 6.93334 9.35C 5.94002 9.35 5.05 8.67834 5.05 7.73333L 4.55 7.73333ZM 6.93334 9.85L 9.6 9.85L 9.6 9.35L 6.93334 9.35L 6.93334 9.85ZM 9.35 9.6L 9.35 11.7333L 9.85 11.7333L 9.85 9.6L 9.35 9.6ZM 9.35001 11.7354C 9.3517 11.9425 9.41459 12.1444 9.53076 12.3159L 9.94468 12.0354C 9.88382 11.9456 9.85088 11.8398 9.84999 11.7313L 9.35001 11.7354ZM 9.53076 12.3159C 9.64694 12.4873 9.81121 12.6206 10.0029 12.6989L 10.192 12.236C 10.0916 12.195 10.0055 12.1252 9.94468 12.0354L 9.53076 12.3159ZM 10.0029 12.6989C 10.1946 12.7772 10.4052 12.7971 10.6082 12.756L 10.5091 12.266C 10.4028 12.2875 10.2924 12.277 10.192 12.236L 10.0029 12.6989ZM 10.6082 12.756C 10.8112 12.715 10.9975 12.6148 11.1437 12.4682L 10.7896 12.1152C 10.713 12.192 10.6154 12.2445 10.5091 12.266L 10.6082 12.756ZM 11.1434 12.4684L 13.8351 9.77677L 13.4816 9.42322L 10.7899 12.1149L 11.1434 12.4684ZM 13.6583 9.85L 17.0667 9.85L 17.0667 9.35L 13.6583 9.35L 13.6583 9.85ZM 17.0667 9.85C 18.2377 9.85 19.45 9.04359 19.45 7.73333L 18.95 7.73333C 18.95 8.67834 18.06 9.35 17.0667 9.35L 17.0667 9.85ZM 19.45 7.73333L 19.45 6.93333L 18.95 6.93333L 18.95 7.73333L 19.45 7.73333ZM 19.2 7.18333L 20 7.18333L 20 6.68333L 19.2 6.68333L 19.2 7.18333ZM 19.75 6.93333L 19.75 14.9333L 20.25 14.9333L 20.25 6.93333L 19.75 6.93333ZM 20 14.6833L 4 14.6833L 4 15.1833L 20 15.1833L 20 14.6833ZM 4.25 14.9333L 4.25 6.93333L 3.75 6.93333L 3.75 14.9333L 4.25 14.9333ZM 3.55 16.7833L 20.45 16.7833L 20.45 16.2833L 3.55 16.2833L 3.55 16.7833ZM 20.2661 16.7027L 22.2161 18.8194L 22.5839 18.4806L 20.6339 16.3639L 20.2661 16.7027ZM 22.15 18.65L 22.15 19.2L 22.65 19.2L 22.65 18.65L 22.15 18.65ZM 22.4 18.95L 1.60001 18.95L 1.60001 19.45L 22.4 19.45L 22.4 18.95ZM 1.85001 19.2L 1.85001 18.65L 1.35001 18.65L 1.35001 19.2L 1.85001 19.2ZM 1.78387 18.8194L 3.73387 16.7027L 3.36614 16.3639L 1.41614 18.4806L 1.78387 18.8194Z"/>
</defs>
</svg>
