<svg width="32" height="32" viewBox="0 0 32 32" version="1.1" xmlns="http://www.w3.org/2000/svg" xmlns:xlink="http://www.w3.org/1999/xlink">
<title>Group 3</title>
<desc>Created using Figma</desc>
<g id="Canvas" transform="translate(-23412 -6613)">
<g id="Group 3">
<g id="shape">
<use xlink:href="#path0_fill" transform="translate(23412 6613)" fill="#FFFFFF" fill-opacity="0.01"/>
</g>
<g id="noun_1122648_cc">
<g id="Group">
<g id="Vector">
<use xlink:href="#path1_fill" transform="translate(23416 6620)" fill="#DD5574"/>
</g>
</g>
</g>
</g>
</g>
<defs>
<path id="path0_fill" fill-rule="evenodd" d="M 0 0L 32 0L 32 32L 0 32L 0 0Z"/>
<path id="path1_fill" d="M 0.494693 0.000462327C 0.359083 0.0132428 0.233162 0.0762901 0.141694 0.177218C 0.0502253 0.278147 -0.000170844 0.409654 0.000416258 0.545861L 0.000416258 4.32104C -0.000138716 4.33524 -0.000138716 4.34944 0.000416258 4.36364L 0.000416258 18.544C 0.000428783 18.6886 0.0578951 18.8274 0.160176 18.9296C 0.262457 19.0319 0.401177 19.0894 0.545825 19.0894L 23.453 19.0894C 23.47 19.0902 23.4871 19.0902 23.5041 19.0894C 23.56 19.0836 23.6146 19.0692 23.6661 19.0468C 23.6834 19.042 23.7004 19.0363 23.7172 19.0299C 23.732 19.0192 23.7462 19.0079 23.7598 18.9958C 23.8334 18.9457 23.8937 18.8784 23.9353 18.7996C 23.9769 18.7209 23.9985 18.6332 23.9984 18.5441L 23.9984 4.36379C 23.9992 4.34675 23.9992 4.32969 23.9984 4.31265L 23.9984 0.545994C 23.9984 0.401351 23.9409 0.262635 23.8387 0.160357C 23.7364 0.0580782 23.5977 0.000609886 23.453 0.000595489L 0.545825 0.000595489C 0.528791 -0.000203794 0.511728 -0.000203794 0.494693 0.000595489L 0.494693 0.000462327ZM 1.09123 1.09126L 22.9076 1.09126L 22.9076 3.81826L 1.09123 3.81826L 1.09123 1.09126ZM 2.94903 1.90936C 2.87741 1.91272 2.80715 1.93015 2.74226 1.96066C 2.67737 1.99117 2.61913 2.03416 2.57086 2.08718C 2.52259 2.1402 2.48523 2.20221 2.46092 2.26966C 2.43662 2.33712 2.42583 2.4087 2.42919 2.48033C 2.43255 2.55195 2.44998 2.62221 2.48049 2.68709C 2.511 2.75198 2.554 2.81022 2.60702 2.85849C 2.66004 2.90676 2.72204 2.94411 2.7895 2.96841C 2.85696 2.99272 2.92854 3.00351 3.00017 3.00016L 4.09099 3.00016C 4.16326 3.00117 4.23501 2.98781 4.30207 2.96086C 4.36914 2.93391 4.43017 2.8939 4.48164 2.84316C 4.53311 2.79241 4.57397 2.73193 4.60187 2.66525C 4.62976 2.59858 4.64413 2.52703 4.64413 2.45476C 4.64413 2.38248 4.62976 2.31092 4.60187 2.24425C 4.57397 2.17757 4.53311 2.1171 4.48164 2.06636C 4.43017 2.01561 4.36914 1.97559 4.30207 1.94864C 4.23501 1.92169 4.16326 1.90834 4.09099 1.90936L 3.00017 1.90936C 2.98313 1.90856 2.96607 1.90856 2.94903 1.90936ZM 6.22149 1.90936C 6.14987 1.91272 6.0796 1.93015 6.01472 1.96066C 5.94983 1.99117 5.89159 2.03416 5.84332 2.08718C 5.79504 2.1402 5.75769 2.20221 5.73338 2.26966C 5.70907 2.33712 5.69829 2.4087 5.70165 2.48033C 5.705 2.55195 5.72244 2.62221 5.75295 2.68709C 5.78346 2.75198 5.82645 2.81022 5.87947 2.85849C 5.93249 2.90676 5.9945 2.94411 6.06196 2.96841C 6.12941 2.99272 6.201 3.00351 6.27262 3.00016L 7.36344 3.00016C 7.43571 3.00117 7.50746 2.98781 7.57453 2.96086C 7.64159 2.93391 7.70263 2.8939 7.7541 2.84316C 7.80556 2.79241 7.84643 2.73193 7.87432 2.66525C 7.90222 2.59858 7.91658 2.52703 7.91658 2.45476C 7.91658 2.38248 7.90222 2.31092 7.87432 2.24425C 7.84643 2.17757 7.80556 2.1171 7.7541 2.06636C 7.70263 2.01561 7.64159 1.97559 7.57453 1.94864C 7.50746 1.92169 7.43571 1.90834 7.36344 1.90936L 6.27262 1.90936C 6.25559 1.90856 6.23853 1.90856 6.22149 1.90936ZM 1.09123 4.90905L 22.9076 4.90905L 22.9076 17.9986L 1.09123 17.9986L 1.09123 4.90905ZM 9.91153 7.09063C 9.28652 7.10503 8.76328 7.25278 8.36904 7.55935C 7.9748 7.86592 7.74737 8.31548 7.67023 8.77796C 7.51596 9.70292 7.83276 10.718 8.30086 11.718C 8.76897 12.718 9.41205 13.6964 10.0479 14.445C 10.3658 14.8193 10.6867 15.1338 10.9938 15.3739C 11.3009 15.6139 11.5802 15.817 11.9994 15.817C 12.4186 15.817 12.6979 15.6139 13.005 15.3739C 13.3121 15.1338 13.633 14.8193 13.951 14.445C 14.5868 13.6964 15.2299 12.718 15.698 11.718C 16.1661 10.718 16.4829 9.70292 16.3286 8.77796C 16.2515 8.31548 16.024 7.86592 15.6298 7.55935C 15.2356 7.25278 14.7123 7.10503 14.0873 7.09063C 14.0816 7.09054 14.076 7.09054 14.0703 7.09063C 13.261 7.09491 12.6006 7.48732 11.9994 7.96839C 11.3982 7.48732 10.7378 7.09494 9.92857 7.09063C 9.92289 7.09054 9.91721 7.09054 9.91152 7.09063L 9.91153 7.09063ZM 9.92005 8.18143C 9.92547 8.18146 9.93168 8.18135 9.93709 8.18143C 10.5094 8.19027 11.0354 8.50145 11.633 9.04212C 11.7333 9.13313 11.8639 9.18354 11.9994 9.18354C 12.1349 9.18354 12.2655 9.13313 12.3659 9.04212C 12.9635 8.50144 13.4894 8.19024 14.0617 8.18143C 14.0687 8.18159 14.072 8.18123 14.0788 8.18143C 14.532 8.19479 14.7985 8.29716 14.9566 8.42004C 15.117 8.54478 15.2033 8.69885 15.2463 8.95693C 15.3324 9.47302 15.129 10.3614 14.7094 11.2578C 14.2898 12.1542 13.6827 13.0703 13.1158 13.7377C 12.8324 14.0714 12.5609 14.3407 12.3403 14.5132C 12.1831 14.636 12.0429 14.6872 11.9994 14.7092C 11.956 14.6871 11.8157 14.636 11.6585 14.5132C 11.438 14.3407 11.1665 14.0714 10.883 13.7377C 10.3161 13.0703 9.70902 12.1542 9.28942 11.2578C 8.86982 10.3614 8.66645 9.47302 8.75253 8.95693C 8.79558 8.69885 8.88188 8.54478 9.04228 8.42004C 9.2003 8.29716 9.46688 8.19479 9.92005 8.18143L 9.92005 8.18143Z"/>
</defs>
</svg>
