<svg width="56" height="52" viewBox="0 0 56 52" version="1.1" xmlns="http://www.w3.org/2000/svg" xmlns:xlink="http://www.w3.org/1999/xlink">
<g id="Canvas" fill="none">
<g id="mac copy">
<g id="Rectangle 28 1">
<g id="Group">
<path id="Vector" d="M 54.25 0L 0 0L 0 7L 54.25 7L 54.25 0Z" transform="translate(0.875 34.125)" fill="white"/>
</g>
</g>
<g id="Rectangle 101 2">
<g id="Group_2">
<path id="Vector_2" d="M 54.25 7L 54.25 0L 0 0L 0 7L 22.75 7L 22.75 13.125L 19.25 16.625L 35 16.625L 31.5 13.125L 31.5 7L 54.25 7Z" transform="translate(0.875 34.125)" fill="white"/>
</g>
</g>
<g id="Ellipse 30 3">
<g id="Group_3">
<path id="Vector_3" d="M 8.54525 11.116L 11.116 8.54525C 11.4704 8.19 11.4704 7.61425 11.116 7.259C 10.7608 6.90462 10.1859 6.90462 9.82975 7.259L 7.259 9.82975C 6.90462 10.185 6.90462 10.7607 7.259 11.116C 7.61425 11.4704 8.18913 11.4704 8.54525 11.116ZM 8.54525 15.491L 15.491 8.54525C 15.8454 8.19 15.8454 7.61425 15.491 7.259C 15.1358 6.90462 14.5609 6.90462 14.2047 7.259L 7.259 14.2047C 6.90462 14.56 6.90462 15.1349 7.259 15.491C 7.61425 15.8454 8.18913 15.8454 8.54525 15.491ZM 52.5 3.5L 3.5 3.5L 3.5 31.5L 52.5 31.5L 52.5 3.5ZM 50.75 29.75L 5.25 29.75L 5.25 5.25L 50.75 5.25L 50.75 29.75ZM 54.25 0L 1.75 0C 0.784 0 0 0.784 0 1.75L 0 40.25C 0 41.2169 0.784 42 1.75 42L 22.75 42L 22.75 46.375L 18.375 50.75C 18.375 51.7169 19.159 51.625 20.125 51.625L 35.875 51.625C 36.841 51.625 37.625 51.7169 37.625 50.75C 37.625 50.75 34.9274 48.0524 33.25 46.375L 33.25 42L 54.25 42C 55.216 42 56 41.2169 56 40.25L 56 1.75C 56 0.784 55.216 0 54.25 0ZM 34.125 49.875L 21.875 49.875L 24.5 47.25L 24.5 42L 31.5 42L 31.5 47.25L 34.125 49.875ZM 54.25 40.25L 1.75 40.25L 1.75 35L 54.25 35L 54.25 40.25ZM 54.25 33.25L 1.75 33.25L 1.75 1.75L 54.25 1.75L 54.25 33.25ZM 28 39.375C 28.966 39.375 29.75 38.5919 29.75 37.625C 29.75 36.659 28.966 35.875 28 35.875C 27.034 35.875 26.25 36.659 26.25 37.625C 26.25 38.5919 27.034 39.375 28 39.375Z" fill="#0F89D7"/>
</g>
</g>
<path id="?" d="M 3.76172 15.1953C 3.77734 14.2656 3.88281 13.5312 4.07812 12.9922C 4.27344 12.4531 4.67188 11.8555 5.27344 11.1992L 6.80859 9.61719C 7.46484 8.875 7.79297 8.07812 7.79297 7.22656C 7.79297 6.40625 7.57812 5.76562 7.14844 5.30469C 6.71875 4.83594 6.09375 4.60156 5.27344 4.60156C 4.47656 4.60156 3.83594 4.8125 3.35156 5.23438C 2.86719 5.65625 2.625 6.22266 2.625 6.93359L 0.457031 6.93359C 0.472656 5.66797 0.921875 4.64844 1.80469 3.875C 2.69531 3.09375 3.85156 2.70312 5.27344 2.70312C 6.75 2.70312 7.89844 3.10156 8.71875 3.89844C 9.54688 4.6875 9.96094 5.77344 9.96094 7.15625C 9.96094 8.52344 9.32812 9.87109 8.0625 11.1992L 6.78516 12.4648C 6.21484 13.0977 5.92969 14.0078 5.92969 15.1953L 3.76172 15.1953ZM 3.66797 18.9102C 3.66797 18.5586 3.77344 18.2656 3.98438 18.0312C 4.20312 17.7891 4.52344 17.668 4.94531 17.668C 5.36719 17.668 5.6875 17.7891 5.90625 18.0312C 6.125 18.2656 6.23438 18.5586 6.23438 18.9102C 6.23438 19.2617 6.125 19.5547 5.90625 19.7891C 5.6875 20.0156 5.36719 20.1289 4.94531 20.1289C 4.52344 20.1289 4.20312 20.0156 3.98438 19.7891C 3.77344 19.5547 3.66797 19.2617 3.66797 18.9102Z" transform="translate(22.75 5.25)" fill="#0F89D7"/>
</g>
</g>
</svg>
