<?xml version="1.0" encoding="UTF-8" standalone="no"?><!DOCTYPE svg PUBLIC "-//W3C//DTD SVG 1.1//EN" "http://www.w3.org/Graphics/SVG/1.1/DTD/svg11.dtd"><svg width="100%" height="100%" viewBox="0 0 47 60" version="1.1" xmlns="http://www.w3.org/2000/svg" xmlns:xlink="http://www.w3.org/1999/xlink" xml:space="preserve" style="fill-rule:evenodd;clip-rule:evenodd;stroke-linejoin:round;stroke-miterlimit:1.41421;"><path id="Shape" d="M0.583,0.003c-0.33,0.064 -0.567,0.359 -0.561,0.698l-0.022,50.186c0,0.386 0.309,0.698 0.691,0.698l6.221,0.043l0,7.674c0,0.386 0.309,0.698 0.691,0.698l38.706,0c0.382,0 0.691,-0.312 0.691,-0.698l0,-50.23c0,-0.385 -0.309,-0.697 -0.691,-0.697l-6.221,0l0,-7.674c0,-0.386 -0.309,-0.698 -0.691,-0.698l-38.684,0c-0.043,-0.004 -0.087,-0.004 -0.13,0l0,0Zm0.821,1.396l37.302,0l0,6.976l-31.103,0c-0.043,-0.004 -0.087,-0.004 -0.13,0c-0.111,0.025 -0.215,0.077 -0.302,0.153c-0.007,0.007 -0.015,0.014 -0.022,0.021c-0.014,0.007 -0.029,0.014 -0.043,0.022c0,0.007 0,0.015 0,0.022c-0.015,0.014 -0.029,0.028 -0.043,0.044c0,0.007 0,0.014 0,0.021c-0.015,0.007 -0.029,0.014 -0.043,0.022c0,0.007 0,0.015 0,0.022c-0.008,0.014 -0.015,0.029 -0.022,0.044c-0.008,0.014 -0.015,0.028 -0.021,0.043c-0.008,0.007 -0.015,0.014 -0.022,0.022c0,0.007 0,0.014 0,0.022c-0.008,0.014 -0.015,0.028 -0.022,0.043c0,0.008 0,0.015 0,0.022c0,0.015 0,0.029 0,0.044c-0.007,0.007 -0.014,0.014 -0.021,0.021c-0.001,0.015 -0.001,0.029 0,0.044c0,0.007 0,0.015 0,0.022c-0.001,0.014 -0.001,0.029 0,0.043l0,41.161l-5.53,-0.043l0.022,-48.791l0,0Zm6.89,8.371l37.324,0l0,48.835l-37.324,0l0,-7.543c0.004,-0.044 0.004,-0.087 0,-0.131l0,-41.161Zm9.547,12.558c-0.247,0.023 -0.464,0.177 -0.568,0.405c-0.104,0.228 -0.079,0.494 0.065,0.699c0.144,0.204 0.385,0.315 0.633,0.291l17.97,0c0.249,0.004 0.481,-0.128 0.607,-0.346c0.126,-0.217 0.126,-0.486 0,-0.703c-0.126,-0.218 -0.358,-0.35 -0.607,-0.346l-17.97,0c-0.044,-0.004 -0.087,-0.004 -0.13,0Zm0,11.162c-0.382,0.036 -0.662,0.378 -0.626,0.763c0.035,0.385 0.374,0.668 0.756,0.632l17.97,0c0.249,0.004 0.481,-0.128 0.607,-0.346c0.126,-0.217 0.126,-0.486 0,-0.703c-0.126,-0.217 -0.358,-0.349 -0.607,-0.346l-17.97,0c-0.044,-0.004 -0.087,-0.004 -0.13,0Zm0,11.162c-0.247,0.024 -0.463,0.178 -0.566,0.406c-0.104,0.227 -0.079,0.493 0.065,0.697c0.143,0.205 0.384,0.316 0.631,0.293l17.97,0c0.249,0.003 0.481,-0.129 0.607,-0.346c0.126,-0.218 0.126,-0.486 0,-0.704c-0.126,-0.217 -0.358,-0.349 -0.607,-0.346l-17.97,0c-0.044,-0.004 -0.087,-0.004 -0.13,0Z" style="fill:#0f89d7;"/></svg>