<?xml version="1.0" encoding="UTF-8" standalone="no"?><!DOCTYPE svg PUBLIC "-//W3C//DTD SVG 1.1//EN" "http://www.w3.org/Graphics/SVG/1.1/DTD/svg11.dtd"><svg width="100%" height="100%" viewBox="0 0 57 45" version="1.1" xmlns="http://www.w3.org/2000/svg" xmlns:xlink="http://www.w3.org/1999/xlink" xml:space="preserve" style="fill-rule:evenodd;clip-rule:evenodd;stroke-linejoin:round;stroke-miterlimit:1.41421;"><path id="Shape" d="M4.318,0c-2.377,0 -4.318,1.945 -4.318,4.327l0,36.346c0,2.382 1.941,4.327 4.318,4.327l48.364,0c2.377,0 4.318,-1.945 4.318,-4.327l0,-36.346c0,-2.382 -1.941,-4.327 -4.318,-4.327l-48.364,0Zm0,1.731l48.364,0c1.45,0 2.591,1.143 2.591,2.596l0,6.923l-53.546,0l0,-6.923c0,-1.453 1.141,-2.596 2.591,-2.596Zm3.023,3.461c-0.716,0 -1.296,0.581 -1.296,1.298c0,0.717 0.58,1.298 1.296,1.298c0.715,0 1.295,-0.581 1.295,-1.298c0,-0.717 -0.58,-1.298 -1.295,-1.298Zm4.318,0c-0.715,0 -1.295,0.581 -1.295,1.298c0,0.717 0.58,1.298 1.295,1.298c0.716,0 1.296,-0.581 1.296,-1.298c0,-0.717 -0.58,-1.298 -1.296,-1.298Zm4.318,0c-0.715,0 -1.295,0.581 -1.295,1.298c0,0.717 0.58,1.298 1.295,1.298c0.716,0 1.296,-0.581 1.296,-1.298c0,-0.717 -0.58,-1.298 -1.296,-1.298Zm-14.25,7.789l53.546,0l0,27.692c0,1.453 -1.141,2.596 -2.591,2.596l-48.364,0c-1.45,0 -2.591,-1.143 -2.591,-2.596l0,-27.692Z" style="fill:#0282d5;"/><g id="Group-14"><rect id="Rectangle-7" x="12.667" y="17.74" width="31.235" height="1.514" style="fill:#0282d5;"/><rect id="Rectangle-7-Copy" x="12.667" y="23.798" width="31.235" height="1.514" style="fill:#0282d5;"/><rect id="Rectangle-7-Copy-2" x="12.667" y="29.856" width="31.235" height="1.514" style="fill:#0282d5;"/><rect id="Rectangle-7-Copy-3" x="12.667" y="35.913" width="31.235" height="1.514" style="fill:#0282d5;"/></g></svg>