<svg width="64" height="52" viewBox="0 0 64 52" version="1.1" xmlns="http://www.w3.org/2000/svg" xmlns:xlink="http://www.w3.org/1999/xlink">
<g id="Canvas" fill="none">
<g id="users copy">
<path id="Vector" d="M 56 22L 55 22L 55 19C 55 18.92 54.972 18.849 54.955 18.774C 56.793 17.513 58 15.398 58 13L 58 7C 58 3.134 54.866 0 51 0C 47.134 0 44 3.134 44 7L 44 13C 44 15.398 45.207 17.513 47.045 18.774C 47.028 18.849 47 18.92 47 19L 47 22L 46 22C 41.582 22 38 25.582 38 30L 38 35C 38 36.104 38.896 37 40 37L 62 37C 63.104 37 64 36.104 64 35L 64 30C 64 25.582 60.418 22 56 22ZM 51 2C 53.762 2 56 4.238 56 7L 56 8.827L 51.577 6.205C 51.456 6.117 51.32 6.06 51.167 6.034C 51.127 6.025 51.089 6.013 51.049 6.01C 51.032 6.009 51.018 6 51 6C 50.963 6 50.932 6.018 50.896 6.021C 50.808 6.028 50.724 6.041 50.642 6.072C 50.612 6.084 50.587 6.099 50.559 6.114C 50.473 6.156 50.393 6.206 50.321 6.274C 50.295 6.298 50.276 6.327 50.252 6.354C 50.21 6.403 50.16 6.441 50.127 6.5C 50.113 6.524 50.113 6.553 50.102 6.578C 50.083 6.617 50.075 6.659 50.062 6.7C 50.035 6.787 50.013 6.87 50.01 6.958C 50.008 6.973 50 6.985 50 7L 50 7.234L 46.457 5.133C 46.432 5.118 46.403 5.117 46.376 5.106C 47.124 3.285 48.909 2 51 2ZM 46 13L 46 7.173L 50.423 9.795C 50.543 9.883 50.68 9.94 50.832 9.966C 50.872 9.975 50.91 9.987 50.95 9.99C 50.968 9.991 50.982 10 51 10C 51.037 10 51.068 9.982 51.104 9.979C 51.192 9.972 51.276 9.959 51.359 9.928C 51.388 9.916 51.413 9.901 51.441 9.886C 51.527 9.844 51.607 9.794 51.679 9.726C 51.705 9.702 51.724 9.673 51.748 9.646C 51.79 9.597 51.84 9.559 51.873 9.5C 51.887 9.476 51.887 9.447 51.898 9.422C 51.917 9.383 51.925 9.341 51.938 9.299C 51.965 9.213 51.987 9.13 51.99 9.042C 51.992 9.027 52 9.015 52 9L 52 8.766L 55.543 10.867C 55.688 10.953 55.844 10.982 56 10.987L 56 13C 56 15.762 53.762 18 51 18C 48.238 18 46 15.762 46 13ZM 49 24L 49 19.706C 49.634 19.896 50.305 20 51 20C 51.695 20 52.366 19.896 53 19.706L 53 24L 55 24C 55 26.209 53.209 28 51 28C 48.791 28 47 26.209 47 24L 49 24ZM 62 35L 40 35L 40 30C 40 27.026 42.166 24.564 45.004 24.089C 45.053 27.361 47.717 30 51 30C 54.283 30 56.947 27.361 56.996 24.089C 59.834 24.564 62 27.026 62 30L 62 35ZM 18 22L 17 22L 17 19C 17 18.92 16.972 18.849 16.955 18.774C 18.793 17.513 20 15.398 20 13L 20 7C 20 3.134 16.866 0 13 0C 9.134 0 6 3.134 6 7L 6 13C 6 15.398 7.207 17.513 9.045 18.774C 9.028 18.849 9 18.92 9 19L 9 22L 8 22C 3.582 22 0 25.582 0 30L 0 35C 0 36.104 0.896 37 2 37L 24 37C 25.104 37 26 36.104 26 35L 26 30C 26 25.582 22.418 22 18 22ZM 13 2C 15.762 2 18 4.238 18 7L 18 8.827L 13.579 6.206C 13.457 6.117 13.319 6.06 13.165 6.033C 13.126 6.025 13.09 6.013 13.051 6.01C 13.033 6.01 13.018 6 13 6C 12.982 6 12.976 6.011 12.964 6.017C 12.63 6.02 12.305 6.182 12.126 6.5C 12.041 6.652 12.013 6.817 12.01 6.981C 12.008 6.988 12 6.991 12 7L 12 7.234L 8.457 5.133C 8.432 5.118 8.403 5.117 8.377 5.106C 9.123 3.285 10.909 2 13 2ZM 8 13L 8 7.173L 12.421 9.794C 12.543 9.882 12.681 9.94 12.835 9.967C 12.874 9.975 12.91 9.986 12.949 9.99C 12.967 9.99 12.982 10 13 10C 13.018 10 13.024 9.989 13.036 9.983C 13.37 9.98 13.694 9.818 13.874 9.5C 13.959 9.348 13.987 9.183 13.99 9.019C 13.992 9.012 14 9.009 14 9L 14 8.766L 17.543 10.867C 17.688 10.953 17.844 10.982 18 10.987L 18 13C 18 15.762 15.762 18 13 18C 10.238 18 8 15.762 8 13ZM 11 24L 11 19.706C 11.634 19.896 12.305 20 13 20C 13.695 20 14.366 19.896 15 19.706L 15 24L 17 24C 17 26.209 15.209 28 13 28C 10.791 28 9 26.209 9 24L 11 24ZM 24 35L 2 35L 2 30C 2 27.026 4.166 24.564 7.004 24.089C 7.053 27.361 9.717 30 13 30C 16.283 30 18.947 27.361 18.996 24.089C 21.834 24.564 24 27.026 24 30L 24 35ZM 59 31L 55 31C 54.447 31 54 31.447 54 32C 54 32.553 54.447 33 55 33L 59 33C 59.553 33 60 32.553 60 32C 60 31.447 59.553 31 59 31Z" transform="translate(0 8)" fill="#0F89D7"/>
<path id="Vector_2" d="M 25 0L 11 0C 4.925 0 0 4.925 0 11L 0 17L 26 17C 32.075 17 30.688 17 36 17L 36 11C 36 4.925 31.075 0 25 0Z" transform="translate(14 34)" fill="white"/>
<path id="Vector_3" d="M 26 33L 25 33L 25 28C 25 27.996 24.998 27.992 24.998 27.988C 27.424 26.163 29 23.27 29 20L 29 15.154C 29.01 15.093 29.001 15.036 29 14.976L 29 10C 29 4.477 24.522 0 19 0C 13.478 0 9 4.477 9 10L 9 20C 9 23.27 10.576 26.163 13.002 27.988C 13.002 27.992 13 27.996 13 28L 13 33L 12 33C 5.373 33 0 38.373 0 45L 0 48L 0 50C 0 51.104 0.896 52 2 52L 36 52C 37.104 52 38 51.104 38 50L 38 48L 38 45C 38 38.373 32.627 33 26 33ZM 19 2C 23.418 2 27 5.582 27 10L 27 13.297L 19.535 9.134C 19.496 9.113 19.453 9.111 19.412 9.095C 19.384 9.081 19.352 9.076 19.323 9.066C 19.236 9.04 19.152 9.017 19.063 9.013C 19.041 9.012 19.022 9 19 9C 18.98 9 18.973 9.013 18.96 9.019C 18.624 9.039 18.302 9.197 18.12 9.5C 18.021 9.665 17.995 9.845 18 10.023L 18 11.381L 11.534 8.134C 11.444 8.084 11.347 8.064 11.251 8.042C 12.126 4.572 15.259 2 19 2ZM 11 20L 11 10.118L 18.465 13.866C 18.504 13.887 18.547 13.889 18.588 13.905C 18.616 13.919 18.647 13.924 18.677 13.934C 18.764 13.96 18.848 13.983 18.937 13.987C 18.958 13.988 18.978 14 19 14C 19.022 14 19.032 13.987 19.047 13.979C 19.381 13.958 19.7 13.8 19.88 13.5C 19.979 13.335 20.005 13.155 20 12.977L 20 11.704L 27 15.608L 27 20C 27 24.418 23.418 28 19 28C 14.582 28 11 24.418 11 20ZM 15 35L 15 29.162C 16.226 29.698 17.577 30 19 30C 20.423 30 21.774 29.698 23 29.162L 23 35L 25 35C 25 38.313 22.313 41 19 41C 15.687 41 13 38.313 13 35L 15 35ZM 36 50C 25.333 50 26.917 50 2 50L 2 45C 2 39.814 5.948 35.551 11.002 35.051C 11.03 39.445 14.599 43 19 43C 23.401 43 26.97 39.445 26.998 35.051C 32.052 35.551 36 39.814 36 45L 36 50ZM 29 46L 23 46C 22.447 46 22 46.447 22 47C 22 47.553 22.447 48 23 48L 29 48C 29.553 48 30 47.553 30 47C 30 46.447 29.553 46 29 46Z" transform="translate(13 0)" fill="#0F89D7"/>
</g>
</g>
</svg>
