<svg width="64" height="46" viewBox="0 0 64 46" version="1.1" xmlns="http://www.w3.org/2000/svg" xmlns:xlink="http://www.w3.org/1999/xlink">
<g id="Canvas" fill="none">
<g id="cards">
<path id="Vector" d="M 50 0L 2 0C 0.896 0 0 0.896 0 2L 0 32C 0 33.105 0.896 34 2 34L 50 34C 51.104 34 52 33.105 52 32L 52 2C 52 0.896 51.104 0 50 0ZM 50 32L 2 32L 2 10L 50 10L 50 32ZM 50 6L 2 6L 2 2L 50 2L 50 6Z" transform="translate(12 0)" fill="#81BB5B"/>
<path id="Vector_2" d="M 50 0L 0 0L 0 32L 50 32L 50 0Z" transform="translate(1 13)" fill="white"/>
<path id="Vector_3" d="M 29 24L 37 24C 37.553 24 38 23.552 38 23C 38 22.447 37.553 22 37 22L 29 22C 28.447 22 28 22.447 28 23C 28 23.552 28.447 24 29 24ZM 29 20L 45 20C 45.553 20 46 19.552 46 19C 46 18.447 45.553 18 45 18L 29 18C 28.447 18 28 18.447 28 19C 28 19.552 28.447 20 29 20ZM 50 0L 2 0C 0.895 0 0 0.896 0 2L 0 32C 0 33.105 0.896 34 2 34L 50 34C 51.104 34 52 33.105 52 32L 52 2C 52 0.896 51.104 0 50 0ZM 50 32L 2 32L 2 10L 50 10L 50 32ZM 50 6L 2 6L 2 2L 50 2L 50 6ZM 11 26C 12.131 26 13.162 25.61 14 24.978C 14.838 25.61 15.869 26 17 26C 19.762 26 22 23.762 22 21C 22 18.238 19.762 16 17 16C 15.869 16 14.838 16.39 14 17.023C 13.162 16.39 12.131 16 11 16C 8.238 16 6 18.238 6 21C 6 23.762 8.238 26 11 26ZM 15.316 18.518C 15.796 18.191 16.376 18 17 18C 18.657 18 20 19.343 20 21C 20 22.657 18.657 24 17 24C 16.376 24 15.796 23.809 15.316 23.482C 15.739 22.748 16 21.908 16 21C 16 20.092 15.739 19.252 15.316 18.518ZM 11 18C 12.657 18 14 19.343 14 21C 14 22.657 12.657 24 11 24C 9.343 24 8 22.657 8 21C 8 19.343 9.343 18 11 18Z" transform="translate(0 12)" fill="#81BB5B"/>
</g>
</g>
</svg>
