<?xml version="1.0" encoding="UTF-8" standalone="no"?><!DOCTYPE svg PUBLIC "-//W3C//DTD SVG 1.1//EN" "http://www.w3.org/Graphics/SVG/1.1/DTD/svg11.dtd"><svg width="100%" height="100%" viewBox="0 0 53 54" version="1.1" xmlns="http://www.w3.org/2000/svg" xmlns:xlink="http://www.w3.org/1999/xlink" xml:space="preserve" style="fill-rule:evenodd;clip-rule:evenodd;"><g id="Group-10"><g id="Combined-Shape"><rect id="path-1" x="44" y="4" width="9" height="46" style="fill:#fff;fill-opacity:0;"/><rect x="44.609" y="4.609" width="7.781" height="44.781" style="fill:none;stroke:#0282d5;stroke-width:1.22px;"/></g><g id="Combined-Shape1"><rect id="path-2" x="0" y="4" width="9" height="46" style="fill:#fff;fill-opacity:0;"/><rect x="0.609" y="4.609" width="7.781" height="44.781" style="fill:none;stroke:#0282d5;stroke-width:1.22px;"/></g><g id="Rectangle-4-Copy-2"><path id="path-3" d="M8,0l37,0l0,54l-37,0l0,-54Z" style="fill:#fff;fill-opacity:0;"/><rect x="8.609" y="0.609" width="35.781" height="52.781" style="fill:none;stroke:#0282d5;stroke-width:1.22px;"/></g><path id="Shape" d="M27,20c-2.213,0 -4.03,1.852 -4.03,4.108c0,2.256 1.817,4.108 4.03,4.108c2.213,0 4.03,-1.852 4.03,-4.108c0,-2.256 -1.817,-4.108 -4.03,-4.108Zm0,1.362c1.502,0 2.687,1.211 2.687,2.746c0,1.535 -1.185,2.746 -2.687,2.746c-1.502,0 -2.687,-1.211 -2.687,-2.746c0,-1.535 1.185,-2.746 2.687,-2.746Zm0,7.287c-3.842,0 -7,3.096 -7,6.946l0,0.405l1.343,0l0,-0.405c0,-2.653 2.703,-5.762 5.657,-5.755c2.954,0.007 5.657,3.102 5.657,5.755l0,0.405l1.343,0l0,-0.405c0,-3.85 -3.158,-6.946 -7,-6.946Z" style="fill:#0f89d7;"/></g></svg>