<svg width="56" height="64" viewBox="0 0 56 64" version="1.1" xmlns="http://www.w3.org/2000/svg" xmlns:xlink="http://www.w3.org/1999/xlink">
<g id="Canvas" fill="none">
<path id="Vector" d="M 50 35.838L 50 28.817C 51.163 28.404 52 27.305 52 26.001L 52 24.001C 52 10.745 41.255 0 28 0C 14.745 0 4 10.745 4 24L 4 26C 4 27.305 4.837 28.403 6 28.816L 6 35.837C 2.47 37.382 0 40.9 0 45C 0 48.699 2.014 51.921 5 53.651L 5 58C 5 60.209 6.791 62 9 62L 16 62L 23.184 62C 23.597 63.162 24.696 64 26 64L 30 64C 31.657 64 33 62.657 33 61C 33 59.343 31.657 58 30 58L 26 58C 24.695 58 23.597 58.838 23.184 60L 16 60L 9 60C 7.895 60 7 59.104 7 58L 7 54.541C 7.947 54.838 8.955 55 10 55L 12 55C 12 56.657 13.343 58 15 58C 16.657 58 18 56.657 18 55L 18 35C 18 33.343 16.657 32 15 32C 13.343 32 12 33.343 12 35L 10 35C 9.315 35 8.646 35.069 8 35.201L 8 28.816C 9.163 28.403 10 27.304 10 26L 10 24C 10 14.059 18.059 6 28 6C 37.941 6 46 14.059 46 24L 46 26C 46 27.305 46.837 28.403 48 28.816L 48 35.201C 47.353 35.069 46.685 35 46 35L 44 35C 44 33.343 42.656 32 41 32C 39.343 32 38 33.343 38 35L 38 55C 38 56.657 39.343 58 41 58C 42.656 58 44 56.657 44 55L 46 55C 51.522 55 56 50.522 56 45C 56 40.9 53.53 37.382 50 35.838ZM 26 60L 30 60C 30.552 60 31 60.447 31 61C 31 61.553 30.552 62 30 62L 26 62C 25.447 62 25 61.553 25 61C 25 60.447 25.447 60 26 60ZM 14 35C 14 34.447 14.447 34 15 34C 15.552 34 16 34.447 16 35L 16 55C 16 55.553 15.552 56 15 56C 14.447 56 14 55.553 14 55L 14 35ZM 12 37C 12 42.286 12 41.582 12 46C 12 46.187 12 46.339 12 46.478C 12 46.47 12 46.666 12 47.25C 12 48.106 12 49.806 12 53L 10 53C 5.582 53 2 49.418 2 45C 2 40.582 5.582 37 10 37L 12 37ZM 28 4C 16.954 4 8 12.954 8 24L 8 26C 8 26.553 7.552 27 7 27C 6.447 27 6 26.553 6 26L 6 24C 6 11.85 15.85 2 28 2C 40.15 2 50 11.85 50 24L 50 26C 50 26.553 49.552 27 49 27C 48.447 27 48 26.553 48 26L 48 24C 48 12.954 39.046 4 28 4ZM 42 55C 42 55.553 41.552 56 41 56C 40.447 56 40 55.553 40 55L 40 35C 40 34.447 40.447 34 41 34C 41.552 34 42 34.447 42 35L 42 55ZM 46 53L 44 53C 44 49.806 44 48.106 44 47.25C 44 46.665 44 46.47 44 46.478C 44 46.339 44 46.187 44 46C 44 41.582 44 42.286 44 37L 46 37C 50.418 37 54 40.582 54 45C 54 49.418 50.418 53 46 53Z" fill="#E89B00"/>
</g>
</svg>
