<svg width="42" height="57" viewBox="0 0 42 57" version="1.1" xmlns="http://www.w3.org/2000/svg" xmlns:xlink="http://www.w3.org/1999/xlink">
<title>Group 2</title>
<desc>Created using Figma</desc>
<g id="Canvas" transform="translate(-10770 -14380)">
<g id="Group 2">
<g id="Shape">
<use xlink:href="#path0_fill" transform="translate(10770 14380)" fill="#0282D5"/>
</g>
<g id="Path">
<use xlink:href="#path1_fill" transform="translate(10776.8 14403.1)" fill="#C5E2F6"/>
</g>
<g id="Path">
<use xlink:href="#path2_fill" transform="translate(10776.8 14413.9)" fill="#C5E2F6"/>
</g>
<g id="Path">
<use xlink:href="#path2_fill" transform="translate(10776.8 14424.8)" fill="#C5E2F6"/>
</g>
</g>
</g>
<defs>
<path id="path0_fill" fill-rule="evenodd" d="M 0.677734 0.000154552C 0.228516 0.00210768 0 0.394686 0 0.679842L 0 56.3224C 0 56.6759 0.322266 57.0002 0.677734 57.0002L 41.3223 57.0002C 41.6768 57.0002 41.999 56.6759 42 56.3224L 42 12.8927C 42.0059 12.713 41.9336 12.5334 41.8086 12.4064L 29.6152 0.191561C 29.4873 0.0665608 29.3076 -0.0037517 29.1289 0.000154552L 0.677734 0.000154552ZM 1.35449 1.35758L 28.4512 1.35758L 28.4512 12.8927C 28.4512 13.2482 28.7734 13.5724 29.1279 13.5724L 40.6445 13.5724L 40.6445 55.6427L 1.35449 55.6427L 1.35449 1.35758ZM 39.6914 12.215L 29.8057 2.31265L 29.8057 12.215L 39.6914 12.215Z"/>
<path id="path1_fill" d="M 0.677412 0C 0.303278 0 0 0.303796 0 0.67857C 0 1.05334 0.303278 1.35714 0.677412 1.35714L 22.3546 1.35714C 22.7287 1.35714 23.032 1.05334 23.032 0.67857C 23.032 0.303796 22.7287 0 22.3546 0L 0.677412 0Z"/>
<path id="path2_fill" d="M 0.677412 0C 0.303278 0 0 0.303796 0 0.67857C 0 1.05334 0.303278 1.35714 0.677412 1.35714L 27.7739 1.35714C 28.148 1.35714 28.4513 1.05334 28.4513 0.67857C 28.4513 0.303796 28.148 0 27.7739 0L 0.677412 0Z"/>
</defs>
</svg>
