<svg width="50" height="64" viewBox="0 0 50 64" version="1.1" xmlns="http://www.w3.org/2000/svg" xmlns:xlink="http://www.w3.org/1999/xlink">
<g id="Canvas" fill="none">
<g id="stopwatch copy">
<g id="Ellipse 354 2">
<g id="Group">
<path id="Vector" d="M 20 40C 31.0457 40 40 31.0457 40 20C 40 8.9543 31.0457 0 20 0C 8.9543 0 0 8.9543 0 20C 0 31.0457 8.9543 40 20 40Z" transform="translate(5 19)" fill="white"/>
</g>
</g>
<g id="Ellipse 102 2">
<g id="Group_2">
<path id="Vector_2" d="M 43.866 22.603L 45.5 20.97L 46.234 21.704C 46.64 22.109 47.298 22.109 47.704 21.704C 48.109 21.298 48.109 20.641 47.704 20.234L 44.766 17.296C 44.36 16.891 43.703 16.891 43.296 17.296C 42.891 17.702 42.891 18.359 43.296 18.766L 44.03 19.5L 42.435 21.095C 38.153 16.927 32.387 14.277 26 14.025L 26 13.92C 29.391 13.434 32 10.526 32 7C 32 3.134 28.866 0 25 0C 21.134 0 18 3.134 18 7C 18 10.526 20.609 13.434 24 13.92L 24 14.025C 17.618 14.276 11.855 16.922 7.575 21.084L 5.975 19.484L 6.706 18.754C 7.109 18.352 7.109 17.697 6.706 17.294C 6.303 16.891 5.648 16.891 5.245 17.294L 2.325 20.215C 1.922 20.618 1.922 21.272 2.325 21.675C 2.728 22.078 3.382 22.078 3.785 21.675L 4.515 20.944L 6.152 22.58C 2.321 26.972 0 32.714 0 39C 0 52.807 11.192 64 25 64C 38.807 64 50 52.807 50 39C 50 32.725 47.685 26.992 43.866 22.603ZM 20 7C 20 4.238 22.238 2 25 2C 27.762 2 30 4.238 30 7C 30 9.419 28.282 11.436 26 11.899L 26 8L 27 8C 27.553 8 28 7.552 28 7C 28 6.447 27.553 6 27 6L 23 6C 22.447 6 22 6.447 22 7C 22 7.552 22.447 8 23 8L 24 8L 24 11.899C 21.718 11.436 20 9.419 20 7ZM 25 62C 12.297 62 2 51.702 2 39C 2 26.297 12.297 16 25 16C 37.702 16 48 26.297 48 39C 48 51.702 37.702 62 25 62ZM 45.892 36.853C 45.39 31.911 43.175 27.476 39.85 24.15C 36.049 20.351 30.799 18 25 18C 13.402 18 4 27.402 4 39C 4 50.598 13.402 60 25 60C 30.799 60 36.049 57.649 39.85 53.849C 42.7 50.998 44.735 47.332 45.574 43.231C 45.853 41.865 46 40.45 46 39C 46 38.275 45.963 37.559 45.892 36.853ZM 25 58C 14.507 58 6 49.493 6 39C 6 28.507 14.507 20 25 20C 30.246 20 34.996 22.127 38.435 25.565L 25 39L 38.435 52.435C 34.996 55.873 30.246 58 25 58ZM 43.908 40.809C 43.888 41.022 43.853 41.229 43.826 41.44C 43.777 41.815 43.725 42.189 43.655 42.557C 43.606 42.814 43.547 43.067 43.487 43.321C 43.416 43.628 43.339 43.932 43.253 44.232C 43.173 44.512 43.087 44.79 42.994 45.064C 42.909 45.318 42.814 45.568 42.719 45.817C 42.603 46.116 42.488 46.416 42.357 46.708C 42.273 46.898 42.178 47.081 42.087 47.268C 41.467 48.543 40.72 49.746 39.843 50.844L 28 39L 39.843 27.157C 40.719 28.253 41.465 29.455 42.085 30.728C 42.176 30.916 42.271 31.102 42.357 31.293C 42.487 31.584 42.602 31.881 42.717 32.18C 42.814 32.431 42.908 32.682 42.994 32.938C 43.087 33.211 43.172 33.487 43.252 33.765C 43.338 34.067 43.416 34.373 43.487 34.681C 43.546 34.933 43.605 35.185 43.654 35.441C 43.724 35.81 43.777 36.185 43.825 36.562C 43.852 36.771 43.887 36.978 43.907 37.19C 43.965 37.787 44 38.389 44 39C 44 39.61 43.965 40.213 43.908 40.809Z" fill="#3CAAC1"/>
</g>
</g>
<g id="Ellipse 104 2">
<g id="Group_3">
<path id="Vector_3" d="M 3 6C 4.65685 6 6 4.65685 6 3C 6 1.34315 4.65685 0 3 0C 1.34315 0 0 1.34315 0 3C 0 4.65685 1.34315 6 3 6Z" transform="translate(22 36)" fill="white"/>
</g>
</g>
<g id="Rounded Rectangle 262 2">
<g id="Group_4">
<path id="Vector_4" d="M 3 16L 1 16C 0.447 16 0 16.447 0 17C 0 17.553 0.447 18 1 18L 3 18C 3.552 18 4 17.553 4 17C 4 16.447 3.552 16 3 16ZM 6.502 5.257C 6.158 4.913 5.601 4.913 5.257 5.257C 4.913 5.601 4.913 6.158 5.257 6.502L 6.502 7.748C 6.847 8.092 7.404 8.092 7.748 7.748C 8.092 7.404 8.092 6.847 7.748 6.502L 6.502 5.257ZM 17 30C 16.447 30 16 30.447 16 31L 16 33C 16 33.553 16.447 34 17 34C 17.553 34 18 33.553 18 33L 18 31C 18 30.447 17.553 30 17 30ZM 18 13.142L 18 1C 18 0.447 17.553 0 17 0C 16.447 0 16 0.447 16 1L 16 13.142C 14.278 13.588 13 15.139 13 17C 13 19.209 14.791 21 17 21C 19.209 21 21 19.209 21 17C 21 15.139 19.722 13.588 18 13.142ZM 17 19C 15.895 19 15 18.105 15 17C 15 15.896 15.895 15 17 15C 18.104 15 19 15.896 19 17C 19 18.105 18.104 19 17 19ZM 6.502 26.252L 5.257 27.497C 4.913 27.842 4.913 28.399 5.257 28.743C 5.601 29.087 6.158 29.087 6.502 28.743L 7.748 27.497C 8.092 27.153 8.092 26.596 7.748 26.252C 7.404 25.908 6.847 25.908 6.502 26.252Z" transform="translate(8 22)" fill="#3CAAC1"/>
</g>
</g>
</g>
</g>
</svg>
