<svg width="60" height="51" viewBox="0 0 60 51" version="1.1" xmlns="http://www.w3.org/2000/svg" xmlns:xlink="http://www.w3.org/1999/xlink">
<title>Group 2</title>
<desc>Created using Figma</desc>
<g id="Canvas" transform="translate(-10120 -15068)">
<g id="Group 2">
<g id="Shape">
<use xlink:href="#path0_fill" transform="translate(10120 15068)" fill="#0F89D7"/>
</g>
</g>
</g>
<defs>
<path id="path0_fill" fill-rule="evenodd" d="M 24.8574 0C 22.498 0 20.5713 1.91016 20.5713 4.24805L 20.5713 16.9941L 4.28613 16.9941C 1.92578 16.9941 0 18.9023 0 21.2422L 0 38.2344C 0 40.5742 1.92578 42.4824 4.28613 42.4824L 7.71387 42.4824L 7.71387 50.1309C 7.70605 50.4805 7.91504 50.7988 8.24023 50.9336C 8.56641 51.0684 8.94238 50.9922 9.1875 50.7402L 17.5176 42.4824L 35.1426 42.4824C 37.502 42.4824 39.4287 40.5742 39.4287 38.2344L 39.4287 25.4902L 42.4824 25.4902L 50.8125 33.748C 51.0576 34 51.4336 34.0762 51.7598 33.9414C 52.085 33.8066 52.2939 33.4863 52.2861 33.1367L 52.2861 25.4902L 55.7139 25.4902C 58.0742 25.4902 60 23.5801 60 21.2422L 60 4.24805C 60 1.91016 58.0742 0 55.7139 0L 24.8574 0ZM 24.8574 1.69922L 55.7148 1.69922C 57.1543 1.69922 58.2861 2.82227 58.2861 4.24805L 58.2861 21.2422C 58.2861 22.668 57.1543 23.791 55.7148 23.791L 51.4287 23.791C 50.9561 23.791 50.5723 24.1719 50.5723 24.6406L 50.5723 31.0664L 43.4736 24.0293C 43.3086 23.8711 43.0869 23.7852 42.8574 23.791L 24.8574 23.791C 23.418 23.791 22.2861 22.668 22.2861 21.2422L 22.2861 4.24805C 22.2861 2.82227 23.418 1.69922 24.8574 1.69922ZM 20.5713 18.6934L 4.28516 18.6934C 2.8457 18.6934 1.71387 19.8164 1.71387 21.2422L 1.71387 38.2363C 1.71387 39.6621 2.8457 40.7852 4.28516 40.7852L 8.57129 40.7852C 9.04395 40.7852 9.42773 41.166 9.42773 41.6348L 9.42773 48.0605L 16.5264 41.0234C 16.6914 40.8652 16.9131 40.7793 17.1426 40.7852L 35.1426 40.7852C 36.582 40.7852 37.7139 39.6621 37.7139 38.2363L 37.7139 25.4902L 24.8564 25.4902C 22.4971 25.4902 20.5713 23.582 20.5713 21.2422L 20.5713 18.6934Z"/>
</defs>
</svg>
