<svg width="24" height="18" viewBox="0 0 24 18" version="1.1" xmlns="http://www.w3.org/2000/svg" xmlns:xlink="http://www.w3.org/1999/xlink">
<title>Combined Shape</title>
<desc>Created using Figma</desc>
<g id="Canvas" transform="translate(-3388 -6848)">
<g id="Combined Shape">
<use xlink:href="#path0_stroke" transform="translate(3389.41 6849.6)" fill="#248FED"/>
</g>
</g>
<defs>
<path id="path0_stroke" d="M 21.1736 0L 21.9898 0.577706C 22.2971 0.143495 22.2107 -0.455311 21.7932 -0.784915C 21.3756 -1.11452 20.7731 -1.05954 20.4221 -0.659805L 21.1736 0ZM 19.2141 2.76855L 19.9105 3.48622C 19.9547 3.44335 19.9948 3.3965 20.0304 3.34626L 19.2141 2.76855ZM 14.3225 7.51514L 13.6261 6.79747C 13.6008 6.82208 13.5767 6.84802 13.5541 6.87517L 14.3225 7.51514ZM 11.0867 11.4004L 11.7938 12.1075C 11.8152 12.0861 11.8357 12.0637 11.8551 12.0404L 11.0867 11.4004ZM 7.58667 14.9004L 6.83107 15.5554C 6.95368 15.6969 7.11352 15.801 7.29242 15.8561L 7.58667 14.9004ZM 6.85107 13.5151L 7.73427 13.0461C 7.67565 12.9357 7.59684 12.8373 7.50193 12.7559L 6.85107 13.5151ZM 4.33716 11.1519L 3.49092 11.6847C 3.51797 11.7276 3.54826 11.7685 3.58151 11.8068L 4.33716 11.1519ZM 3.33618 9.56201L 4.18242 9.02921C 4.1441 8.96835 4.09933 8.91179 4.04887 8.86053L 3.33618 9.56201ZM 1.38062 7.5752L 0.628588 8.23433C 0.64129 8.24882 0.654408 8.26294 0.667926 8.27668L 1.38062 7.5752ZM 0 6L 0.752028 5.34087C 0.401396 4.94082 -0.201061 4.8853 -0.6189 5.21453C -1.03674 5.54376 -1.12369 6.14249 -0.816762 6.57697L 0 6ZM 2.94019 10.1621L 2.12342 10.7391C 2.17099 10.8064 2.2267 10.8676 2.28928 10.9213L 2.94019 10.1621ZM 8.08667 14.9004L 8.82458 15.5753L 8.82709 15.5725L 8.08667 14.9004ZM 20.3573 -0.577706L 18.3979 2.19085L 20.0304 3.34626L 21.9898 0.577706L 20.3573 -0.577706ZM 16.7783 6.52115C 18.151 4.95791 19.4376 3.49258 20.3812 2.41805C 20.8529 1.88079 21.2389 1.44123 21.5069 1.13598C 21.6409 0.983359 21.7454 0.864315 21.8165 0.783426C 21.852 0.742982 21.8791 0.712077 21.8974 0.691283C 21.9065 0.680886 21.9134 0.673016 21.918 0.667746C 21.9204 0.665111 21.9221 0.663126 21.9233 0.661799C 21.9239 0.661136 21.9243 0.660637 21.9246 0.660305C 21.9247 0.660138 21.9248 0.660013 21.9249 0.65993C 21.9249 0.659888 21.925 0.659857 21.925 0.659836C 21.925 0.659815 21.925 0.659805 21.1736 0C 20.4221 -0.659805 20.4221 -0.659794 20.4221 -0.659774C 20.4221 -0.659753 20.4221 -0.659721 20.422 -0.65968C 20.422 -0.659597 20.4219 -0.659472 20.4217 -0.659305C 20.4214 -0.658973 20.421 -0.658474 20.4204 -0.657811C 20.4192 -0.656485 20.4175 -0.654499 20.4152 -0.651864C 20.4105 -0.646595 20.4036 -0.638725 20.3945 -0.628329C 20.3763 -0.607535 20.3491 -0.57663 20.3136 -0.536186C 20.2426 -0.455299 20.1381 -0.336256 20.004 -0.183635C 19.736 0.121609 19.3501 0.561167 18.8783 1.09843C 17.9348 2.17295 16.6481 3.63828 15.2754 5.2015L 16.7783 6.52115ZM 15.3305 5.14366L 13.6261 6.79747L 15.0189 8.2328L 16.7232 6.57899L 15.3305 5.14366ZM 13.5541 6.87517L 10.3183 10.7604L 11.8551 12.0404L 15.0909 8.1551L 13.5541 6.87517ZM 10.3796 10.6933L 6.87956 14.1933L 8.29378 15.6075L 11.7938 12.1075L 10.3796 10.6933ZM 5.96787 13.9841L 6.70347 15.3694L 8.46987 14.4314L 7.73427 13.0461L 5.96787 13.9841ZM 4.38845 12.7211L 6.20022 14.2743L 7.50193 12.7559L 5.69017 11.2027L 4.38845 12.7211ZM 5.79495 11.3069L 5.0928 10.4969L 3.58151 11.8068L 4.28366 12.6169L 5.79495 11.3069ZM 5.1834 10.6191L 4.18242 9.02921L 2.48994 10.0948L 3.49092 11.6847L 5.1834 10.6191ZM 4.04887 8.86053L 2.0933 6.87372L 0.667926 8.27668L 2.62349 10.2635L 4.04887 8.86053ZM 2.13264 6.91606L 0.752028 5.34087L -0.752028 6.65913L 0.628588 8.23433L 2.13264 6.91606ZM -0.816762 6.57697L 2.12342 10.7391L 3.75695 9.58513L 0.816762 5.42303L -0.816762 6.57697ZM 2.28928 10.9213L 4.3884 12.7211L 5.69021 11.2028L 3.59109 9.40295L 2.28928 10.9213ZM 8.34227 14.2454L 5.79491 11.3069L 4.2837 12.6169L 6.83107 15.5554L 8.34227 14.2454ZM 7.58667 14.9004C 7.29242 15.8561 7.29259 15.8562 7.29276 15.8562C 7.29282 15.8562 7.29299 15.8563 7.29311 15.8563C 7.29335 15.8564 7.29359 15.8565 7.29384 15.8566C 7.29434 15.8567 7.29487 15.8569 7.29543 15.857C 7.29654 15.8574 7.29776 15.8577 7.29908 15.8581C 7.30173 15.8589 7.3048 15.8599 7.30826 15.8609C 7.31518 15.8629 7.32376 15.8654 7.33379 15.8682C 7.35374 15.8738 7.38011 15.8809 7.41132 15.8885C 7.47143 15.9033 7.56018 15.9227 7.66174 15.9365C 7.75522 15.9491 7.90403 15.9632 8.06979 15.9453C 8.20522 15.9306 8.55021 15.8753 8.82457 15.5753L 7.34877 14.2255C 7.46366 14.0999 7.58818 14.0351 7.6722 14.0025C 7.75501 13.9704 7.82138 13.9605 7.8546 13.9569C 7.91631 13.9502 7.94699 13.9568 7.9292 13.9544C 7.9195 13.9531 7.90384 13.9501 7.88737 13.946C 7.88029 13.9443 7.87532 13.9429 7.87351 13.9424C 7.87266 13.9422 7.87274 13.9422 7.87389 13.9425C 7.87448 13.9427 7.87534 13.943 7.8765 13.9433C 7.87708 13.9435 7.87774 13.9437 7.87848 13.9439C 7.87884 13.944 7.87923 13.9441 7.87964 13.9443C 7.87984 13.9443 7.88005 13.9444 7.88027 13.9445C 7.88037 13.9445 7.88054 13.9445 7.88059 13.9446C 7.88076 13.9446 7.88092 13.9447 7.58667 14.9004ZM 8.82709 15.5725C 8.89698 15.4956 13.1483 10.6548 16.7783 6.52117L 15.2755 5.20148C 13.457 7.27228 11.4876 9.51479 9.96502 11.2482C 9.20372 12.1149 8.55418 12.8543 8.09107 13.3813C 7.85951 13.6448 7.67464 13.8551 7.54575 14.0017C 7.48128 14.0749 7.43096 14.1321 7.39585 14.172C 7.35629 14.2169 7.34362 14.2311 7.34625 14.2282L 8.82709 15.5725ZM 18.5177 2.05089L 15.3305 5.14366L 16.7232 6.57899L 19.9105 3.48622L 18.5177 2.05089Z"/>
</defs>
</svg>
