<svg width="18" height="21" viewBox="0 0 18 21" fill="none" xmlns="http://www.w3.org/2000/svg">
<path d="M3.382 4.968C4.97575 3.69107 6.95781 2.99674 9 3C11.125 3 13.078 3.736 14.618 4.968L16.071 3.515L17.485 4.929L16.032 6.382C17.0897 7.70615 17.7521 9.30203 17.9428 10.986C18.1336 12.6699 17.845 14.3735 17.1103 15.9007C16.3756 17.4279 15.2246 18.7167 13.7898 19.6186C12.355 20.5205 10.6947 20.999 9 20.999C7.30528 20.999 5.64498 20.5205 4.2102 19.6186C2.77541 18.7167 1.62443 17.4279 0.889727 15.9007C0.155021 14.3735 -0.133558 12.6699 0.0572003 10.986C0.247958 9.30203 0.910301 7.70615 1.96801 6.382L0.515005 4.93L1.92901 3.516L3.382 4.969V4.968ZM9 19C9.91926 19 10.8295 18.8189 11.6788 18.4672C12.5281 18.1154 13.2997 17.5998 13.9498 16.9497C14.5998 16.2997 15.1154 15.5281 15.4672 14.6788C15.8189 13.8295 16 12.9193 16 12C16 11.0807 15.8189 10.1705 15.4672 9.32122C15.1154 8.47194 14.5998 7.70026 13.9498 7.05025C13.2997 6.40024 12.5281 5.88463 11.6788 5.53284C10.8295 5.18106 9.91926 5 9 5C7.14349 5 5.36301 5.7375 4.05026 7.05025C2.7375 8.36301 2.00001 10.1435 2.00001 12C2.00001 13.8565 2.7375 15.637 4.05026 16.9497C5.36301 18.2625 7.14349 19 9 19ZM10 11H13L8 17.5V13H5.00001L10 6.495V11ZM5.00001 0H13V2H5.00001V0Z" fill="#81BB5B"/>
</svg>
