<svg width="18" height="20" viewBox="0 0 18 20" fill="none" xmlns="http://www.w3.org/2000/svg">
<path d="M12 2H2V18H16V6H12V2ZM0 0.992C0 0.444 0.447 0 0.999 0H13L18 5V18.993C18.0009 19.1243 17.976 19.2545 17.9266 19.3762C17.8772 19.4979 17.8043 19.6087 17.7121 19.7022C17.6199 19.7957 17.5101 19.8701 17.3892 19.9212C17.2682 19.9723 17.1383 19.9991 17.007 20H0.993C0.730378 19.9982 0.479017 19.8931 0.293218 19.7075C0.107418 19.5219 0.00209465 19.2706 0 19.008V0.992ZM9 9.5C8.33696 9.5 7.70107 9.23661 7.23223 8.76777C6.76339 8.29893 6.5 7.66304 6.5 7C6.5 6.33696 6.76339 5.70107 7.23223 5.23223C7.70107 4.76339 8.33696 4.5 9 4.5C9.66304 4.5 10.2989 4.76339 10.7678 5.23223C11.2366 5.70107 11.5 6.33696 11.5 7C11.5 7.66304 11.2366 8.29893 10.7678 8.76777C10.2989 9.23661 9.66304 9.5 9 9.5ZM4.527 15C4.64822 13.8984 5.17168 12.8803 5.99708 12.1407C6.82248 11.4012 7.89175 10.9922 9 10.9922C10.1082 10.9922 11.1775 11.4012 12.0029 12.1407C12.8283 12.8803 13.3518 13.8984 13.473 15H4.527Z" fill="#E57361"/>
</svg>
