<svg width="22" height="20" viewBox="0 0 22 20" fill="none" xmlns="http://www.w3.org/2000/svg">
<path d="M2.16098 2.46916C3.32105 1.30889 4.87698 0.630251 6.51658 0.569415C8.15618 0.508579 9.75813 1.07005 11.001 2.14116C12.2427 1.07183 13.8426 0.510995 15.4802 0.570926C17.1178 0.630857 18.6724 1.30714 19.8327 2.46437C20.9929 3.62161 21.6733 5.17439 21.7375 6.81185C21.8017 8.44932 21.2451 10.0506 20.179 11.2952L12.414 19.0852C12.0572 19.442 11.5788 19.6509 11.0745 19.6698C10.5702 19.6887 10.0775 19.5163 9.69498 19.1872L9.58498 19.0862L1.82098 11.2952C0.755471 10.0517 0.198561 8.45187 0.261597 6.81554C0.324632 5.17922 1.00297 3.62698 2.16098 2.46916ZM3.57498 3.88316C2.75722 4.70115 2.28583 5.80261 2.25865 6.95893C2.23146 8.11526 2.65057 9.23765 3.42898 10.0932L3.57498 10.2472L11 17.6722L16.303 12.3682L12.768 8.83316L11.708 9.89316C11.4294 10.1718 11.0988 10.3929 10.7348 10.5438C10.3708 10.6946 9.98069 10.7723 9.58669 10.7724C8.79097 10.7726 8.02777 10.4567 7.46498 9.89416C6.90219 9.33164 6.58591 8.56859 6.58573 7.77287C6.58554 6.97715 6.90146 6.21395 7.46398 5.65116L9.56598 3.54816C8.72945 2.88054 7.68239 2.53285 6.61267 2.56749C5.54294 2.60213 4.52057 3.01682 3.72898 3.73716L3.57498 3.88316ZM12.061 6.71116C12.2485 6.52369 12.5028 6.41838 12.768 6.41838C13.0331 6.41838 13.2875 6.52369 13.475 6.71116L17.717 10.9532L18.425 10.2472C19.2564 9.4163 19.7298 8.29308 19.7438 7.11773C19.7578 5.94237 19.3114 4.80818 18.5 3.95772C17.6886 3.10726 16.5766 2.60803 15.4019 2.56682C14.2272 2.5256 13.083 2.94566 12.214 3.73716L12.061 3.88316L8.87898 7.06516C8.70565 7.23838 8.60196 7.46921 8.58758 7.71383C8.5732 7.95845 8.64914 8.19984 8.80098 8.39216L8.87898 8.47916C9.0522 8.65249 9.28302 8.75619 9.52765 8.77057C9.77227 8.78495 10.0137 8.70901 10.206 8.55716L10.293 8.47916L12.061 6.71116Z" fill="#0282D5"/>
</svg>
