<svg width="24" height="24" viewBox="0 0 24 24" fill="none" xmlns="http://www.w3.org/2000/svg">
<path d="M6 22L6 19L7.363 17.862C8.49406 18.4554 9.72894 18.8251 11 18.951L11 22L6 22ZM13 22.001L13 18.951C14.2707 18.8253 15.5052 18.4559 16.636 17.863L18 19L18 22L13 22.001Z" fill="#E57361"/>
<path fill-rule="evenodd" clip-rule="evenodd" d="M12 1C14.1217 1 16.1566 1.84285 17.6569 3.34315C19.1571 4.84344 20 6.87827 20 9C20 11.1217 19.1571 13.1566 17.6569 14.6569C16.1566 16.1571 14.1217 17 12 17C9.87827 17 7.84344 16.1571 6.34315 14.6569C4.84285 13.1566 4 11.1217 4 9C4 6.87827 4.84285 4.84344 6.34315 3.34315C7.84344 1.84285 9.87827 1 12 1ZM7.75736 4.75736C8.88258 3.63214 10.4087 3 12 3C13.5913 3 15.1174 3.63214 16.2426 4.75736C17.3679 5.88258 18 7.4087 18 9C18 10.5913 17.3679 12.1174 16.2426 13.2426C15.1174 14.3679 13.5913 15 12 15C10.4087 15 8.88258 14.3679 7.75736 13.2426C6.63214 12.1174 6 10.5913 6 9C6 7.4087 6.63214 5.88258 7.75736 4.75736ZM12 4.5L13.323 7.18L16.28 7.61L14.14 9.695L14.645 12.641L12 11.25L9.355 12.64L9.86 9.695L7.72 7.609L10.677 7.179L12 4.5Z" fill="#E57361"/>
</svg>
