<svg width="50" height="52" viewBox="0 0 50 52" version="1.1" xmlns="http://www.w3.org/2000/svg" xmlns:xlink="http://www.w3.org/1999/xlink">
<title>icon</title>
<desc>Created using Figma</desc>
<g id="Canvas" transform="translate(-3950 -7296)">
<g id="icon">
<g id="Icon">
<g id="shape">
<use xlink:href="#path0_fill" transform="translate(3950 7296)" fill="#FFFFFF" fill-opacity="0.01"/>
</g>
<g id="Group">
<g id="Combined Shape">
<use xlink:href="#path1_fill" transform="translate(3956.19 7342.29)" fill="#0282D5"/>
</g>
<g id="Shape">
<use xlink:href="#path2_fill" transform="translate(3950 7296)" fill="#0282D5"/>
</g>
<g id="Shape">
<use xlink:href="#path3_fill" transform="translate(3986.61 7327.79)" fill="#0282D5"/>
</g>
</g>
</g>
</g>
</g>
<defs>
<path id="path0_fill" fill-rule="evenodd" d="M 0 0L 50 0L 50 51L 0 51L 0 0Z"/>
<path id="path1_fill" fill-rule="evenodd" d="M 1.16089 0L 0 0L 0 1.16895L 1.16089 1.16895L 1.16089 0ZM 10.4502 0L 9.28931 0L 9.28931 1.16895L 10.4502 1.16895L 10.4502 0ZM 6.19312 0L 7.354 0L 7.354 1.16895L 6.19312 1.16895L 6.19312 0ZM 4.25781 0L 3.09692 0L 3.09692 1.16895L 4.25781 1.16895L 4.25781 0Z"/>
<path id="path2_fill" fill-rule="evenodd" d="M 50 27.0391C 49.9226 25.7144 48.839 24.6235 47.5232 24.6235L 47.5232 21.6625C 47.5232 19.091 45.5108 16.9871 42.9567 16.8313L 38.7771 5.45457L 36.4551 6.31172L 33.9009 1.79222L 31.1145 3.35067L 28.2508 0L 7.58514 16.8313L 4.79876 16.8313C 2.16718 16.8313 0 19.0131 0 21.6625L 0 46.4418C 0 49.0912 2.16718 51.273 4.79876 51.273L 42.6471 51.273C 45.2786 51.273 47.4458 49.0912 47.4458 46.4418L 47.4458 39.3509C 48.839 39.195 50 37.9483 50 36.4677L 50 27.0391ZM 48.8385 27.2732C 48.8385 28.0524 48.2193 28.6758 47.4453 28.7537L 47.4453 25.8706C 48.2193 25.8706 48.8385 26.494 48.8385 27.2732ZM 20.8979 16.8315L 33.2818 12.312C 33.901 13.4029 35.1394 14.1822 36.3778 14.1822C 36.61 14.1822 36.8422 14.1822 37.0744 14.1042L 38.0806 16.9094L 20.8979 16.9094L 20.8979 16.8315ZM 41.6401 16.8312L 39.3181 16.8312L 37.7702 12.6234L 37.2284 12.7792C 36.9962 12.8572 36.6866 12.9351 36.377 12.9351C 35.3708 12.9351 34.442 12.3117 34.1324 11.2987L 33.9002 10.7533L 17.4915 16.7533L 11.2222 16.7533L 38.0798 6.93506L 41.6401 16.8312ZM 35.3713 6.70125L 14.0864 14.4935L 33.4363 3.35059L 35.3713 6.70125ZM 30.1086 3.97439L 13.5452 13.4809L 28.0962 1.63672L 30.1086 3.97439ZM 46.2845 46.4422C 46.2845 48.4682 44.6591 50.1046 42.6467 50.1046L 4.79842 50.1046C 2.78603 50.1046 1.16064 48.4682 1.16064 46.4422L 1.16064 21.6628C 1.16064 19.6369 2.78603 18.0005 4.79842 18.0005L 7.50739 18.0005L 7.58479 18.1563L 13.9315 18.1563L 39.7829 18.1563L 43.3433 18.1563L 43.3433 18.0784C 45.0461 18.3901 46.3619 19.8706 46.3619 21.6628L 46.3619 28.7538L 38.6993 28.7538C 36.0678 28.7538 33.8232 30.9356 33.8232 33.6629L 33.8232 34.598C 33.8232 37.2473 35.9904 39.5071 38.6993 39.5071L 46.2845 39.5071L 46.2845 46.4422ZM 47.1358 38.182L 38.6219 38.182C 36.6095 38.182 34.9067 36.5456 34.9067 34.4417L 34.9067 33.5066C 34.9067 31.4807 36.5321 29.7664 38.6219 29.7664L 47.4454 29.7664C 47.9098 29.7664 48.4516 29.6105 48.8386 29.2988L 48.8386 36.3119C 48.8386 37.4028 48.0646 38.182 47.1358 38.182Z"/>
<path id="path3_fill" fill-rule="evenodd" d="M 2.70898 0C 1.23839 0 0 1.24676 0 2.72729C 0 4.20781 1.23839 5.45457 2.70898 5.45457C 4.17957 5.45457 5.41796 4.20781 5.41796 2.72729C 5.41796 1.24676 4.17957 0 2.70898 0ZM 2.7079 4.28584C 1.85651 4.28584 1.15991 3.58454 1.15991 2.7274C 1.15991 1.87025 1.85651 1.16895 2.7079 1.16895C 3.55929 1.16895 4.25589 1.87025 4.25589 2.7274C 4.25589 3.58454 3.55929 4.28584 2.7079 4.28584Z"/>
</defs>
</svg>
