<svg width="50" height="50" viewBox="0 0 50 50" version="1.1" xmlns="http://www.w3.org/2000/svg" xmlns:xlink="http://www.w3.org/1999/xlink">
<title>Icon</title>
<desc>Created using Figma</desc>
<g id="Canvas" transform="translate(-3386 -7163)">
<g id="Icon">
<g id="shape">
<use xlink:href="#path0_fill" transform="translate(3386 7163)" fill="#FFFFFF" fill-opacity="0.01"/>
</g>
<g id="Group">
<g id="Ellipse">
<mask id="mask0_outline_ins">
<use xlink:href="#path1_fill" fill="white" transform="translate(3389.7 7166.7)"/>
</mask>
<g mask="url(#mask0_outline_ins)">
<use xlink:href="#path2_stroke_2x" transform="translate(3389.7 7166.7)" fill="#0282D5"/>
</g>
</g>
<g id="Ellipse">
<mask id="mask1_outline_ins">
<use xlink:href="#path3_fill" fill="white" transform="translate(3386 7163)"/>
</mask>
<g mask="url(#mask1_outline_ins)">
<use xlink:href="#path4_stroke_2x" transform="translate(3386 7163)" fill="#0282D5"/>
</g>
</g>
<g id="Vector">
<use xlink:href="#path5_stroke" transform="translate(3398.96 7194.94)" fill="#0282D5"/>
</g>
</g>
<g id="?">
<use xlink:href="#path6_fill" transform="translate(3406 7169)" fill="#0282D5"/>
</g>
</g>
</g>
<defs>
<path id="path0_fill" fill-rule="evenodd" d="M 0 0L 50 0L 50 50L 0 50L 0 0Z"/>
<path id="path1_fill" d="M 42.5926 21.2963C 42.5926 33.0579 33.0579 42.5926 21.2963 42.5926C 9.53468 42.5926 0 33.0579 0 21.2963C 0 9.53468 9.53468 0 21.2963 0C 33.0579 0 42.5926 9.53468 42.5926 21.2963Z"/>
<path id="path2_stroke_2x" d="M 41.3926 21.2963C 41.3926 32.3952 32.3952 41.3926 21.2963 41.3926L 21.2963 43.7926C 33.7207 43.7926 43.7926 33.7207 43.7926 21.2963L 41.3926 21.2963ZM 21.2963 41.3926C 10.1974 41.3926 1.2 32.3952 1.2 21.2963L -1.2 21.2963C -1.2 33.7207 8.87193 43.7926 21.2963 43.7926L 21.2963 41.3926ZM 1.2 21.2963C 1.2 10.1974 10.1974 1.2 21.2963 1.2L 21.2963 -1.2C 8.87193 -1.2 -1.2 8.87193 -1.2 21.2963L 1.2 21.2963ZM 21.2963 1.2C 32.3952 1.2 41.3926 10.1974 41.3926 21.2963L 43.7926 21.2963C 43.7926 8.87193 33.7207 -1.2 21.2963 -1.2L 21.2963 1.2Z"/>
<path id="path3_fill" d="M 50 25C 50 38.8071 38.8071 50 25 50C 11.1929 50 0 38.8071 0 25C 0 11.1929 11.1929 0 25 0C 38.8071 0 50 11.1929 50 25Z"/>
<path id="path4_stroke_2x" d="M 48.8 25C 48.8 38.1444 38.1444 48.8 25 48.8L 25 51.2C 39.4699 51.2 51.2 39.4699 51.2 25L 48.8 25ZM 25 48.8C 11.8556 48.8 1.2 38.1444 1.2 25L -1.2 25C -1.2 39.4699 10.5301 51.2 25 51.2L 25 48.8ZM 1.2 25C 1.2 11.8556 11.8556 1.2 25 1.2L 25 -1.2C 10.5301 -1.2 -1.2 10.5301 -1.2 25L 1.2 25ZM 25 1.2C 38.1444 1.2 48.8 11.8556 48.8 25L 51.2 25C 51.2 10.5301 39.4699 -1.2 25 -1.2L 25 1.2Z"/>
<path id="path5_stroke" d="M 0.594737 9.80152C 0.734622 8.75238 1.47647 6.43315 3.25394 4.38648C 5.0113 2.36295 7.78355 0.6 12.037 0.6L 12.037 -0.6C 7.40163 -0.6 4.30968 1.34075 2.34792 3.59963C 0.40625 5.83537 -0.42598 8.37725 -0.594737 9.64292L 0.594737 9.80152ZM 12.037 0.6C 16.2905 0.6 19.0628 2.36295 20.8201 4.38648C 22.5976 6.43315 23.3395 8.75238 23.4793 9.80152L 24.6688 9.64292C 24.5001 8.37725 23.6678 5.83537 21.7262 3.59963C 19.7644 1.34075 16.6724 -0.6 12.037 -0.6L 12.037 0.6Z"/>
<path id="path6_fill" d="M 4.45703 17.2656C 4.47266 16.3438 4.59766 15.6016 4.83203 15.0391C 5.06641 14.4766 5.57031 13.8164 6.34375 13.0586C 7.11719 12.293 7.61328 11.7539 7.83203 11.4414C 8.05859 11.1211 8.23047 10.7734 8.34766 10.3984C 8.47266 10.0156 8.53516 9.58203 8.53516 9.09766C 8.53516 8.12109 8.27344 7.35547 7.75 6.80078C 7.23438 6.23828 6.51172 5.95703 5.58203 5.95703C 4.64453 5.95703 3.88672 6.22656 3.30859 6.76562C 2.73828 7.29688 2.44531 8.01953 2.42969 8.93359L 1.03516 8.93359C 1.05078 7.65234 1.48438 6.62891 2.33594 5.86328C 3.1875 5.08984 4.26953 4.70312 5.58203 4.70312C 6.92578 4.70312 7.98438 5.09766 8.75781 5.88672C 9.53906 6.66797 9.92969 7.73047 9.92969 9.07422C 9.92969 9.91797 9.73828 10.7109 9.35547 11.4531C 8.97266 12.1875 8.24609 13.0469 7.17578 14.0312C 6.29297 14.7734 5.85156 15.8516 5.85156 17.2656L 4.45703 17.2656ZM 4.26953 21.1797C 4.26953 20.9141 4.35156 20.6914 4.51562 20.5117C 4.6875 20.3242 4.92578 20.2305 5.23047 20.2305C 5.52734 20.2305 5.76172 20.3242 5.93359 20.5117C 6.11328 20.6914 6.20312 20.9141 6.20312 21.1797C 6.20312 21.4375 6.11328 21.6562 5.93359 21.8359C 5.76172 22.0078 5.52734 22.0938 5.23047 22.0938C 4.92578 22.0938 4.6875 22.0078 4.51562 21.8359C 4.35156 21.6562 4.26953 21.4375 4.26953 21.1797Z"/>
</defs>
</svg>
