<svg width="50" height="50" viewBox="0 0 50 50" version="1.1" xmlns="http://www.w3.org/2000/svg" xmlns:xlink="http://www.w3.org/1999/xlink">
<title>icon</title>
<desc>Created using Figma</desc>
<g id="Canvas" transform="translate(-3386 -7447)">
<g id="icon">
<g id="shape">
<use xlink:href="#path0_fill" transform="translate(3386 7447)" fill="#FFFFFF"/>
</g>
<g id="Shape">
<use xlink:href="#path1_fill" transform="translate(3387 7451)" fill="#0282D5"/>
</g>
</g>
</g>
<defs>
<path id="path0_fill" fill-rule="evenodd" d="M 0 0L 50 0L 50 50L 0 50L 0 0Z"/>
<path id="path1_fill" fill-rule="evenodd" d="M 44 0C 46.2061 0 48 1.78327 48 3.97634L 48 26.6983C 48 28.8913 46.2061 30.6746 44 30.6746L 38.0179 30.6746L 39.125 41.3965C 39.1848 41.868 38.4714 42.2033 38.1429 41.8581L 26.8571 30.6746L 22.2857 30.6746L 22.2857 32.9823C 22.2857 34.5276 21.0066 35.787 19.4464 35.787L 10.6071 35.787L 4.39286 41.8581C 4.05177 42.1908 3.35155 41.8297 3.42857 41.361L 4.41071 35.787L 2.83929 35.787C 1.27907 35.787 0 34.5276 0 32.9823L 0 22.1184C 0 20.5731 1.27907 19.3136 2.83929 19.3136L 6.85714 19.3136L 6.85714 3.97634C 6.85714 1.78327 8.65102 0 10.8571 0L 44 0ZM 44 1.13623L 10.8571 1.13623C 9.26439 1.13623 8 2.39315 8 3.97647L 8 26.6984C 8 28.2817 9.26439 29.5386 10.8571 29.5386L 27.0893 29.5386C 27.2402 29.533 27.3916 29.5937 27.5 29.6984L 37.8214 39.941L 36.8036 30.1599C 36.7738 29.8453 37.0571 29.5373 37.375 29.5386L 44 29.5386C 45.5927 29.5386 46.8571 28.2817 46.8571 26.6984L 46.8571 3.97647C 46.8571 2.39315 45.5927 1.13623 44 1.13623ZM 39.9994 7.38477C 40.315 7.38477 40.5709 7.63909 40.5709 7.95281C 40.5709 8.26654 40.315 8.52086 39.9994 8.52086L 14.8566 8.52086C 14.541 8.52086 14.2852 8.26654 14.2852 7.95281C 14.2852 7.63909 14.541 7.38477 14.8566 7.38477L 39.9994 7.38477ZM 39.9994 14.769C 40.315 14.769 40.5709 15.0234 40.5709 15.3371C 40.5709 15.6508 40.315 15.9051 39.9994 15.9051L 14.8566 15.9051C 14.541 15.9051 14.2852 15.6508 14.2852 15.3371C 14.2852 15.0234 14.541 14.769 14.8566 14.769L 39.9994 14.769ZM 6.85686 20.4497L 2.83901 20.4497C 1.88926 20.4497 1.14258 21.1895 1.14258 22.1183L 1.14258 32.9823C 1.14258 33.9111 1.88926 34.6509 2.83901 34.6509L 5.10686 34.6509C 5.43827 34.6452 5.73006 34.9823 5.67829 35.3077L 4.87472 39.8166L 9.99972 34.8106C 10.1039 34.7105 10.2476 34.6521 10.3926 34.6509L 19.4461 34.6509C 20.3959 34.6509 21.1426 33.9111 21.1426 32.9823L 21.1426 30.6746L 10.8569 30.6746C 8.65074 30.6746 6.85686 28.8913 6.85686 26.6982L 6.85686 20.4497ZM 39.9994 22.1538C 40.315 22.1538 40.5709 22.4081 40.5709 22.7219C 40.5709 23.0356 40.315 23.2899 39.9994 23.2899L 14.8566 23.2899C 14.541 23.2899 14.2852 23.0356 14.2852 22.7219C 14.2852 22.4081 14.541 22.1538 14.8566 22.1538L 39.9994 22.1538Z"/>
</defs>
</svg>
