<svg width="50" height="50" viewBox="0 0 50 50" version="1.1" xmlns="http://www.w3.org/2000/svg" xmlns:xlink="http://www.w3.org/1999/xlink">
<title>icon</title>
<desc>Created using Figma</desc>
<g id="Canvas" transform="translate(-3386 -7296)">
<g id="icon">
<g id="shape">
<use xlink:href="#path0_fill" transform="translate(3386 7296)" fill="#FFFFFF" fill-opacity="0.01"/>
</g>
<g id="Shape">
<use xlink:href="#path1_fill" transform="translate(3393 7297)" fill="#0282D5"/>
</g>
<g id="Shape">
<use xlink:href="#path2_fill" transform="translate(3406.32 7340.57)" fill="#0282D5"/>
</g>
<g id="Rectangle-path">
<use xlink:href="#path3_fill" transform="translate(3404.1 7299.95)" fill="#0282D5"/>
</g>
<g id="Rectangle-path">
<use xlink:href="#path4_fill" transform="translate(3412.98 7299.95)" fill="#0282D5"/>
</g>
<g id="Shape">
<use xlink:href="#path5_fill" transform="translate(3414.46 7315.46)" fill="#0282D5"/>
</g>
</g>
</g>
<defs>
<path id="path0_fill" fill-rule="evenodd" d="M 0 0L 50 0L 50 50L 0 50L 0 0Z"/>
<path id="path1_fill" fill-rule="evenodd" d="M 31.988 13.3662L 31.988 2.73231C 31.988 1.18154 30.7351 0 29.261 0L 2.72709 0C 1.17928 0 0 1.25538 0 2.73231L 0 45.2677C 0 46.8185 1.25299 48 2.72709 48L 29.261 48C 30.8088 48 31.988 46.7446 31.988 45.2677L 31.988 31.3108C 35.01 29.4646 37 26.1415 37 22.3754C 37 18.5354 35.01 15.2123 31.988 13.3662ZM 30.8824 45.2679C 30.8824 46.1541 30.1453 46.8925 29.2608 46.8925L 2.72698 46.8925C 1.84252 46.8925 1.10547 46.1541 1.10547 45.2679L 1.10547 2.73253C 1.10547 1.84637 1.84252 1.10791 2.72698 1.10791L 29.2608 1.10791C 30.1453 1.10791 30.8824 1.84637 30.8824 2.73253L 30.8824 12.7756C 30.0716 12.4064 29.2608 12.1848 28.3764 11.9633L 28.3764 6.42483L 3.53774 6.42483L 3.53774 40.9848L 28.4501 40.9848L 28.4501 32.6402C 29.3346 32.4925 30.1453 32.1971 30.9561 31.8279L 30.9561 45.2679L 30.8824 45.2679ZM 20.8584 31.0891C 22.9222 32.7138 25.723 32.7876 26.6075 32.7876C 26.9023 32.7876 27.1234 32.7876 27.3445 32.7138L 27.3445 39.8768L 4.64331 39.8768L 4.64331 7.53223L 27.3445 7.53223L 27.3445 11.8891C 27.1234 11.8891 26.8286 11.8153 26.6075 11.8153C 20.8584 11.8153 16.1413 16.5415 16.1413 22.3015C 16.1413 24.5168 16.8047 26.5845 18.0577 28.3568L 16.5835 32.123L 20.8584 31.0891ZM 26.5339 31.6798C 24.9124 31.6798 22.7012 31.2367 21.3008 30.0552L 21.0797 29.9075L 18.3526 30.5721L 19.2371 28.209L 19.0897 27.9875C 17.8367 26.3629 17.1733 24.369 17.1733 22.3013C 17.1733 17.1321 21.3745 12.9229 26.5339 12.9229C 31.6933 12.9229 35.8945 17.1321 35.8945 22.3013C 35.8945 27.4705 31.6933 31.6798 26.5339 31.6798Z"/>
<path id="path2_fill" fill-rule="evenodd" d="M 5.41463 0L 0.505366 0C 0.216585 0 0 0.158242 0 0.369231C 0 0.58022 0.216585 0.738462 0.505366 0.738462L 5.41463 0.738462C 5.70341 0.738462 5.92 0.58022 5.92 0.369231C 5.92 0.210989 5.70341 0 5.41463 0Z"/>
<path id="path3_fill" fill-rule="evenodd" d="M 0 0L 7.4 0L 7.4 1.47692L 0 1.47692L 0 0Z"/>
<path id="path4_fill" fill-rule="evenodd" d="M 0 0L 1.48 0L 1.48 1.47692L 0 1.47692L 0 0Z"/>
<path id="path5_fill" fill-rule="evenodd" d="M 3.35921 7.27101L 0.803289 4.62012L 0 5.37751L 3.35921 8.86154L 11.1 0.757396L 10.3697 0L 3.35921 7.27101Z"/>
</defs>
</svg>
