<svg width="50" height="47" viewBox="0 0 50 47" version="1.1" xmlns="http://www.w3.org/2000/svg" xmlns:xlink="http://www.w3.org/1999/xlink">
<title>Icon</title>
<desc>Created using Figma</desc>
<g id="Canvas" transform="translate(-3950 -7447)">
<g id="Icon">
<g id="shape">
<use xlink:href="#path0_fill" transform="translate(3950 7447)" fill="#FFFFFF" fill-opacity="0.01"/>
</g>
<g id="Rectangle-path">
<use xlink:href="#path1_fill" transform="translate(3960.45 7451.8)" fill="#0282D5"/>
</g>
<g id="Rectangle-path">
<use xlink:href="#path2_fill" transform="translate(3960.45 7455.14)" fill="#0282D5"/>
</g>
<g id="Rectangle-path">
<use xlink:href="#path3_fill" transform="translate(3972.42 7481.56)" fill="#0282D5"/>
</g>
<g id="Rectangle-path">
<use xlink:href="#path4_fill" transform="translate(3972.42 7484.14)" fill="#0282D5"/>
</g>
<g id="Shape">
<use xlink:href="#path5_fill" transform="translate(3950 7447.15)" fill="#0282D5"/>
</g>
<g id="Shape">
<use xlink:href="#path6_fill" transform="translate(3979.88 7467.05)" fill="#0282D5"/>
</g>
</g>
</g>
<defs>
<path id="path0_fill" fill-rule="evenodd" d="M 0 0L 50 0L 50 46.4286L 0 46.4286L 0 0Z"/>
<path id="path1_fill" fill-rule="evenodd" d="M 0 0L 15.8333 0L 15.8333 1.14169L 0 1.14169L 0 0Z"/>
<path id="path2_fill" fill-rule="evenodd" d="M 0 0L 12.5758 0L 12.5758 1.14169L 0 1.14169L 0 0Z"/>
<path id="path3_fill" fill-rule="evenodd" d="M 0 0L 7.72727 0L 7.72727 1.14169L 0 1.14169L 0 0Z"/>
<path id="path4_fill" fill-rule="evenodd" d="M 0 0L 15.6061 0L 15.6061 1.14169L 0 1.14169L 0 0Z"/>
<path id="path5_fill" fill-rule="evenodd" d="M 45.0758 37.5995C 45.5303 38.1323 46.2121 38.4368 46.8939 38.4368C 47.5 38.4368 48.1061 38.2084 48.5606 37.7518C 49.0151 37.2951 49.3182 36.6862 49.2424 36.0012C 49.2424 35.3162 48.9394 34.7073 48.4848 34.3267L 42.6515 28.9988C 43.7879 27.4005 44.3182 25.4215 44.2424 23.4426C 44.1667 21.9204 43.7121 20.4742 43.0303 19.2564L 43.0303 16.1358C 43.0303 14.1569 41.4394 12.4824 39.4697 12.4824L 30.6061 12.4824L 30.6061 3.6534C 30.6061 1.67447 29.0152 0 27.0455 0L 4.01515 0L 4.01515 0.0761124C 3.93939 0.0761124 3.78788 0.0761124 3.71212 0.0761124C 1.66667 1.8964e-13 0 1.67447 0 3.6534L 0 5.02342L 6.21212 5.02342L 6.21212 29.9122C 6.21212 31.9672 7.87879 33.5656 9.84848 33.5656L 18.6364 33.5656L 18.6364 42.4707C 18.6364 44.5258 20.303 46.2002 22.3485 46.1241L 45.2273 46.1241C 47.0455 46.1241 48.4091 44.678 48.4091 42.6991C 48.4091 42.3946 48.4091 41.5574 48.4091 41.5574L 48.4091 41.0246L 43.0303 41.0246L 43.0303 35.0117L 45.0758 37.5995ZM 41.4395 28.77L 41.1364 29.1505L 47.7274 35.1634C 47.9546 35.3918 48.1061 35.6962 48.1061 36.0768C 48.1061 36.4573 47.9546 36.7618 47.7274 36.9901C 47.5001 37.2185 47.197 37.3707 46.894 37.3707C 46.5152 37.3707 46.2122 37.2184 45.9849 36.914L 40.3031 29.9878L 39.8486 30.2922C 38.4849 31.2817 36.894 31.8145 35.2273 31.8145C 31.288 31.8145 27.8031 28.77 27.3486 24.8882C 27.0455 22.6049 27.8031 20.3976 29.3183 18.647C 30.9849 16.8203 33.3334 15.8309 35.9092 15.9831C 39.8486 16.2875 42.9546 19.5604 43.1061 23.5182C 43.1819 25.421 42.5758 27.3238 41.4395 28.77ZM 6.21272 3.88159L 1.13696 3.88159L 1.13696 3.65325C 1.13696 2.28323 2.27333 1.06543 3.71272 1.06543C 5.07636 1.06543 6.28848 2.20712 6.28848 3.65325L 6.28848 3.88159L 6.21272 3.88159ZM 7.34894 29.912L 7.34894 28.0092L 7.34894 3.65325C 7.34894 2.66379 6.97015 1.75044 6.28833 1.06543L 26.8944 1.06543C 28.258 1.06543 29.4701 2.20712 29.4701 3.65325L 29.4701 12.4823L 16.4398 12.4823L 16.4398 12.5584C 16.3641 12.5584 16.2126 12.5584 16.1368 12.5584C 14.0914 12.5584 12.5005 14.2329 12.5005 16.2118L 12.5005 29.912C 12.5005 31.2821 11.3641 32.4999 9.92469 32.4999C 8.4853 32.4999 7.34894 31.3582 7.34894 29.912ZM 12.5 32.4994C 13.1061 31.8144 13.5606 30.9011 13.5606 29.9116L 13.5606 16.2114C 13.5606 14.8413 14.697 13.6235 16.1364 13.6235C 17.5758 13.6235 18.7121 14.7652 18.7121 16.2114L 18.7121 32.4994L 12.5 32.4994ZM 47.2735 42.6988C 47.2735 43.9927 46.3644 44.9822 45.2281 44.9822L 24.925 44.9822C 25.5311 44.2972 25.9857 43.3838 25.9857 42.3944C 25.9857 42.3182 25.9857 42.2421 25.9857 42.166L 47.2735 42.166C 47.2735 42.3944 47.2735 42.6227 47.2735 42.6988ZM 41.8185 41.1001L 25.3791 41.1001L 24.6216 41.1762L 24.7731 41.7851C 24.8488 41.9374 24.8488 42.2418 24.8488 42.4701C 24.8488 43.8402 23.7125 45.058 22.2731 45.058C 20.9094 45.058 19.6973 43.9163 19.6973 42.4701L 19.6973 16.2114C 19.6973 15.2219 19.3185 14.3085 18.6367 13.6235L 39.2428 13.6235C 40.6064 13.6235 41.8185 14.7652 41.8185 16.2114L 41.8185 17.8097C 40.3034 16.2114 38.2579 15.0697 35.9094 14.9174C 33.0307 14.6891 30.3034 15.8308 28.4094 17.9619C 26.667 19.9409 25.9094 22.4526 26.2125 25.0404C 26.7428 29.6071 30.6064 33.0322 35.2276 33.0322C 36.9701 33.0322 38.6367 32.4994 40.0761 31.5861L 41.8185 33.7172L 41.8185 41.1001Z"/>
<path id="path6_fill" fill-rule="evenodd" d="M 2.9993 6.49197L 0.717223 4.12511L 0 4.80135L 2.9993 7.91209L 9.91072 0.676247L 9.25869 0L 2.9993 6.49197Z"/>
</defs>
</svg>
