<svg width="60" height="51" viewBox="0 0 60 51" fill="none" xmlns="http://www.w3.org/2000/svg">
<path fill-rule="evenodd" clip-rule="evenodd" d="M24.8569 0C22.4976 0 20.5713 1.90967 20.5713 4.24854V16.9932H4.28564C1.92627 16.9932 0 18.9028 0 21.2417V38.2349C0 40.5737 1.92627 42.4834 4.28564 42.4834H7.71436V50.1304C7.70605 50.48 7.91504 50.7993 8.24072 50.9341C8.56641 51.0693 8.94189 50.9927 9.1875 50.7407L17.5181 42.4834H35.1431C37.5024 42.4834 39.4287 40.5737 39.4287 38.2349V25.4897H42.4819L50.8125 33.7476C51.0581 33.999 51.4336 34.0757 51.7593 33.9409C52.085 33.8057 52.2939 33.4868 52.2856 33.1367V25.4897H55.7144C58.0737 25.4897 60 23.5806 60 21.2417V4.24854C60 1.90967 58.0737 0 55.7144 0H24.8569ZM24.8569 1.69922H55.7144C57.1538 1.69922 58.2856 2.82129 58.2856 4.24805V21.2417C58.2856 22.6685 57.1538 23.7905 55.7144 23.7905H51.4287C50.9551 23.7905 50.5713 24.1709 50.5713 24.6401V31.0659L43.4731 24.0293C43.3081 23.8711 43.0864 23.7852 42.8569 23.7905H24.8569C23.4175 23.7905 22.2856 22.6685 22.2856 21.2417V4.24805C22.2856 2.82129 23.4175 1.69922 24.8569 1.69922ZM20.5713 18.6929H4.28564C2.84619 18.6929 1.71436 19.8149 1.71436 21.2417V38.2354C1.71436 39.6621 2.84619 40.7842 4.28564 40.7842H8.57129C9.04492 40.7842 9.42871 41.1646 9.42871 41.6338V48.0596L16.5269 41.0229C16.6919 40.8647 16.9136 40.7788 17.1431 40.7842H35.1431C36.5825 40.7842 37.7144 39.6621 37.7144 38.2354V25.4902H24.8574C22.4976 25.4902 20.5713 23.5806 20.5713 21.2417V18.6929Z" fill="#0F89D7"/>
</svg>
