<svg width="50" height="51" viewBox="0 0 50 51" fill="none" xmlns="http://www.w3.org/2000/svg">
<path fill-rule="evenodd" clip-rule="evenodd" d="M2.10571 0H9.77344C10.9346 0 11.8794 0.949219 11.8794 2.11572V9.8208C11.8794 10.9873 10.9346 11.9365 9.77344 11.9365H2.10571C0.94458 11.9365 0 10.9873 0 9.8208V2.11572C0 0.949219 0.94458 0 2.10571 0ZM9.77344 19.5317H2.10571C0.94458 19.5317 0 20.481 0 21.6475V29.3525C0 30.519 0.94458 31.4683 2.10571 31.4683H9.77344C10.9346 31.4683 11.8794 30.519 11.8794 29.3525V21.6475C11.8794 20.481 10.9346 19.5317 9.77344 19.5317ZM10.2595 29.3521C10.2595 29.6216 10.041 29.8403 9.77344 29.8403H2.10571C1.83813 29.8403 1.61987 29.6216 1.61987 29.3521V21.6475C1.61987 21.3779 1.83813 21.1592 2.10571 21.1592H9.77344C10.041 21.1592 10.2595 21.3779 10.2595 21.6475V29.3521ZM16.9006 24.686H49.1899C49.6372 24.686 50 25.0508 50 25.5C50 25.9492 49.6372 26.3135 49.1899 26.3135H16.9006C16.4536 26.3135 16.0908 25.9492 16.0908 25.5C16.0908 25.0508 16.4536 24.686 16.9006 24.686ZM9.77344 39.0635H2.10571C0.94458 39.0635 0 40.0127 0 41.1792V48.8843C0 50.0508 0.94458 51 2.10571 51H9.77344C10.9346 51 11.8794 50.0508 11.8794 48.8843V41.1792C11.8794 40.0127 10.9346 39.0635 9.77344 39.0635ZM9.77344 49.3721C10.041 49.3721 10.2595 49.1533 10.2595 48.8838V41.1792C10.2595 40.9097 10.041 40.6909 9.77344 40.6909H2.10571C1.83813 40.6909 1.61987 40.9097 1.61987 41.1792V48.8838C1.61987 49.1533 1.83813 49.3721 2.10571 49.3721H9.77344ZM49.1899 44.2178H16.9006C16.4536 44.2178 16.0908 44.5825 16.0908 45.0317C16.0908 45.481 16.4536 45.8452 16.9006 45.8452H49.1899C49.6372 45.8452 50 45.481 50 45.0317C50 44.5825 49.6372 44.2178 49.1899 44.2178ZM10.2595 9.82031C10.2595 10.0898 10.041 10.3086 9.77344 10.3086H2.10571C1.83813 10.3086 1.61987 10.0898 1.61987 9.82031V2.11572C1.61987 1.84619 1.83813 1.62744 2.10571 1.62744H9.77344C10.041 1.62744 10.2595 1.84619 10.2595 2.11572V9.82031ZM49.1899 6.78174H16.9006C16.4536 6.78174 16.0908 6.41748 16.0908 5.96826C16.0908 5.51904 16.4536 5.1543 16.9006 5.1543H49.1899C49.6372 5.1543 50 5.51904 50 5.96826C50 6.41748 49.6372 6.78174 49.1899 6.78174Z" fill="#0282D5"/>
</svg>
