<svg width="57" height="45" viewBox="0 0 57 45" fill="none" xmlns="http://www.w3.org/2000/svg">
<path fill-rule="evenodd" clip-rule="evenodd" d="M4.28571 0C1.92625 0 0 1.92625 0 4.28571V40.2856C0 42.6451 1.92625 44.5714 4.28571 44.5714H52.2856C54.6451 44.5714 56.5713 42.6451 56.5713 40.2856V4.28571C56.5713 1.92625 54.6451 0 52.2856 0H4.28571ZM4.28578 1.71436H52.2857C53.7251 1.71436 54.8571 2.84638 54.8571 4.28578V11.1429H1.71436V4.28578C1.71436 2.84638 2.84639 1.71436 4.28578 1.71436ZM7.28571 5.14307C6.57563 5.14307 6 5.7187 6 6.42878C6 7.13886 6.57563 7.71449 7.28571 7.71449C7.99579 7.71449 8.57142 7.13886 8.57142 6.42878C8.57142 5.7187 7.99579 5.14307 7.28571 5.14307ZM11.5714 5.14307C10.8613 5.14307 10.2856 5.7187 10.2856 6.42878C10.2856 7.13886 10.8613 7.71449 11.5714 7.71449C12.2814 7.71449 12.8571 7.13886 12.8571 6.42878C12.8571 5.7187 12.2814 5.14307 11.5714 5.14307ZM15.857 5.14307C15.1469 5.14307 14.5713 5.7187 14.5713 6.42878C14.5713 7.13886 15.1469 7.71449 15.857 7.71449C16.5671 7.71449 17.1427 7.13886 17.1427 6.42878C17.1427 5.7187 16.5671 5.14307 15.857 5.14307ZM1.71436 12.8569H54.8571V40.2855C54.8571 41.7249 53.7251 42.8569 52.2857 42.8569H4.28578C2.84639 42.8569 1.71436 41.7249 1.71436 40.2855V12.8569Z" transform="translate(0.427734)" fill="#0282D5"/>
<path fill-rule="evenodd" clip-rule="evenodd" d="M0 0H31V1.5H0V0Z" transform="translate(12.999 17.5713)" fill="#0282D5"/>
<path fill-rule="evenodd" clip-rule="evenodd" d="M0 0H31V1.5H0V0Z" transform="translate(12.999 23.5713)" fill="#0282D5"/>
<path fill-rule="evenodd" clip-rule="evenodd" d="M0 0H31V1.5H0V0Z" transform="translate(12.999 29.5713)" fill="#0282D5"/>
<path fill-rule="evenodd" clip-rule="evenodd" d="M0 0H31V1.5H0V0Z" transform="translate(12.999 35.5713)" fill="#0282D5"/>
</svg>
