<svg width="52" height="51" viewBox="0 0 52 51" fill="none" xmlns="http://www.w3.org/2000/svg">
<path d="M51.2 23.1094C50.7582 23.1094 50.4 23.4661 50.4 23.9062V43.8281C50.4 46.9088 47.8928 49.4062 44.8 49.4062H16.8C13.7072 49.4062 11.2 46.9088 11.2 43.8281V42.2344H35.2C39.1765 42.2344 42.4 39.0234 42.4 35.0625V15.1406C42.4 14.7005 42.0418 14.3438 41.6 14.3438C41.1582 14.3438 40.8 14.7005 40.8 15.1406V35.0625C40.8 38.1432 38.2928 40.6406 35.2 40.6406H7.2C4.10721 40.6406 1.6 38.1432 1.6 35.0625V7.17188C1.6 4.09116 4.10721 1.59375 7.2 1.59375H27.2C27.6418 1.59375 28 1.23698 28 0.796875C28 0.356773 27.6418 0 27.2 0H7.2C3.22355 0 0 3.21096 0 7.17188V35.0625C0 39.0234 3.22355 42.2344 7.2 42.2344H9.6V43.8281C9.6 47.789 12.8235 51 16.8 51H44.8C48.7765 51 52 47.789 52 43.8281V23.9062C52 23.4661 51.6418 23.1094 51.2 23.1094Z" fill="#0282D5"/>
<path d="M1.34507 14.06C1.135 13.8664 0.837196 13.7991 0.563846 13.8835C0.290495 13.968 0.0831236 14.1912 0.0198455 14.4692C-0.0434326 14.7473 0.0469963 15.0378 0.257068 15.2314L9.80107 23.997C9.94983 24.1317 10.144 24.2057 10.3451 24.2042C10.5596 24.1949 10.7614 24.1002 10.9051 23.9412L31.5291 1.36575C31.7412 1.15849 31.8205 0.851214 31.735 0.567753C31.6496 0.284292 31.4135 0.0713466 31.1219 0.014736C30.8302 -0.0418746 30.5311 0.0671757 30.3451 0.297939L10.2971 22.2758L1.34507 14.06Z" transform="translate(9.13477 0.499023)" fill="#0282D5"/>
</svg>
