<svg width="42" height="57" viewBox="0 0 42 57" fill="none" xmlns="http://www.w3.org/2000/svg">
<path fill-rule="evenodd" clip-rule="evenodd" d="M0 0.678865C0 0.393709 0.228516 0.0016194 0.677246 0.000154561H29.1289C29.3076 -0.00375169 29.4873 0.0665608 29.6157 0.191073L41.8091 12.4054C41.9331 12.5343 42.0063 12.714 41.9995 12.8932V56.3214C41.9995 56.6769 41.6768 57.0002 41.3223 57.0002H0.677246C0.322754 57.0002 0 56.6769 0 56.3214V0.678865ZM28.4517 1.35758H1.35498V55.6432H40.645V13.5719H29.1289C28.7744 13.5719 28.4517 13.2487 28.4517 12.8932V1.35758ZM29.8062 2.31168L39.6924 12.2145H29.8062V2.31168ZM6.77393 23.7506C6.77393 23.3756 7.07715 23.0719 7.45117 23.0719H29.1284C29.5024 23.0719 29.8062 23.3756 29.8062 23.7506C29.8062 24.1252 29.5024 24.4289 29.1284 24.4289H7.45117C7.07715 24.4289 6.77393 24.1252 6.77393 23.7506ZM7.45117 33.9289C7.07715 33.9289 6.77393 34.2326 6.77393 34.6076C6.77393 34.9821 7.07715 35.2858 7.45117 35.2858H34.5479C34.9219 35.2858 35.2251 34.9821 35.2251 34.6076C35.2251 34.2326 34.9219 33.9289 34.5479 33.9289H7.45117ZM6.77393 45.465C6.77393 45.09 7.07715 44.7863 7.45117 44.7863H34.5479C34.9219 44.7863 35.2251 45.09 35.2251 45.465C35.2251 45.8395 34.9219 46.1432 34.5479 46.1432H7.45117C7.07715 46.1432 6.77393 45.8395 6.77393 45.465Z" fill="#0282D5"/>
</svg>
