<svg width="20" height="20" viewBox="0 0 20 20" fill="none" xmlns="http://www.w3.org/2000/svg">
<path d="M17.4132 12.6938H16.327C16.2803 12.6938 16.2402 12.7321 16.2402 12.7806V15.7038C16.2402 15.7522 16.2801 15.7906 16.327 15.7906H16.5439C17.0711 15.7906 17.5 15.3618 17.5 14.8347V12.7806C17.5 12.7322 17.4616 12.6938 17.4132 12.6938Z" fill="#C0C4CC"/>
<path d="M17.4132 8.94336H16.327C16.2803 8.94336 16.2402 8.9834 16.2402 9.03012V11.97C16.2402 12.0184 16.2801 12.057 16.327 12.057H17.4132C17.4616 12.057 17.5001 12.0186 17.5001 11.97V9.03012C17.5 8.9834 17.4616 8.94336 17.4132 8.94336Z" fill="#C0C4CC"/>
<path d="M16.5439 5.20898H16.327C16.2803 5.20898 16.2402 5.24736 16.2402 5.29575V8.21896C16.2402 8.26735 16.2801 8.30572 16.327 8.30572H17.4132C17.4616 8.30572 17.5001 8.26735 17.5001 8.21896V6.16504C17.5 5.63779 17.0711 5.20898 16.5439 5.20898Z" fill="#C0C4CC"/>
<path d="M13.9741 3H5.71001C5.66163 3 5.62158 3.03838 5.62158 3.08676V17.9131C5.62158 17.9615 5.66163 18 5.71001 18H13.9741C14.8734 18 15.6026 17.2709 15.6026 16.3715V4.62846C15.6026 3.72914 14.8734 3 13.9741 3Z" fill="#C0C4CC"/>
<path d="M4.49219 3H4.12846C3.2308 3 2.5 3.72914 2.5 4.62846V16.3714C2.5 17.2707 3.2308 17.9998 4.12846 17.9998H4.49219C4.54058 17.9998 4.57895 17.9615 4.57895 17.9129V3.08676C4.57895 3.03838 4.54058 3 4.49219 3Z" fill="#C0C4CC"/>
</svg>
