<svg width="48" height="48" viewBox="0 0 48 48" version="1.1" xmlns="http://www.w3.org/2000/svg" xmlns:xlink="http://www.w3.org/1999/xlink">
<g id="Canvas" fill="none">
<g id="noun_860328_cc 2">
<path id="Vector" d="M 24 48C 28.7467 48 33.3869 46.5924 37.3337 43.9553C 41.2805 41.3181 44.3566 37.5698 46.1731 33.1844C 47.9896 28.799 48.4649 23.9734 47.5388 19.3178C 46.6128 14.6623 44.327 10.3859 40.9706 7.02945C 37.6141 3.67299 33.3377 1.38721 28.6822 0.461164C 24.0266 -0.464881 19.201 0.0103989 14.8156 1.8269C 10.4302 3.6434 6.68188 6.71954 4.04473 10.6663C 1.40758 14.6131 0 19.2533 0 24C 0 30.3652 2.52856 36.4697 7.02944 40.9706C 11.5303 45.4714 17.6348 48 24 48ZM 21 10.5L 27 10.5L 27 22.755L 34.37 30.13L 30.13 34.37L 21 25.245L 21 10.5Z" fill="url(#paint0_linear)"/>
</g>
</g>
<defs>
<linearGradient id="paint0_linear" x2="1" gradientUnits="userSpaceOnUse" gradientTransform="matrix(0 48 -48 0 48 0)">
<stop stop-color="#E45873"/>
<stop offset="1" stop-color="#EDAE72"/>
</linearGradient>
</defs>
</svg>
