<svg width="64" height="64" viewBox="0 0 64 64" version="1.1" xmlns="http://www.w3.org/2000/svg" xmlns:xlink="http://www.w3.org/1999/xlink">
<g id="Canvas" fill="none">
<g id="Icon">
<g id="shape">
<path fill-rule="evenodd" clip-rule="evenodd" d="M 0 0L 64 0L 64 64L 0 64L 0 0Z" fill="white" fill-opacity="0.01"/>
</g>
<g id="Combined Shape">
<path fill-rule="evenodd" clip-rule="evenodd" d="M 1.22266 0L 0 0L 0 1.23145L 1.22266 1.23145L 1.22266 0ZM 11.0068 0L 9.78418 0L 9.78418 1.23145L 11.0068 1.23145L 11.0068 0ZM 6.52344 0L 7.74609 0L 7.74609 1.23145L 6.52344 1.23145L 6.52344 0ZM 4.48438 0L 3.26172 0L 3.26172 1.23145L 4.48438 1.23145L 4.48438 0Z" transform="translate(12.5234 50.7612)" fill="#E89B00"/>
</g>
<g id="Shape">
<path fill-rule="evenodd" clip-rule="evenodd" d="M 52.6738 28.4851C 52.5923 27.0896 51.4508 25.9403 50.0646 25.9403L 50.0646 22.8209C 50.0646 20.1119 47.9446 17.8955 45.2538 17.7313L 40.8508 5.74627L 38.4046 6.64925L 35.7138 1.88806L 32.7785 3.52985L 29.7615 0L 7.99077 17.7313L 5.05538 17.7313C 2.28308 17.7313 0 20.0299 0 22.8209L 0 48.9254C 0 51.7164 2.28308 54.0149 5.05538 54.0149L 44.9277 54.0149C 47.7 54.0149 49.9831 51.7164 49.9831 48.9254L 49.9831 41.4552C 51.4508 41.291 52.6738 39.9776 52.6738 38.4179L 52.6738 28.4851ZM 51.4511 28.7315C 51.4511 29.5524 50.7988 30.2091 49.9834 30.2912L 49.9834 27.2539C 50.7988 27.2539 51.4511 27.9106 51.4511 28.7315ZM 22.0156 17.7314L 35.0618 12.9702C 35.7141 14.1195 37.0187 14.9404 38.3233 14.9404C 38.5679 14.9404 38.8125 14.9404 39.0572 14.8583L 40.1172 17.8135L 22.0156 17.8135L 22.0156 17.7314ZM 43.8679 17.7315L 41.4217 17.7315L 39.7909 13.2987L 39.2202 13.4629C 38.9756 13.545 38.6494 13.627 38.3232 13.627C 37.2632 13.627 36.2848 12.9703 35.9586 11.9032L 35.714 11.3285L 18.4279 17.6494L 11.8232 17.6494L 40.1171 7.30615L 43.8679 17.7315ZM 37.2629 7.05964L 14.8398 15.2686L 35.2245 3.52979L 37.2629 7.05964ZM 31.7188 4.18681L 14.2695 14.2017L 29.5988 1.72412L 31.7188 4.18681ZM 48.7596 48.9256C 48.7596 51.0599 47.0473 52.7838 44.9273 52.7838L 5.05496 52.7838C 2.93496 52.7838 1.22266 51.0599 1.22266 48.9256L 1.22266 22.8211C 1.22266 20.6868 2.93496 18.9629 5.05496 18.9629L 7.90881 18.9629L 7.99035 19.1271L 14.6765 19.1271L 41.9103 19.1271L 45.6611 19.1271L 45.6611 19.045C 47.455 19.3733 48.8411 20.933 48.8411 22.8211L 48.8411 30.2912L 40.7688 30.2912C 37.9965 30.2912 35.6319 32.5898 35.6319 35.4629L 35.6319 36.448C 35.6319 39.239 37.915 41.6196 40.7688 41.6196L 48.7596 41.6196L 48.7596 48.9256ZM 49.6565 40.2239L 40.6873 40.2239C 38.5673 40.2239 36.7734 38.5 36.7734 36.2836L 36.7734 35.2986C 36.7734 33.1642 38.4857 31.3583 40.6873 31.3583L 49.9827 31.3583C 50.4719 31.3583 51.0427 31.1941 51.4504 30.8657L 51.4504 38.2538C 51.4504 39.403 50.635 40.2239 49.6565 40.2239Z" transform="translate(6 2)" fill="#E89B00"/>
</g>
<g id="Shape_2">
<path fill-rule="evenodd" clip-rule="evenodd" d="M 2.85385 0C 1.30462 0 0 1.31343 0 2.87313C 0 4.43284 1.30462 5.74627 2.85385 5.74627C 4.40308 5.74627 5.70769 4.43284 5.70769 2.87313C 5.70769 1.31343 4.40308 0 2.85385 0ZM 2.85343 4.51503C 1.9565 4.51503 1.22266 3.77622 1.22266 2.87324C 1.22266 1.97025 1.9565 1.23145 2.85343 1.23145C 3.75035 1.23145 4.48419 1.97025 4.48419 2.87324C 4.48419 3.77622 3.75035 4.51503 2.85343 4.51503Z" transform="translate(44.5674 35.4927)" fill="#E89B00"/>
</g>
</g>
</g>
</svg>

