<svg width="64" height="64" viewBox="0 0 64 64" version="1.1" xmlns="http://www.w3.org/2000/svg" xmlns:xlink="http://www.w3.org/1999/xlink">
<g id="Canvas" fill="none">
<g id="Group">
<g id="shape">
<path fill-rule="evenodd" clip-rule="evenodd" d="M 0 0L 64 0L 64 64L 0 64L 0 0Z" fill="white" fill-opacity="0.01"/>
</g>
<g id="Rectangle-path">
<path fill-rule="evenodd" clip-rule="evenodd" d="M 0 0L 26.7636 0L 26.7636 1.09524L 0 1.09524L 0 0Z" transform="translate(18.4004 20.5366)" fill="#7249C4"/>
</g>
<g id="Rectangle-path_2">
<path fill-rule="evenodd" clip-rule="evenodd" d="M 0 0L 15.4909 0L 15.4909 1.09524L 0 1.09524L 0 0Z" transform="translate(18.4004 27.4731)" fill="#7249C4"/>
</g>
<g id="Rectangle-path_3">
<path fill-rule="evenodd" clip-rule="evenodd" d="M 0 0L 12.4364 0L 12.4364 1.09524L 0 1.09524L 0 0Z" transform="translate(18.4004 34.3364)" fill="#7249C4"/>
</g>
<g id="Rectangle-path_4">
<path fill-rule="evenodd" clip-rule="evenodd" d="M 0 0L 13.8909 0L 13.8909 1.09524L 0 1.09524L 0 0Z" transform="translate(18.4004 41.2002)" fill="#7249C4"/>
</g>
<g id="Rectangle-path_5">
<path fill-rule="evenodd" clip-rule="evenodd" d="M 0 0L 20.0727 0L 20.0727 1.09524L 0 1.09524L 0 0Z" transform="translate(18.4004 48.1367)" fill="#7249C4"/>
</g>
<g id="Shape">
<path fill-rule="evenodd" clip-rule="evenodd" d="M 37.1636 0L 5.23636 0C 5.23636 0 5.23636 0 5.16364 0C 2.32727 0 0 2.33651 0 5.18413L 0 46L 35.6364 46L 35.6364 36.0698C 38.0364 34.2444 39.6364 31.3238 39.6364 28.0381C 39.6364 24.7524 38.0364 21.8317 35.6364 20.0063L 35.6364 6.86349L 41.5273 6.86349L 41.5273 6.35238C 41.5273 6.35238 41.6 5.18413 41.6 4.74603C 41.6 2.04444 39.7091 0 37.1636 0ZM 38.5453 28.0383C 38.5453 32.9304 34.5453 36.9462 29.6725 36.9462C 24.7998 36.9462 20.7998 32.9304 20.7998 28.0383C 20.7998 23.1462 24.7998 19.1304 29.6725 19.1304C 34.5453 19.1304 38.5453 23.1462 38.5453 28.0383ZM 34.5454 19.3494C 33.0908 18.5463 31.4181 18.0352 29.6726 18.0352C 24.1454 18.0352 19.709 22.4891 19.709 28.0383C 19.709 33.5875 24.1454 38.0415 29.6726 38.0415C 31.4181 38.0415 33.0908 37.6034 34.5454 36.7272L 34.5454 44.832L 1.09082 44.832L 1.09082 5.11135C 1.09082 2.84786 2.909 1.02246 5.16355 1.02246C 7.41809 1.09548 9.23627 2.92087 9.23627 5.18437C 9.23627 5.47643 9.16355 5.91452 9.09082 6.2796L 8.94537 6.86373L 9.52718 6.93675L 34.5454 6.93675L 34.5454 19.3494ZM 40.5092 5.84125L 10.2547 5.84125C 10.2547 5.6222 10.3274 5.40315 10.3274 5.1841C 10.3274 3.50474 9.52738 2.04442 8.29102 1.09521L 37.091 1.09521C 39.0546 1.09521 40.4365 2.62855 40.4365 4.74601C 40.5092 5.03807 40.5092 5.47617 40.5092 5.84125Z" transform="translate(14 9)" fill="#7249C4"/>
</g>
<g id="Shape_2">
<path fill-rule="evenodd" clip-rule="evenodd" d="M 2.25455 0L 1.16364 0L 1.16364 4.74603C 0.509091 4.96508 0 5.62222 0 6.35238C 0 7.30159 0.727273 8.03175 1.67273 8.03175C 1.96364 8.03175 2.18182 7.95873 2.4 7.8127L 4.65455 10.0762L 5.45455 9.27302L 3.2 7.00952C 3.34545 6.79048 3.34545 6.49841 3.34545 6.27937C 3.34545 5.54921 2.83636 4.89206 2.18182 4.67302L 2.25455 0ZM 2.18224 6.79051C 2.03679 6.93655 1.89134 7.00956 1.74588 7.00956C 1.38224 7.00956 1.16406 6.7175 1.16406 6.42544C 1.16406 6.06036 1.45497 5.84131 1.74588 5.84131C 2.10952 5.84131 2.3277 6.13337 2.3277 6.42544C 2.3277 6.57147 2.3277 6.7175 2.18224 6.79051Z" transform="translate(41.9639 30.6855)" fill="#7249C4"/>
</g>
<g id="Rectangle-path_6">
<path fill-rule="evenodd" clip-rule="evenodd" d="M 0 0L 1.09091 0L 1.09091 0.87619L 0 0.87619L 0 0Z" transform="translate(43.127 28.7871)" fill="#7249C4"/>
</g>
<g id="Rectangle-path_7">
<path fill-rule="evenodd" clip-rule="evenodd" d="M 0 0L 0.872719 0L 0.872719 1.09523L 0 1.09523L 0 0Z" transform="matrix(-0.707307 -0.706907 0.706907 -0.707307 38.1416 32.2505)" fill="#7249C4"/>
</g>
<g id="Rectangle-path_8">
<path fill-rule="evenodd" clip-rule="evenodd" d="M 0 0L 0.872727 0L 0.872727 1.09524L 0 1.09524L 0 0Z" transform="translate(35.4912 36.5269)" fill="#7249C4"/>
</g>
<g id="Rectangle-path_9">
<path fill-rule="evenodd" clip-rule="evenodd" d="M 0 0L 1.0909 0L 1.0909 0.876182L 0 0.876182L 0 0Z" transform="matrix(-0.707107 -0.707107 0.707107 -0.707107 38.2832 43.2622)" fill="#7249C4"/>
</g>
<g id="Rectangle-path_10">
<path fill-rule="evenodd" clip-rule="evenodd" d="M 0 0L 1.09091 0L 1.09091 0.87619L 0 0.87619L 0 0Z" transform="translate(43.127 44.4126)" fill="#7249C4"/>
</g>
<g id="Rectangle-path_11">
<path fill-rule="evenodd" clip-rule="evenodd" d="M 0 0L 0.872719 0L 0.872719 1.09523L 0 1.09523L 0 0Z" transform="matrix(0.706907 0.707307 -0.707307 0.706907 49.2773 41.8291)" fill="#7249C4"/>
</g>
<g id="Rectangle-path_12">
<path fill-rule="evenodd" clip-rule="evenodd" d="M 0 0L 0.872727 0L 0.872727 1.09524L 0 1.09524L 0 0Z" transform="translate(51.0547 36.5269)" fill="#7249C4"/>
</g>
<g id="Rectangle-path_13">
<path fill-rule="evenodd" clip-rule="evenodd" d="M 0 0L 1.0909 0L 1.0909 0.876182L 0 0.876182L 0 0Z" transform="matrix(0.707107 0.707107 -0.707107 0.707107 49.1572 30.7979)" fill="#7249C4"/>
</g>
<g id="Shape_3">
<path fill-rule="evenodd" clip-rule="evenodd" d="M 0 4.01587L 0 25.8476C 0 26.9429 0.872727 27.819 2.03636 27.819C 3.12727 27.819 4.07273 26.9429 4.07273 25.7746L 4.07273 4.01587L 2.03636 0L 0 4.01587ZM 1.09082 6.20654L 2.909 6.20654L 2.909 22.197L 1.09082 22.197L 1.09082 6.20654ZM 2.03627 26.7237C 1.52718 26.7237 1.09082 26.2856 1.09082 25.7745L 1.09082 23.292L 2.909 23.292L 2.909 25.7745C 2.909 26.2856 2.47264 26.7237 2.03627 26.7237ZM 2.909 5.11126L 1.09082 5.11126L 1.09082 4.23506L 2.03627 2.40967L 2.909 4.23506L 2.909 5.11126Z" transform="translate(8 27.1812)" fill="#7249C4"/>
</g>
</g>
</g>
</svg>

