<svg width="64" height="64" viewBox="0 0 64 64" version="1.1" xmlns="http://www.w3.org/2000/svg" xmlns:xlink="http://www.w3.org/1999/xlink">
<g id="Canvas" fill="none">
<g id="Icon" opacity="0.5">
<g id="shape">
<path fill-rule="evenodd" clip-rule="evenodd" d="M 0 0L 64 0L 64 64L 0 64L 0 0Z" fill="white" fill-opacity="0.01"/>
</g>
<g id="Rectangle-path">
<path fill-rule="evenodd" clip-rule="evenodd" d="M 0 0L 17.7333 0L 17.7333 1.27869L 0 1.27869L 0 0Z" transform="translate(12.709 10.3706)" fill="#81BB5B"/>
</g>
<g id="Rectangle-path_2">
<path fill-rule="evenodd" clip-rule="evenodd" d="M 0 0L 14.0848 0L 14.0848 1.27869L 0 1.27869L 0 0Z" transform="translate(12.709 14.1211)" fill="#81BB5B"/>
</g>
<g id="Rectangle-path_3">
<path fill-rule="evenodd" clip-rule="evenodd" d="M 0 0L 8.65455 0L 8.65455 1.27869L 0 1.27869L 0 0Z" transform="translate(26.1152 43.7017)" fill="#81BB5B"/>
</g>
<g id="Rectangle-path_4">
<path fill-rule="evenodd" clip-rule="evenodd" d="M 0 0L 17.4788 0L 17.4788 1.27869L 0 1.27869L 0 0Z" transform="translate(26.1152 46.6001)" fill="#81BB5B"/>
</g>
<g id="Shape">
<path fill-rule="evenodd" clip-rule="evenodd" d="M 50.4848 42.1115C 50.9939 42.7082 51.7576 43.0492 52.5212 43.0492C 53.2 43.0492 53.8788 42.7934 54.3879 42.282C 54.897 41.7705 55.2364 41.0885 55.1515 40.3213C 55.1515 39.5541 54.8121 38.8721 54.303 38.4459L 47.7697 32.4787C 49.0424 30.6885 49.6364 28.4721 49.5515 26.2557C 49.4667 24.5508 48.9576 22.9311 48.1939 21.5672L 48.1939 18.0721C 48.1939 15.8557 46.4121 13.9803 44.2061 13.9803L 34.2788 13.9803L 34.2788 4.0918C 34.2788 1.87541 32.497 0 30.2909 0L 4.49697 0L 4.49697 0.0852459C 4.41212 0.0852459 4.24242 0.0852459 4.15758 0.0852459C 1.86667 0 0 1.87541 0 4.0918L 0 5.62623L 6.95758 5.62623L 6.95758 33.5016C 6.95758 35.8033 8.82424 37.5934 11.0303 37.5934L 20.8727 37.5934L 20.8727 47.5672C 20.8727 49.8689 22.7394 51.7443 25.0303 51.659L 50.6545 51.659C 52.6909 51.659 54.2182 50.0393 54.2182 47.823C 54.2182 47.482 54.2182 46.5443 54.2182 46.5443L 54.2182 45.9475L 48.1939 45.9475L 48.1939 39.2131L 50.4848 42.1115ZM 46.4122 32.2227L 46.0728 32.649L 53.4546 39.3834C 53.7092 39.6391 53.8789 39.9801 53.8789 40.4063C 53.8789 40.8326 53.7092 41.1736 53.4546 41.4293C 53.2001 41.685 52.8607 41.8555 52.5213 41.8555C 52.0971 41.8555 51.7577 41.685 51.5031 41.3441L 45.1395 33.5867L 44.6304 33.9277C 43.1031 35.0359 41.3213 35.6326 39.4546 35.6326C 35.0425 35.6326 31.1395 32.2227 30.6304 27.8752C 30.291 25.3178 31.1395 22.8457 32.8364 20.885C 34.7031 18.8391 37.3334 17.7309 40.2183 17.9014C 44.6304 18.2424 48.1092 21.908 48.2789 26.3408C 48.3637 28.4719 47.6849 30.6031 46.4122 32.2227ZM 6.95731 4.34746L 1.27246 4.34746L 1.27246 4.09172C 1.27246 2.55729 2.54519 1.19336 4.15731 1.19336C 5.68458 1.19336 7.04216 2.47205 7.04216 4.09172L 7.04216 4.34746L 6.95731 4.34746ZM 8.22987 33.5016L 8.22987 31.3704L 8.22987 4.09172C 8.22987 2.98352 7.80563 1.96057 7.04199 1.19336L 30.1208 1.19336C 31.6481 1.19336 33.0056 2.47205 33.0056 4.09172L 33.0056 13.9802L 18.4117 13.9802L 18.4117 14.0655C 18.3268 14.0655 18.1571 14.0655 18.0723 14.0655C 15.7814 14.0655 13.9996 15.9409 13.9996 18.1573L 13.9996 33.5016C 13.9996 35.036 12.7268 36.3999 11.1147 36.3999C 9.5026 36.3999 8.22987 35.1212 8.22987 33.5016ZM 14 36.3998C 14.6788 35.6326 15.1879 34.6096 15.1879 33.5014L 15.1879 18.1572C 15.1879 16.6227 16.4606 15.2588 18.0727 15.2588C 19.6848 15.2588 20.9576 16.5375 20.9576 18.1572L 20.9576 36.3998L 14 36.3998ZM 52.9453 47.8228C 52.9453 49.272 51.9272 50.3802 50.6544 50.3802L 27.915 50.3802C 28.5938 49.613 29.1029 48.59 29.1029 47.4818C 29.1029 47.3966 29.1029 47.3113 29.1029 47.2261L 52.9453 47.2261C 52.9453 47.4818 52.9453 47.7375 52.9453 47.8228ZM 46.8367 46.0326L 28.4246 46.0326L 27.5761 46.1178L 27.7458 46.7998C 27.8306 46.9703 27.8306 47.3112 27.8306 47.567C 27.8306 49.1014 26.5579 50.4653 24.9458 50.4653C 23.4185 50.4653 22.0609 49.1867 22.0609 47.567L 22.0609 18.1572C 22.0609 17.049 21.6367 16.026 20.873 15.2588L 43.9518 15.2588C 45.4791 15.2588 46.8367 16.5375 46.8367 18.1572L 46.8367 19.9473C 45.1397 18.1572 42.8488 16.8785 40.2185 16.708C 36.9943 16.4522 33.9397 17.7309 31.8185 20.1178C 29.867 22.3342 29.0185 25.1473 29.3579 28.0457C 29.9518 33.1604 34.2791 36.9965 39.4549 36.9965C 41.4064 36.9965 43.273 36.3998 44.8852 35.3768L 46.8367 37.7637L 46.8367 46.0326Z" transform="translate(1 5.17041)" fill="#81BB5B"/>
</g>
<g id="Shape_2">
<path fill-rule="evenodd" clip-rule="evenodd" d="M 3.35921 7.27101L 0.803289 4.62012L 0 5.37751L 3.35921 8.86154L 11.1 0.757396L 10.3697 0L 3.35921 7.27101Z" transform="translate(34.46 27.4614)" fill="#81BB5B"/>
</g>
</g>
</g>
</svg>

