<svg width="64" height="64" viewBox="0 0 64 64" version="1.1" xmlns="http://www.w3.org/2000/svg" xmlns:xlink="http://www.w3.org/1999/xlink">
<g id="Canvas" fill="none">
<g id="Icon">
<g id="shape">
<path fill-rule="evenodd" clip-rule="evenodd" d="M 0 0L 64 0L 64 64L 0 64L 0 0Z" fill="white" fill-opacity="0.01"/>
</g>
<g id="Shape">
<path fill-rule="evenodd" clip-rule="evenodd" d="M 25 0C 23.1046 0 21.5517 1.5589 21.5517 3.46154L 21.5517 8.65385L 2.79162 8.65385C 1.20544 8.65385 0 10.0681 0 11.6827L 0 41.9712C 0 43.586 1.20544 45 2.79162 45L 47.2084 45C 48.7946 45 50 43.586 50 41.9712L 50 11.6827C 50 10.0681 48.7946 8.65385 47.2084 8.65385L 28.4483 8.65385L 28.4483 3.46154C 28.4483 1.5589 26.8954 0 25 0ZM 24.9499 1.13086C 26.2295 1.13086 27.2241 1.97538 27.2241 3.06163L 27.2241 8.85394L 27.2241 10.7847L 27.2241 12.7155L 22.6758 12.7155L 22.6758 10.7847L 22.6758 8.85394L 22.6758 3.06163C 22.6758 1.97538 23.6704 1.13086 24.9499 1.13086ZM 24.9998 2.59619C 24.5237 2.59619 24.1377 2.98364 24.1377 3.46158C 24.1377 3.93951 24.5237 4.32696 24.9998 4.32696C 25.4759 4.32696 25.8618 3.93951 25.8618 3.46158C 25.8618 2.98364 25.4759 2.59619 24.9998 2.59619ZM 2.19151 9.78467L 21.5516 9.78467L 21.5516 12.7154L 19.8275 12.7154L 19.8275 13.8462L 30.1723 13.8462L 30.1723 12.7154L 28.4482 12.7154L 28.4482 9.78467L 47.8083 9.78467C 48.3617 9.78467 48.8757 10.3004 48.8757 11.0827L 48.8757 15.577L 1.12402 15.577L 1.12402 11.0827C 1.12402 10.3004 1.63806 9.78467 2.19151 9.78467ZM 1.22461 16.7075L 48.8763 16.7075L 48.8763 42.471C 48.8763 43.2535 48.3623 43.7691 47.8088 43.7691L 2.29209 43.7691C 1.73865 43.7691 1.22461 43.2535 1.22461 42.471L 1.22461 16.7075ZM 15.5176 20.769L 15.5176 21.8998L 36.2072 21.8998L 36.2072 20.769L 15.5176 20.769ZM 24.1377 25.9614L 24.1377 27.0922L 44.8274 27.0922L 44.8274 25.9614L 24.1377 25.9614ZM 24.1377 29.4229L 24.1377 30.5536L 37.9308 30.5536L 37.9308 29.4229L 24.1377 29.4229ZM 24.1377 32.8848L 24.1377 34.0155L 43.1032 34.0155L 43.1032 32.8848L 24.1377 32.8848ZM 24.1377 36.3462L 24.1377 37.477L 36.2067 37.477L 36.2067 36.3462L 24.1377 36.3462Z" transform="translate(7 9)" fill="#0F89D7"/>
</g>
<g id="Shape_2">
<path fill-rule="evenodd" clip-rule="evenodd" d="M 6.00044 0C 4.10332 0 2.5459 1.62056 2.5459 3.59459C 2.5459 5.56862 4.10332 7.18917 6.00044 7.18917C 7.89757 7.18917 9.45499 5.56862 9.45499 3.59459C 9.45499 1.62056 7.89757 0 6.00044 0ZM 6.0003 1.19189C 7.28738 1.19189 8.30333 2.25181 8.30333 3.5946C 8.30333 4.93738 7.28738 5.9973 6.0003 5.9973C 4.71321 5.9973 3.69727 4.93738 3.69727 3.5946C 3.69727 2.25181 4.71321 1.19189 6.0003 1.19189ZM 6 7.56738C 2.70665 7.56738 0 10.2765 0 13.6451L 0 13.9998L 1.15152 13.9998L 1.15152 13.6451C 1.15152 11.324 3.46768 8.60333 6 8.60959C 8.53232 8.61585 10.8485 11.324 10.8485 13.6451L 10.8485 13.9998L 12 13.9998L 12 13.6451C 12 10.2765 9.29335 7.56738 6 7.56738Z" transform="translate(14 34)" fill="#0F89D7"/>
</g>
</g>
</g>
</svg>

