<svg width="64" height="64" viewBox="0 0 64 64" version="1.1" xmlns="http://www.w3.org/2000/svg" xmlns:xlink="http://www.w3.org/1999/xlink">
<g id="Canvas" fill="none">
<g id="icon">
<g id="shape">
<path fill-rule="evenodd" clip-rule="evenodd" d="M 0 0L 64 0L 64 64L 0 64L 0 0Z" fill="white" fill-opacity="0.01"/>
</g>
<g id="mac copy">
<g id="Rectangle 28 1">
<g id="Group">
<g id="Vector">
<path d="M 62 0L 0 0L 0 8L 62 8L 62 0Z" transform="translate(1 42)" fill="white"/>
</g>
</g>
</g>
<g id="Rectangle 101 2">
<g id="Group_2">
<g id="Vector_2">
<path d="M 62 8L 62 0L 0 0L 0 8L 26 8L 26 15L 22 19L 40 19L 36 15L 36 8L 62 8Z" transform="translate(1 42)" fill="white"/>
</g>
</g>
</g>
<g id="Ellipse 30 3">
<g id="Group_3">
<g id="Vector_3">
<path d="M 9.766 12.704L 12.704 9.766C 13.109 9.36 13.109 8.702 12.704 8.296C 12.298 7.891 11.641 7.891 11.234 8.296L 8.296 11.234C 7.891 11.64 7.891 12.298 8.296 12.704C 8.702 13.109 9.359 13.109 9.766 12.704ZM 9.766 17.704L 17.704 9.766C 18.109 9.36 18.109 8.702 17.704 8.296C 17.298 7.891 16.641 7.891 16.234 8.296L 8.296 16.234C 7.891 16.64 7.891 17.297 8.296 17.704C 8.702 18.109 9.359 18.109 9.766 17.704ZM 60 4L 4 4L 4 36L 60 36L 60 4ZM 58 34L 6 34L 6 6L 58 6L 58 34ZM 62 0L 2 0C 0.896 0 0 0.896 0 2L 0 46C 0 47.105 0.896 48 2 48L 26 48L 26 53L 21 58C 21 59.105 21.896 59 23 59L 41 59C 42.104 59 43 59.105 43 58C 43 58 39.917 54.917 38 53L 38 48L 62 48C 63.104 48 64 47.105 64 46L 64 2C 64 0.896 63.104 0 62 0ZM 39 57L 25 57L 28 54L 28 48L 36 48L 36 54L 39 57ZM 62 46L 2 46L 2 40L 62 40L 62 46ZM 62 38L 2 38L 2 2L 62 2L 62 38ZM 32 45C 33.104 45 34 44.105 34 43C 34 41.896 33.104 41 32 41C 30.896 41 30 41.896 30 43C 30 44.105 30.896 45 32 45Z" transform="translate(0 3)" fill="#3CAAC1"/>
</g>
</g>
</g>
<g id="?">
<path d="M 4.51172 17.1953C 4.52734 16.2656 4.63281 15.5312 4.82812 14.9922C 5.02344 14.4531 5.42188 13.8555 6.02344 13.1992L 7.55859 11.6172C 8.21484 10.875 8.54297 10.0781 8.54297 9.22656C 8.54297 8.40625 8.32812 7.76562 7.89844 7.30469C 7.46875 6.83594 6.84375 6.60156 6.02344 6.60156C 5.22656 6.60156 4.58594 6.8125 4.10156 7.23438C 3.61719 7.65625 3.375 8.22266 3.375 8.93359L 1.20703 8.93359C 1.22266 7.66797 1.67188 6.64844 2.55469 5.875C 3.44531 5.09375 4.60156 4.70312 6.02344 4.70312C 7.5 4.70312 8.64844 5.10156 9.46875 5.89844C 10.2969 6.6875 10.7109 7.77344 10.7109 9.15625C 10.7109 10.5234 10.0781 11.8711 8.8125 13.1992L 7.53516 14.4648C 6.96484 15.0977 6.67969 16.0078 6.67969 17.1953L 4.51172 17.1953ZM 4.41797 20.9102C 4.41797 20.5586 4.52344 20.2656 4.73438 20.0312C 4.95312 19.7891 5.27344 19.668 5.69531 19.668C 6.11719 19.668 6.4375 19.7891 6.65625 20.0312C 6.875 20.2656 6.98438 20.5586 6.98438 20.9102C 6.98438 21.2617 6.875 21.5547 6.65625 21.7891C 6.4375 22.0156 6.11719 22.1289 5.69531 22.1289C 5.27344 22.1289 4.95312 22.0156 4.73438 21.7891C 4.52344 21.5547 4.41797 21.2617 4.41797 20.9102Z" transform="translate(26 9)" fill="#3CAAC1"/>
</g>
</g>
</g>
</g>
</svg>

