<svg width="64" height="64" viewBox="0 0 64 64" version="1.1" xmlns="http://www.w3.org/2000/svg" xmlns:xlink="http://www.w3.org/1999/xlink">
<g id="Canvas" fill="none">
<g id="Icon">
<g id="shape">
<path fill-rule="evenodd" clip-rule="evenodd" d="M 0 0L 64 0L 64 64L 0 64L 0 0Z" fill="white" fill-opacity="0.01"/>
</g>
<g id="Group">
<g id="Ellipse">
<circle cx="21.2963" cy="21.2963" r="20.6963" stroke-width="1.2" transform="translate(10.7041 10.7036)" stroke="#3CAAC1"/>
</g>
<g id="Ellipse_2">
<circle cx="25" cy="25" r="24.4" stroke-width="1.2" transform="translate(7 7)" stroke="#3CAAC1"/>
</g>
<g id="Vector">
<path d="M 0 9.72222C 0.308642 7.40741 3.14815 0 12.037 0C 20.9259 0 23.7654 7.40741 24.0741 9.72222" stroke-width="1.2" transform="translate(19.9629 38.9443)" stroke="#3CAAC1"/>
</g>
</g>
<g id="?">
<path d="M 4.45703 17.2656C 4.47266 16.3438 4.59766 15.6016 4.83203 15.0391C 5.06641 14.4766 5.57031 13.8164 6.34375 13.0586C 7.11719 12.293 7.61328 11.7539 7.83203 11.4414C 8.05859 11.1211 8.23047 10.7734 8.34766 10.3984C 8.47266 10.0156 8.53516 9.58203 8.53516 9.09766C 8.53516 8.12109 8.27344 7.35547 7.75 6.80078C 7.23438 6.23828 6.51172 5.95703 5.58203 5.95703C 4.64453 5.95703 3.88672 6.22656 3.30859 6.76562C 2.73828 7.29688 2.44531 8.01953 2.42969 8.93359L 1.03516 8.93359C 1.05078 7.65234 1.48438 6.62891 2.33594 5.86328C 3.1875 5.08984 4.26953 4.70312 5.58203 4.70312C 6.92578 4.70312 7.98438 5.09766 8.75781 5.88672C 9.53906 6.66797 9.92969 7.73047 9.92969 9.07422C 9.92969 9.91797 9.73828 10.7109 9.35547 11.4531C 8.97266 12.1875 8.24609 13.0469 7.17578 14.0312C 6.29297 14.7734 5.85156 15.8516 5.85156 17.2656L 4.45703 17.2656ZM 4.26953 21.1797C 4.26953 20.9141 4.35156 20.6914 4.51562 20.5117C 4.6875 20.3242 4.92578 20.2305 5.23047 20.2305C 5.52734 20.2305 5.76172 20.3242 5.93359 20.5117C 6.11328 20.6914 6.20312 20.9141 6.20312 21.1797C 6.20312 21.4375 6.11328 21.6562 5.93359 21.8359C 5.76172 22.0078 5.52734 22.0938 5.23047 22.0938C 4.92578 22.0938 4.6875 22.0078 4.51562 21.8359C 4.35156 21.6562 4.26953 21.4375 4.26953 21.1797Z" transform="translate(27 12)" fill="#3CAAC1"/>
</g>
</g>
</g>
</svg>

