<svg width="64" height="64" viewBox="0 0 64 64" version="1.1" xmlns="http://www.w3.org/2000/svg" xmlns:xlink="http://www.w3.org/1999/xlink">
<g id="Canvas" fill="none">
<g id="Group">
<g id="shape">
<path fill-rule="evenodd" clip-rule="evenodd" d="M 0 0L 64 0L 64 64L 0 64L 0 0Z" fill="white" fill-opacity="0.01"/>
</g>
<g id="icon -letter">
<g id="Vector">
<path d="M 59.8962 1.29165C 60.0424 0.983218 60.0162 0.608226 59.7893 0.325108C 59.5174 -0.012384 59.0609 -0.0855073 58.6896 0.0982384C 58.5106 0.0410522 58.3221 0.00167817 58.1234 0.00167817L 1.87472 0.00167817C 1.67598 0.00167817 1.48848 0.0410522 1.30848 0.0982384C 0.938181 -0.0855073 0.481629 -0.012384 0.209761 0.325108C -0.017109 0.608226 -0.0433584 0.984155 0.102888 1.29165C 0.0419521 1.47727 0.000703109 1.67133 0.000703109 1.87663L 0.000703109 7.51838C -0.000234369 7.5465 -0.000234369 7.57181 0.000703109 7.599L 0.000703109 15.0098C -0.000234369 15.0379 -0.000234369 15.0632 0.000703109 15.0913L 0.000703109 22.503C -0.000234369 22.5302 -0.000234369 22.5555 0.000703109 22.5836L 0.000703109 29.9944C -0.000234369 30.0216 -0.000234369 30.0478 0.000703109 30.075L 0.000703109 41.2507C 0.000703109 42.2866 0.840683 43.1257 1.87566 43.1257L 58.1243 43.1257C 59.1593 43.1257 59.9993 42.2866 59.9993 41.2507L 59.9993 30.0694C 60.0002 30.0432 60.0002 30.0178 59.9993 29.9916L 59.9993 22.5696C 60.0002 22.5433 60.0002 22.518 59.9993 22.4918L 59.9993 15.0698C 60.0002 15.0435 60.0002 15.0182 59.9993 14.992L 59.9993 7.56994C 60.0002 7.54369 60.0002 7.51838 59.9993 7.49213L 59.9993 1.87663C 59.9993 1.67133 59.958 1.47727 59.8962 1.29165ZM 56.5072 1.87663L 30 24.1445L 3.49281 1.87663L 56.5072 1.87663ZM 54.3744 6.04654L 54.3744 11.1839C 54.3735 11.2102 54.3735 11.2355 54.3744 11.2617L 54.3744 18.6837C 54.3735 18.71 54.3735 18.7353 54.3744 18.7616L 54.3744 26.1836C 54.3735 26.2098 54.3735 26.2351 54.3744 26.2614L 54.3744 33.6834C 54.3735 33.7096 54.3735 33.7349 54.3744 33.7612L 54.3744 37.0817C 48.2161 31.9087 38.5498 23.7883 35.9024 21.5637L 54.3744 6.04654ZM 24.0976 21.5637C 21.4502 23.7874 11.7839 31.9087 5.62557 37.0817L 5.62557 6.04654L 24.0976 21.5637ZM 1.87566 2.89661L 3.78811 4.50345C 3.77499 4.56532 3.75062 4.62344 3.75062 4.69001L 3.75062 8.98365L 1.87566 7.1012L 1.87566 2.89661ZM 1.87566 9.8527L 3.75062 11.7352L 3.75062 16.475L 1.87566 14.5926L 1.87566 9.8527ZM 1.87566 17.3441L 3.75062 19.2265L 3.75062 23.9674L 1.87566 22.0849L 1.87566 17.3441ZM 1.87566 24.8364L 3.75062 26.7189L 3.75062 31.4588L 1.87566 29.5763L 1.87566 24.8364ZM 1.87566 32.3278L 3.75062 34.2103L 3.75062 38.4383C 3.75062 38.5048 3.77499 38.563 3.78811 38.6248C 3.05032 39.2445 2.40346 39.7882 1.87566 40.2317L 1.87566 32.3278ZM 3.49281 41.2507C 8.66581 36.9064 22.2761 25.4711 25.5123 22.7524L 29.2566 25.8976C 29.2631 25.907 29.265 25.9192 29.2725 25.9276C 29.4 26.0861 29.5734 26.1751 29.7563 26.2211C 29.7666 26.2239 29.7759 26.2276 29.7872 26.2304C 29.8584 26.2464 29.9278 26.2511 30.0009 26.2492C 30.0741 26.2511 30.1434 26.2464 30.2147 26.2304C 30.225 26.2276 30.2353 26.2248 30.2456 26.2211C 30.4275 26.1742 30.6009 26.0851 30.7294 25.9276C 30.7369 25.9183 30.7378 25.907 30.7453 25.8976L 34.4896 22.7524C 37.7248 25.4701 51.3417 36.9092 56.51 41.2507L 3.49281 41.2507ZM 58.1243 40.2317C 57.5965 39.7882 56.9487 39.2436 56.2119 38.6248C 56.225 38.563 56.2494 38.5048 56.2494 38.4383L 56.2494 34.1915L 58.1243 32.3165L 58.1243 40.2317ZM 58.1243 29.5613L 56.2494 31.4363L 56.2494 26.6917L 58.1243 24.8167L 58.1243 29.5613ZM 58.1243 22.0615L 56.2494 23.9364L 56.2494 19.1919L 58.1243 17.3169L 58.1243 22.0615ZM 58.1243 14.5616L 56.2494 16.4366L 56.2494 11.692L 58.1243 9.81707L 58.1243 14.5616ZM 58.1243 7.06182L 56.2494 8.93678L 56.2494 4.69001C 56.2494 4.62438 56.225 4.56626 56.2119 4.50345L 58.1243 2.89661L 58.1243 7.06182ZM 46.8746 4.68907C 46.8746 4.17064 46.4546 3.75159 45.9371 3.75159L 14.0629 3.75159C 13.5444 3.75159 13.1254 4.17064 13.1254 4.68907C 13.1254 5.20749 13.5444 5.62655 14.0629 5.62655L 45.9371 5.62655C 46.4546 5.62655 46.8746 5.20749 46.8746 4.68907Z" transform="translate(2 10)" fill="#7249C4"/>
</g>
<g id="Ellipse">
<circle cx="6.56235" cy="6.56235" r="6.56235" transform="translate(9.49988 35.3125)" fill="white"/>
</g>
<g id="Vector_2">
<path d="M 6.56235 7.58153e-07C 2.93806 7.58153e-07 3.79077e-07 2.93806 3.79077e-07 6.56235C 3.79077e-07 10.1866 2.93806 13.1247 6.56235 13.1247C 10.1866 13.1247 13.1247 10.1866 13.1247 6.56235C 13.1247 2.93806 10.1866 7.58153e-07 6.56235 7.58153e-07ZM 6.56235 11.2497C 3.97303 11.2497 1.87496 9.15166 1.87496 6.56235C 1.87496 3.97303 3.97303 1.87496 6.56235 1.87496C 9.15166 1.87496 11.2497 3.97303 11.2497 6.56235C 11.2497 9.15166 9.15072 11.2497 6.56235 11.2497Z" transform="translate(9.49988 35.3145)" fill="#7249C4"/>
</g>
</g>
</g>
</g>
</svg>

