<svg width="64" height="64" viewBox="0 0 64 64" version="1.1" xmlns="http://www.w3.org/2000/svg" xmlns:xlink="http://www.w3.org/1999/xlink">
<g id="Canvas" fill="none">
<g id="icon">
<g id="shape">
<path fill-rule="evenodd" clip-rule="evenodd" d="M 0 0L 64 0L 64 64L 0 64L 0 0Z" fill="white" fill-opacity="0.01"/>
</g>
<g id="Pencil">
<path d="M 48.4343 21.8771L 46.8719 21.8771C 46.0094 21.8771 45.3095 22.577 45.3095 23.4395L 45.3095 45.313L 4.68719 45.313L 4.68719 4.6907L 26.5607 4.6907C 27.4232 4.6907 28.1231 3.99153 28.1231 3.12831L 28.1231 1.56591C 28.1231 0.703469 27.4232 0.00351539 26.5607 0.00351539L 3.12479 0.00351539L 1.5624 0.00351539C 0.699172 0.00351539 0 0.702688 0 1.56591L 0 3.12831L 0 46.8754L 0 48.4378C 0 49.3002 0.699954 50.0002 1.5624 50.0002L 3.12479 50.0002L 46.8719 50.0002L 48.4343 50.0002C 49.2967 50.0002 49.9967 49.3002 49.9967 48.4378L 49.9967 46.8754L 49.9967 23.4395C 49.9967 22.577 49.2967 21.8771 48.4343 21.8771ZM 48.4343 46.8754L 48.4343 48.4378L 3.12479 48.4378L 1.5624 48.4378L 1.5624 1.56591L 3.12479 1.56591L 26.5607 1.56591L 26.5607 3.12831L 3.12479 3.12831L 3.12479 46.8754L 46.8719 46.8754L 46.8719 23.4395L 48.4343 23.4395L 48.4343 46.8754ZM 18.2082 27.886C 18.5144 28.1923 19.0089 28.1923 19.3151 27.886L 34.1563 13.0448C 34.4626 12.7386 34.4626 12.2441 34.1563 11.9379C 33.8509 11.6324 33.3556 11.6324 33.0501 11.9379L 18.2082 26.7799C 17.9027 27.0845 17.9027 27.5806 18.2082 27.886ZM 12.971 27.1884C 12.9648 27.2314 12.5968 27.4533 12.4968 27.947L 9.39938 39.6087C 9.38844 39.6478 9.39625 39.686 9.39156 39.7235C 9.38766 39.7407 9.39 39.7595 9.38844 39.7774C 9.3861 39.8009 9.37438 39.8212 9.37438 39.8446C 9.37438 39.8579 9.38141 39.8681 9.38141 39.8813C 9.38141 39.8845 9.38063 39.8876 9.38063 39.8907C 9.38219 39.9071 9.38063 39.9251 9.38297 39.9415C 9.38688 39.986 9.3775 40.029 9.39 40.0735C 9.45094 40.304 9.62124 40.4649 9.8306 40.5508C 9.84778 40.5586 9.86575 40.5641 9.88372 40.5704C 9.94465 40.5907 10.0064 40.6032 10.072 40.6086C 10.1009 40.6118 10.1251 40.625 10.1548 40.625L 39.8403 40.625C 40.2723 40.625 40.6215 40.2758 40.6215 39.8438C 40.6215 39.4118 40.2723 39.0626 39.8403 39.0626L 16.07 39.0626L 22.0563 37.444C 22.5532 37.3065 22.7516 37.0651 22.8125 37.0284L 42.8534 16.9875C 43.6994 17.3617 44.7228 17.2078 45.4157 16.5149C 46.1094 15.8212 46.2633 14.7986 45.8884 13.9526L 47.9617 11.8793C 50.6794 9.1615 50.6794 4.75554 47.9617 2.03776C 45.2447 -0.679252 40.8387 -0.679252 38.1209 2.03776L 36.0539 4.10481C 35.2016 3.71108 34.1626 3.85795 33.4603 4.56024C 32.758 5.26254 32.6111 6.30154 33.0048 7.15382L 12.971 27.1884ZM 11.2743 38.7681L 12.2554 35.3309L 14.6975 37.7729L 11.2743 38.7681ZM 16.5536 37.2339L 12.7874 33.4669L 14.0108 29.1852L 20.8072 35.998L 16.5536 37.2339ZM 39.1872 3.36814C 41.5394 1.01595 44.6455 1.01595 46.8031 3.17284C 48.96 5.32972 48.9108 8.48498 46.6078 10.7887C 46.6078 10.7887 45.4501 11.9473 44.7791 12.6191L 37.3585 5.19848C 38.0287 4.52665 39.1872 3.36814 39.1872 3.36814ZM 34.5954 5.69532C 34.8938 5.39769 35.3766 5.39769 35.6742 5.69532L 44.3057 14.3268C 44.6033 14.6244 44.6033 15.1072 44.3057 15.4056C 44.0072 15.7033 43.5245 15.7033 43.2268 15.4056L 34.5954 6.77338C 34.2977 6.47652 34.2977 5.99296 34.5954 5.69532ZM 34.1009 8.46155L 41.5215 15.8814C 36.4835 20.9271 28.7387 28.6821 22.2313 35.191L 14.8193 27.7595C 21.7759 20.8029 29.2207 13.3472 34.1009 8.46155ZM 22.1142 31.792C 22.4204 32.0983 22.9149 32.0983 23.2211 31.792L 38.0623 16.9508C 38.3685 16.6446 38.3685 16.1501 38.0623 15.8439C 37.7569 15.5384 37.2616 15.5384 36.9561 15.8439L 22.1142 30.6859C 21.8087 30.9905 21.8087 31.4866 22.1142 31.792Z" transform="translate(7 7)" fill="#E57361"/>
</g>
</g>
</g>
</svg>

