<svg width="228" height="30" viewBox="0 0 228 30" version="1.1" xmlns="http://www.w3.org/2000/svg" xmlns:xlink="http://www.w3.org/1999/xlink">
<g id="Canvas" fill="none">
<g id="yellow stars">
<g id="Star Icon">
<path fill-rule="evenodd" clip-rule="evenodd" d="M 15 0C 15.3576 0 15.6604 0.207756 15.7792 0.531351L 18.9403 9.19791C 19.0564 9.51647 19.3475 9.72045 19.6973 9.72801L 29.1936 9.96346C 29.5499 9.97228 29.8462 10.1838 29.9572 10.5112C 30.0681 10.836 29.9598 11.1747 29.6765 11.385L 22.1262 16.9906C 21.8508 17.1959 21.7412 17.522 21.839 17.8431L 24.5446 26.6721C 24.6451 27.002 24.5251 27.3381 24.2353 27.5396C 23.9456 27.7398 23.5762 27.7436 23.2826 27.5484L 15.4699 22.3382C 15.1814 22.1468 14.8186 22.1468 14.5301 22.3382L 6.71744 27.5484C 6.42378 27.7436 6.05442 27.7398 5.76467 27.5396C 5.47493 27.3381 5.35485 27.002 5.45535 26.6721L 8.16095 17.8431C 8.25884 17.522 8.14921 17.1959 7.87382 16.9906L 0.323455 11.385C 0.0402345 11.1747 -0.0680939 10.836 0.0428448 10.5112C 0.153784 10.1838 0.450055 9.97228 0.806365 9.96346L 10.3027 9.72801C 10.6525 9.72045 10.9436 9.51647 11.0597 9.19791L 14.2208 0.531351C 14.3396 0.207756 14.6424 0 15 0Z" transform="translate(197 1)" fill="#F0AD4E"/>
<path d="M 15 0C 15.3576 0 15.6604 0.207756 15.7792 0.531351L 18.9403 9.19791C 19.0564 9.51647 19.3475 9.72045 19.6973 9.72801L 29.1936 9.96346C 29.5499 9.97228 29.8462 10.1838 29.9572 10.5112C 30.0681 10.836 29.9598 11.1747 29.6765 11.385L 22.1262 16.9906C 21.8508 17.1959 21.7412 17.522 21.839 17.8431L 24.5446 26.6721C 24.6451 27.002 24.5251 27.3381 24.2353 27.5396C 23.9456 27.7398 23.5762 27.7436 23.2826 27.5484L 15.4699 22.3382C 15.1814 22.1468 14.8186 22.1468 14.5301 22.3382L 6.71744 27.5484C 6.42378 27.7436 6.05442 27.7398 5.76467 27.5396C 5.47493 27.3381 5.35485 27.002 5.45535 26.6721L 8.16095 17.8431C 8.25884 17.522 8.14921 17.1959 7.87382 16.9906L 0.323455 11.385C 0.0402345 11.1747 -0.0680939 10.836 0.0428448 10.5112C 0.153784 10.1838 0.450055 9.97228 0.806365 9.96346L 10.3027 9.72801C 10.6525 9.72045 10.9436 9.51647 11.0597 9.19791L 14.2208 0.531351C 14.3396 0.207756 14.6424 0 15 0Z" transform="translate(197 1)" stroke="#E3A44B"/>
</g>
<g id="Star Icon_2">
<path fill-rule="evenodd" clip-rule="evenodd" d="M 15 0C 15.3576 0 15.6604 0.207756 15.7792 0.531351L 18.9403 9.19791C 19.0564 9.51647 19.3475 9.72045 19.6973 9.72801L 29.1936 9.96346C 29.5499 9.97228 29.8462 10.1838 29.9572 10.5112C 30.0681 10.836 29.9598 11.1747 29.6765 11.385L 22.1262 16.9906C 21.8508 17.1959 21.7412 17.522 21.839 17.8431L 24.5446 26.6721C 24.6451 27.002 24.5251 27.3381 24.2353 27.5396C 23.9456 27.7398 23.5762 27.7436 23.2826 27.5484L 15.4699 22.3382C 15.1814 22.1468 14.8186 22.1468 14.5301 22.3382L 6.71744 27.5484C 6.42378 27.7436 6.05442 27.7398 5.76467 27.5396C 5.47493 27.3381 5.35485 27.002 5.45535 26.6721L 8.16095 17.8431C 8.25884 17.522 8.14921 17.1959 7.87382 16.9906L 0.323455 11.385C 0.0402345 11.1747 -0.0680939 10.836 0.0428448 10.5112C 0.153784 10.1838 0.450055 9.97228 0.806365 9.96346L 10.3027 9.72801C 10.6525 9.72045 10.9436 9.51647 11.0597 9.19791L 14.2208 0.531351C 14.3396 0.207756 14.6424 0 15 0Z" transform="translate(50 1)" fill="#F0AD4E"/>
<path d="M 15 0C 15.3576 0 15.6604 0.207756 15.7792 0.531351L 18.9403 9.19791C 19.0564 9.51647 19.3475 9.72045 19.6973 9.72801L 29.1936 9.96346C 29.5499 9.97228 29.8462 10.1838 29.9572 10.5112C 30.0681 10.836 29.9598 11.1747 29.6765 11.385L 22.1262 16.9906C 21.8508 17.1959 21.7412 17.522 21.839 17.8431L 24.5446 26.6721C 24.6451 27.002 24.5251 27.3381 24.2353 27.5396C 23.9456 27.7398 23.5762 27.7436 23.2826 27.5484L 15.4699 22.3382C 15.1814 22.1468 14.8186 22.1468 14.5301 22.3382L 6.71744 27.5484C 6.42378 27.7436 6.05442 27.7398 5.76467 27.5396C 5.47493 27.3381 5.35485 27.002 5.45535 26.6721L 8.16095 17.8431C 8.25884 17.522 8.14921 17.1959 7.87382 16.9906L 0.323455 11.385C 0.0402345 11.1747 -0.0680939 10.836 0.0428448 10.5112C 0.153784 10.1838 0.450055 9.97228 0.806365 9.96346L 10.3027 9.72801C 10.6525 9.72045 10.9436 9.51647 11.0597 9.19791L 14.2208 0.531351C 14.3396 0.207756 14.6424 0 15 0Z" transform="translate(50 1)" stroke="#E3A44B"/>
</g>
<g id="Star Icon_3">
<path fill-rule="evenodd" clip-rule="evenodd" d="M 15 0C 15.3576 0 15.6604 0.207756 15.7792 0.531351L 18.9403 9.19791C 19.0564 9.51647 19.3475 9.72045 19.6973 9.72801L 29.1936 9.96346C 29.5499 9.97228 29.8462 10.1838 29.9572 10.5112C 30.0681 10.836 29.9598 11.1747 29.6765 11.385L 22.1262 16.9906C 21.8508 17.1959 21.7412 17.522 21.839 17.8431L 24.5446 26.6721C 24.6451 27.002 24.5251 27.3381 24.2353 27.5396C 23.9456 27.7398 23.5762 27.7436 23.2826 27.5484L 15.4699 22.3382C 15.1814 22.1468 14.8186 22.1468 14.5301 22.3382L 6.71744 27.5484C 6.42378 27.7436 6.05442 27.7398 5.76467 27.5396C 5.47493 27.3381 5.35485 27.002 5.45535 26.6721L 8.16095 17.8431C 8.25884 17.522 8.14921 17.1959 7.87382 16.9906L 0.323455 11.385C 0.0402345 11.1747 -0.0680939 10.836 0.0428448 10.5112C 0.153784 10.1838 0.450055 9.97228 0.806365 9.96346L 10.3027 9.72801C 10.6525 9.72045 10.9436 9.51647 11.0597 9.19791L 14.2208 0.531351C 14.3396 0.207756 14.6424 0 15 0Z" transform="translate(99 1)" fill="#F0AD4E"/>
<path d="M 15 0C 15.3576 0 15.6604 0.207756 15.7792 0.531351L 18.9403 9.19791C 19.0564 9.51647 19.3475 9.72045 19.6973 9.72801L 29.1936 9.96346C 29.5499 9.97228 29.8462 10.1838 29.9572 10.5112C 30.0681 10.836 29.9598 11.1747 29.6765 11.385L 22.1262 16.9906C 21.8508 17.1959 21.7412 17.522 21.839 17.8431L 24.5446 26.6721C 24.6451 27.002 24.5251 27.3381 24.2353 27.5396C 23.9456 27.7398 23.5762 27.7436 23.2826 27.5484L 15.4699 22.3382C 15.1814 22.1468 14.8186 22.1468 14.5301 22.3382L 6.71744 27.5484C 6.42378 27.7436 6.05442 27.7398 5.76467 27.5396C 5.47493 27.3381 5.35485 27.002 5.45535 26.6721L 8.16095 17.8431C 8.25884 17.522 8.14921 17.1959 7.87382 16.9906L 0.323455 11.385C 0.0402345 11.1747 -0.0680939 10.836 0.0428448 10.5112C 0.153784 10.1838 0.450055 9.97228 0.806365 9.96346L 10.3027 9.72801C 10.6525 9.72045 10.9436 9.51647 11.0597 9.19791L 14.2208 0.531351C 14.3396 0.207756 14.6424 0 15 0Z" transform="translate(99 1)" stroke="#E3A44B"/>
</g>
<g id="Star Icon_4">
<path fill-rule="evenodd" clip-rule="evenodd" d="M 15 0C 15.3576 0 15.6604 0.207756 15.7792 0.531351L 18.9403 9.19791C 19.0564 9.51647 19.3475 9.72045 19.6973 9.72801L 29.1936 9.96346C 29.5499 9.97228 29.8462 10.1838 29.9572 10.5112C 30.0681 10.836 29.9598 11.1747 29.6765 11.385L 22.1262 16.9906C 21.8508 17.1959 21.7412 17.522 21.839 17.8431L 24.5446 26.6721C 24.6451 27.002 24.5251 27.3381 24.2353 27.5396C 23.9456 27.7398 23.5762 27.7436 23.2826 27.5484L 15.4699 22.3382C 15.1814 22.1468 14.8186 22.1468 14.5301 22.3382L 6.71744 27.5484C 6.42378 27.7436 6.05442 27.7398 5.76467 27.5396C 5.47493 27.3381 5.35485 27.002 5.45535 26.6721L 8.16095 17.8431C 8.25884 17.522 8.14921 17.1959 7.87382 16.9906L 0.323455 11.385C 0.0402345 11.1747 -0.0680939 10.836 0.0428448 10.5112C 0.153784 10.1838 0.450055 9.97228 0.806365 9.96346L 10.3027 9.72801C 10.6525 9.72045 10.9436 9.51647 11.0597 9.19791L 14.2208 0.531351C 14.3396 0.207756 14.6424 0 15 0Z" transform="translate(148 1)" fill="#F0AD4E"/>
<path d="M 15 0C 15.3576 0 15.6604 0.207756 15.7792 0.531351L 18.9403 9.19791C 19.0564 9.51647 19.3475 9.72045 19.6973 9.72801L 29.1936 9.96346C 29.5499 9.97228 29.8462 10.1838 29.9572 10.5112C 30.0681 10.836 29.9598 11.1747 29.6765 11.385L 22.1262 16.9906C 21.8508 17.1959 21.7412 17.522 21.839 17.8431L 24.5446 26.6721C 24.6451 27.002 24.5251 27.3381 24.2353 27.5396C 23.9456 27.7398 23.5762 27.7436 23.2826 27.5484L 15.4699 22.3382C 15.1814 22.1468 14.8186 22.1468 14.5301 22.3382L 6.71744 27.5484C 6.42378 27.7436 6.05442 27.7398 5.76467 27.5396C 5.47493 27.3381 5.35485 27.002 5.45535 26.6721L 8.16095 17.8431C 8.25884 17.522 8.14921 17.1959 7.87382 16.9906L 0.323455 11.385C 0.0402345 11.1747 -0.0680939 10.836 0.0428448 10.5112C 0.153784 10.1838 0.450055 9.97228 0.806365 9.96346L 10.3027 9.72801C 10.6525 9.72045 10.9436 9.51647 11.0597 9.19791L 14.2208 0.531351C 14.3396 0.207756 14.6424 0 15 0Z" transform="translate(148 1)" stroke="#E3A44B"/>
</g>
<g id="Star Icon_5">
<path fill-rule="evenodd" clip-rule="evenodd" d="M 15 0C 15.3576 0 15.6604 0.207756 15.7792 0.531351L 18.9403 9.19791C 19.0564 9.51647 19.3475 9.72045 19.6973 9.72801L 29.1936 9.96346C 29.5499 9.97228 29.8462 10.1838 29.9572 10.5112C 30.0681 10.836 29.9598 11.1747 29.6765 11.385L 22.1262 16.9906C 21.8508 17.1959 21.7412 17.522 21.839 17.8431L 24.5446 26.6721C 24.6451 27.002 24.5251 27.3381 24.2353 27.5396C 23.9456 27.7398 23.5762 27.7436 23.2826 27.5484L 15.4699 22.3382C 15.1814 22.1468 14.8186 22.1468 14.5301 22.3382L 6.71744 27.5484C 6.42378 27.7436 6.05442 27.7398 5.76467 27.5396C 5.47493 27.3381 5.35485 27.002 5.45535 26.6721L 8.16095 17.8431C 8.25884 17.522 8.14921 17.1959 7.87382 16.9906L 0.323455 11.385C 0.0402345 11.1747 -0.0680939 10.836 0.0428448 10.5112C 0.153784 10.1838 0.450055 9.97228 0.806365 9.96346L 10.3027 9.72801C 10.6525 9.72045 10.9436 9.51647 11.0597 9.19791L 14.2208 0.531351C 14.3396 0.207756 14.6424 0 15 0Z" transform="translate(1 1)" fill="#F0AD4E"/>
<path d="M 15 0C 15.3576 0 15.6604 0.207756 15.7792 0.531351L 18.9403 9.19791C 19.0564 9.51647 19.3475 9.72045 19.6973 9.72801L 29.1936 9.96346C 29.5499 9.97228 29.8462 10.1838 29.9572 10.5112C 30.0681 10.836 29.9598 11.1747 29.6765 11.385L 22.1262 16.9906C 21.8508 17.1959 21.7412 17.522 21.839 17.8431L 24.5446 26.6721C 24.6451 27.002 24.5251 27.3381 24.2353 27.5396C 23.9456 27.7398 23.5762 27.7436 23.2826 27.5484L 15.4699 22.3382C 15.1814 22.1468 14.8186 22.1468 14.5301 22.3382L 6.71744 27.5484C 6.42378 27.7436 6.05442 27.7398 5.76467 27.5396C 5.47493 27.3381 5.35485 27.002 5.45535 26.6721L 8.16095 17.8431C 8.25884 17.522 8.14921 17.1959 7.87382 16.9906L 0.323455 11.385C 0.0402345 11.1747 -0.0680939 10.836 0.0428448 10.5112C 0.153784 10.1838 0.450055 9.97228 0.806365 9.96346L 10.3027 9.72801C 10.6525 9.72045 10.9436 9.51647 11.0597 9.19791L 14.2208 0.531351C 14.3396 0.207756 14.6424 0 15 0Z" transform="translate(1 1)" stroke="#E3A44B"/>
</g>
</g>
</g>
</svg>

