<?xml version="1.0" encoding="UTF-8" standalone="no"?><!DOCTYPE svg PUBLIC "-//W3C//DTD SVG 1.1//EN" "http://www.w3.org/Graphics/SVG/1.1/DTD/svg11.dtd"><svg width="100%" height="100%" viewBox="0 0 73 12" version="1.1" xmlns="http://www.w3.org/2000/svg" xmlns:xlink="http://www.w3.org/1999/xlink" xml:space="preserve" style="fill-rule:evenodd;clip-rule:evenodd;stroke-miterlimit:10;"><g><clipPath id="_clip1"><path d="M39.5,-20.5l54,0l0,53l-54,0l0,-53Zm27,21c-0.053,0 -0.11,-0.039 -0.132,-0.097l1.37,3.754c0.121,0.334 0.431,0.551 0.787,0.558l4.113,0.102c-0.052,-0.001 -0.11,-0.042 -0.13,-0.102c-0.022,-0.065 0.003,-0.145 0.054,-0.183l-3.272,2.429c-0.288,0.215 -0.409,0.574 -0.305,0.917l1.173,3.826c-0.021,-0.067 0.007,-0.145 0.059,-0.181c0.043,-0.03 0.106,-0.031 0.149,-0.002l-3.385,-2.257c-0.293,-0.195 -0.669,-0.195 -0.961,-0.001l-3.387,2.259c0.044,-0.03 0.107,-0.029 0.149,0c0.053,0.037 0.081,0.115 0.06,0.182l1.172,-3.826c0.105,-0.343 -0.016,-0.702 -0.303,-0.916l-3.273,-2.43c0.051,0.038 0.076,0.118 0.054,0.184c-0.02,0.059 -0.078,0.1 -0.13,0.101l4.115,-0.102c0.354,-0.007 0.664,-0.224 0.785,-0.558l1.37,-3.755c-0.022,0.059 -0.079,0.098 -0.132,0.098Zm0,-1c-0.362,0 -0.682,0.219 -0.807,0.558l-1.37,3.756c0.021,-0.057 0.078,-0.097 0.131,-0.098l-4.117,0.102c-0.362,0.009 -0.676,0.234 -0.792,0.576c-0.119,0.348 0.001,0.721 0.297,0.941l3.272,2.429c-0.05,-0.037 -0.075,-0.114 -0.056,-0.178l-1.172,3.825c-0.108,0.353 0.024,0.723 0.327,0.933c0.295,0.204 0.677,0.208 0.975,0.01l3.386,-2.258c-0.044,0.029 -0.104,0.029 -0.147,0l3.385,2.258c0.298,0.198 0.68,0.194 0.974,-0.009c0.304,-0.211 0.436,-0.581 0.328,-0.933l-1.172,-3.826c0.019,0.064 -0.006,0.141 -0.055,0.178l3.271,-2.429c0.296,-0.22 0.416,-0.593 0.297,-0.942c-0.116,-0.341 -0.43,-0.566 -0.792,-0.575l-4.115,-0.102c0.051,0.001 0.108,0.041 0.129,0.098l-1.37,-3.755c-0.124,-0.34 -0.445,-0.559 -0.807,-0.559Z"/></clipPath><g clip-path="url(#_clip1)"><clipPath id="_clip2"><path d="M66.5,0c0.155,0 0.286,0.09 0.338,0.23l1.369,3.756c0.051,0.138 0.177,0.226 0.328,0.229l4.116,0.103c0.154,0.003 0.282,0.095 0.33,0.237c0.049,0.141 0.002,0.287 -0.121,0.379l-3.272,2.429c-0.119,0.089 -0.167,0.23 -0.124,0.369l1.172,3.826c0.044,0.143 -0.008,0.289 -0.134,0.376c-0.126,0.087 -0.286,0.088 -0.413,0.004l-3.385,-2.258c-0.125,-0.083 -0.283,-0.083 -0.408,0l-3.385,2.258c-0.127,0.084 -0.287,0.083 -0.413,-0.004c-0.126,-0.087 -0.178,-0.233 -0.134,-0.376l1.172,-3.826c0.043,-0.139 -0.005,-0.28 -0.124,-0.369l-3.272,-2.429c-0.123,-0.092 -0.17,-0.238 -0.121,-0.379c0.048,-0.142 0.176,-0.234 0.33,-0.237l4.116,-0.103c0.151,-0.003 0.277,-0.091 0.328,-0.229l1.369,-3.756c0.052,-0.14 0.183,-0.23 0.338,-0.23Z"/></clipPath><g clip-path="url(#_clip2)"><path d="M66.5,0c0.155,0 0.286,0.09 0.338,0.23l1.369,3.756c0.051,0.138 0.177,0.226 0.328,0.229l4.116,0.103c0.154,0.003 0.282,0.095 0.33,0.237c0.049,0.141 0.002,0.287 -0.121,0.379l-3.272,2.429c-0.119,0.089 -0.167,0.23 -0.124,0.369l1.172,3.826c0.044,0.143 -0.008,0.289 -0.134,0.376c-0.126,0.087 -0.286,0.088 -0.413,0.004l-3.385,-2.258c-0.125,-0.083 -0.283,-0.083 -0.408,0l-3.385,2.258c-0.127,0.084 -0.287,0.083 -0.413,-0.004c-0.126,-0.087 -0.178,-0.233 -0.134,-0.376l1.172,-3.826c0.043,-0.139 -0.005,-0.28 -0.124,-0.369l-3.272,-2.429c-0.123,-0.092 -0.17,-0.238 -0.121,-0.379c0.048,-0.142 0.176,-0.234 0.33,-0.237l4.116,-0.103c0.151,-0.003 0.277,-0.091 0.328,-0.229l1.369,-3.756c0.052,-0.14 0.183,-0.23 0.338,-0.23Z" style="fill:#e5e5e5;fill-rule:nonzero;"/></g></g></g><clipPath id="_clip3"><path d="M66.5,0c0.155,0 0.286,0.09 0.338,0.23l1.369,3.756c0.051,0.138 0.177,0.226 0.328,0.229l4.116,0.103c0.154,0.003 0.282,0.095 0.33,0.237c0.049,0.141 0.002,0.287 -0.121,0.379l-3.272,2.429c-0.119,0.089 -0.167,0.23 -0.124,0.369l1.172,3.826c0.044,0.143 -0.008,0.289 -0.134,0.376c-0.126,0.087 -0.286,0.088 -0.413,0.004l-3.385,-2.258c-0.125,-0.083 -0.283,-0.083 -0.408,0l-3.385,2.258c-0.127,0.084 -0.287,0.083 -0.413,-0.004c-0.126,-0.087 -0.178,-0.233 -0.134,-0.376l1.172,-3.826c0.043,-0.139 -0.005,-0.28 -0.124,-0.369l-3.272,-2.429c-0.123,-0.092 -0.17,-0.238 -0.121,-0.379c0.048,-0.142 0.176,-0.234 0.33,-0.237l4.116,-0.103c0.151,-0.003 0.277,-0.091 0.328,-0.229l1.369,-3.756c0.052,-0.14 0.183,-0.23 0.338,-0.23Z"/></clipPath><g clip-path="url(#_clip3)"><path d="M66.5,0c0.155,0 0.286,0.09 0.338,0.23l1.369,3.756c0.051,0.138 0.177,0.226 0.328,0.229l4.116,0.103c0.154,0.003 0.282,0.095 0.33,0.237c0.049,0.141 0.002,0.287 -0.121,0.379l-3.272,2.429c-0.119,0.089 -0.167,0.23 -0.124,0.369l1.172,3.826c0.044,0.143 -0.008,0.289 -0.134,0.376c-0.126,0.087 -0.286,0.088 -0.413,0.004l-3.385,-2.258c-0.125,-0.083 -0.283,-0.083 -0.408,0l-3.385,2.258c-0.127,0.084 -0.287,0.083 -0.413,-0.004c-0.126,-0.087 -0.178,-0.233 -0.134,-0.376l1.172,-3.826c0.043,-0.139 -0.005,-0.28 -0.124,-0.369l-3.272,-2.429c-0.123,-0.092 -0.17,-0.238 -0.121,-0.379c0.048,-0.142 0.176,-0.234 0.33,-0.237l4.116,-0.103c0.151,-0.003 0.277,-0.091 0.328,-0.229l1.369,-3.756c0.052,-0.14 0.183,-0.23 0.338,-0.23Z" style="fill:none;stroke:#d9d9d9;stroke-width:2px;"/></g><g><clipPath id="_clip4"><path d="M24.5,-20.5l54,0l0,53l-54,0l0,-53Zm27,21c-0.053,0 -0.11,-0.039 -0.132,-0.097l1.37,3.754c0.121,0.334 0.431,0.551 0.787,0.558l4.113,0.102c-0.052,-0.001 -0.11,-0.042 -0.13,-0.102c-0.022,-0.065 0.003,-0.145 0.054,-0.183l-3.272,2.429c-0.288,0.215 -0.409,0.574 -0.305,0.917l1.173,3.826c-0.021,-0.067 0.007,-0.145 0.059,-0.181c0.043,-0.03 0.106,-0.031 0.149,-0.002l-3.385,-2.257c-0.293,-0.195 -0.669,-0.195 -0.961,-0.001l-3.387,2.259c0.044,-0.03 0.107,-0.029 0.149,0c0.053,0.037 0.081,0.115 0.06,0.182l1.172,-3.826c0.105,-0.343 -0.016,-0.702 -0.303,-0.916l-3.273,-2.43c0.051,0.038 0.076,0.118 0.054,0.184c-0.02,0.059 -0.078,0.1 -0.13,0.101l4.115,-0.102c0.354,-0.007 0.664,-0.224 0.785,-0.558l1.37,-3.755c-0.022,0.059 -0.079,0.098 -0.132,0.098Zm0,-1c-0.362,0 -0.683,0.219 -0.807,0.558l-1.37,3.756c0.021,-0.057 0.078,-0.097 0.131,-0.098l-4.117,0.102c-0.362,0.009 -0.676,0.234 -0.792,0.576c-0.119,0.348 0.001,0.721 0.297,0.941l3.272,2.429c-0.05,-0.037 -0.075,-0.114 -0.056,-0.178l-1.172,3.825c-0.108,0.353 0.024,0.723 0.327,0.933c0.295,0.204 0.677,0.208 0.975,0.01l3.386,-2.258c-0.044,0.029 -0.104,0.029 -0.147,0l3.385,2.258c0.298,0.198 0.68,0.194 0.974,-0.009c0.304,-0.211 0.436,-0.581 0.328,-0.933l-1.172,-3.826c0.019,0.064 -0.006,0.141 -0.055,0.178l3.271,-2.429c0.296,-0.22 0.416,-0.593 0.297,-0.942c-0.116,-0.341 -0.43,-0.566 -0.792,-0.575l-4.115,-0.102c0.051,0.001 0.108,0.041 0.129,0.098l-1.37,-3.755c-0.124,-0.34 -0.445,-0.559 -0.807,-0.559Z"/></clipPath><g clip-path="url(#_clip4)"><clipPath id="_clip5"><path d="M51.5,0c0.155,0 0.286,0.09 0.338,0.23l1.369,3.756c0.051,0.138 0.177,0.226 0.328,0.229l4.116,0.103c0.154,0.003 0.282,0.095 0.33,0.237c0.049,0.141 0.002,0.287 -0.121,0.379l-3.272,2.429c-0.119,0.089 -0.167,0.23 -0.124,0.369l1.172,3.826c0.044,0.143 -0.008,0.289 -0.134,0.376c-0.126,0.087 -0.286,0.088 -0.413,0.004l-3.385,-2.258c-0.125,-0.083 -0.283,-0.083 -0.408,0l-3.385,2.258c-0.127,0.084 -0.287,0.083 -0.413,-0.004c-0.126,-0.087 -0.178,-0.233 -0.134,-0.376l1.172,-3.826c0.043,-0.139 -0.005,-0.28 -0.124,-0.369l-3.272,-2.429c-0.123,-0.092 -0.17,-0.238 -0.121,-0.379c0.048,-0.142 0.176,-0.234 0.33,-0.237l4.116,-0.103c0.151,-0.003 0.277,-0.091 0.328,-0.229l1.369,-3.756c0.052,-0.14 0.183,-0.23 0.338,-0.23Z"/></clipPath><g clip-path="url(#_clip5)"><path d="M51.5,0c0.155,0 0.286,0.09 0.338,0.23l1.369,3.756c0.051,0.138 0.177,0.226 0.328,0.229l4.116,0.103c0.154,0.003 0.282,0.095 0.33,0.237c0.049,0.141 0.002,0.287 -0.121,0.379l-3.272,2.429c-0.119,0.089 -0.167,0.23 -0.124,0.369l1.172,3.826c0.044,0.143 -0.008,0.289 -0.134,0.376c-0.126,0.087 -0.286,0.088 -0.413,0.004l-3.385,-2.258c-0.125,-0.083 -0.283,-0.083 -0.408,0l-3.385,2.258c-0.127,0.084 -0.287,0.083 -0.413,-0.004c-0.126,-0.087 -0.178,-0.233 -0.134,-0.376l1.172,-3.826c0.043,-0.139 -0.005,-0.28 -0.124,-0.369l-3.272,-2.429c-0.123,-0.092 -0.17,-0.238 -0.121,-0.379c0.048,-0.142 0.176,-0.234 0.33,-0.237l4.116,-0.103c0.151,-0.003 0.277,-0.091 0.328,-0.229l1.369,-3.756c0.052,-0.14 0.183,-0.23 0.338,-0.23Z" style="fill:#e5e5e5;fill-rule:nonzero;"/></g></g></g><clipPath id="_clip6"><path d="M51.5,0c0.155,0 0.286,0.09 0.338,0.23l1.369,3.756c0.051,0.138 0.177,0.226 0.328,0.229l4.116,0.103c0.154,0.003 0.282,0.095 0.33,0.237c0.049,0.141 0.002,0.287 -0.121,0.379l-3.272,2.429c-0.119,0.089 -0.167,0.23 -0.124,0.369l1.172,3.826c0.044,0.143 -0.008,0.289 -0.134,0.376c-0.126,0.087 -0.286,0.088 -0.413,0.004l-3.385,-2.258c-0.125,-0.083 -0.283,-0.083 -0.408,0l-3.385,2.258c-0.127,0.084 -0.287,0.083 -0.413,-0.004c-0.126,-0.087 -0.178,-0.233 -0.134,-0.376l1.172,-3.826c0.043,-0.139 -0.005,-0.28 -0.124,-0.369l-3.272,-2.429c-0.123,-0.092 -0.17,-0.238 -0.121,-0.379c0.048,-0.142 0.176,-0.234 0.33,-0.237l4.116,-0.103c0.151,-0.003 0.277,-0.091 0.328,-0.229l1.369,-3.756c0.052,-0.14 0.183,-0.23 0.338,-0.23Z"/></clipPath><g clip-path="url(#_clip6)"><path d="M51.5,0c0.155,0 0.286,0.09 0.338,0.23l1.369,3.756c0.051,0.138 0.177,0.226 0.328,0.229l4.116,0.103c0.154,0.003 0.282,0.095 0.33,0.237c0.049,0.141 0.002,0.287 -0.121,0.379l-3.272,2.429c-0.119,0.089 -0.167,0.23 -0.124,0.369l1.172,3.826c0.044,0.143 -0.008,0.289 -0.134,0.376c-0.126,0.087 -0.286,0.088 -0.413,0.004l-3.385,-2.258c-0.125,-0.083 -0.283,-0.083 -0.408,0l-3.385,2.258c-0.127,0.084 -0.287,0.083 -0.413,-0.004c-0.126,-0.087 -0.178,-0.233 -0.134,-0.376l1.172,-3.826c0.043,-0.139 -0.005,-0.28 -0.124,-0.369l-3.272,-2.429c-0.123,-0.092 -0.17,-0.238 -0.121,-0.379c0.048,-0.142 0.176,-0.234 0.33,-0.237l4.116,-0.103c0.151,-0.003 0.277,-0.091 0.328,-0.229l1.369,-3.756c0.052,-0.14 0.183,-0.23 0.338,-0.23Z" style="fill:none;stroke:#d9d9d9;stroke-width:2px;"/></g><g><clipPath id="_clip7"><path d="M9.5,-20.5l54,0l0,53l-54,0l0,-53Zm27,21c-0.053,0 -0.11,-0.039 -0.132,-0.097l1.37,3.754c0.121,0.334 0.431,0.551 0.787,0.558l4.113,0.102c-0.052,-0.001 -0.11,-0.042 -0.13,-0.102c-0.022,-0.065 0.003,-0.145 0.054,-0.183l-3.272,2.429c-0.288,0.215 -0.409,0.574 -0.305,0.917l1.173,3.826c-0.021,-0.067 0.007,-0.145 0.059,-0.181c0.043,-0.03 0.106,-0.031 0.149,-0.002l-3.385,-2.257c-0.293,-0.195 -0.669,-0.195 -0.961,-0.001l-3.387,2.259c0.044,-0.03 0.107,-0.029 0.149,0c0.053,0.037 0.081,0.115 0.06,0.182l1.172,-3.826c0.105,-0.343 -0.016,-0.702 -0.303,-0.916l-3.273,-2.43c0.051,0.038 0.076,0.118 0.054,0.184c-0.02,0.059 -0.078,0.1 -0.13,0.101l4.115,-0.102c0.354,-0.007 0.664,-0.224 0.785,-0.558l1.37,-3.755c-0.022,0.059 -0.079,0.098 -0.132,0.098Zm0,-1c-0.362,0 -0.683,0.219 -0.807,0.558l-1.37,3.756c0.021,-0.057 0.078,-0.097 0.131,-0.098l-4.117,0.102c-0.362,0.009 -0.676,0.234 -0.792,0.576c-0.119,0.348 0.001,0.721 0.297,0.941l3.272,2.429c-0.05,-0.037 -0.075,-0.114 -0.056,-0.178l-1.172,3.825c-0.108,0.353 0.024,0.723 0.327,0.933c0.295,0.204 0.677,0.208 0.975,0.01l3.386,-2.258c-0.044,0.029 -0.104,0.029 -0.147,0l3.385,2.258c0.298,0.198 0.68,0.194 0.974,-0.009c0.304,-0.211 0.436,-0.581 0.328,-0.933l-1.172,-3.826c0.019,0.064 -0.006,0.141 -0.055,0.178l3.271,-2.429c0.296,-0.22 0.416,-0.593 0.297,-0.942c-0.116,-0.341 -0.43,-0.566 -0.792,-0.575l-4.115,-0.102c0.051,0.001 0.108,0.041 0.129,0.098l-1.37,-3.755c-0.124,-0.34 -0.445,-0.559 -0.807,-0.559Z"/></clipPath><g clip-path="url(#_clip7)"><clipPath id="_clip8"><path d="M36.5,0c0.155,0 0.286,0.09 0.338,0.23l1.369,3.756c0.051,0.138 0.177,0.226 0.328,0.229l4.116,0.103c0.154,0.003 0.282,0.095 0.33,0.237c0.049,0.141 0.002,0.287 -0.121,0.379l-3.272,2.429c-0.119,0.089 -0.167,0.23 -0.124,0.369l1.172,3.826c0.044,0.143 -0.008,0.289 -0.134,0.376c-0.126,0.087 -0.286,0.088 -0.413,0.004l-3.385,-2.258c-0.125,-0.083 -0.283,-0.083 -0.408,0l-3.385,2.258c-0.127,0.084 -0.287,0.083 -0.413,-0.004c-0.126,-0.087 -0.178,-0.233 -0.134,-0.376l1.172,-3.826c0.043,-0.139 -0.005,-0.28 -0.124,-0.369l-3.272,-2.429c-0.123,-0.092 -0.17,-0.238 -0.121,-0.379c0.048,-0.142 0.176,-0.234 0.33,-0.237l4.116,-0.103c0.151,-0.003 0.277,-0.091 0.328,-0.229l1.369,-3.756c0.052,-0.14 0.183,-0.23 0.338,-0.23Z"/></clipPath><g clip-path="url(#_clip8)"><path d="M36.5,0c0.155,0 0.286,0.09 0.338,0.23l1.369,3.756c0.051,0.138 0.177,0.226 0.328,0.229l4.116,0.103c0.154,0.003 0.282,0.095 0.33,0.237c0.049,0.141 0.002,0.287 -0.121,0.379l-3.272,2.429c-0.119,0.089 -0.167,0.23 -0.124,0.369l1.172,3.826c0.044,0.143 -0.008,0.289 -0.134,0.376c-0.126,0.087 -0.286,0.088 -0.413,0.004l-3.385,-2.258c-0.125,-0.083 -0.283,-0.083 -0.408,0l-3.385,2.258c-0.127,0.084 -0.287,0.083 -0.413,-0.004c-0.126,-0.087 -0.178,-0.233 -0.134,-0.376l1.172,-3.826c0.043,-0.139 -0.005,-0.28 -0.124,-0.369l-3.272,-2.429c-0.123,-0.092 -0.17,-0.238 -0.121,-0.379c0.048,-0.142 0.176,-0.234 0.33,-0.237l4.116,-0.103c0.151,-0.003 0.277,-0.091 0.328,-0.229l1.369,-3.756c0.052,-0.14 0.183,-0.23 0.338,-0.23Z" style="fill:#e5e5e5;fill-rule:nonzero;"/></g></g></g><clipPath id="_clip9"><path d="M36.5,0c0.155,0 0.286,0.09 0.338,0.23l1.369,3.756c0.051,0.138 0.177,0.226 0.328,0.229l4.116,0.103c0.154,0.003 0.282,0.095 0.33,0.237c0.049,0.141 0.002,0.287 -0.121,0.379l-3.272,2.429c-0.119,0.089 -0.167,0.23 -0.124,0.369l1.172,3.826c0.044,0.143 -0.008,0.289 -0.134,0.376c-0.126,0.087 -0.286,0.088 -0.413,0.004l-3.385,-2.258c-0.125,-0.083 -0.283,-0.083 -0.408,0l-3.385,2.258c-0.127,0.084 -0.287,0.083 -0.413,-0.004c-0.126,-0.087 -0.178,-0.233 -0.134,-0.376l1.172,-3.826c0.043,-0.139 -0.005,-0.28 -0.124,-0.369l-3.272,-2.429c-0.123,-0.092 -0.17,-0.238 -0.121,-0.379c0.048,-0.142 0.176,-0.234 0.33,-0.237l4.116,-0.103c0.151,-0.003 0.277,-0.091 0.328,-0.229l1.369,-3.756c0.052,-0.14 0.183,-0.23 0.338,-0.23Z"/></clipPath><g clip-path="url(#_clip9)"><path d="M36.5,0c0.155,0 0.286,0.09 0.338,0.23l1.369,3.756c0.051,0.138 0.177,0.226 0.328,0.229l4.116,0.103c0.154,0.003 0.282,0.095 0.33,0.237c0.049,0.141 0.002,0.287 -0.121,0.379l-3.272,2.429c-0.119,0.089 -0.167,0.23 -0.124,0.369l1.172,3.826c0.044,0.143 -0.008,0.289 -0.134,0.376c-0.126,0.087 -0.286,0.088 -0.413,0.004l-3.385,-2.258c-0.125,-0.083 -0.283,-0.083 -0.408,0l-3.385,2.258c-0.127,0.084 -0.287,0.083 -0.413,-0.004c-0.126,-0.087 -0.178,-0.233 -0.134,-0.376l1.172,-3.826c0.043,-0.139 -0.005,-0.28 -0.124,-0.369l-3.272,-2.429c-0.123,-0.092 -0.17,-0.238 -0.121,-0.379c0.048,-0.142 0.176,-0.234 0.33,-0.237l4.116,-0.103c0.151,-0.003 0.277,-0.091 0.328,-0.229l1.369,-3.756c0.052,-0.14 0.183,-0.23 0.338,-0.23Z" style="fill:none;stroke:#d9d9d9;stroke-width:2px;"/></g><g><clipPath id="_clip10"><path d="M-5.5,-20.5l54,0l0,53l-54,0l0,-53Zm27,21c-0.053,0 -0.11,-0.039 -0.132,-0.097l1.37,3.754c0.121,0.334 0.431,0.551 0.787,0.558l4.113,0.102c-0.052,-0.001 -0.11,-0.042 -0.13,-0.102c-0.022,-0.065 0.003,-0.145 0.054,-0.183l-3.272,2.429c-0.288,0.215 -0.409,0.574 -0.305,0.917l1.173,3.826c-0.021,-0.067 0.007,-0.145 0.059,-0.181c0.043,-0.03 0.106,-0.031 0.149,-0.002l-3.385,-2.257c-0.293,-0.195 -0.669,-0.195 -0.961,-0.001l-3.387,2.259c0.044,-0.03 0.107,-0.029 0.149,0c0.053,0.037 0.081,0.115 0.06,0.182l1.172,-3.826c0.105,-0.343 -0.016,-0.702 -0.303,-0.916l-3.273,-2.43c0.051,0.038 0.076,0.118 0.054,0.184c-0.02,0.059 -0.078,0.1 -0.13,0.101l4.115,-0.102c0.354,-0.007 0.664,-0.224 0.785,-0.558l1.37,-3.755c-0.022,0.059 -0.079,0.098 -0.132,0.098Zm0,-1c-0.362,0 -0.683,0.219 -0.807,0.558l-1.37,3.756c0.021,-0.057 0.078,-0.097 0.131,-0.098l-4.117,0.102c-0.362,0.009 -0.676,0.234 -0.792,0.576c-0.119,0.348 0.001,0.721 0.297,0.941l3.272,2.429c-0.05,-0.037 -0.075,-0.114 -0.056,-0.178l-1.172,3.825c-0.108,0.353 0.024,0.723 0.327,0.933c0.295,0.204 0.677,0.208 0.975,0.01l3.386,-2.258c-0.044,0.029 -0.104,0.029 -0.147,0l3.385,2.258c0.298,0.198 0.68,0.194 0.974,-0.009c0.304,-0.211 0.436,-0.581 0.328,-0.933l-1.172,-3.826c0.019,0.064 -0.006,0.141 -0.055,0.178l3.271,-2.429c0.296,-0.22 0.416,-0.593 0.297,-0.942c-0.116,-0.341 -0.43,-0.566 -0.792,-0.575l-4.115,-0.102c0.051,0.001 0.108,0.041 0.129,0.098l-1.37,-3.755c-0.125,-0.34 -0.445,-0.559 -0.807,-0.559Z"/></clipPath><g clip-path="url(#_clip10)"><clipPath id="_clip11"><path d="M21.5,0c0.155,0 0.286,0.09 0.338,0.23l1.369,3.756c0.051,0.138 0.177,0.226 0.328,0.229l4.116,0.103c0.154,0.003 0.282,0.095 0.33,0.237c0.049,0.141 0.002,0.287 -0.121,0.379l-3.272,2.429c-0.119,0.089 -0.167,0.23 -0.124,0.369l1.172,3.826c0.044,0.143 -0.008,0.289 -0.134,0.376c-0.126,0.087 -0.286,0.088 -0.413,0.004l-3.385,-2.258c-0.125,-0.083 -0.283,-0.083 -0.408,0l-3.385,2.258c-0.127,0.084 -0.287,0.083 -0.413,-0.004c-0.126,-0.087 -0.178,-0.233 -0.134,-0.376l1.172,-3.826c0.043,-0.139 -0.005,-0.28 -0.124,-0.369l-3.272,-2.429c-0.123,-0.092 -0.17,-0.238 -0.121,-0.379c0.048,-0.142 0.176,-0.234 0.33,-0.237l4.116,-0.103c0.151,-0.003 0.277,-0.091 0.328,-0.229l1.369,-3.756c0.052,-0.14 0.183,-0.23 0.338,-0.23Z"/></clipPath><g clip-path="url(#_clip11)"><path d="M21.5,0c0.155,0 0.286,0.09 0.338,0.23l1.369,3.756c0.051,0.138 0.177,0.226 0.328,0.229l4.116,0.103c0.154,0.003 0.282,0.095 0.33,0.237c0.049,0.141 0.002,0.287 -0.121,0.379l-3.272,2.429c-0.119,0.089 -0.167,0.23 -0.124,0.369l1.172,3.826c0.044,0.143 -0.008,0.289 -0.134,0.376c-0.126,0.087 -0.286,0.088 -0.413,0.004l-3.385,-2.258c-0.125,-0.083 -0.283,-0.083 -0.408,0l-3.385,2.258c-0.127,0.084 -0.287,0.083 -0.413,-0.004c-0.126,-0.087 -0.178,-0.233 -0.134,-0.376l1.172,-3.826c0.043,-0.139 -0.005,-0.28 -0.124,-0.369l-3.272,-2.429c-0.123,-0.092 -0.17,-0.238 -0.121,-0.379c0.048,-0.142 0.176,-0.234 0.33,-0.237l4.116,-0.103c0.151,-0.003 0.277,-0.091 0.328,-0.229l1.369,-3.756c0.052,-0.14 0.183,-0.23 0.338,-0.23Z" style="fill:#e5e5e5;fill-rule:nonzero;"/></g></g></g><clipPath id="_clip12"><path d="M21.5,0c0.155,0 0.286,0.09 0.338,0.23l1.369,3.756c0.051,0.138 0.177,0.226 0.328,0.229l4.116,0.103c0.154,0.003 0.282,0.095 0.33,0.237c0.049,0.141 0.002,0.287 -0.121,0.379l-3.272,2.429c-0.119,0.089 -0.167,0.23 -0.124,0.369l1.172,3.826c0.044,0.143 -0.008,0.289 -0.134,0.376c-0.126,0.087 -0.286,0.088 -0.413,0.004l-3.385,-2.258c-0.125,-0.083 -0.283,-0.083 -0.408,0l-3.385,2.258c-0.127,0.084 -0.287,0.083 -0.413,-0.004c-0.126,-0.087 -0.178,-0.233 -0.134,-0.376l1.172,-3.826c0.043,-0.139 -0.005,-0.28 -0.124,-0.369l-3.272,-2.429c-0.123,-0.092 -0.17,-0.238 -0.121,-0.379c0.048,-0.142 0.176,-0.234 0.33,-0.237l4.116,-0.103c0.151,-0.003 0.277,-0.091 0.328,-0.229l1.369,-3.756c0.052,-0.14 0.183,-0.23 0.338,-0.23Z"/></clipPath><g clip-path="url(#_clip12)"><path d="M21.5,0c0.155,0 0.286,0.09 0.338,0.23l1.369,3.756c0.051,0.138 0.177,0.226 0.328,0.229l4.116,0.103c0.154,0.003 0.282,0.095 0.33,0.237c0.049,0.141 0.002,0.287 -0.121,0.379l-3.272,2.429c-0.119,0.089 -0.167,0.23 -0.124,0.369l1.172,3.826c0.044,0.143 -0.008,0.289 -0.134,0.376c-0.126,0.087 -0.286,0.088 -0.413,0.004l-3.385,-2.258c-0.125,-0.083 -0.283,-0.083 -0.408,0l-3.385,2.258c-0.127,0.084 -0.287,0.083 -0.413,-0.004c-0.126,-0.087 -0.178,-0.233 -0.134,-0.376l1.172,-3.826c0.043,-0.139 -0.005,-0.28 -0.124,-0.369l-3.272,-2.429c-0.123,-0.092 -0.17,-0.238 -0.121,-0.379c0.048,-0.142 0.176,-0.234 0.33,-0.237l4.116,-0.103c0.151,-0.003 0.277,-0.091 0.328,-0.229l1.369,-3.756c0.052,-0.14 0.183,-0.23 0.338,-0.23Z" style="fill:none;stroke:#d9d9d9;stroke-width:2px;"/></g><g><clipPath id="_clip13"><path d="M-20.5,-20.5l54,0l0,53l-54,0l0,-53Zm27,21c-0.053,0 -0.11,-0.039 -0.132,-0.097l1.37,3.754c0.121,0.334 0.431,0.551 0.787,0.558l4.113,0.102c-0.052,-0.001 -0.11,-0.042 -0.13,-0.102c-0.022,-0.065 0.003,-0.145 0.054,-0.183l-3.272,2.429c-0.288,0.215 -0.409,0.574 -0.305,0.917l1.173,3.826c-0.021,-0.067 0.007,-0.145 0.059,-0.181c0.043,-0.03 0.106,-0.031 0.149,-0.002l-3.385,-2.257c-0.293,-0.195 -0.669,-0.195 -0.961,-0.001l-3.387,2.259c0.044,-0.03 0.107,-0.029 0.149,0c0.053,0.037 0.081,0.115 0.06,0.182l1.172,-3.826c0.105,-0.343 -0.016,-0.702 -0.303,-0.916l-3.273,-2.43c0.051,0.038 0.076,0.118 0.054,0.184c-0.02,0.059 -0.078,0.1 -0.13,0.101l4.115,-0.102c0.354,-0.007 0.664,-0.224 0.785,-0.558l1.37,-3.755c-0.022,0.059 -0.079,0.098 -0.132,0.098Zm0,-1c-0.362,0 -0.682,0.219 -0.807,0.558l-1.37,3.756c0.021,-0.057 0.078,-0.097 0.131,-0.098l-4.117,0.102c-0.362,0.009 -0.676,0.234 -0.792,0.576c-0.119,0.348 0.001,0.721 0.297,0.941l3.272,2.429c-0.05,-0.037 -0.075,-0.114 -0.056,-0.178l-1.172,3.825c-0.108,0.353 0.024,0.723 0.327,0.933c0.295,0.204 0.677,0.208 0.975,0.01l3.386,-2.258c-0.044,0.029 -0.104,0.029 -0.147,0l3.385,2.258c0.298,0.198 0.68,0.194 0.974,-0.009c0.304,-0.211 0.436,-0.581 0.328,-0.933l-1.172,-3.826c0.019,0.064 -0.006,0.141 -0.055,0.178l3.271,-2.429c0.296,-0.22 0.416,-0.593 0.297,-0.942c-0.116,-0.341 -0.43,-0.566 -0.792,-0.575l-4.115,-0.102c0.051,0.001 0.108,0.041 0.129,0.098l-1.37,-3.755c-0.125,-0.34 -0.445,-0.559 -0.807,-0.559Z"/></clipPath><g clip-path="url(#_clip13)"><clipPath id="_clip14"><path d="M6.5,0c0.155,0 0.286,0.09 0.338,0.23l1.369,3.756c0.051,0.138 0.177,0.226 0.328,0.229l4.116,0.103c0.154,0.003 0.282,0.095 0.33,0.237c0.049,0.141 0.002,0.287 -0.121,0.379l-3.272,2.429c-0.119,0.089 -0.167,0.23 -0.124,0.369l1.172,3.826c0.044,0.143 -0.008,0.289 -0.134,0.376c-0.126,0.087 -0.286,0.088 -0.413,0.004l-3.385,-2.258c-0.125,-0.083 -0.283,-0.083 -0.408,0l-3.385,2.258c-0.127,0.084 -0.287,0.083 -0.413,-0.004c-0.126,-0.087 -0.178,-0.233 -0.134,-0.376l1.172,-3.826c0.043,-0.139 -0.005,-0.28 -0.124,-0.369l-3.272,-2.429c-0.123,-0.092 -0.17,-0.238 -0.121,-0.379c0.048,-0.142 0.176,-0.234 0.33,-0.237l4.116,-0.103c0.151,-0.003 0.277,-0.091 0.328,-0.229l1.369,-3.756c0.052,-0.14 0.183,-0.23 0.338,-0.23Z"/></clipPath><g clip-path="url(#_clip14)"><path d="M6.5,0c0.155,0 0.286,0.09 0.338,0.23l1.369,3.756c0.051,0.138 0.177,0.226 0.328,0.229l4.116,0.103c0.154,0.003 0.282,0.095 0.33,0.237c0.049,0.141 0.002,0.287 -0.121,0.379l-3.272,2.429c-0.119,0.089 -0.167,0.23 -0.124,0.369l1.172,3.826c0.044,0.143 -0.008,0.289 -0.134,0.376c-0.126,0.087 -0.286,0.088 -0.413,0.004l-3.385,-2.258c-0.125,-0.083 -0.283,-0.083 -0.408,0l-3.385,2.258c-0.127,0.084 -0.287,0.083 -0.413,-0.004c-0.126,-0.087 -0.178,-0.233 -0.134,-0.376l1.172,-3.826c0.043,-0.139 -0.005,-0.28 -0.124,-0.369l-3.272,-2.429c-0.123,-0.092 -0.17,-0.238 -0.121,-0.379c0.048,-0.142 0.176,-0.234 0.33,-0.237l4.116,-0.103c0.151,-0.003 0.277,-0.091 0.328,-0.229l1.369,-3.756c0.052,-0.14 0.183,-0.23 0.338,-0.23Z" style="fill:#e5e5e5;fill-rule:nonzero;"/></g></g></g><clipPath id="_clip15"><path d="M6.5,0c0.155,0 0.286,0.09 0.338,0.23l1.369,3.756c0.051,0.138 0.177,0.226 0.328,0.229l4.116,0.103c0.154,0.003 0.282,0.095 0.33,0.237c0.049,0.141 0.002,0.287 -0.121,0.379l-3.272,2.429c-0.119,0.089 -0.167,0.23 -0.124,0.369l1.172,3.826c0.044,0.143 -0.008,0.289 -0.134,0.376c-0.126,0.087 -0.286,0.088 -0.413,0.004l-3.385,-2.258c-0.125,-0.083 -0.283,-0.083 -0.408,0l-3.385,2.258c-0.127,0.084 -0.287,0.083 -0.413,-0.004c-0.126,-0.087 -0.178,-0.233 -0.134,-0.376l1.172,-3.826c0.043,-0.139 -0.005,-0.28 -0.124,-0.369l-3.272,-2.429c-0.123,-0.092 -0.17,-0.238 -0.121,-0.379c0.048,-0.142 0.176,-0.234 0.33,-0.237l4.116,-0.103c0.151,-0.003 0.277,-0.091 0.328,-0.229l1.369,-3.756c0.052,-0.14 0.183,-0.23 0.338,-0.23Z"/></clipPath><g clip-path="url(#_clip15)"><path d="M6.5,0c0.155,0 0.286,0.09 0.338,0.23l1.369,3.756c0.051,0.138 0.177,0.226 0.328,0.229l4.116,0.103c0.154,0.003 0.282,0.095 0.33,0.237c0.049,0.141 0.002,0.287 -0.121,0.379l-3.272,2.429c-0.119,0.089 -0.167,0.23 -0.124,0.369l1.172,3.826c0.044,0.143 -0.008,0.289 -0.134,0.376c-0.126,0.087 -0.286,0.088 -0.413,0.004l-3.385,-2.258c-0.125,-0.083 -0.283,-0.083 -0.408,0l-3.385,2.258c-0.127,0.084 -0.287,0.083 -0.413,-0.004c-0.126,-0.087 -0.178,-0.233 -0.134,-0.376l1.172,-3.826c0.043,-0.139 -0.005,-0.28 -0.124,-0.369l-3.272,-2.429c-0.123,-0.092 -0.17,-0.238 -0.121,-0.379c0.048,-0.142 0.176,-0.234 0.33,-0.237l4.116,-0.103c0.151,-0.003 0.277,-0.091 0.328,-0.229l1.369,-3.756c0.052,-0.14 0.183,-0.23 0.338,-0.23Z" style="fill:none;stroke:#d9d9d9;stroke-width:2px;"/></g></svg>