<?xml version="1.0" encoding="UTF-8" standalone="no"?><!DOCTYPE svg PUBLIC "-//W3C//DTD SVG 1.1//EN" "http://www.w3.org/Graphics/SVG/1.1/DTD/svg11.dtd"><svg width="100%" height="100%" viewBox="0 0 73 12" version="1.1" xmlns="http://www.w3.org/2000/svg" xmlns:xlink="http://www.w3.org/1999/xlink" xml:space="preserve" style="fill-rule:evenodd;clip-rule:evenodd;stroke-linejoin:round;stroke-miterlimit:1.41421;"><clipPath id="_clip1"><path d="M66.5,0c0.155,0 0.286,0.09 0.338,0.23l1.369,3.756c0.051,0.138 0.177,0.226 0.328,0.229l4.116,0.103c0.154,0.003 0.282,0.095 0.33,0.237c0.049,0.141 0.002,0.287 -0.121,0.379l-3.272,2.429c-0.119,0.089 -0.167,0.23 -0.124,0.369l1.172,3.826c0.044,0.143 -0.008,0.289 -0.134,0.376c-0.126,0.087 -0.286,0.088 -0.413,0.004l-3.385,-2.258c-0.125,-0.083 -0.283,-0.083 -0.408,0l-3.385,2.258c-0.127,0.084 -0.287,0.083 -0.413,-0.004c-0.126,-0.087 -0.178,-0.233 -0.134,-0.376l1.172,-3.826c0.043,-0.139 -0.005,-0.28 -0.124,-0.369l-3.272,-2.429c-0.123,-0.092 -0.17,-0.238 -0.121,-0.379c0.048,-0.142 0.176,-0.234 0.33,-0.237l4.116,-0.103c0.151,-0.003 0.277,-0.091 0.328,-0.229l1.369,-3.756c0.052,-0.14 0.183,-0.23 0.338,-0.23Z"/></clipPath><g clip-path="url(#_clip1)"><rect x="55" y="-5" width="23" height="22" style="fill:#f0ad4e;fill-rule:nonzero;"/></g><clipPath id="_clip2"><path d="M51.5,0c0.155,0 0.286,0.09 0.338,0.23l1.369,3.756c0.051,0.138 0.177,0.226 0.328,0.229l4.116,0.103c0.154,0.003 0.282,0.095 0.33,0.237c0.049,0.141 0.002,0.287 -0.121,0.379l-3.272,2.429c-0.119,0.089 -0.167,0.23 -0.124,0.369l1.172,3.826c0.044,0.143 -0.008,0.289 -0.134,0.376c-0.126,0.087 -0.286,0.088 -0.413,0.004l-3.385,-2.258c-0.125,-0.083 -0.283,-0.083 -0.408,0l-3.385,2.258c-0.127,0.084 -0.287,0.083 -0.413,-0.004c-0.126,-0.087 -0.178,-0.233 -0.134,-0.376l1.172,-3.826c0.043,-0.139 -0.005,-0.28 -0.124,-0.369l-3.272,-2.429c-0.123,-0.092 -0.17,-0.238 -0.121,-0.379c0.048,-0.142 0.176,-0.234 0.33,-0.237l4.116,-0.103c0.151,-0.003 0.277,-0.091 0.328,-0.229l1.369,-3.756c0.052,-0.14 0.183,-0.23 0.338,-0.23Z"/></clipPath><g clip-path="url(#_clip2)"><rect x="40" y="-5" width="23" height="22" style="fill:#f0ad4e;fill-rule:nonzero;"/></g><clipPath id="_clip3"><path d="M36.5,0c0.155,0 0.286,0.09 0.338,0.23l1.369,3.756c0.051,0.138 0.177,0.226 0.328,0.229l4.116,0.103c0.154,0.003 0.282,0.095 0.33,0.237c0.049,0.141 0.002,0.287 -0.121,0.379l-3.272,2.429c-0.119,0.089 -0.167,0.23 -0.124,0.369l1.172,3.826c0.044,0.143 -0.008,0.289 -0.134,0.376c-0.126,0.087 -0.286,0.088 -0.413,0.004l-3.385,-2.258c-0.125,-0.083 -0.283,-0.083 -0.408,0l-3.385,2.258c-0.127,0.084 -0.287,0.083 -0.413,-0.004c-0.126,-0.087 -0.178,-0.233 -0.134,-0.376l1.172,-3.826c0.043,-0.139 -0.005,-0.28 -0.124,-0.369l-3.272,-2.429c-0.123,-0.092 -0.17,-0.238 -0.121,-0.379c0.048,-0.142 0.176,-0.234 0.33,-0.237l4.116,-0.103c0.151,-0.003 0.277,-0.091 0.328,-0.229l1.369,-3.756c0.052,-0.14 0.183,-0.23 0.338,-0.23Z"/></clipPath><g clip-path="url(#_clip3)"><rect x="25" y="-5" width="23" height="22" style="fill:#f0ad4e;fill-rule:nonzero;"/></g><clipPath id="_clip4"><path d="M21.5,0c0.155,0 0.286,0.09 0.338,0.23l1.369,3.756c0.051,0.138 0.177,0.226 0.328,0.229l4.116,0.103c0.154,0.003 0.282,0.095 0.33,0.237c0.049,0.141 0.002,0.287 -0.121,0.379l-3.272,2.429c-0.119,0.089 -0.167,0.23 -0.124,0.369l1.172,3.826c0.044,0.143 -0.008,0.289 -0.134,0.376c-0.126,0.087 -0.286,0.088 -0.413,0.004l-3.385,-2.258c-0.125,-0.083 -0.283,-0.083 -0.408,0l-3.385,2.258c-0.127,0.084 -0.287,0.083 -0.413,-0.004c-0.126,-0.087 -0.178,-0.233 -0.134,-0.376l1.172,-3.826c0.043,-0.139 -0.005,-0.28 -0.124,-0.369l-3.272,-2.429c-0.123,-0.092 -0.17,-0.238 -0.121,-0.379c0.048,-0.142 0.176,-0.234 0.33,-0.237l4.116,-0.103c0.151,-0.003 0.277,-0.091 0.328,-0.229l1.369,-3.756c0.052,-0.14 0.183,-0.23 0.338,-0.23Z"/></clipPath><g clip-path="url(#_clip4)"><rect x="10" y="-5" width="23" height="22" style="fill:#f0ad4e;fill-rule:nonzero;"/></g><clipPath id="_clip5"><path d="M6.5,0c0.155,0 0.286,0.09 0.338,0.23l1.369,3.756c0.051,0.138 0.177,0.226 0.328,0.229l4.116,0.103c0.154,0.003 0.282,0.095 0.33,0.237c0.049,0.141 0.002,0.287 -0.121,0.379l-3.272,2.429c-0.119,0.089 -0.167,0.23 -0.124,0.369l1.172,3.826c0.044,0.143 -0.008,0.289 -0.134,0.376c-0.126,0.087 -0.286,0.088 -0.413,0.004l-3.385,-2.258c-0.125,-0.083 -0.283,-0.083 -0.408,0l-3.385,2.258c-0.127,0.084 -0.287,0.083 -0.413,-0.004c-0.126,-0.087 -0.178,-0.233 -0.134,-0.376l1.172,-3.826c0.043,-0.139 -0.005,-0.28 -0.124,-0.369l-3.272,-2.429c-0.123,-0.092 -0.17,-0.238 -0.121,-0.379c0.048,-0.142 0.176,-0.234 0.33,-0.237l4.116,-0.103c0.151,-0.003 0.277,-0.091 0.328,-0.229l1.369,-3.756c0.052,-0.14 0.183,-0.23 0.338,-0.23Z"/></clipPath><g clip-path="url(#_clip5)"><rect x="-5" y="-5" width="23" height="22" style="fill:#f0ad4e;fill-rule:nonzero;"/></g></svg>