<svg width="331" height="78" viewBox="0 0 331 78" fill="none" xmlns="http://www.w3.org/2000/svg">
<path d="M110.85 48.673V52.379H93V28.579H110.374V32.285H97.42V38.473H108.912V42.111H97.42V48.673H110.85Z" fill="white"/>
<path d="M123.155 52.719C121.319 52.719 119.54 52.4583 117.817 51.937C116.117 51.4157 114.769 50.7243 113.771 49.863L115.301 46.429C116.276 47.1997 117.466 47.8343 118.871 48.333C120.299 48.809 121.727 49.047 123.155 49.047C124.923 49.047 126.238 48.7637 127.099 48.197C127.983 47.6303 128.425 46.8823 128.425 45.953C128.425 45.273 128.176 44.7177 127.677 44.287C127.201 43.8337 126.589 43.4823 125.841 43.233C125.093 42.9837 124.073 42.7003 122.781 42.383C120.968 41.9523 119.495 41.5217 118.361 41.091C117.251 40.6603 116.287 39.9917 115.471 39.085C114.678 38.1557 114.281 36.909 114.281 35.345C114.281 34.0303 114.633 32.8403 115.335 31.775C116.061 30.687 117.137 29.8257 118.565 29.191C120.016 28.5563 121.784 28.239 123.869 28.239C125.32 28.239 126.748 28.4203 128.153 28.783C129.559 29.1457 130.771 29.667 131.791 30.347L130.397 33.781C129.355 33.169 128.267 32.7043 127.133 32.387C126 32.0697 124.901 31.911 123.835 31.911C122.09 31.911 120.787 32.2057 119.925 32.795C119.087 33.3843 118.667 34.1663 118.667 35.141C118.667 35.821 118.905 36.3763 119.381 36.807C119.88 37.2377 120.503 37.5777 121.251 37.827C121.999 38.0763 123.019 38.3597 124.311 38.677C126.079 39.085 127.53 39.5157 128.663 39.969C129.797 40.3997 130.76 41.0683 131.553 41.975C132.369 42.8817 132.777 44.1057 132.777 45.647C132.777 46.9617 132.415 48.1517 131.689 49.217C130.987 50.2823 129.91 51.1323 128.459 51.767C127.009 52.4017 125.241 52.719 123.155 52.719Z" fill="white"/>
<path d="M144.538 52.719C142.702 52.719 140.923 52.4583 139.2 51.937C137.5 51.4157 136.151 50.7243 135.154 49.863L136.684 46.429C137.659 47.1997 138.849 47.8343 140.254 48.333C141.682 48.809 143.11 49.047 144.538 49.047C146.306 49.047 147.621 48.7637 148.482 48.197C149.366 47.6303 149.808 46.8823 149.808 45.953C149.808 45.273 149.559 44.7177 149.06 44.287C148.584 43.8337 147.972 43.4823 147.224 43.233C146.476 42.9837 145.456 42.7003 144.164 42.383C142.351 41.9523 140.877 41.5217 139.744 41.091C138.633 40.6603 137.67 39.9917 136.854 39.085C136.061 38.1557 135.664 36.909 135.664 35.345C135.664 34.0303 136.015 32.8403 136.718 31.775C137.443 30.687 138.52 29.8257 139.948 29.191C141.399 28.5563 143.167 28.239 145.252 28.239C146.703 28.239 148.131 28.4203 149.536 28.783C150.941 29.1457 152.154 29.667 153.174 30.347L151.78 33.781C150.737 33.169 149.649 32.7043 148.516 32.387C147.383 32.0697 146.283 31.911 145.218 31.911C143.473 31.911 142.169 32.2057 141.308 32.795C140.469 33.3843 140.05 34.1663 140.05 35.141C140.05 35.821 140.288 36.3763 140.764 36.807C141.263 37.2377 141.886 37.5777 142.634 37.827C143.382 38.0763 144.402 38.3597 145.694 38.677C147.462 39.085 148.913 39.5157 150.046 39.969C151.179 40.3997 152.143 41.0683 152.936 41.975C153.752 42.8817 154.16 44.1057 154.16 45.647C154.16 46.9617 153.797 48.1517 153.072 49.217C152.369 50.2823 151.293 51.1323 149.842 51.767C148.391 52.4017 146.623 52.719 144.538 52.719Z" fill="white"/>
<path d="M173.979 46.871H162.079L159.733 52.379H155.177L165.887 28.579H170.239L180.983 52.379H176.359L173.979 46.871ZM172.517 43.403L168.029 32.999L163.575 43.403H172.517Z" fill="white"/>
<path d="M192.85 43.981V52.379H188.43V44.049L179.08 28.579H183.806L190.776 40.173L197.814 28.579H202.166L192.85 43.981Z" fill="white"/>
<path d="M215.302 28.647C217.41 28.647 219.235 28.9983 220.776 29.701C222.34 30.4037 223.541 31.401 224.38 32.693C225.219 33.985 225.638 35.515 225.638 37.283C225.638 39.0283 225.219 40.5583 224.38 41.873C223.541 43.165 222.34 44.1623 220.776 44.865C219.235 45.545 217.41 45.885 215.302 45.885H210.508V52.447H205V28.647H215.302ZM214.996 41.397C216.651 41.397 217.909 41.0457 218.77 40.343C219.631 39.6177 220.062 38.5977 220.062 37.283C220.062 35.9457 219.631 34.9257 218.77 34.223C217.909 33.4977 216.651 33.135 214.996 33.135H210.508V41.397H214.996Z" fill="#F0AD4E"/>
<path d="M244.734 52.447L240.144 45.817H235.078V52.447H229.57V28.647H239.872C241.98 28.647 243.805 28.9983 245.346 29.701C246.91 30.4037 248.112 31.401 248.95 32.693C249.789 33.985 250.208 35.515 250.208 37.283C250.208 39.051 249.778 40.581 248.916 41.873C248.078 43.1423 246.876 44.117 245.312 44.797L250.65 52.447H244.734ZM244.632 37.283C244.632 35.9457 244.202 34.9257 243.34 34.223C242.479 33.4977 241.221 33.135 239.566 33.135H235.078V41.431H239.566C241.221 41.431 242.479 41.0683 243.34 40.343C244.202 39.6177 244.632 38.5977 244.632 37.283Z" fill="#F0AD4E"/>
<path d="M266.098 52.855C263.628 52.855 261.395 52.3223 259.4 51.257C257.428 50.1917 255.876 48.7297 254.742 46.871C253.632 44.9897 253.076 42.8817 253.076 40.547C253.076 38.2123 253.632 36.1157 254.742 34.257C255.876 32.3757 257.428 30.9023 259.4 29.837C261.395 28.7717 263.628 28.239 266.098 28.239C268.569 28.239 270.79 28.7717 272.762 29.837C274.734 30.9023 276.287 32.3757 277.42 34.257C278.554 36.1157 279.12 38.2123 279.12 40.547C279.12 42.8817 278.554 44.9897 277.42 46.871C276.287 48.7297 274.734 50.1917 272.762 51.257C270.79 52.3223 268.569 52.855 266.098 52.855ZM266.098 48.163C267.504 48.163 268.773 47.8457 269.906 47.211C271.04 46.5537 271.924 45.647 272.558 44.491C273.216 43.335 273.544 42.0203 273.544 40.547C273.544 39.0737 273.216 37.759 272.558 36.603C271.924 35.447 271.04 34.5517 269.906 33.917C268.773 33.2597 267.504 32.931 266.098 32.931C264.693 32.931 263.424 33.2597 262.29 33.917C261.157 34.5517 260.262 35.447 259.604 36.603C258.97 37.759 258.652 39.0737 258.652 40.547C258.652 42.0203 258.97 43.335 259.604 44.491C260.262 45.647 261.157 46.5537 262.29 47.211C263.424 47.8457 264.693 48.163 266.098 48.163Z" fill="#F0AD4E"/>
<path fill-rule="evenodd" clip-rule="evenodd" d="M0 39.0226C0 17.45 17.4619 0 39 0C60.5381 0 78 17.45 78 39.0226C78 60.5516 60.5381 78 39 78C17.4619 78 0 60.5516 0 39.0226ZM3.46631 39.0224C3.46631 58.6038 19.4047 74.5333 39 74.5333C58.5961 74.5333 74.533 58.6038 74.533 39.0224C74.533 19.3962 58.5961 3.46667 39 3.46667C19.4047 3.46667 3.46631 19.3962 3.46631 39.0224ZM17.7436 31.9717C17.7436 31.9717 17.2306 31.8438 17.1511 31.4543C17.0716 31.0648 17.4791 30.6751 17.4791 30.6751L48.088 23.7161C48.088 23.7161 48.6566 23.8572 48.7401 24.2031C48.8235 24.549 48.373 24.8971 48.373 24.8971L17.7436 31.9717ZM19.481 38.8965C19.481 38.8965 18.9679 38.7686 18.8884 38.3791C18.809 37.9897 19.2164 37.5999 19.2164 37.5999L49.8254 30.6409C49.8254 30.6409 50.394 30.782 50.4774 31.1279C50.5608 31.4738 50.1103 31.8219 50.1103 31.8219L19.481 38.8965ZM21.0428 46.5233C21.0428 46.5233 20.5298 46.3955 20.4503 46.006C20.3708 45.6165 20.7783 45.2268 20.7783 45.2268L37.4834 41.2684C37.4834 41.2684 38.052 41.4095 38.1354 41.7554C38.2189 42.1013 37.7683 42.4494 37.7683 42.4494L21.0428 46.5233ZM13.9821 21.9115C12.0983 22.3436 10.9219 24.2222 11.3546 26.1058C11.3867 26.2455 11.4132 26.3607 11.4319 26.4423C11.719 27.6917 12.006 28.9411 12.293 30.1905C12.8872 32.777 13.5553 35.6851 14.0154 37.6877C14.7294 40.7959 16.3529 47.7996 17.4786 52.6516C18.1331 55.4727 20.9491 57.2284 23.7708 56.5766L53.9614 49.6031C56.7954 48.9485 58.5571 46.116 57.89 43.2849C56.7522 38.4565 55.1209 31.5189 54.409 28.4215C53.9487 26.4189 53.2802 23.5108 52.6857 20.9243C52.3613 19.5129 52.0589 18.1969 51.8242 17.1761C51.8001 17.0711 51.7739 16.9573 51.7462 16.8368C51.3135 14.9542 49.4368 13.7779 47.554 14.2098L13.9821 21.9115ZM60.8831 49.1551L46.9483 61.8037L46.9551 61.8121C46.8964 61.8579 46.8362 61.9059 46.7797 61.9585C45.4566 63.1581 45.2599 65.0932 46.3389 66.2798C47.4142 67.4635 49.3611 67.452 50.6842 66.2516C50.778 66.164 50.8672 66.0718 50.9526 65.9796L64.7708 53.4331L60.8831 49.1551ZM68.2094 46.4886L66.7315 49.7163L65.3177 53.021L63.3715 50.8801L61.4117 48.7225L64.854 47.6524L68.2094 46.4886Z" fill="#F0AD4E"/>
<path d="M280.641 52.9417C280.187 52.9417 279.801 52.7926 279.48 52.4944C279.16 52.1833 279 51.7944 279 51.3278C279 50.8481 279.153 50.4593 279.46 50.1611C279.781 49.863 280.174 49.7139 280.641 49.7139C281.108 49.7139 281.495 49.863 281.802 50.1611C282.122 50.4593 282.282 50.8481 282.282 51.3278C282.282 51.7944 282.122 52.1833 281.802 52.4944C281.482 52.7926 281.095 52.9417 280.641 52.9417Z" fill="white"/>
<path d="M291.06 53C289.646 53 288.365 52.7019 287.217 52.1056C286.083 51.4963 285.19 50.6602 284.536 49.5972C283.895 48.5343 283.575 47.3352 283.575 46C283.575 44.6648 283.902 43.4657 284.556 42.4028C285.21 41.3398 286.103 40.5102 287.238 39.9139C288.385 39.3046 289.666 39 291.08 39C292.227 39 293.275 39.1944 294.222 39.5833C295.169 39.9722 295.97 40.5361 296.624 41.275L294.942 42.8111C293.928 41.7481 292.681 41.2167 291.2 41.2167C290.239 41.2167 289.379 41.4241 288.618 41.8389C287.858 42.2407 287.264 42.8046 286.837 43.5306C286.41 44.2565 286.197 45.0796 286.197 46C286.197 46.9204 286.41 47.7435 286.837 48.4694C287.264 49.1954 287.858 49.7657 288.618 50.1806C289.379 50.5824 290.239 50.7833 291.2 50.7833C292.681 50.7833 293.928 50.2454 294.942 49.1694L296.624 50.725C295.97 51.4639 295.163 52.0278 294.202 52.4167C293.255 52.8056 292.207 53 291.06 53Z" fill="white"/>
<path d="M305.367 53C303.94 53 302.652 52.7019 301.505 52.1056C300.358 51.4963 299.457 50.6602 298.803 49.5972C298.15 48.5213 297.823 47.3222 297.823 46C297.823 44.6778 298.15 43.4852 298.803 42.4222C299.457 41.3463 300.358 40.5102 301.505 39.9139C302.652 39.3046 303.94 39 305.367 39C306.795 39 308.083 39.3046 309.23 39.9139C310.377 40.5102 311.278 41.3398 311.932 42.4028C312.585 43.4657 312.912 44.6648 312.912 46C312.912 47.3352 312.585 48.5343 311.932 49.5972C311.278 50.6602 310.377 51.4963 309.23 52.1056C308.083 52.7019 306.795 53 305.367 53ZM305.367 50.7833C306.301 50.7833 307.142 50.5824 307.889 50.1806C308.636 49.7657 309.223 49.1954 309.65 48.4694C310.077 47.7306 310.291 46.9074 310.291 46C310.291 45.0926 310.077 44.2759 309.65 43.55C309.223 42.8111 308.636 42.2407 307.889 41.8389C307.142 41.4241 306.301 41.2167 305.367 41.2167C304.434 41.2167 303.593 41.4241 302.846 41.8389C302.099 42.2407 301.512 42.8111 301.085 43.55C300.658 44.2759 300.444 45.0926 300.444 46C300.444 46.9074 300.658 47.7306 301.085 48.4694C301.512 49.1954 302.099 49.7657 302.846 50.1806C303.593 50.5824 304.434 50.7833 305.367 50.7833Z" fill="white"/>
<path d="M328.538 52.8056L328.518 43.7833L323.915 51.25H322.755L318.152 43.9V52.8056H315.67V39.1944H317.811L323.375 48.2167L328.839 39.1944H330.98L331 52.8056H328.538Z" fill="white"/>
</svg>
